<?xml version="1.0" encoding="UTF-8"?>
<svg width="22px" height="22px" viewBox="0 0 22 22" version="1.1" xmlns="http://www.w3.org/2000/svg" xmlns:xlink="http://www.w3.org/1999/xlink">
    <!-- Generator: Sketch 50.2 (55047) - http://www.bohemiancoding.com/sketch -->
    <title>Icons/Solid/exclamation-triangle</title>
    <desc>Created with Sketch.</desc>
    <defs>
        <path d="M23.4947917,13 C23.4947917,18.7961296 18.7961296,23.4947917 13,23.4947917 C7.20387044,23.4947917 2.50520833,18.7961296 2.50520833,13 C2.50520833,7.20387044 7.20387044,2.50520833 13,2.50520833 C18.7961296,2.50520833 23.4947917,7.20387044 23.4947917,13 Z M11.7860742,18.5569076 L19.5725326,10.7704492 C19.8369336,10.5060482 19.8369336,10.0773275 19.5725326,9.81292643 L18.6150098,8.85540365 C18.3506087,8.59096029 17.921888,8.59096029 17.6574447,8.85540365 L11.3072917,15.2055143 L8.34255534,12.240778 C8.0781543,11.976377 7.64943359,11.976377 7.38499023,12.240778 L6.42746745,13.1983008 C6.16306641,13.4627018 6.16306641,13.8914225 6.42746745,14.1558236 L10.8285091,18.5568652 C11.0929525,18.8213086 11.5216309,18.8213086 11.7860742,18.5569076 Z" id="path-1"></path>
    </defs>
    <g id="Settings---Advanced---VPN" stroke="none" stroke-width="1" fill="none" fill-rule="evenodd">
        <g transform="translate(-650.000000, -655.000000)" id="Icons/Solid/check-circle">
            <g transform="translate(648.000000, 653.000000)">
                <mask id="mask-2" fill="white">
                    <use xlink:href="#path-1"></use>
                </mask>
                <use id="check-circle" fill="#000000" fill-rule="nonzero" xlink:href="#path-1"></use>
                <g id="Colors/Primary" mask="url(#mask-2)" fill="#90CE00" fill-rule="evenodd">
                    <rect id="Rectangle" x="0" y="0" width="26" height="26"></rect>
                </g>
            </g>
        </g>
    </g>
</svg>