<?xml version="1.0" encoding="UTF-8"?>
<svg width="84px" height="76px" viewBox="0 0 84 76" version="1.1" xmlns="http://www.w3.org/2000/svg" xmlns:xlink="http://www.w3.org/1999/xlink">
    <!-- Generator: Sketch 50.2 (55047) - http://www.bohemiancoding.com/sketch -->
    <title>Icons/Solid/exclamation-triangle</title>
    <desc>Created with Sketch.</desc>
    <defs>
        <path d="M90.728742,76.9550294 C93.3991689,81.6416504 90.0471741,87.5 84.713554,87.5 L15.2856372,87.5 C9.94174518,87.5 6.60523064,81.6325684 9.27044922,76.9550294 L43.9848417,16.0134284 C46.6565707,11.3246101 53.3482629,11.3331062 56.0152176,16.0134284 L90.728742,76.9550294 Z M50.0000296,64.355469 C46.3245396,64.355469 43.3449404,67.3723146 43.3449404,71.0937502 C43.3449404,74.8151857 46.3245396,77.8320313 50.0000296,77.8320313 C53.6755197,77.8320313 56.6551189,74.8151857 56.6551189,71.0937502 C56.6551189,67.3723146 53.6755197,64.355469 50.0000296,64.355469 Z M43.6816011,40.1348637 L44.7548066,60.0567385 C44.8050091,60.9889651 45.5662934,61.7187502 46.4883126,61.7187502 L53.5117466,61.7187502 C54.4337659,61.7187502 55.1950502,60.9889651 55.2452527,60.0567385 L56.3184582,40.1348637 C56.3727117,39.1279302 55.5809007,38.2812505 54.5849521,38.2812505 L45.4149625,38.2812505 C44.4190139,38.2812505 43.6273476,39.1279302 43.6816011,40.1348637 Z" id="path-1"></path>
    </defs>
    <g id="Settings---Advanced---Networks" stroke="none" stroke-width="1" fill="none" fill-rule="evenodd">
        <g id="wy360(16)x240(16)" transform="translate(-2185.000000, -1916.000000)">
            <g id="MNS-Dialog-Copy-2" transform="translate(1733.000000, 1692.000000)">
                <g id="Icons/Solid/exclamation-triangle" transform="translate(444.000000, 212.000000)">
                    <mask id="mask-2" fill="white">
                        <use xlink:href="#path-1"></use>
                    </mask>
                    <use id="exclamation-triangle" fill="#000000" fill-rule="nonzero" xlink:href="#path-1"></use>
                    <g id="Colors/6th" mask="url(#mask-2)" fill="#F5A623" fill-rule="evenodd">
                        <rect id="Rectangle" x="0" y="0" width="100" height="100"></rect>
                    </g>
                </g>
            </g>
        </g>
    </g>
</svg>