<?xml version="1.0" standalone="no"?>
<!DOCTYPE svg PUBLIC "-//W3C//DTD SVG 1.1//EN" "http://www.w3.org/Graphics/SVG/1.1/DTD/svg11.dtd" >
<svg xmlns="http://www.w3.org/2000/svg" xmlns:xlink="http://www.w3.org/1999/xlink" version="1.1">
<metadata>
Created by FontForge 20170730 at Tue Dec 10 20:13:05 2019
 By inseego,,,
Copyright Saudi Telecom Company
</metadata>
<font id="STCForward-Bold" horiz-adv-x="0" >
  <font-face 
    font-family="STC Forward"
    font-weight="700"
    font-stretch="normal"
    units-per-em="1000"
    panose-1="0 0 8 0 0 0 0 0 0 0"
    ascent="800"
    descent="-200"
    x-height="516"
    cap-height="750"
    bbox="-436 -443 1417 999"
    underline-thickness="50"
    underline-position="-100"
    stemh="149"
    stemv="165"
    unicode-range="U+0020-FEFC"
<missing-glyph horiz-adv-x="850" 
d="M53 0v750h743v-750h-743zM167 108h516v534h-516v-534zM524 199l-103 103l-104 -104l-67 69l102 103l-102 104l67 69l104 -104l103 103l68 -68l-102 -104l102 -103z" />
    <glyph glyph-name="f_b" unicode="fb" horiz-adv-x="1070" 
d="M110 589c0 100 59 161 183 161h167v-138h-141c-25 0 -39 -13 -39 -39v-57h135v-141h-135v-375h-170v375h-80v141h80v73zM804 530c139 0 227 -111 227 -271c0 -164 -88 -273 -229 -273c-60 0 -107 20 -139 59v-45h-165v750h165v-279c33 37 80 59 141 59zM761 137
c65 0 104 42 104 122c0 77 -39 119 -103 119c-48 0 -80 -25 -99 -61v-120c18 -35 52 -60 98 -60z" />
    <glyph glyph-name="f_f" unicode="ff" horiz-adv-x="825" 
d="M110 0v375h-80v141h80v73c0 100 59 161 183 161h167v-138h-141c-25 0 -39 -13 -39 -39v-57h90v-141h-90v-375h-170zM495 0v375h-79v141h79v73c0 100 59 161 183 161h167v-138h-140c-25 0 -39 -13 -39 -39v-57h135v-141h-135v-375h-171z" />
    <glyph glyph-name="f_f_b" unicode="ffb" horiz-adv-x="1456" 
d="M280 573v-57h87v-141h-87v-375h-170v375h-80v141h80v73c0 100 59 161 183 161h167v-138h-141c-25 0 -39 -13 -39 -39zM495 589c0 100 59 161 183 161h167v-138h-140c-25 0 -39 -13 -39 -39v-57h135v-141h-135v-375h-171v375h-80v141h80v73zM1190 530
c139 0 227 -111 227 -271c0 -164 -89 -273 -230 -273c-59 0 -106 20 -138 58v-44h-165v750h165v-278c33 36 80 58 141 58zM1147 137c64 0 104 42 104 122c0 77 -39 119 -103 119c-48 0 -81 -25 -99 -60v-121c18 -35 51 -60 98 -60z" />
    <glyph glyph-name="f_f_h" unicode="ffh" horiz-adv-x="1453" 
d="M280 573v-57h91v-141h-91v-375h-170v375h-80v141h80v73c0 100 59 161 183 161h167v-138h-141c-25 0 -39 -13 -39 -39zM495 589c0 100 59 161 183 161h167v-138h-140c-25 0 -39 -13 -39 -39v-57h135v-141h-135v-375h-171v375h-80v141h80v73zM1223 530
c110 0 178 -73 178 -189v-341h-171v287c0 55 -24 91 -82 91c-40 0 -80 -23 -100 -55v-323h-170v750h170v-291c42 45 105 71 175 71z" />
    <glyph glyph-name="f_f_i" unicode="ffi" horiz-adv-x="1136" 
d="M110 0v375h-80v141h80v73c0 100 59 161 183 161h167v-138h-141c-25 0 -39 -13 -39 -39v-57h90v-141h-90v-375h-170zM495 0v375h-79v141h79v73c0 100 59 161 183 161h167v-138h-140c-25 0 -39 -13 -39 -39v-57h135v-141h-135v-375h-171zM1080 596h-170v154h170v-154z
M910 0v375h-63v141h233v-516h-170z" />
    <glyph glyph-name="f_f_j" unicode="ffj" horiz-adv-x="1136" 
d="M110 0v375h-80v141h80v73c0 100 59 161 183 161h167v-138h-141c-25 0 -39 -13 -39 -39v-57h91v-141h-91v-375h-170zM495 0v375h-80v141h80v73c0 100 59 161 183 161h167v-138h-140c-25 0 -39 -13 -39 -39v-57h87v-141h-87v-375h-171zM1080 596h-170v154h170v-154z
M745 -200v141h130c22 0 35 12 35 37v397h-109v141h279v-555c0 -100 -57 -161 -178 -161h-157z" />
    <glyph glyph-name="f_f_k" unicode="ffk" horiz-adv-x="1418" 
d="M280 573v-57h93v-141h-93v-375h-170v375h-80v141h80v73c0 100 59 161 183 161h167v-138h-141c-25 0 -39 -13 -39 -39zM495 589c0 100 59 161 183 161h167v-138h-140c-25 0 -39 -13 -39 -39v-57h135v-141h-135v-375h-171v375h-80v141h80v73zM1216 0l-121 201h-47v-201
h-170v750h170v-419h46l118 185h183l-158 -242l169 -274h-190z" />
    <glyph glyph-name="f_f_l" unicode="ffl" horiz-adv-x="1171" 
d="M110 0v375h-80v141h80v73c0 100 59 161 183 161h167v-138h-141c-25 0 -39 -13 -39 -39v-57h90v-141h-90v-375h-170zM495 0v375h-79v141h79v73c0 100 59 161 183 161h167v-138h-140c-25 0 -39 -13 -39 -39v-57h135v-141h-135v-375h-171zM1149 0h-85
c-115 0 -171 61 -171 161v589h171v-573c0 -24 12 -36 34 -36h51v-141z" />
    <glyph glyph-name="f_h" unicode="fh" horiz-adv-x="1067" 
d="M110 589c0 100 59 161 183 161h167v-138h-141c-25 0 -39 -13 -39 -39v-57h135v-141h-135v-375h-170v375h-80v141h80v73zM837 530c111 0 178 -73 178 -189v-341h-170v287c0 55 -25 91 -82 91c-40 0 -80 -22 -100 -54v-324h-170v750h170v-290c42 44 105 70 174 70z" />
    <glyph glyph-name="f_idieresis" unicode="f&#xef;" horiz-adv-x="751" 
d="M280 573v-57h90v-141h-90v-375h-170v375h-80v141h80v73c0 100 59 161 183 161h239v-152h-117v14h-96c-25 0 -39 -13 -39 -39zM579 750h117v-152h-117v152zM415 375v141h279v-516h-169v375h-110z" />
    <glyph glyph-name="f_j" unicode="fj" horiz-adv-x="751" 
d="M110 0v375h-80v141h80v73c0 100 59 161 183 161h167v-138h-141c-25 0 -39 -13 -39 -39v-57h87v-141h-87v-375h-170zM694 596h-169v154h169v-154zM360 -200v141h129c22 0 36 12 36 37v397h-110v141h279v-555c0 -100 -57 -161 -178 -161h-156z" />
    <glyph glyph-name="f_k" unicode="fk" horiz-adv-x="1032" 
d="M110 589c0 100 59 161 183 161h167v-138h-141c-25 0 -39 -13 -39 -39v-57h135v-141h-135v-375h-170v375h-80v141h80v73zM831 0l-121 201h-47v-201h-170v750h170v-419h46l117 185h183l-157 -242l168 -274h-189z" />
    <glyph glyph-name="fi" unicode="fi" horiz-adv-x="751" 
d="M110 0v375h-80v141h80v73c0 100 59 161 183 161h167v-138h-141c-25 0 -39 -13 -39 -39v-57h106v-141h-106v-375h-170zM694 596h-169v154h169v-154zM525 0v375h-82v141h251v-516h-169z" />
    <glyph glyph-name="fl" unicode="fl" horiz-adv-x="786" 
d="M110 0v375h-80v141h80v73c0 100 59 161 183 161h167v-138h-141c-25 0 -39 -13 -39 -39v-57h135v-141h-135v-375h-170zM763 0h-84c-116 0 -171 61 -171 161v589h170v-573c0 -24 12 -36 34 -36h51v-141z" />
    <glyph glyph-name="uniFEFB" unicode="&#xfedf;&#xfe8e;" horiz-adv-x="670" arabic-form="isolated" 
d="M471 713h141v-488c0 -156 -54 -225 -209 -225h-376v172h163v380h141v-380h76c45 0 64 5 64 51v490z" />
    <glyph glyph-name="uniFEFC" unicode="&#xfee0;&#xfe8e;" horiz-adv-x="692" arabic-form="final" 
d="M692 172l17 -10v-152l-17 -10c-66 0 -107 17 -130 50c-33 -34 -84 -50 -159 -50h-376v172h163v380h141v-380h76c45 0 64 5 64 51v490h141v-488c0 -15 0 -29 -2 -42c15 -11 42 -11 82 -11z" />
    <glyph glyph-name="uniFEF7" unicode="&#xfedf;&#xfe84;" horiz-adv-x="670" arabic-form="isolated" 
d="M354 698v-77h-201v69h28c-8 9 -14 23 -14 46c0 61 45 92 107 92c40 0 70 -13 70 -13l-13 -68s-27 5 -57 5c-27 0 -45 -9 -45 -28c0 -17 7 -26 35 -26h90zM471 713h141v-488c0 -156 -54 -225 -209 -225h-376v172h163v380h141v-380h76c45 0 64 5 64 51v490z" />
    <glyph glyph-name="uniFEF8" unicode="&#xfee0;&#xfe84;" horiz-adv-x="692" arabic-form="final" 
d="M354 698v-77h-201v69h28c-8 9 -14 23 -14 46c0 61 45 92 107 92c40 0 70 -13 70 -13l-13 -68s-27 5 -57 5c-27 0 -45 -9 -45 -28c0 -17 7 -26 35 -26h90zM692 172l17 -10v-152l-17 -10c-66 0 -107 17 -130 50c-33 -34 -84 -50 -159 -50h-376v172h163v380h141v-380h76
c45 0 64 5 64 51v490h141v-488c0 -15 0 -29 -2 -42c15 -11 42 -11 82 -11z" />
    <glyph glyph-name="uniFEF9" unicode="&#xfedf;&#xfe88;" horiz-adv-x="670" arabic-form="isolated" 
d="M471 713h141v-488c0 -156 -54 -225 -209 -225h-376v172h163v380h141v-380h76c45 0 64 5 64 51v490zM216 -147c0 -17 7 -26 35 -26h90v-77h-201v69h28c-8 9 -14 23 -14 46c0 61 45 92 107 92c40 0 70 -13 70 -13l-13 -68s-27 5 -57 5c-27 0 -45 -9 -45 -28z" />
    <glyph glyph-name="uniFEFA" unicode="&#xfee0;&#xfe88;" horiz-adv-x="692" arabic-form="final" 
d="M692 172l17 -10v-152l-17 -10c-66 0 -107 17 -130 50c-33 -34 -84 -50 -159 -50h-376v172h163v380h141v-380h76c45 0 64 5 64 51v490h141v-488c0 -15 0 -29 -2 -42c15 -11 42 -11 82 -11zM217 -147c0 -17 7 -26 35 -26h90v-77h-201v69h28c-8 9 -14 23 -14 46
c0 61 45 92 107 92c40 0 70 -13 70 -13l-13 -68s-27 5 -57 5c-27 0 -45 -9 -45 -28z" />
    <glyph glyph-name="uniFEF5" unicode="&#xfedf;&#xfe82;" horiz-adv-x="670" arabic-form="isolated" 
d="M201 638c-23 0 -46 -8 -62 -16l-17 72c17 12 50 27 83 27c43 0 62 -21 109 -21c22 0 39 5 61 16l14 -72c-12 -11 -43 -27 -75 -27c-46 0 -80 21 -113 21zM471 713h141v-488c0 -156 -54 -225 -209 -225h-376v172h163v380h141v-380h76c45 0 64 5 64 51v490z" />
    <glyph glyph-name="uniFEF6" unicode="&#xfee0;&#xfe82;" horiz-adv-x="692" arabic-form="final" 
d="M201 638c-23 0 -46 -8 -62 -16l-17 72c17 12 50 27 83 27c43 0 62 -21 109 -21c22 0 39 5 61 16l14 -72c-12 -11 -43 -27 -75 -27c-46 0 -80 21 -113 21zM692 172l17 -10v-152l-17 -10c-66 0 -107 17 -130 50c-33 -34 -84 -50 -159 -50h-376v172h163v380h141v-380h76
c45 0 64 5 64 51v490h141v-488c0 -15 0 -29 -2 -42c15 -11 42 -11 82 -11z" />
    <glyph glyph-name="uniFEDFFB51" unicode="&#xfedf;&#xfb51;" horiz-adv-x="670" 
d="M471 713h141v-488c0 -156 -54 -225 -209 -225h-376v172h163v380h141v-380h76c45 0 64 5 64 51v490z" />
    <glyph glyph-name="uniFEE0FB51" unicode="&#xfee0;&#xfb51;" horiz-adv-x="692" 
d="M692 172l17 -10v-152l-17 -10c-66 0 -107 17 -130 50c-33 -34 -84 -50 -159 -50h-376v172h163v380h141v-380h76c45 0 64 5 64 51v490h141v-488c0 -15 0 -29 -2 -42c15 -11 42 -11 82 -11z" />
    <glyph glyph-name="uniFE8E" unicode="&#x627;" horiz-adv-x="288" arabic-form="final" 
d="M265 0c-150 0 -206 61 -206 208v505h141v-485c0 -50 16 -56 88 -56l17 -10v-152l-17 -10h-23z" />
    <glyph glyph-name="uniFE84" unicode="&#x623;" horiz-adv-x="288" arabic-form="final" 
d="M227 759v-77h-201v69h28c-8 9 -14 23 -14 46c0 61 45 92 107 92c40 0 70 -13 70 -13l-13 -68s-27 5 -57 5c-27 0 -45 -9 -45 -28c0 -17 7 -26 35 -26h90zM288 172l17 -10v-152l-17 -10h-23c-150 0 -206 61 -206 208v405h141v-385c0 -50 16 -56 88 -56z" />
    <glyph glyph-name="uniFE88" unicode="&#x625;" horiz-adv-x="288" arabic-form="final" 
d="M288 172l17 -10v-152l-17 -10h-23c-150 0 -206 61 -206 208v505h141v-485c0 -50 16 -56 88 -56zM119 -147c0 -17 7 -26 35 -26h90v-77h-201v69h28c-8 9 -14 23 -14 46c0 61 45 92 107 92c40 0 70 -13 70 -13l-13 -68s-27 5 -57 5c-27 0 -45 -9 -45 -28z" />
    <glyph glyph-name="uniFE82" unicode="&#x622;" horiz-adv-x="288" arabic-form="final" 
d="M248 777l14 -72c-12 -11 -43 -27 -75 -27c-46 0 -80 21 -113 21c-23 0 -46 -8 -62 -16l-17 72c17 12 50 27 83 27c43 0 62 -21 109 -21c22 0 39 5 61 16zM265 0c-150 0 -206 61 -206 208v405h141v-385c0 -50 16 -56 88 -56l17 -10v-152l-17 -10h-23z" />
    <glyph glyph-name="uniFB51" unicode="&#x671;" horiz-adv-x="288" arabic-form="final" 
d="M265 0c-150 0 -206 61 -206 208v405h141v-385c0 -50 16 -56 88 -56l17 -10v-152l-17 -10h-23z" />
    <glyph glyph-name="uni066E.init" unicode="&#x66e;" horiz-adv-x="290" 
d="M0 0l-17 10v152l17 10c69 0 97 5 97 47v236h141v-236c0 -148 -61 -219 -238 -219z" />
    <glyph glyph-name="uni066E.medi" unicode="&#x66e;" horiz-adv-x="341" 
d="M341 172l17 -10v-152l-17 -10c-80 0 -130 23 -157 68c-33 -46 -90 -68 -184 -68l-17 10v152l17 10c71 0 100 5 100 47v236h141v-233c0 -50 31 -50 100 -50z" />
    <glyph glyph-name="uni066E.fina" unicode="&#x66e;" horiz-adv-x="984" 
d="M984 172l17 -10v-152l-17 -10c-86 0 -135 23 -160 70c-31 -47 -86 -70 -175 -70h-348c-224 0 -272 127 -272 265c0 58 16 124 32 165h136c-13 -35 -27 -100 -27 -139c0 -90 41 -119 142 -119h337c60 0 85 5 85 50v233h140v-230c0 -53 35 -53 110 -53z" />
    <glyph glyph-name="uniFE90" unicode="&#x628;" horiz-adv-x="984" arabic-form="final" 
d="M984 172l17 -10v-152l-17 -10c-86 0 -135 23 -160 70c-31 -47 -86 -70 -175 -70h-348c-224 0 -272 127 -272 265c0 58 16 124 32 165h136c-13 -35 -27 -100 -27 -139c0 -90 41 -119 142 -119h337c60 0 85 5 85 50v233h140v-230c0 -53 35 -53 110 -53zM399 -216v117h116
v-117h-116z" />
    <glyph glyph-name="uniFE92" unicode="&#x628;" horiz-adv-x="341" arabic-form="medial" 
d="M341 172l17 -10v-152l-17 -10c-80 0 -130 23 -157 68c-33 -46 -90 -68 -184 -68l-17 10v152l17 10c71 0 100 5 100 47v236h141v-233c0 -50 31 -50 100 -50zM114 -216v117h116v-117h-116z" />
    <glyph glyph-name="uniFE91" unicode="&#x628;" horiz-adv-x="290" arabic-form="initial" 
d="M0 0l-17 10v152l17 10c69 0 97 5 97 47v236h141v-236c0 -148 -61 -219 -238 -219zM103 -217v117h116v-117h-116z" />
    <glyph glyph-name="uniFE96" unicode="&#x62a;" horiz-adv-x="984" arabic-form="final" 
d="M440 578v-117h-115v117h115zM596 578v-117h-114v117h114zM984 172l17 -10v-152l-17 -10c-86 0 -135 23 -160 70c-31 -47 -86 -70 -175 -70h-348c-224 0 -272 127 -272 265c0 58 16 124 32 165h136c-13 -35 -27 -100 -27 -139c0 -90 41 -119 142 -119h337c60 0 85 5 85 50
v233h140v-230c0 -53 35 -53 110 -53z" />
    <glyph glyph-name="uniFE98" unicode="&#x62a;" horiz-adv-x="341" arabic-form="medial" 
d="M152 656v-117h-115v117h115zM308 656v-117h-114v117h114zM341 172l17 -10v-152l-17 -10c-80 0 -130 23 -157 68c-33 -46 -90 -68 -184 -68l-17 10v152l17 10c71 0 100 5 100 47v236h141v-233c0 -50 31 -50 100 -50z" />
    <glyph glyph-name="uniFE97" unicode="&#x62a;" horiz-adv-x="290" arabic-form="initial" 
d="M33 539v117h115v-117h-115zM190 539v117h114v-117h-114zM0 0l-17 10v152l17 10c69 0 97 5 97 47v236h141v-236c0 -148 -61 -219 -238 -219z" />
    <glyph glyph-name="uniFE9A" unicode="&#x62b;" horiz-adv-x="984" arabic-form="final" 
d="M519 733v-116h-117v116h117zM437 578v-118h-114v118h114zM482 460v118h114v-118h-114zM984 172l17 -10v-152l-17 -10c-86 0 -135 23 -160 70c-31 -47 -86 -70 -175 -70h-348c-224 0 -272 127 -272 265c0 58 16 124 32 165h136c-13 -35 -27 -100 -27 -139
c0 -90 41 -119 142 -119h337c60 0 85 5 85 50v233h140v-230c0 -53 35 -53 110 -53z" />
    <glyph glyph-name="uniFE9C" unicode="&#x62b;" horiz-adv-x="341" arabic-form="medial" 
d="M232 811v-116h-117v116h117zM150 656v-118h-114v118h114zM195 538v118h114v-118h-114zM341 172l17 -10v-152l-17 -10c-80 0 -130 23 -157 68c-33 -46 -90 -68 -184 -68l-17 10v152l17 10c71 0 100 5 100 47v236h141v-233c0 -50 31 -50 100 -50z" />
    <glyph glyph-name="uniFE9B" unicode="&#x62b;" horiz-adv-x="290" arabic-form="initial" 
d="M111 695v116h117v-116h-117zM32 538v118h114v-118h-114zM191 538v118h114v-118h-114zM0 0l-17 10v152l17 10c69 0 97 5 97 47v236h141v-236c0 -148 -61 -219 -238 -219z" />
    <glyph glyph-name="uniFE9E" unicode="&#x62c;" horiz-adv-x="753" arabic-form="final" 
d="M753 172l17 -10v-152l-17 -10c-69 0 -112 15 -138 45c-29 -30 -72 -45 -130 -45h-228c-70 0 -85 -33 -85 -68c0 -40 20 -79 121 -79h174v-172h-172c-195 0 -269 99 -269 248c0 146 62 243 233 243h229c16 0 24 6 24 20v34c0 66 -73 81 -145 81c-80 0 -146 -12 -196 -26
l-29 148c46 20 125 50 248 50c105 0 268 -27 268 -223v-70c16 -14 47 -14 95 -14zM536 -292v112h112v-112h-112z" />
    <glyph glyph-name="uniFEA0" unicode="&#x62c;" horiz-adv-x="657" arabic-form="medial" 
d="M657 172l17 -10v-152l-17 -10c-61 0 -102 12 -129 36c-25 -24 -61 -36 -108 -36h-420l-17 4v164l17 4h430v51c0 69 -78 85 -154 85c-84 0 -153 -16 -205 -33l-27 152c48 21 133 52 260 52c101 0 269 -28 269 -228v-72c18 -7 45 -7 84 -7zM213 -216v117h116v-117h-116z
    <glyph glyph-name="uniFE9F" unicode="&#x62c;" horiz-adv-x="617" arabic-form="initial" 
d="M0 0l-17 4v164l17 4h430v51c0 69 -78 85 -154 85c-84 0 -153 -16 -205 -33l-27 152c48 21 133 52 260 52c101 0 269 -28 269 -228v-82c0 -113 -51 -169 -153 -169h-420zM213 -216v117h116v-117h-116z" />
    <glyph glyph-name="uniFEA2" unicode="&#x62d;" horiz-adv-x="727" arabic-form="final" 
d="M727 172l17 -10v-152l-17 -10c-61 0 -102 12 -128 35c-29 -23 -69 -35 -119 -35h-223c-70 0 -85 -33 -85 -68c0 -40 20 -79 121 -79h242v-172h-240c-195 0 -269 99 -269 248c0 146 62 243 233 243h224c16 0 24 6 24 20v34c0 66 -74 81 -146 81c-80 0 -146 -12 -196 -26
l-29 152c47 18 125 46 249 46c104 0 268 -27 268 -223v-75v-5c17 -4 42 -4 74 -4z" />
    <glyph glyph-name="uniFEA4" unicode="&#x62d;" horiz-adv-x="657" arabic-form="medial" 
d="M657 172l17 -10v-152l-17 -10c-61 0 -102 12 -129 36c-25 -24 -61 -36 -108 -36h-420l-17 4v164l17 4h430v51c0 69 -78 85 -154 85c-84 0 -153 -16 -205 -33l-27 152c48 21 133 52 260 52c101 0 269 -28 269 -228v-72c18 -7 45 -7 84 -7z" />
    <glyph glyph-name="uniFEA3" unicode="&#x62d;" horiz-adv-x="617" arabic-form="initial" 
d="M0 0l-17 4v164l17 4h430v51c0 69 -78 85 -154 85c-84 0 -153 -16 -205 -33l-27 152c48 21 133 52 260 52c101 0 269 -28 269 -228v-82c0 -113 -51 -169 -153 -169h-420z" />
    <glyph glyph-name="uniFEA6" unicode="&#x62e;" horiz-adv-x="727" arabic-form="final" 
d="M426 680v-117h-116v117h116zM727 172l17 -10v-152l-17 -10c-61 0 -102 12 -128 35c-29 -23 -69 -35 -119 -35h-223c-70 0 -85 -33 -85 -68c0 -40 20 -79 121 -79h242v-172h-240c-195 0 -269 99 -269 248c0 146 62 243 233 243h224c16 0 24 6 24 20v34
c0 66 -74 81 -146 81c-80 0 -146 -12 -196 -26l-29 152c47 18 125 46 249 46c104 0 268 -27 268 -223v-75v-5c17 -4 42 -4 74 -4z" />
    <glyph glyph-name="uniFEA8" unicode="&#x62e;" horiz-adv-x="657" arabic-form="medial" 
d="M360 682v-117h-116v117h116zM657 172l17 -10v-152l-17 -10c-61 0 -102 12 -129 36c-25 -24 -61 -36 -108 -36h-420l-17 4v164l17 4h430v51c0 69 -78 85 -154 85c-84 0 -153 -16 -205 -33l-27 152c48 21 133 52 260 52c101 0 269 -28 269 -228v-72c18 -7 45 -7 84 -7z" />
    <glyph glyph-name="uniFEA7" unicode="&#x62e;" horiz-adv-x="617" arabic-form="initial" 
d="M244 565v117h116v-117h-116zM0 0l-17 4v164l17 4h430v51c0 69 -78 85 -154 85c-84 0 -153 -16 -205 -33l-27 152c48 21 133 52 260 52c101 0 269 -28 269 -228v-82c0 -113 -51 -169 -153 -169h-420z" />
    <glyph glyph-name="uniFEAA" unicode="&#x62f;" horiz-adv-x="596" arabic-form="final" 
d="M596 172l17 -10v-152l-17 -10c-59 0 -98 13 -122 41c-29 -28 -70 -41 -125 -41h-320v172h351v38c0 49 -31 79 -291 116l26 163c345 -47 411 -126 409 -258l-1 -48v-5c15 -6 40 -6 73 -6z" />
    <glyph glyph-name="uniFEAC" unicode="&#x630;" horiz-adv-x="596" arabic-form="final" 
d="M298 692v-117h-116v117h116zM596 172l17 -10v-152l-17 -10c-59 0 -98 13 -122 41c-29 -28 -70 -41 -125 -41h-320v172h351v38c0 49 -31 79 -291 116l26 163c345 -47 411 -126 409 -258l-1 -48v-5c15 -6 40 -6 73 -6z" />
    <glyph glyph-name="uniFEAE" unicode="&#x631;" horiz-adv-x="386" arabic-form="final" 
d="M386 172l17 -10v-152l-17 -10c-41 0 -73 7 -96 20v-20c0 -116 -39 -217 -199 -217h-101v172h97c48 0 63 11 63 44v456h140v-217h1v-21c0 -45 30 -45 95 -45z" />
    <glyph glyph-name="uniFEB0" unicode="&#x632;" horiz-adv-x="386" arabic-form="final" 
d="M275 656v-117h-116v117h116zM386 172l17 -10v-152l-17 -10c-41 0 -73 7 -96 20v-20c0 -116 -39 -217 -199 -217h-101v172h97c48 0 63 11 63 44v456h140v-217h1v-21c0 -45 30 -45 95 -45z" />
    <glyph glyph-name="uniFEB2" unicode="&#x633;" horiz-adv-x="1324" arabic-form="final" 
d="M1324 172l17 -10v-152l-17 -10c-95 0 -150 24 -174 64c-20 -40 -67 -64 -142 -64c-70 0 -113 20 -135 55c-20 -32 -62 -55 -133 -55h-92c-24 -118 -113 -212 -312 -212c-242 0 -307 156 -307 317c0 85 20 177 37 219h138c-8 -27 -32 -109 -32 -199
c0 -92 32 -165 173 -165c136 0 170 49 170 119v314h140v-221h101c32 0 45 9 45 31v190h141v-212c14 -5 35 -9 67 -9c51 0 73 10 73 34v248h140v-270c19 -6 50 -12 102 -12z" />
    <glyph glyph-name="uniFEB4" unicode="&#x633;" horiz-adv-x="911" arabic-form="medial" 
d="M911 172l17 -10v-152l-17 -10c-95 0 -150 24 -174 64c-20 -40 -67 -64 -142 -64c-71 0 -113 21 -135 56c-22 -33 -68 -56 -149 -56c-76 0 -122 20 -144 55c-19 -32 -58 -55 -127 -55h-40l-17 10v152l17 10h50c33 0 46 9 46 31v190h141v-214c18 -4 43 -7 81 -7
c50 0 70 9 70 31v190h141v-212c14 -5 35 -9 67 -9c51 0 72 10 72 34v248h141v-270c19 -6 50 -12 102 -12z" />
    <glyph glyph-name="uniFEB3" unicode="&#x633;" horiz-adv-x="861" arabic-form="initial" 
d="M668 454h141v-249c-2 -141 -91 -205 -212 -205c-71 0 -115 20 -138 54c-23 -32 -69 -54 -148 -54c-76 0 -122 20 -144 55c-19 -32 -58 -55 -127 -55h-40l-17 10v152l17 10h50c33 0 46 9 46 31v190h141v-214c18 -4 43 -7 81 -7c50 0 70 9 70 31v190h141v-212
c15 -5 37 -9 70 -9c45 0 67 9 69 33v249z" />
    <glyph glyph-name="uniFEB6" unicode="&#x634;" horiz-adv-x="1324" arabic-form="final" 
d="M930 763v-116h-117v116h117zM848 608v-118h-114v118h114zM893 490v118h114v-118h-114zM1324 172l17 -10v-152l-17 -10c-95 0 -150 24 -174 64c-20 -40 -67 -64 -142 -64c-70 0 -113 20 -135 55c-20 -32 -62 -55 -133 -55h-92c-24 -118 -113 -212 -312 -212
c-242 0 -307 156 -307 317c0 85 20 177 37 219h138c-8 -27 -32 -109 -32 -199c0 -92 32 -165 173 -165c136 0 170 49 170 119v314h140v-221h101c32 0 45 9 45 31v190h141v-212c14 -5 35 -9 67 -9c51 0 73 10 73 34v248h140v-270c19 -6 50 -12 102 -12z" />
    <glyph glyph-name="uniFEB8" unicode="&#x634;" horiz-adv-x="911" arabic-form="medial" 
d="M517 763v-116h-117v116h117zM435 608v-118h-114v118h114zM480 490v118h114v-118h-114zM911 172l17 -10v-152l-17 -10c-95 0 -150 24 -174 64c-20 -40 -67 -64 -142 -64c-71 0 -113 21 -135 56c-22 -33 -68 -56 -149 -56c-76 0 -122 20 -144 55c-19 -32 -58 -55 -127 -55
h-40l-17 10v152l17 10h50c33 0 46 9 46 31v190h141v-214c18 -4 43 -7 81 -7c50 0 70 9 70 31v190h141v-212c14 -5 35 -9 67 -9c51 0 72 10 72 34v248h141v-270c19 -6 50 -12 102 -12z" />
    <glyph glyph-name="uniFEB7" unicode="&#x634;" horiz-adv-x="861" arabic-form="initial" 
d="M518 762v-116h-117v116h117zM436 607v-118h-114v118h114zM481 489v118h114v-118h-114zM668 454h141v-249c-2 -141 -91 -205 -212 -205c-71 0 -115 20 -138 54c-23 -32 -69 -54 -148 -54c-76 0 -122 20 -144 55c-19 -32 -58 -55 -127 -55h-40l-17 10v152l17 10h50
c33 0 46 9 46 31v190h141v-214c18 -4 43 -7 81 -7c50 0 70 9 70 31v190h141v-212c15 -5 37 -9 70 -9c45 0 67 9 69 33v249z" />
    <glyph glyph-name="uniFEBA" unicode="&#x635;" horiz-adv-x="1236" arabic-form="final" 
d="M1236 172l17 -10v-152l-17 -10c-69 0 -110 18 -133 55c-44 -38 -108 -55 -189 -55h-266c-24 -118 -113 -212 -312 -212c-242 0 -307 156 -307 317c0 85 20 177 37 219h138c-8 -27 -32 -109 -32 -199c0 -92 32 -165 173 -165c136 0 170 49 170 119v365h140v-40
c141 42 228 75 311 75c122 0 208 -76 208 -236c0 -24 -2 -46 -6 -67c16 -4 38 -4 68 -4zM931 172c68 0 101 12 101 62c0 52 -38 73 -90 73c-67 0 -166 -29 -287 -63v-72h276z" />
    <glyph glyph-name="uniFEBC" unicode="&#x635;" horiz-adv-x="793" arabic-form="medial" 
d="M793 172l17 -10v-152l-17 -10c-67 0 -108 17 -131 52c-43 -36 -106 -52 -185 -52h-477l-17 15v141l17 16h79v277h141v-44c139 42 226 74 308 74c122 0 208 -76 208 -236c0 -25 -2 -47 -6 -68c15 -3 36 -3 63 -3zM494 172c68 0 100 12 100 62c0 52 -38 73 -89 73
c-67 0 -165 -29 -285 -62v-73h274z" />
    <glyph glyph-name="uniFEBB" unicode="&#x635;" horiz-adv-x="788" arabic-form="initial" 
d="M528 479c122 0 208 -76 208 -236c0 -171 -93 -243 -259 -243h-477l-17 15v141l17 16h79v277h141v-44c139 42 226 74 308 74zM494 172c68 0 100 12 100 62c0 52 -38 73 -89 73c-67 0 -165 -29 -285 -62v-73h274z" />
    <glyph glyph-name="uniFEBE" unicode="&#x636;" horiz-adv-x="1236" arabic-form="final" 
d="M759 644v-117h-116v117h116zM1236 172l17 -10v-152l-17 -10c-69 0 -110 18 -133 55c-44 -38 -108 -55 -189 -55h-266c-24 -118 -113 -212 -312 -212c-242 0 -307 156 -307 317c0 85 20 177 37 219h138c-8 -27 -32 -109 -32 -199c0 -92 32 -165 173 -165
c136 0 170 49 170 119v365h140v-40c141 42 228 75 311 75c122 0 208 -76 208 -236c0 -24 -2 -46 -6 -67c16 -4 38 -4 68 -4zM931 172c68 0 101 12 101 62c0 52 -38 73 -90 73c-67 0 -166 -29 -287 -63v-72h276z" />
    <glyph glyph-name="uniFEC0" unicode="&#x636;" horiz-adv-x="793" arabic-form="medial" 
d="M332 644v-117h-116v117h116zM793 172l17 -10v-152l-17 -10c-67 0 -108 17 -131 52c-43 -36 -106 -52 -185 -52h-477l-17 15v141l17 16h79v277h141v-44c139 42 226 74 308 74c122 0 208 -76 208 -236c0 -25 -2 -47 -6 -68c15 -3 36 -3 63 -3zM494 172c68 0 100 12 100 62
c0 52 -38 73 -89 73c-67 0 -165 -29 -285 -62v-73h274z" />
    <glyph glyph-name="uniFEBF" unicode="&#x636;" horiz-adv-x="788" arabic-form="initial" 
d="M333 644v-117h-116v117h116zM528 479c122 0 208 -76 208 -236c0 -171 -93 -243 -259 -243h-477l-17 15v141l17 16h79v277h141v-44c139 42 226 74 308 74zM494 172c68 0 100 12 100 62c0 52 -38 73 -89 73c-67 0 -165 -29 -285 -62v-73h274z" />
    <glyph glyph-name="uniFEC2" unicode="&#x637;" horiz-adv-x="810" arabic-form="final" 
d="M810 172l17 -10v-152l-17 -10c-69 0 -110 18 -132 54c-44 -37 -107 -54 -188 -54h-466v172h85v552h141v-315c90 30 210 70 289 70c123 0 210 -77 210 -238c0 -24 -2 -45 -5 -65c15 -4 37 -4 66 -4zM507 172c68 0 100 12 100 60c0 53 -37 75 -89 75
c-63 0 -155 -25 -268 -54v-81h257z" />
    <glyph glyph-name="uniFEC4" unicode="&#x637;" horiz-adv-x="778" arabic-form="medial" 
d="M778 172l17 -10v-152l-17 -10c-67 0 -108 17 -131 52c-43 -36 -106 -52 -185 -52h-462l-17 10v152l17 10h81v552h140v-315c90 30 210 70 289 70c124 0 211 -77 211 -238c0 -24 -2 -46 -6 -66c16 -3 36 -3 63 -3zM478 172c68 0 101 12 101 60c0 53 -38 75 -90 75
c-63 0 -155 -25 -268 -54v-81h257z" />
    <glyph glyph-name="uniFEC3" unicode="&#x637;" horiz-adv-x="773" arabic-form="initial" 
d="M510 479c124 0 211 -77 211 -238c0 -169 -93 -241 -259 -241h-462l-17 10v152l17 10h81v552h140v-315c90 30 210 70 289 70zM478 172c68 0 101 12 101 60c0 53 -38 75 -90 75c-63 0 -155 -25 -268 -54v-81h257z" />
    <glyph glyph-name="uniFEC6" unicode="&#x638;" horiz-adv-x="810" arabic-form="final" 
d="M810 172l17 -10v-152l-17 -10c-69 0 -110 18 -132 54c-44 -37 -107 -54 -188 -54h-466v172h85v552h141v-315c90 30 210 70 289 70c123 0 210 -77 210 -238c0 -24 -2 -45 -5 -65c15 -4 37 -4 66 -4zM540 684v-117h-116v117h116zM507 172c68 0 100 12 100 60
c0 53 -37 75 -89 75c-63 0 -155 -25 -268 -54v-81h257z" />
    <glyph glyph-name="uniFEC8" unicode="&#x638;" horiz-adv-x="778" arabic-form="medial" 
d="M778 172l17 -10v-152l-17 -10c-67 0 -108 17 -131 52c-43 -36 -106 -52 -185 -52h-462l-17 10v152l17 10h81v552h140v-315c90 30 210 70 289 70c124 0 211 -77 211 -238c0 -24 -2 -46 -6 -66c16 -3 36 -3 63 -3zM504 678v-117h-116v117h116zM478 172c68 0 101 12 101 60
c0 53 -38 75 -90 75c-63 0 -155 -25 -268 -54v-81h257z" />
    <glyph glyph-name="uniFEC7" unicode="&#x638;" horiz-adv-x="773" arabic-form="initial" 
d="M510 479c124 0 211 -77 211 -238c0 -169 -93 -241 -259 -241h-462l-17 10v152l17 10h81v552h140v-315c90 30 210 70 289 70zM505 678v-117h-116v117h116zM478 172c68 0 101 12 101 60c0 53 -38 75 -90 75c-63 0 -155 -25 -268 -54v-81h257z" />
    <glyph glyph-name="uniFECA" unicode="&#x639;" horiz-adv-x="614" arabic-form="final" 
d="M614 172l17 -4v-164l-17 -4c-162 0 -238 9 -290 44c-96 -21 -160 -40 -160 -107c0 -42 23 -84 139 -84h253v-172h-264c-209 0 -274 101 -274 252c0 120 70 193 167 223l-117 122v166c45 18 134 37 251 37c128 0 207 -20 252 -37v-161l-102 -111h145zM319 320
c-47 0 -87 -4 -120 -9l120 -125l118 126c-34 5 -74 8 -118 8z" />
    <glyph glyph-name="uniFECC" unicode="&#x639;" horiz-adv-x="589" arabic-form="medial" 
d="M589 172l17 -4v-164l-17 -4c-169 0 -242 12 -294 63c-53 -51 -126 -63 -295 -63l-17 4v164l17 4h137l-94 107v166c45 18 132 37 252 37c130 0 206 -20 251 -37v-161l-95 -112h138zM295 320c-47 0 -87 -4 -120 -9l119 -129l119 130c-33 5 -73 8 -118 8z" />
    <glyph glyph-name="uniFECB" unicode="&#x639;" horiz-adv-x="547" arabic-form="initial" 
d="M314 172h193v-172h-507l-17 3v165l17 4h61c-14 27 -19 58 -19 91c0 155 117 219 260 219c73 0 142 -17 169 -29l-27 -159c-21 5 -70 16 -139 16c-81 0 -117 -25 -117 -66c0 -48 30 -72 126 -72z" />
    <glyph glyph-name="uniFECE" unicode="&#x63a;" horiz-adv-x="614" arabic-form="final" 
d="M376 683v-117h-116v117h116zM614 172l17 -4v-164l-17 -4c-162 0 -238 9 -290 44c-96 -21 -160 -40 -160 -107c0 -42 23 -84 139 -84h253v-172h-264c-209 0 -274 101 -274 252c0 120 70 193 167 223l-117 122v166c45 18 134 37 251 37c128 0 207 -20 252 -37v-161
l-102 -111h145zM319 320c-47 0 -87 -4 -120 -9l120 -125l118 126c-34 5 -74 8 -118 8z" />
    <glyph glyph-name="uniFED0" unicode="&#x63a;" horiz-adv-x="589" arabic-form="medial" 
d="M351 683v-117h-116v117h116zM589 172l17 -4v-164l-17 -4c-169 0 -242 12 -294 63c-53 -51 -126 -63 -295 -63l-17 4v164l17 4h137l-94 107v166c45 18 132 37 252 37c130 0 206 -20 251 -37v-161l-95 -112h138zM295 320c-47 0 -87 -4 -120 -9l119 -129l119 130
c-33 5 -73 8 -118 8z" />
    <glyph glyph-name="uniFECF" unicode="&#x63a;" horiz-adv-x="547" arabic-form="initial" 
d="M333 686v-117h-116v117h116zM314 172h193v-172h-507l-17 3v165l17 4h61c-14 27 -19 58 -19 91c0 155 117 219 260 219c73 0 142 -17 169 -29l-27 -159c-21 5 -70 16 -139 16c-81 0 -117 -25 -117 -66c0 -48 30 -72 126 -72z" />
    <glyph glyph-name="uniFED2" unicode="&#x641;" horiz-adv-x="1036" arabic-form="final" 
d="M805 719v-117h-116v117h116zM1036 172l17 -5v-162l-17 -5h-734c-224 0 -273 136 -273 281c0 65 18 138 34 184h141c-14 -40 -29 -113 -29 -158c0 -103 40 -135 138 -135h244c-24 31 -34 66 -34 105c0 154 98 233 235 233c138 0 220 -79 220 -219c0 -44 -12 -83 -40 -119
h98zM751 338c-51 0 -85 -22 -85 -68c0 -29 13 -57 89 -104c74 47 80 75 80 104c0 46 -35 68 -84 68z" />
    <glyph glyph-name="uniFED4" unicode="&#x641;" horiz-adv-x="562" arabic-form="medial" 
d="M339 714v-117h-116v117h116zM562 172l17 -5v-162l-17 -5h-562l-17 5v162l17 5h83c-24 31 -35 66 -35 105c0 154 98 233 235 233c139 0 221 -79 221 -219c0 -44 -12 -83 -41 -119h99zM276 338c-50 0 -85 -22 -85 -68c0 -29 13 -57 89 -104c75 47 81 75 81 104
c0 46 -36 68 -85 68z" />
    <glyph glyph-name="uniFED3" unicode="&#x641;" horiz-adv-x="538" arabic-form="initial" 
d="M337 835v-117h-116v117h116zM281 640c118 0 205 -53 205 -53v-350c0 -134 -58 -237 -222 -237h-264l-17 10v152l17 10h265c57 0 79 12 79 56v44c-21 -29 -57 -51 -128 -51c-132 0 -186 88 -186 182c0 140 99 237 251 237zM255 362c42 0 72 9 89 24v72s-29 18 -75 18
c-66 0 -96 -25 -96 -61c0 -29 25 -53 82 -53z" />
    <glyph glyph-name="uniFB6B" unicode="&#x6a4;" horiz-adv-x="1036" arabic-form="final" 
d="M809 875v-116h-117v116h117zM727 720v-118h-114v118h114zM772 602v118h114v-118h-114zM1036 172l17 -5v-162l-17 -5h-734c-224 0 -273 136 -273 281c0 65 18 138 34 184h141c-14 -40 -29 -113 -29 -158c0 -103 40 -135 138 -135h244c-24 31 -34 66 -34 105
c0 154 98 233 235 233c138 0 220 -79 220 -219c0 -44 -12 -83 -40 -119h98zM751 338c-51 0 -85 -22 -85 -68c0 -29 13 -57 89 -104c74 47 80 75 80 104c0 46 -35 68 -84 68z" />
    <glyph glyph-name="uniFB6D" unicode="&#x6a4;" horiz-adv-x="562" arabic-form="medial" 
d="M343 869v-116h-117v116h117zM261 714v-118h-114v118h114zM306 596v118h114v-118h-114zM562 172l17 -5v-162l-17 -5h-562l-17 5v162l17 5h83c-24 31 -35 66 -35 105c0 154 98 233 235 233c139 0 221 -79 221 -219c0 -44 -12 -83 -41 -119h99zM276 338
c-50 0 -85 -22 -85 -68c0 -29 13 -57 89 -104c75 47 81 75 81 104c0 46 -36 68 -85 68z" />
    <glyph glyph-name="uniFB6C" unicode="&#x6a4;" horiz-adv-x="538" arabic-form="initial" 
d="M341 990v-116h-117v116h117zM259 835v-118h-114v118h114zM304 717v118h114v-118h-114zM281 640c118 0 205 -53 205 -53v-350c0 -134 -58 -237 -222 -237h-264l-17 10v152l17 10h265c57 0 79 12 79 56v44c-21 -29 -57 -51 -128 -51c-132 0 -186 88 -186 182
c0 140 99 237 251 237zM255 362c42 0 72 9 89 24v72s-29 18 -75 18c-66 0 -96 -25 -96 -61c0 -29 25 -53 82 -53z" />
    <glyph glyph-name="uni06A1.init" unicode="&#x6a1;" horiz-adv-x="538" 
d="M281 640c118 0 205 -53 205 -53v-350c0 -134 -58 -237 -222 -237h-264l-17 10v152l17 10h265c57 0 79 12 79 56v44c-21 -29 -57 -51 -128 -51c-132 0 -186 88 -186 182c0 140 99 237 251 237zM255 362c42 0 72 9 89 24v72s-29 18 -75 18c-66 0 -96 -25 -96 -61
c0 -29 25 -53 82 -53z" />
    <glyph glyph-name="uni06A1.medi" unicode="&#x6a1;" horiz-adv-x="562" 
d="M562 172l17 -5v-162l-17 -5h-562l-17 5v162l17 5h83c-24 31 -35 66 -35 105c0 154 98 233 235 233c139 0 221 -79 221 -219c0 -44 -12 -83 -41 -119h99zM276 338c-50 0 -85 -22 -85 -68c0 -29 13 -57 89 -104c75 47 81 75 81 104c0 46 -36 68 -85 68z" />
    <glyph glyph-name="uni06A1.fina" unicode="&#x6a1;" horiz-adv-x="1036" 
d="M1036 172l17 -5v-162l-17 -5h-734c-224 0 -273 136 -273 281c0 65 18 138 34 184h141c-14 -40 -29 -113 -29 -158c0 -103 40 -135 138 -135h244c-24 31 -34 66 -34 105c0 154 98 233 235 233c138 0 220 -79 220 -219c0 -44 -12 -83 -40 -119h98zM751 338
c-51 0 -85 -22 -85 -68c0 -29 13 -57 89 -104c74 47 80 75 80 104c0 46 -35 68 -84 68z" />
    <glyph glyph-name="uni066F.fina" unicode="&#x66f;" horiz-adv-x="891" 
d="M891 172l17 -10v-152l-17 -10h-85v-8c0 -140 -64 -219 -241 -219h-220c-261 0 -316 101 -316 315c0 81 22 160 37 195h138c-15 -44 -32 -118 -32 -188c0 -106 28 -158 173 -158h234c63 0 87 12 87 58v16h-119c-159 0 -210 101 -210 209c0 154 108 259 274 259
c113 0 195 -53 195 -53v-254h85zM571 172h95v117s-31 18 -80 18c-72 0 -106 -28 -106 -71c0 -38 28 -64 91 -64z" />
    <glyph glyph-name="uniFED6" unicode="&#x642;" horiz-adv-x="891" arabic-form="final" 
d="M569 679v-117h-115v117h115zM725 679v-117h-114v117h114zM891 172l17 -10v-152l-17 -10h-85v-8c0 -140 -64 -219 -241 -219h-220c-261 0 -316 101 -316 315c0 81 22 160 37 195h138c-15 -44 -32 -118 -32 -188c0 -106 28 -158 173 -158h234c63 0 87 12 87 58v16h-119
c-159 0 -210 101 -210 209c0 154 108 259 274 259c113 0 195 -53 195 -53v-254h85zM571 172h95v117s-31 18 -80 18c-72 0 -106 -28 -106 -71c0 -38 28 -64 91 -64z" />
    <glyph glyph-name="uniFED8" unicode="&#x642;" horiz-adv-x="562" arabic-form="medial" 
d="M263 714v-117h-115v117h115zM419 714v-117h-114v117h114zM562 172l17 -5v-162l-17 -5h-562l-17 5v162l17 5h83c-24 31 -35 66 -35 105c0 154 98 233 235 233c139 0 221 -79 221 -219c0 -44 -12 -83 -41 -119h99zM276 338c-50 0 -85 -22 -85 -68c0 -29 13 -57 89 -104
c75 47 81 75 81 104c0 46 -36 68 -85 68z" />
    <glyph glyph-name="uniFED7" unicode="&#x642;" horiz-adv-x="538" arabic-form="initial" 
d="M262 836v-117h-115v117h115zM418 836v-117h-114v117h114zM281 640c118 0 205 -53 205 -53v-350c0 -134 -58 -237 -222 -237h-264l-17 10v152l17 10h265c57 0 79 12 79 56v44c-21 -29 -57 -51 -128 -51c-132 0 -186 88 -186 182c0 140 99 237 251 237zM255 362
c42 0 72 9 89 24v72s-29 18 -75 18c-66 0 -96 -25 -96 -61c0 -29 25 -53 82 -53z" />
    <glyph glyph-name="uniFEDA" unicode="&#x643;" horiz-adv-x="923" arabic-form="final" 
d="M923 172l17 -10v-152l-17 -10c-75 0 -117 21 -138 64c-35 -43 -95 -64 -186 -64h-299c-224 0 -271 127 -271 265c0 58 16 124 32 165h136c-13 -35 -27 -100 -27 -139c0 -90 41 -119 142 -119h290c50 0 85 5 85 50v502h141v-507c0 -45 30 -45 95 -45zM566 410
c0 -69 -36 -107 -117 -107h-130v93h129c20 0 37 4 37 14c0 15 -17 32 -144 32l-6 113l203 83l18 -86l-108 -37c72 -10 118 -39 118 -105z" />
    <glyph glyph-name="uniFEDC" unicode="&#x643;" horiz-adv-x="671" arabic-form="medial" 
d="M671 172l17 -10v-152l-17 -10c-58 0 -97 13 -121 39c-26 -26 -64 -39 -113 -39h-437l-17 4v164l17 4h451v43c0 50 -20 85 -112 85h-278l-28 159l393 287l77 -118l-271 -181h115c198 0 247 -98 247 -225v-42c15 -8 41 -8 77 -8z" />
    <glyph glyph-name="uniFEDB" unicode="&#x643;" horiz-adv-x="638" arabic-form="initial" 
d="M347 447c198 0 247 -98 247 -225v-49c0 -116 -53 -173 -157 -173h-437l-17 4v164l17 4h451v43c0 50 -20 85 -112 85h-278l-28 159l393 287l77 -118l-271 -181h115z" />
    <glyph glyph-name="uniFB8F" unicode="&#x6a9;" horiz-adv-x="923" arabic-form="final" 
d="M923 172l17 -10v-152l-17 -10c-75 0 -117 21 -138 64c-35 -43 -95 -64 -186 -64h-299c-224 0 -271 127 -271 265c0 58 16 124 32 165h136c-13 -35 -27 -100 -27 -139c0 -90 41 -119 142 -119h290c50 0 85 5 85 50v502h141v-507c0 -45 30 -45 95 -45zM566 410
c0 -69 -36 -107 -117 -107h-130v93h129c20 0 37 4 37 14c0 15 -17 32 -144 32l-6 113l203 83l18 -86l-108 -37c72 -10 118 -39 118 -105z" />
    <glyph glyph-name="uniFB91" unicode="&#x6a9;" horiz-adv-x="671" arabic-form="medial" 
d="M671 172l17 -10v-152l-17 -10c-58 0 -97 13 -121 39c-26 -26 -64 -39 -113 -39h-437l-17 4v164l17 4h451v43c0 50 -20 85 -112 85h-278l-28 159l393 287l77 -118l-271 -181h115c198 0 247 -98 247 -225v-42c15 -8 41 -8 77 -8z" />
    <glyph glyph-name="uniFB90" unicode="&#x6a9;" horiz-adv-x="638" arabic-form="initial" 
d="M347 447c198 0 247 -98 247 -225v-49c0 -116 -53 -173 -157 -173h-437l-17 4v164l17 4h451v43c0 50 -20 85 -112 85h-278l-28 159l393 287l77 -118l-271 -181h115z" />
    <glyph glyph-name="uniFEDE" unicode="&#x644;" horiz-adv-x="724" arabic-form="final" 
d="M724 172l17 -10v-152l-17 -10c-51 0 -86 10 -110 29c-31 -103 -116 -181 -288 -181c-234 0 -297 156 -297 317c0 85 22 177 40 219h135c-8 -27 -32 -109 -32 -199c0 -92 30 -165 163 -165c123 0 152 49 152 119v574h141v-475h1v-21c0 -45 30 -45 95 -45z" />
    <glyph glyph-name="uniFEE0" unicode="&#x644;" horiz-adv-x="317" arabic-form="medial" 
d="M317 172l17 -10v-152l-17 -10c-75 0 -117 21 -138 64c-35 -44 -94 -64 -179 -64l-17 10v152l17 10c57 0 81 5 81 48v493h141v-496c0 -45 30 -45 95 -45z" />
    <glyph glyph-name="uniFEDF" unicode="&#x644;" horiz-adv-x="281" arabic-form="initial" 
d="M0 0l-17 10v152l17 10c57 0 81 5 81 48v493h141v-491c0 -154 -66 -222 -222 -222z" />
    <glyph glyph-name="uniFEE2" unicode="&#x645;" horiz-adv-x="809" arabic-form="final" 
d="M809 172l17 -10v-152l-17 -10c-70 0 -111 19 -133 56c-35 -47 -97 -81 -199 -81c-89 0 -149 32 -186 80h-57c-51 0 -63 -9 -63 -59v-295h-141v317c0 136 57 205 215 208c8 151 111 253 266 253c116 0 203 -47 203 -47v-215c0 -45 30 -45 95 -45zM573 186l1 103
s-31 18 -79 18c-73 0 -107 -35 -107 -85c0 -43 31 -75 97 -75c49 0 77 16 88 39z" />
    <glyph glyph-name="uniFEE4" unicode="&#x645;" horiz-adv-x="623" arabic-form="medial" 
d="M623 172l17 -10v-152l-17 -10c-75 0 -117 21 -138 64c-35 -43 -96 -74 -194 -74c-74 0 -128 22 -165 56c-27 -31 -65 -46 -126 -46l-17 10v152l17 10c27 0 47 1 62 3c-2 14 -3 27 -3 41c0 156 104 263 266 263c116 0 203 -47 203 -47v-215c0 -45 30 -45 95 -45zM387 195
l1 94s-31 18 -80 18c-72 0 -106 -32 -106 -77c0 -38 30 -68 97 -68c49 0 76 13 88 33z" />
    <glyph glyph-name="uniFEE3" unicode="&#x645;" horiz-adv-x="579" arabic-form="initial" 
d="M325 479c116 0 203 -47 203 -47v-239c0 -96 -54 -203 -237 -203c-74 0 -128 22 -165 56c-27 -31 -65 -46 -126 -46l-17 10v152l17 10c27 0 47 1 62 3c-2 14 -3 27 -3 41c0 156 104 263 266 263zM387 195l1 94s-31 18 -80 18c-72 0 -106 -32 -106 -77c0 -38 30 -68 97 -68
c49 0 76 13 88 33z" />
    <glyph glyph-name="uniFEE6" unicode="&#x646;" horiz-adv-x="751" arabic-form="final" 
d="M403 550v-117h-116v117h116zM751 172l17 -10v-152l-17 -10c-43 0 -75 7 -99 21c-16 -130 -103 -237 -316 -237c-242 0 -307 156 -307 316c0 86 20 177 37 220h138c-8 -27 -32 -110 -32 -199c0 -92 32 -165 173 -165c136 0 170 49 170 118v381h140v-238
c0 -45 31 -45 96 -45z" />
    <glyph glyph-name="uniFEE8" unicode="&#x646;" horiz-adv-x="341" arabic-form="medial" 
d="M228 656v-117h-116v117h116zM341 172l17 -10v-152l-17 -10c-80 0 -130 23 -157 68c-33 -46 -90 -68 -184 -68l-17 10v152l17 10c71 0 100 5 100 47v236h141v-233c0 -50 31 -50 100 -50z" />
    <glyph glyph-name="uniFEE7" unicode="&#x646;" horiz-adv-x="290" arabic-form="initial" 
d="M108 539v117h116v-117h-116zM0 0l-17 10v152l17 10c69 0 97 5 97 47v236h141v-236c0 -148 -61 -219 -238 -219z" />
    <glyph glyph-name="uniFB9F" unicode="&#x6ba;" horiz-adv-x="751" arabic-form="final" 
d="M751 172l17 -10v-152l-17 -10c-43 0 -75 7 -99 21c-16 -130 -103 -237 -316 -237c-242 0 -307 156 -307 316c0 86 20 177 37 220h138c-8 -27 -32 -110 -32 -199c0 -92 32 -165 173 -165c136 0 170 49 170 118v381h140v-217h1v-21c0 -45 30 -45 95 -45z" />
    <glyph glyph-name="uniFEEA" unicode="&#x647;" horiz-adv-x="576" arabic-form="final" 
d="M576 172l17 -4v-164l-17 -4c-99 0 -171 24 -203 108c-22 -39 -61 -68 -138 -68c-147 0 -206 109 -206 227c0 149 106 251 269 251c21 0 40 -3 57 -7v44h138c0 -129 -1 -241 -1 -306c0 -67 16 -77 84 -77zM262 212c43 0 74 8 93 22v113c-11 2 -33 5 -61 5
c-82 0 -122 -32 -122 -77c0 -35 28 -63 90 -63z" />
    <glyph glyph-name="uniFEEC" unicode="&#x647;" horiz-adv-x="605" arabic-form="medial" 
d="M605 172l17 -4v-164l-17 -4h-49c2 -7 3 -14 3 -22c0 -114 -67 -211 -246 -211c-158 0 -247 75 -253 233h-60l-17 4v164l17 4h60v259c62 22 139 48 238 48c142 0 221 -88 221 -206c0 -34 -5 -70 -26 -101h112zM290 307c-38 0 -70 -5 -92 -15v-120h65c93 0 119 24 119 67
c0 37 -28 68 -92 68zM326 -64c72 0 95 23 95 46c0 21 -13 46 -91 46l-131 -1c2 -69 38 -91 127 -91z" />
    <glyph glyph-name="uniFEEB" unicode="&#x647;" horiz-adv-x="757" arabic-form="initial" 
d="M158 605c345 -86 547 -155 547 -354c0 -146 -62 -251 -289 -251c-57 0 -118 9 -173 30c-59 -27 -162 -30 -243 -30l-17 5v162l17 5h60c-14 27 -23 58 -23 92c0 81 38 145 100 182c-6 1 -11 3 -17 4zM319 176v175c-4 2 -20 8 -49 8c-57 0 -95 -31 -95 -82
c0 -61 46 -91 144 -101zM445 172c78 3 120 20 120 75c0 46 -29 75 -120 109v-184z" />
    <glyph glyph-name="uniFE94" unicode="&#x629;" horiz-adv-x="576" arabic-form="final" 
d="M247 742v-117h-115v117h115zM403 742v-117h-114v117h114zM576 172l17 -4v-164l-17 -4c-99 0 -171 24 -203 108c-22 -39 -61 -68 -138 -68c-147 0 -206 109 -206 227c0 149 106 251 269 251c21 0 40 -3 57 -7v44h138c0 -129 -1 -241 -1 -306c0 -67 16 -77 84 -77zM262 212
c43 0 74 8 93 22v113c-11 2 -33 5 -61 5c-82 0 -122 -32 -122 -77c0 -35 28 -63 90 -63z" />
    <glyph glyph-name="uniFEEE" unicode="&#x648;" horiz-adv-x="573" arabic-form="final" 
d="M573 172l17 -10v-152l-17 -10h-80v-11c0 -132 -57 -206 -214 -206h-228v164h242c44 0 60 9 60 44v20h-115c-166 0 -214 99 -214 207c0 155 108 261 274 261c113 0 195 -53 195 -53v-254h80zM262 172h91v117c-4 3 -31 18 -80 18c-72 0 -106 -31 -106 -73
c0 -36 26 -62 95 -62z" />
    <glyph glyph-name="uniFE86" unicode="&#x624;" horiz-adv-x="573" arabic-form="final" 
d="M373 625v-77h-201v69h28c-8 9 -14 23 -14 46c0 61 45 92 107 92c40 0 70 -13 70 -13l-13 -68s-27 5 -57 5c-27 0 -45 -9 -45 -28c0 -17 7 -26 35 -26h90zM573 172l17 -10v-152l-17 -10h-80v-11c0 -132 -57 -206 -214 -206h-228v164h242c44 0 60 9 60 44v20h-115
c-166 0 -214 99 -214 207c0 155 108 261 274 261c113 0 195 -53 195 -53v-254h80zM262 172h91v117c-4 3 -31 18 -80 18c-72 0 -106 -31 -106 -73c0 -36 26 -62 95 -62z" />
    <glyph glyph-name="uniFEF0" unicode="&#x649;" horiz-adv-x="785" arabic-form="final" 
d="M785 172l17 -10v-152l-17 -10h-37v-13c0 -142 -98 -235 -352 -235c-309 0 -367 151 -367 348c0 81 16 171 33 212h138c-8 -27 -28 -110 -28 -199c0 -145 54 -183 234 -183c177 0 199 27 199 60v18h-151v164h331z" />
    <glyph glyph-name="uniFEF2" unicode="&#x64a;" horiz-adv-x="785" arabic-form="final" 
d="M785 172l17 -10v-152l-17 -10h-37v-13c0 -142 -98 -235 -352 -235c-309 0 -367 151 -367 348c0 81 16 171 33 212h138c-8 -27 -28 -110 -28 -199c0 -145 54 -183 234 -183c177 0 199 27 199 60v18h-151v164h331zM276 -441v117h115v-117h-115zM433 -441v117h114v-117h-114
    <glyph glyph-name="uniFEF4" unicode="&#x64a;" horiz-adv-x="341" arabic-form="medial" 
d="M341 172l17 -10v-152l-17 -10c-80 0 -130 23 -157 68c-33 -46 -90 -68 -184 -68l-17 10v152l17 10c71 0 100 5 100 47v236h141v-233c0 -50 31 -50 100 -50zM42 -213v117h115v-117h-115zM199 -213v117h114v-117h-114z" />
    <glyph glyph-name="uniFEF3" unicode="&#x64a;" horiz-adv-x="298" arabic-form="initial" 
d="M0 0l-17 10v152l17 10c69 0 97 5 97 47v236h141v-236c0 -148 -61 -219 -238 -219zM13 -213v117h114v-117h-114zM169 -213v117h115v-117h-115z" />
    <glyph glyph-name="uniFE8A" unicode="&#x626;" horiz-adv-x="785" arabic-form="final" 
d="M227 460v-77h-201v69h28c-8 9 -14 23 -14 46c0 61 45 92 107 92c40 0 70 -13 70 -13l-13 -68s-27 5 -57 5c-27 0 -45 -9 -45 -28c0 -17 7 -26 35 -26h90zM785 172l17 -10v-152l-17 -10h-37v-13c0 -142 -98 -235 -352 -235c-309 0 -367 151 -367 348c0 81 16 171 33 212
h138c-8 -27 -28 -110 -28 -199c0 -145 54 -183 234 -183c177 0 199 27 199 60v18h-151v164h331z" />
    <glyph glyph-name="uniFE8C" unicode="&#x626;" horiz-adv-x="341" arabic-form="medial" 
d="M270 601v-77h-201v69h28c-8 9 -14 23 -14 46c0 61 45 92 107 92c40 0 70 -13 70 -13l-13 -68s-27 5 -57 5c-27 0 -45 -9 -45 -28c0 -17 7 -26 35 -26h90zM341 172l17 -10v-152l-17 -10c-80 0 -130 23 -157 68c-33 -46 -90 -68 -184 -68l-17 10v152l17 10
c71 0 100 5 100 47v236h141v-233c0 -50 31 -50 100 -50z" />
    <glyph glyph-name="uniFE8B" unicode="&#x626;" horiz-adv-x="290" arabic-form="initial" 
d="M177 601h90v-77h-201v69h28c-8 9 -14 23 -14 46c0 61 45 92 107 92c40 0 70 -13 70 -13l-13 -68s-27 5 -57 5c-27 0 -45 -9 -45 -28c0 -17 7 -26 35 -26zM97 219v236h141v-236c0 -148 -61 -219 -238 -219l-17 10v152l17 10c69 0 97 5 97 47z" />
    <glyph glyph-name="uniFBFD" unicode="&#x6cc;" horiz-adv-x="785" arabic-form="final" 
d="M785 172l17 -10v-152l-17 -10h-37v-13c0 -142 -98 -235 -352 -235c-309 0 -367 151 -367 348c0 81 16 171 33 212h138c-8 -27 -28 -110 -28 -199c0 -145 54 -183 234 -183c177 0 199 27 199 60v18h-151v164h331zM276 -441v117h115v-117h-115zM433 -441v117h114v-117h-114
    <glyph glyph-name="uniFBFF" unicode="&#x6cc;" horiz-adv-x="341" arabic-form="medial" 
d="M341 172l17 -10v-152l-17 -10c-80 0 -130 23 -157 68c-33 -46 -90 -68 -184 -68l-17 10v152l17 10c71 0 100 5 100 47v236h141v-233c0 -50 31 -50 100 -50zM42 -213v117h115v-117h-115zM199 -213v117h114v-117h-114z" />
    <glyph glyph-name="uniFBFE" unicode="&#x6cc;" horiz-adv-x="298" arabic-form="initial" 
d="M0 0l-17 10v152l17 10c69 0 97 5 97 47v236h141v-236c0 -148 -61 -219 -238 -219zM13 -213v117h114v-117h-114zM169 -213v117h115v-117h-115z" />
    <glyph glyph-name="uniFC31" unicode="&#xfc31;" horiz-adv-x="967" arabic-form="isolated" 
d="M766 841v-117h-116v117h116zM710 640c118 0 205 -53 205 -53v-350c0 -118 -45 -212 -167 -233v-17c0 -142 -98 -235 -352 -235c-309 0 -367 151 -367 348c0 81 16 171 33 212h138c-8 -27 -28 -110 -28 -199c0 -145 54 -183 234 -183c177 0 199 27 199 60v18h-151v160h241
c56 0 78 12 78 56v47c-21 -29 -57 -50 -128 -50c-132 0 -186 88 -186 182c0 140 99 237 251 237zM685 362c42 0 71 8 88 23v73s-29 18 -75 18c-66 0 -95 -25 -95 -61c0 -29 24 -53 82 -53z" />
    <glyph glyph-name="uniFC32" unicode="&#xfc32;" horiz-adv-x="967" arabic-form="isolated" 
d="M766 841v-117h-116v117h116zM710 640c118 0 205 -53 205 -53v-350c0 -118 -45 -212 -167 -233v-17c0 -142 -98 -235 -352 -235c-309 0 -367 151 -367 348c0 81 16 171 33 212h138c-8 -27 -28 -110 -28 -199c0 -145 54 -183 234 -183c177 0 199 27 199 60v18h-151v160h241
c56 0 78 12 78 56v47c-21 -29 -57 -50 -128 -50c-132 0 -186 88 -186 182c0 140 99 237 251 237zM685 362c42 0 71 8 88 23v73s-29 18 -75 18c-66 0 -95 -25 -95 -61c0 -29 24 -53 82 -53zM271 -443v117h115v-117h-115zM428 -443v117h114v-117h-114z" />
    <glyph glyph-name="uniFC35" unicode="&#xfc35;" horiz-adv-x="967" arabic-form="isolated" 
d="M691 841v-117h-115v117h115zM847 841v-117h-114v117h114zM710 640c118 0 205 -53 205 -53v-350c0 -118 -45 -212 -167 -233v-17c0 -142 -98 -235 -352 -235c-309 0 -367 151 -367 348c0 81 16 171 33 212h138c-8 -27 -28 -110 -28 -199c0 -145 54 -183 234 -183
c177 0 199 27 199 60v18h-151v160h241c56 0 78 12 78 56v47c-21 -29 -57 -50 -128 -50c-132 0 -186 88 -186 182c0 140 99 237 251 237zM685 362c42 0 71 8 88 23v73s-29 18 -75 18c-66 0 -95 -25 -95 -61c0 -29 24 -53 82 -53z" />
    <glyph glyph-name="uniFC36" unicode="&#xfc36;" horiz-adv-x="967" arabic-form="isolated" 
d="M691 841v-117h-115v117h115zM847 841v-117h-114v117h114zM710 640c118 0 205 -53 205 -53v-350c0 -118 -45 -212 -167 -233v-17c0 -142 -98 -235 -352 -235c-309 0 -367 151 -367 348c0 81 16 171 33 212h138c-8 -27 -28 -110 -28 -199c0 -145 54 -183 234 -183
c177 0 199 27 199 60v18h-151v160h241c56 0 78 12 78 56v47c-21 -29 -57 -50 -128 -50c-132 0 -186 88 -186 182c0 140 99 237 251 237zM685 362c42 0 71 8 88 23v73s-29 18 -75 18c-66 0 -95 -25 -95 -61c0 -29 24 -53 82 -53zM271 -443v117h115v-117h-115zM428 -443v117
h114v-117h-114z" />
    <glyph glyph-name=".notdef" horiz-adv-x="850" 
d="M53 0v750h743v-750h-743zM167 108h516v534h-516v-534zM524 199l-103 103l-104 -104l-67 69l102 103l-102 104l67 69l104 -104l103 103l68 -68l-102 -104l102 -103z" />
    <glyph glyph-name="space" unicode=" " horiz-adv-x="222" 
    <glyph glyph-name="A" unicode="A" horiz-adv-x="712" 
d="M514 0l-47 174h-224l-47 -174h-177l220 750h235l220 -750h-180zM277 300h156l-77 283h-3z" />
    <glyph glyph-name="Aacute" unicode="&#xc1;" horiz-adv-x="712" 
d="M540 939v-75l-309 -42v75zM514 0l-47 174h-224l-47 -174h-177l220 750h235l220 -750h-180zM277 300h156l-77 283h-3z" />
    <glyph glyph-name="Abreve" unicode="&#x102;" horiz-adv-x="712" 
d="M299 833c-52 0 -76 31 -76 79v29h56v-12c0 -17 6 -25 24 -25h107c18 0 25 8 25 25v12h56v-29c0 -48 -28 -79 -77 -79h-115zM514 0l-47 174h-224l-47 -174h-177l220 750h235l220 -750h-180zM277 300h156l-77 283h-3z" />
    <glyph glyph-name="Acircumflex" unicode="&#xc2;" horiz-adv-x="712" 
d="M491 826l-132 39l-136 -39v74l134 41h3l131 -41v-74zM514 0l-47 174h-224l-47 -174h-177l220 750h235l220 -750h-180zM277 300h156l-77 283h-3z" />
    <glyph glyph-name="Adieresis" unicode="&#xc4;" horiz-adv-x="712" 
d="M313 914v-73h-151v73h151zM551 914v-73h-151v73h151zM514 0l-47 174h-224l-47 -174h-177l220 750h235l220 -750h-180zM277 300h156l-77 283h-3z" />
    <glyph glyph-name="Agrave" unicode="&#xc0;" horiz-adv-x="712" 
d="M481 897v-75l-309 42v75zM514 0l-47 174h-224l-47 -174h-177l220 750h235l220 -750h-180zM277 300h156l-77 283h-3z" />
    <glyph glyph-name="Amacron" unicode="&#x100;" horiz-adv-x="712" 
d="M516 914v-73h-318v73h318zM514 0l-47 174h-224l-47 -174h-177l220 750h235l220 -750h-180zM277 300h156l-77 283h-3z" />
    <glyph glyph-name="Aogonek" unicode="&#x104;" horiz-adv-x="712" 
d="M490 -113c0 -19 15 -29 46 -29c25 0 55 7 67 12v-70c-15 -7 -53 -14 -86 -14c-64 0 -106 27 -106 76c0 53 49 92 107 121l-52 191h-223l-47 -174h-177l220 750h235l220 -750c-115 -19 -204 -72 -204 -113zM277 300h155l-76 283h-3z" />
    <glyph glyph-name="Aring" unicode="&#xc5;" horiz-adv-x="712" 
d="M356 818c-66 0 -104 24 -104 66c0 44 39 67 104 67c63 0 104 -23 104 -67c0 -42 -41 -66 -104 -66zM356 909c-31 0 -54 -5 -54 -25c0 -17 23 -23 54 -23c32 0 55 6 55 23c0 20 -23 25 -55 25zM514 0l-47 174h-224l-47 -174h-177l220 750h235l220 -750h-180zM277 300h156
l-77 283h-3z" />
    <glyph glyph-name="Aringacute" unicode="&#x1fa;" horiz-adv-x="712" 
d="M356 818c-66 0 -104 24 -104 66c0 40 33 63 88 67l31 48h59l-41 -50c44 -7 71 -29 71 -65c0 -42 -41 -66 -104 -66zM356 909c-31 0 -54 -5 -54 -25c0 -17 23 -23 54 -23c32 0 55 6 55 23c0 20 -23 25 -55 25zM514 0l-47 174h-224l-47 -174h-177l220 750h235l220 -750
h-180zM277 300h156l-77 283h-3z" />
    <glyph glyph-name="Atilde" unicode="&#xc3;" horiz-adv-x="712" 
d="M516 914v-73h-318v73h318zM514 0l-47 174h-224l-47 -174h-177l220 750h235l220 -750h-180zM277 300h156l-77 283h-3z" />
    <glyph glyph-name="AE" unicode="&#xc6;" horiz-adv-x="937" 
d="M613 141h290v-141h-465v174h-174l-68 -174h-177l311 750h563v-141h-280v-151h232v-136h-232v-181zM314 300h124v309h-3z" />
    <glyph glyph-name="AEacute" unicode="&#x1fc;" horiz-adv-x="937" 
d="M754 939v-75l-309 -42v75zM613 141h290v-141h-465v174h-174l-68 -174h-177l311 750h563v-141h-280v-151h232v-136h-232v-181zM314 300h124v309h-3z" />
    <glyph glyph-name="B" unicode="B" horiz-adv-x="636" 
d="M502 409c69 -31 110 -95 110 -176c0 -142 -102 -233 -262 -233h-295v750h309c139 0 225 -76 225 -196c0 -63 -33 -116 -87 -145zM430 532c0 50 -32 77 -89 77h-122v-153h121c55 0 90 30 90 76zM333 140c71 0 116 38 116 99c0 60 -41 94 -115 94h-115v-193h114z" />
    <glyph glyph-name="C" unicode="C" horiz-adv-x="810" 
d="M780 295c-28 -190 -168 -309 -368 -309c-225 0 -380 160 -380 390c0 229 155 388 380 388c197 0 338 -113 368 -302h-177c-27 90 -86 138 -191 138c-125 0 -202 -87 -202 -225s77 -226 202 -226c107 0 169 55 193 146h175z" />
    <glyph glyph-name="Cacute" unicode="&#x106;" horiz-adv-x="810" 
d="M257 822v75l309 42v-75zM780 295c-28 -190 -168 -309 -368 -309c-225 0 -380 160 -380 390c0 229 155 388 380 388c197 0 338 -113 368 -302h-177c-27 90 -86 138 -191 138c-125 0 -202 -87 -202 -225s77 -226 202 -226c107 0 169 55 193 146h175z" />
    <glyph glyph-name="Ccaron" unicode="&#x10c;" horiz-adv-x="810" 
d="M415 823h-3l-134 41v74l136 -39l132 39v-74zM412 149c107 0 169 55 193 146h175c-28 -190 -168 -309 -368 -309c-225 0 -380 160 -380 390c0 229 155 388 380 388c197 0 338 -113 368 -302h-177c-27 90 -86 138 -191 138c-125 0 -202 -87 -202 -225s77 -226 202 -226z
    <glyph glyph-name="Ccedilla" unicode="&#xc7;" horiz-adv-x="810" 
d="M412 149c107 0 169 55 193 146h175c-24 -161 -128 -271 -281 -301v-68c0 -81 -45 -126 -127 -126h-69v102h39c30 0 43 12 43 41v44c-210 12 -353 168 -353 389c0 229 155 388 380 388c197 0 338 -113 368 -302h-177c-27 90 -86 138 -191 138c-125 0 -202 -87 -202 -225
s77 -226 202 -226z" />
    <glyph glyph-name="Ccircumflex" unicode="&#x108;" horiz-adv-x="810" 
d="M546 826l-132 39l-136 -39v74l134 41h3l131 -41v-74zM412 149c107 0 169 55 193 146h175c-28 -190 -168 -309 -368 -309c-225 0 -380 160 -380 390c0 229 155 388 380 388c197 0 338 -113 368 -302h-177c-27 90 -86 138 -191 138c-125 0 -202 -87 -202 -225
s77 -226 202 -226z" />
    <glyph glyph-name="Cdotaccent" unicode="&#x10a;" horiz-adv-x="810" 
d="M332 841v73h160v-73h-160zM780 295c-28 -190 -168 -309 -368 -309c-225 0 -380 160 -380 390c0 229 155 388 380 388c197 0 338 -113 368 -302h-177c-27 90 -86 138 -191 138c-125 0 -202 -87 -202 -225s77 -226 202 -226c107 0 169 55 193 146h175z" />
    <glyph glyph-name="D" unicode="D" horiz-adv-x="749" 
d="M324 750c247 0 392 -154 392 -373c0 -223 -146 -377 -391 -377h-270v750h269zM321 158c154 0 219 95 219 219c0 122 -65 219 -220 219h-96v-438h97z" />
    <glyph glyph-name="Eth" unicode="&#xd0;" horiz-adv-x="749" 
d="M324 750c247 0 392 -154 392 -373c0 -223 -146 -377 -391 -377h-270v355h-53v54h53v341h269zM321 158c154 0 219 95 219 219c0 122 -65 219 -220 219h-96v-187h130v-54h-130v-197h97z" />
    <glyph glyph-name="Dcaron" unicode="&#x10e;" horiz-adv-x="749" 
d="M318 823h-3l-134 41v74l136 -39l132 39v-74zM324 750c247 0 392 -154 392 -373c0 -223 -146 -377 -391 -377h-270v750h269zM321 158c154 0 219 95 219 219c0 122 -65 219 -220 219h-96v-438h97z" />
    <glyph glyph-name="Dcroat" unicode="&#x110;" horiz-adv-x="749" 
d="M324 750c247 0 392 -154 392 -373c0 -223 -146 -377 -391 -377h-270v355h-53v54h53v341h269zM321 158c154 0 219 95 219 219c0 122 -65 219 -220 219h-96v-187h130v-54h-130v-197h97z" />
    <glyph glyph-name="E" unicode="E" horiz-adv-x="591" 
d="M229 141h328v-141h-502v750h491v-141h-317v-151h269v-136h-269v-181z" />
    <glyph glyph-name="Eacute" unicode="&#xc9;" horiz-adv-x="591" 
d="M470 939v-75l-309 -42v75zM229 141h328v-141h-502v750h491v-141h-317v-151h269v-136h-269v-181z" />
    <glyph glyph-name="Ebreve" unicode="&#x114;" horiz-adv-x="591" 
d="M238 833c-52 0 -76 31 -76 79v29h56v-12c0 -17 6 -25 24 -25h107c18 0 25 8 25 25v12h56v-29c0 -48 -28 -79 -77 -79h-115zM229 141h328v-141h-502v750h491v-141h-317v-151h269v-136h-269v-181z" />
    <glyph glyph-name="Ecaron" unicode="&#x11a;" horiz-adv-x="591" 
d="M312 823h-3l-134 41v74l136 -39l132 39v-74zM229 141h328v-141h-502v750h491v-141h-317v-151h269v-136h-269v-181z" />
    <glyph glyph-name="Ecircumflex" unicode="&#xca;" horiz-adv-x="591" 
d="M441 826l-132 39l-136 -39v74l134 41h3l131 -41v-74zM229 141h328v-141h-502v750h491v-141h-317v-151h269v-136h-269v-181z" />
    <glyph glyph-name="Edieresis" unicode="&#xcb;" horiz-adv-x="591" 
d="M252 914v-73h-151v73h151zM490 914v-73h-151v73h151zM229 141h328v-141h-502v750h491v-141h-317v-151h269v-136h-269v-181z" />
    <glyph glyph-name="Edotaccent" unicode="&#x116;" horiz-adv-x="591" 
d="M376 914v-73h-160v73h160zM229 141h328v-141h-502v750h491v-141h-317v-151h269v-136h-269v-181z" />
    <glyph glyph-name="Egrave" unicode="&#xc8;" horiz-adv-x="591" 
d="M450 897v-75l-309 42v75zM229 141h328v-141h-502v750h491v-141h-317v-151h269v-136h-269v-181z" />
    <glyph glyph-name="Emacron" unicode="&#x112;" horiz-adv-x="591" 
d="M455 914v-73h-318v73h318zM229 141h328v-141h-502v750h491v-141h-317v-151h269v-136h-269v-181z" />
    <glyph glyph-name="Eogonek" unicode="&#x118;" horiz-adv-x="591" 
d="M557 0c-57 -23 -120 -57 -120 -84c0 -11 8 -18 30 -18c10 0 27 1 39 5v-97c-17 -8 -52 -13 -80 -13c-69 0 -106 31 -106 80c0 55 49 99 106 127h-371v750h491v-141h-317v-151h269v-136h-269v-181h328v-141z" />
    <glyph glyph-name="F" unicode="F" horiz-adv-x="594" 
d="M564 609h-335v-151h288v-139h-288v-319h-174v750h509v-141z" />
    <glyph glyph-name="G" unicode="G" horiz-adv-x="817" 
d="M779 403v-403h-131l-1 98c-54 -71 -136 -112 -239 -112c-223 0 -376 166 -376 390c0 228 154 388 382 388c183 0 318 -95 362 -255h-187c-24 59 -81 101 -172 101c-130 0 -208 -91 -208 -235c0 -145 76 -239 208 -239c103 0 174 54 200 141h-183v126h345z" />
    <glyph glyph-name="Gbreve" unicode="&#x11e;" horiz-adv-x="817" 
d="M351 833c-52 0 -76 31 -76 79v29h56v-12c0 -17 6 -25 24 -25h107c18 0 25 8 25 25v12h56v-29c0 -48 -28 -79 -77 -79h-115zM779 403v-403h-131l-1 98c-54 -71 -136 -112 -239 -112c-223 0 -376 166 -376 390c0 228 154 388 382 388c183 0 318 -95 362 -255h-187
c-24 59 -81 101 -172 101c-130 0 -208 -91 -208 -235c0 -145 76 -239 208 -239c103 0 174 54 200 141h-183v126h345z" />
    <glyph glyph-name="Gcircumflex" unicode="&#x11c;" horiz-adv-x="817" 
d="M543 826l-132 39l-136 -39v74l134 41h3l131 -41v-74zM779 403v-403h-131l-1 98c-54 -71 -136 -112 -239 -112c-223 0 -376 166 -376 390c0 228 154 388 382 388c183 0 318 -95 362 -255h-187c-24 59 -81 101 -172 101c-130 0 -208 -91 -208 -235c0 -145 76 -239 208 -239
c103 0 174 54 200 141h-183v126h345z" />
    <glyph glyph-name="uni0122" unicode="&#x122;" horiz-adv-x="817" 
d="M779 403v-403h-131l-1 98c-54 -71 -136 -112 -239 -112c-223 0 -376 166 -376 390c0 228 154 388 382 388c183 0 318 -95 362 -255h-187c-24 59 -81 101 -172 101c-130 0 -208 -91 -208 -235c0 -145 76 -239 208 -239c103 0 174 54 200 141h-183v126h345zM329 -196
l36 131h124l-70 -131h-90z" />
    <glyph glyph-name="Gdotaccent" unicode="&#x120;" horiz-adv-x="817" 
d="M489 914v-73h-160v73h160zM779 403v-403h-131l-1 98c-54 -71 -136 -112 -239 -112c-223 0 -376 166 -376 390c0 228 154 388 382 388c183 0 318 -95 362 -255h-187c-24 59 -81 101 -172 101c-130 0 -208 -91 -208 -235c0 -145 76 -239 208 -239c103 0 174 54 200 141
h-183v126h345z" />
    <glyph glyph-name="H" unicode="H" horiz-adv-x="698" 
d="M469 750h174v-750h-174v323h-240v-323h-174v750h174v-286h240v286z" />
    <glyph glyph-name="Hbar" unicode="&#x126;" horiz-adv-x="698" 
d="M692 634v-66h-49v-568h-174v323h-240v-323h-174v568h-50v66h50v116h174v-116h240v116h174v-116h49zM469 464v104h-240v-104h240z" />
    <glyph glyph-name="Hcircumflex" unicode="&#x124;" horiz-adv-x="698" 
d="M483 826l-132 39l-136 -39v74l134 41h3l131 -41v-74zM469 750h174v-750h-174v323h-240v-323h-174v750h174v-286h240v286z" />
    <glyph glyph-name="I" unicode="I" horiz-adv-x="280" 
d="M55 0v750h171v-750h-171z" />
    <glyph glyph-name="IJ" unicode="&#x132;" horiz-adv-x="746" 
d="M55 0v750h171v-750h-171zM312 0v141h172c33 0 47 17 47 49v419h-140v141h315v-558c0 -124 -68 -192 -196 -192h-198z" />
    <glyph glyph-name="Iacute" unicode="&#xcd;" horiz-adv-x="280" 
d="M26 794v70l255 42v-70zM55 0v750h171v-750h-171z" />
    <glyph glyph-name="Ibreve" unicode="&#x12c;" horiz-adv-x="280" 
d="M82 833c-52 0 -76 31 -76 79v29h56v-12c0 -17 6 -25 24 -25h107c18 0 25 8 25 25v12h56v-29c0 -48 -28 -79 -77 -79h-115zM55 0v750h171v-750h-171z" />
    <glyph glyph-name="Icircumflex" unicode="&#xce;" horiz-adv-x="280" 
d="M143 941l131 -41v-74l-132 39l-136 -39v74l134 41h3zM55 0v750h171v-750h-171z" />
    <glyph glyph-name="Idieresis" unicode="&#xcf;" horiz-adv-x="280" 
d="M-17 813v68h121v-68h-121zM177 813v68h121v-68h-121zM55 0v750h171v-750h-171z" />
    <glyph glyph-name="Idotaccent" unicode="&#x130;" horiz-adv-x="280" 
d="M28 813v68h224v-68h-224zM55 0v750h171v-750h-171z" />
    <glyph glyph-name="Igrave" unicode="&#xcc;" horiz-adv-x="280" 
d="M256 794l-257 42v69l257 -42v-69zM55 0v750h171v-750h-171z" />
    <glyph glyph-name="Imacron" unicode="&#x12a;" horiz-adv-x="280" 
d="M-17 813v68h315v-68h-315zM55 0v750h171v-750h-171z" />
    <glyph glyph-name="Iogonek" unicode="&#x12e;" horiz-adv-x="280" 
d="M226 0c-85 -41 -135 -78 -135 -107c0 -15 10 -25 38 -25c9 0 24 1 35 5v-75c-17 -9 -40 -12 -70 -12c-56 0 -92 27 -92 73c0 33 22 65 53 92v799h171v-750z" />
    <glyph glyph-name="Itilde" unicode="&#x128;" horiz-adv-x="280" 
d="M-19 841v73h318v-73h-318zM55 0v750h171v-750h-171z" />
    <glyph glyph-name="J" unicode="J" horiz-adv-x="466" 
d="M32 0v141h172c33 0 47 17 47 49v419h-140v141h315v-558c0 -124 -68 -192 -196 -192h-198z" />
    <glyph glyph-name="Jcircumflex" unicode="&#x134;" horiz-adv-x="466" 
d="M403 826l-132 39l-136 -39v74l134 41h3l131 -41v-74zM111 750h315v-558c0 -124 -68 -192 -196 -192h-198v141h172c33 0 47 17 47 49v419h-140v141z" />
    <glyph glyph-name="K" unicode="K" horiz-adv-x="711" 
d="M503 0l-205 323h-69v-323h-174v750h174v-286h68l194 286h197l-237 -349l255 -401h-203z" />
    <glyph glyph-name="uni0136" unicode="&#x136;" horiz-adv-x="711" 
d="M451 401l255 -401h-203l-205 323h-69v-323h-174v750h174v-286h68l194 286h197zM268 -196l36 131h124l-70 -131h-90z" />
    <glyph glyph-name="L" unicode="L" horiz-adv-x="572" 
d="M229 141h310v-141h-484v750h174v-609z" />
    <glyph glyph-name="Lacute" unicode="&#x139;" horiz-adv-x="572" 
d="M377 906v-70l-289 -42v70zM229 141h310v-141h-484v750h174v-609z" />
    <glyph glyph-name="Lcaron" unicode="&#x13d;" horiz-adv-x="572" 
d="M229 141h310v-141h-484v750h174v-609zM513 750l-90 -195h-120l47 195h163z" />
    <glyph glyph-name="uni013B" unicode="&#x13b;" horiz-adv-x="572" 
d="M229 141h310v-141h-484v750h174v-609zM211 -196l36 131h124l-70 -131h-90z" />
    <glyph glyph-name="Ldot" unicode="&#x13f;" horiz-adv-x="572" 
d="M229 141h310v-141h-484v750h174v-609zM483 489v-160h-134v160h134z" />
    <glyph glyph-name="Lslash" unicode="&#x141;" horiz-adv-x="572" 
d="M229 141h310v-141h-484v295l-50 -14v138l50 14v317h174v-269l122 34v-138l-122 -34v-202z" />
    <glyph glyph-name="M" unicode="M" horiz-adv-x="966" 
d="M229 0h-174v750h255l171 -515h4l172 515h254v-750h-174v519h-3l-182 -516h-138l-182 516h-3v-519z" />
    <glyph glyph-name="N" unicode="N" horiz-adv-x="725" 
d="M217 0h-162v750h169l281 -473h3v473h163v-750h-169l-282 473h-3v-473z" />
    <glyph glyph-name="Nacute" unicode="&#x143;" horiz-adv-x="725" 
d="M208 822v75l309 42v-75zM217 0h-162v750h169l281 -473h3v473h163v-750h-169l-282 473h-3v-473z" />
    <glyph glyph-name="Ncaron" unicode="&#x147;" horiz-adv-x="725" 
d="M366 823h-3l-134 41v74l136 -39l132 39v-74zM508 750h163v-750h-169l-282 473h-3v-473h-162v750h169l281 -473h3v473z" />
    <glyph glyph-name="uni0145" unicode="&#x145;" horiz-adv-x="725" 
d="M217 0h-162v750h169l281 -473h3v473h163v-750h-169l-282 473h-3v-473zM283 -196l36 131h124l-70 -131h-90z" />
    <glyph glyph-name="Eng" unicode="&#x14a;" horiz-adv-x="711" 
d="M508 750h163v-758c0 -124 -69 -192 -196 -192h-136v141h109c33 0 48 17 48 49v19l-276 464h-3v-473h-162v750h169l281 -473h3v473z" />
    <glyph glyph-name="Ntilde" unicode="&#xd1;" horiz-adv-x="725" 
d="M204 841v73h318v-73h-318zM217 0h-162v750h169l281 -473h3v473h163v-750h-169l-282 473h-3v-473z" />
    <glyph glyph-name="O" unicode="O" horiz-adv-x="830" 
d="M415 -14c-227 0 -383 162 -383 390c0 226 156 388 383 388c228 0 383 -162 383 -388c0 -228 -155 -390 -383 -390zM415 149c127 0 206 90 206 226s-79 225 -206 225s-205 -89 -205 -225s78 -226 205 -226z" />
    <glyph glyph-name="Oacute" unicode="&#xd3;" horiz-adv-x="830" 
d="M260 822v75l309 42v-75zM415 -14c-227 0 -383 162 -383 390c0 226 156 388 383 388c228 0 383 -162 383 -388c0 -228 -155 -390 -383 -390zM415 149c127 0 206 90 206 226s-79 225 -206 225s-205 -89 -205 -225s78 -226 205 -226z" />
    <glyph glyph-name="Obreve" unicode="&#x14e;" horiz-adv-x="830" 
d="M357 833c-52 0 -76 31 -76 79v29h56v-12c0 -17 6 -25 24 -25h107c18 0 25 8 25 25v12h56v-29c0 -48 -28 -79 -77 -79h-115zM415 -14c-227 0 -383 162 -383 390c0 226 156 388 383 388c228 0 383 -162 383 -388c0 -228 -155 -390 -383 -390zM415 149c127 0 206 90 206 226
s-79 225 -206 225s-205 -89 -205 -225s78 -226 205 -226z" />
    <glyph glyph-name="Ocircumflex" unicode="&#xd4;" horiz-adv-x="830" 
d="M549 826l-132 39l-136 -39v74l134 41h3l131 -41v-74zM415 764c228 0 383 -162 383 -388c0 -228 -155 -390 -383 -390c-227 0 -383 162 -383 390c0 226 156 388 383 388zM415 149c127 0 206 90 206 226s-79 225 -206 225s-205 -89 -205 -225s78 -226 205 -226z" />
    <glyph glyph-name="Odieresis" unicode="&#xd6;" horiz-adv-x="830" 
d="M220 841v73h151v-73h-151zM458 841v73h151v-73h-151zM415 -14c-227 0 -383 162 -383 390c0 226 156 388 383 388c228 0 383 -162 383 -388c0 -228 -155 -390 -383 -390zM415 149c127 0 206 90 206 226s-79 225 -206 225s-205 -89 -205 -225s78 -226 205 -226z" />
    <glyph glyph-name="Ograve" unicode="&#xd2;" horiz-adv-x="830" 
d="M569 822l-309 42v75l309 -42v-75zM415 -14c-227 0 -383 162 -383 390c0 226 156 388 383 388c228 0 383 -162 383 -388c0 -228 -155 -390 -383 -390zM415 149c127 0 206 90 206 226s-79 225 -206 225s-205 -89 -205 -225s78 -226 205 -226z" />
    <glyph glyph-name="Ohungarumlaut" unicode="&#x150;" horiz-adv-x="830" 
d="M247 844l128 67h111l-129 -67h-110zM444 844l127 67h112l-130 -67h-109zM415 -14c-227 0 -383 162 -383 390c0 226 156 388 383 388c228 0 383 -162 383 -388c0 -228 -155 -390 -383 -390zM415 149c127 0 206 90 206 226s-79 225 -206 225s-205 -89 -205 -225
s78 -226 205 -226z" />
    <glyph glyph-name="Omacron" unicode="&#x14c;" horiz-adv-x="830" 
d="M256 841v73h318v-73h-318zM415 -14c-227 0 -383 162 -383 390c0 226 156 388 383 388c228 0 383 -162 383 -388c0 -228 -155 -390 -383 -390zM415 149c127 0 206 90 206 226s-79 225 -206 225s-205 -89 -205 -225s78 -226 205 -226z" />
    <glyph glyph-name="Oslash" unicode="&#xd8;" horiz-adv-x="830" 
d="M801 750l-97 -108c60 -68 94 -160 94 -266c0 -228 -155 -390 -383 -390c-91 0 -171 26 -233 72l-52 -58h-101l97 109c-60 68 -94 160 -94 267c0 226 156 388 383 388c92 0 171 -26 234 -72l52 58h100zM210 375c0 -53 12 -99 34 -135l291 325c-32 23 -73 35 -120 35
c-127 0 -205 -89 -205 -225zM621 375c0 53 -12 99 -34 135l-292 -326c32 -22 73 -35 120 -35c127 0 206 90 206 226z" />
    <glyph glyph-name="Oslashacute" unicode="&#x1fe;" horiz-adv-x="830" 
d="M569 939v-75l-309 -42v75zM801 750l-97 -108c60 -68 94 -160 94 -266c0 -228 -155 -390 -383 -390c-91 0 -171 26 -233 72l-52 -58h-101l97 109c-60 68 -94 160 -94 267c0 226 156 388 383 388c92 0 171 -26 234 -72l52 58h100zM210 375c0 -53 12 -99 34 -135l291 325
c-32 23 -73 35 -120 35c-127 0 -205 -89 -205 -225zM621 375c0 53 -12 99 -34 135l-292 -326c32 -22 73 -35 120 -35c127 0 206 90 206 226z" />
    <glyph glyph-name="Otilde" unicode="&#xd5;" horiz-adv-x="830" 
d="M256 841v73h318v-73h-318zM415 -14c-227 0 -383 162 -383 390c0 226 156 388 383 388c228 0 383 -162 383 -388c0 -228 -155 -390 -383 -390zM415 149c127 0 206 90 206 226s-79 225 -206 225s-205 -89 -205 -225s78 -226 205 -226z" />
    <glyph glyph-name="OE" unicode="&#x152;" horiz-adv-x="1271" 
d="M910 141h327v-141h-502v155c-65 -103 -177 -169 -320 -169c-227 0 -383 162 -383 390c0 226 156 388 383 388c143 0 255 -65 320 -168v154h492v-141h-317v-151h269v-136h-269v-181zM415 149c127 0 207 90 207 226s-80 225 -207 225s-205 -89 -205 -225s78 -226 205 -226z
    <glyph glyph-name="P" unicode="P" horiz-adv-x="624" 
d="M371 750c147 0 235 -87 235 -219c0 -134 -88 -223 -234 -223h-143v-308h-174v750h316zM354 448c56 0 79 38 79 81s-22 81 -77 81h-127v-162h125z" />
    <glyph glyph-name="Thorn" unicode="&#xde;" horiz-adv-x="658" 
d="M357 643c177 0 284 -104 284 -263s-107 -264 -283 -264h-129v-116h-174v750h174v-107h128zM334 256c91 0 129 58 129 124c0 64 -38 122 -128 122h-106v-246h105z" />
    <glyph glyph-name="Q" unicode="Q" horiz-adv-x="830" 
d="M798 376c0 -110 -36 -205 -99 -274l97 -102h-147l-35 35c-56 -31 -124 -49 -199 -49c-227 0 -383 162 -383 390c0 226 156 388 383 388c228 0 383 -162 383 -388zM210 375c0 -136 78 -226 205 -226c27 0 51 4 73 11l-148 155h156l83 -87c27 38 42 88 42 147
c0 136 -79 225 -206 225s-205 -89 -205 -225z" />
    <glyph glyph-name="R" unicode="R" horiz-adv-x="631" 
d="M607 528c0 -94 -46 -167 -129 -200l127 -328h-183l-115 308h-78v-308h-174v750h309c155 0 243 -92 243 -222zM229 610v-162h119c60 0 83 38 83 81c0 42 -22 81 -82 81h-120z" />
    <glyph glyph-name="Racute" unicode="&#x154;" horiz-adv-x="631" 
d="M470 939v-75l-309 -42v75zM607 528c0 -94 -46 -167 -129 -200l127 -328h-183l-115 308h-78v-308h-174v750h309c155 0 243 -92 243 -222zM229 610v-162h119c60 0 83 38 83 81c0 42 -22 81 -82 81h-120z" />
    <glyph glyph-name="Rcaron" unicode="&#x158;" horiz-adv-x="631" 
d="M319 823h-3l-134 41v74l136 -39l132 39v-74zM607 528c0 -94 -46 -167 -129 -200l127 -328h-183l-115 308h-78v-308h-174v750h309c155 0 243 -92 243 -222zM229 610v-162h119c60 0 83 38 83 81c0 42 -22 81 -82 81h-120z" />
    <glyph glyph-name="uni0156" unicode="&#x156;" horiz-adv-x="631" 
d="M607 528c0 -94 -46 -167 -129 -200l127 -328h-183l-115 308h-78v-308h-174v750h309c155 0 243 -92 243 -222zM229 610v-162h119c60 0 83 38 83 81c0 42 -22 81 -82 81h-120zM231 -196l36 131h124l-70 -131h-90z" />
    <glyph glyph-name="S" unicode="S" horiz-adv-x="658" 
d="M341 -14c-187 0 -306 102 -312 267h173c4 -79 57 -126 143 -126c72 0 121 36 121 90c0 64 -40 90 -154 99c-171 14 -260 89 -260 220c0 138 109 228 273 228c176 0 282 -87 292 -240h-171c-7 67 -47 101 -119 101c-65 0 -107 -31 -107 -79c0 -61 40 -85 155 -92
c172 -11 259 -86 259 -225c0 -149 -114 -243 -293 -243z" />
    <glyph glyph-name="Sacute" unicode="&#x15a;" horiz-adv-x="658" 
d="M180 822v75l309 42v-75zM341 -14c-187 0 -306 102 -312 267h173c4 -79 57 -126 143 -126c72 0 121 36 121 90c0 64 -40 90 -154 99c-171 14 -260 89 -260 220c0 138 109 228 273 228c176 0 282 -87 292 -240h-171c-7 67 -47 101 -119 101c-65 0 -107 -31 -107 -79
c0 -61 40 -85 155 -92c172 -11 259 -86 259 -225c0 -149 -114 -243 -293 -243z" />
    <glyph glyph-name="Scaron" unicode="&#x160;" horiz-adv-x="658" 
d="M333 823h-3l-134 41v74l136 -39l132 39v-74zM375 454c172 -11 259 -86 259 -225c0 -149 -114 -243 -293 -243c-187 0 -306 102 -312 267h173c4 -79 57 -126 143 -126c72 0 121 36 121 90c0 64 -40 90 -154 99c-171 14 -260 89 -260 220c0 138 109 228 273 228
c176 0 282 -87 292 -240h-171c-7 67 -47 101 -119 101c-65 0 -107 -31 -107 -79c0 -61 40 -85 155 -92z" />
    <glyph glyph-name="Scedilla" unicode="&#x15e;" horiz-adv-x="658" 
d="M634 229c0 -129 -86 -217 -225 -238v-65c0 -81 -46 -126 -127 -126h-69v102h39c30 0 43 12 43 41v45c-160 16 -261 114 -266 265h173c4 -79 57 -126 143 -126c72 0 121 36 121 90c0 64 -40 90 -154 99c-171 14 -260 89 -260 220c0 138 109 228 273 228
c176 0 282 -87 292 -240h-171c-7 67 -47 101 -119 101c-65 0 -107 -31 -107 -79c0 -61 40 -85 155 -92c172 -11 259 -86 259 -225z" />
    <glyph glyph-name="Scircumflex" unicode="&#x15c;" horiz-adv-x="658" 
d="M464 826l-132 39l-136 -39v74l134 41h3l131 -41v-74zM375 454c172 -11 259 -86 259 -225c0 -149 -114 -243 -293 -243c-187 0 -306 102 -312 267h173c4 -79 57 -126 143 -126c72 0 121 36 121 90c0 64 -40 90 -154 99c-171 14 -260 89 -260 220c0 138 109 228 273 228
c176 0 282 -87 292 -240h-171c-7 67 -47 101 -119 101c-65 0 -107 -31 -107 -79c0 -61 40 -85 155 -92z" />
    <glyph glyph-name="uni0218" unicode="&#x218;" horiz-adv-x="658" 
d="M341 -14c-187 0 -306 102 -312 267h173c4 -79 57 -126 143 -126c72 0 121 36 121 90c0 64 -40 90 -154 99c-171 14 -260 89 -260 220c0 138 109 228 273 228c176 0 282 -87 292 -240h-171c-7 67 -47 101 -119 101c-65 0 -107 -31 -107 -79c0 -61 40 -85 155 -92
c172 -11 259 -86 259 -225c0 -149 -114 -243 -293 -243zM259 -196l36 131h124l-70 -131h-90z" />
    <glyph glyph-name="uni1E9E" unicode="&#x1e9e;" horiz-adv-x="777" 
d="M563 460c124 -26 194 -121 194 -239c0 -149 -97 -235 -255 -235c-142 0 -229 79 -234 206h159c6 -44 30 -68 77 -68c54 0 83 34 83 98c0 55 -26 108 -108 108h-152l137 279h-147c-62 0 -102 -36 -102 -111v-498h-175v509c0 156 83 241 235 241h438z" />
    <glyph glyph-name="T" unicode="T" horiz-adv-x="637" 
d="M406 0h-175v609h-204v141h584v-141h-205v-609z" />
    <glyph glyph-name="Tbar" unicode="&#x166;" horiz-adv-x="637" 
d="M611 609h-205v-206h92v-70h-92v-333h-175v333h-92v70h92v206h-204v141h584v-141z" />
    <glyph glyph-name="Tcaron" unicode="&#x164;" horiz-adv-x="637" 
d="M322 823h-3l-134 41v74l136 -39l132 39v-74zM27 750h584v-141h-205v-609h-175v609h-204v141z" />
    <glyph glyph-name="U" unicode="U" horiz-adv-x="740" 
d="M694 309c0 -200 -126 -323 -324 -323c-197 0 -324 123 -324 323v441h175v-452c0 -93 55 -157 149 -157c96 0 150 64 150 157v452h174v-441z" />
    <glyph glyph-name="Uacute" unicode="&#xda;" horiz-adv-x="740" 
d="M236 822v75l309 42v-75zM694 309c0 -200 -126 -323 -324 -323c-197 0 -324 123 -324 323v441h175v-452c0 -93 55 -157 149 -157c96 0 150 64 150 157v452h174v-441z" />
    <glyph glyph-name="Ubreve" unicode="&#x16c;" horiz-adv-x="740" 
d="M312 833c-52 0 -76 31 -76 79v29h56v-12c0 -17 6 -25 24 -25h107c18 0 25 8 25 25v12h56v-29c0 -48 -28 -79 -77 -79h-115zM694 309c0 -200 -126 -323 -324 -323c-197 0 -324 123 -324 323v441h175v-452c0 -93 55 -157 149 -157c96 0 150 64 150 157v452h174v-441z" />
    <glyph glyph-name="Ucircumflex" unicode="&#xdb;" horiz-adv-x="740" 
d="M504 826l-132 39l-136 -39v74l134 41h3l131 -41v-74zM520 750h174v-441c0 -200 -126 -323 -324 -323c-197 0 -324 123 -324 323v441h175v-452c0 -93 55 -157 149 -157c96 0 150 64 150 157v452z" />
    <glyph glyph-name="Udieresis" unicode="&#xdc;" horiz-adv-x="740" 
d="M176 841v73h151v-73h-151zM414 841v73h151v-73h-151zM694 309c0 -200 -126 -323 -324 -323c-197 0 -324 123 -324 323v441h175v-452c0 -93 55 -157 149 -157c96 0 150 64 150 157v452h174v-441z" />
    <glyph glyph-name="Ugrave" unicode="&#xd9;" horiz-adv-x="740" 
d="M503 822l-309 42v75l309 -42v-75zM694 309c0 -200 -126 -323 -324 -323c-197 0 -324 123 -324 323v441h175v-452c0 -93 55 -157 149 -157c96 0 150 64 150 157v452h174v-441z" />
    <glyph glyph-name="Uhungarumlaut" unicode="&#x170;" horiz-adv-x="740" 
d="M202 844l128 67h111l-129 -67h-110zM399 844l127 67h112l-130 -67h-109zM694 309c0 -200 -126 -323 -324 -323c-197 0 -324 123 -324 323v441h175v-452c0 -93 55 -157 149 -157c96 0 150 64 150 157v452h174v-441z" />
    <glyph glyph-name="Umacron" unicode="&#x16a;" horiz-adv-x="740" 
d="M211 841v73h318v-73h-318zM694 309c0 -200 -126 -323 -324 -323c-197 0 -324 123 -324 323v441h175v-452c0 -93 55 -157 149 -157c96 0 150 64 150 157v452h174v-441z" />
    <glyph glyph-name="Uogonek" unicode="&#x172;" horiz-adv-x="740" 
d="M520 750h174v-441c0 -179 -101 -297 -265 -319c-55 -34 -85 -70 -85 -97c0 -15 11 -25 38 -25c10 0 24 1 36 5v-75c-17 -9 -41 -12 -70 -12c-57 0 -92 27 -92 73c0 49 37 95 83 128c-179 12 -293 133 -293 322v441h175v-452c0 -93 55 -157 149 -157c96 0 150 64 150 157
v452z" />
    <glyph glyph-name="Uring" unicode="&#x16e;" horiz-adv-x="740" 
d="M370 818c-66 0 -104 24 -104 66c0 44 39 67 104 67c63 0 104 -23 104 -67c0 -42 -41 -66 -104 -66zM370 861c32 0 55 6 55 23c0 20 -23 25 -55 25c-31 0 -54 -5 -54 -25c0 -17 23 -23 54 -23zM694 309c0 -200 -126 -323 -324 -323c-197 0 -324 123 -324 323v441h175v-452
c0 -93 55 -157 149 -157c96 0 150 64 150 157v452h174v-441z" />
    <glyph glyph-name="Utilde" unicode="&#x168;" horiz-adv-x="740" 
d="M211 841v73h318v-73h-318zM694 309c0 -200 -126 -323 -324 -323c-197 0 -324 123 -324 323v441h175v-452c0 -93 55 -157 149 -157c96 0 150 64 150 157v452h174v-441z" />
    <glyph glyph-name="V" unicode="V" horiz-adv-x="711" 
d="M474 0h-237l-218 750h183l152 -583h3l151 583h184z" />
    <glyph glyph-name="W" unicode="W" horiz-adv-x="1050" 
d="M858 750h173l-192 -750h-195l-119 471l-119 -471h-195l-192 750h172l120 -522h3l129 486h164l128 -486h3z" />
    <glyph glyph-name="Wacute" unicode="&#x1e82;" horiz-adv-x="1050" 
d="M710 939v-75l-309 -42v75zM858 750h173l-192 -750h-195l-119 471l-119 -471h-195l-192 750h172l120 -522h3l129 486h164l128 -486h3z" />
    <glyph glyph-name="Wcircumflex" unicode="&#x174;" horiz-adv-x="1050" 
d="M659 826l-132 39l-136 -39v74l134 41h3l131 -41v-74zM858 750h173l-192 -750h-195l-119 471l-119 -471h-195l-192 750h172l120 -522h3l129 486h164l128 -486h3z" />
    <glyph glyph-name="Wdieresis" unicode="&#x1e84;" horiz-adv-x="1050" 
d="M482 914v-73h-151v73h151zM720 914v-73h-151v73h151zM858 750h173l-192 -750h-195l-119 471l-119 -471h-195l-192 750h172l120 -522h3l129 486h164l128 -486h3z" />
    <glyph glyph-name="Wgrave" unicode="&#x1e80;" horiz-adv-x="1050" 
d="M670 897v-75l-309 42v75zM858 750h173l-192 -750h-195l-119 471l-119 -471h-195l-192 750h172l120 -522h3l129 486h164l128 -486h3z" />
    <glyph glyph-name="X" unicode="X" horiz-adv-x="685" 
d="M680 0h-195l-142 254l-143 -254h-195l238 393l-225 357h199l126 -225l125 225h199l-225 -356z" />
    <glyph glyph-name="Y" unicode="Y" horiz-adv-x="668" 
d="M652 750l-231 -514v-236h-174v239l-231 511h178l138 -346h3l139 346h178z" />
    <glyph glyph-name="Yacute" unicode="&#xdd;" horiz-adv-x="668" 
d="M511 939v-75l-309 -42v75zM652 750l-231 -514v-236h-174v239l-231 511h178l138 -346h3l139 346h178z" />
    <glyph glyph-name="Ycircumflex" unicode="&#x176;" horiz-adv-x="668" 
d="M468 826l-132 39l-136 -39v74l134 41h3l131 -41v-74zM652 750l-231 -514v-236h-174v239l-231 511h178l138 -346h3l139 346h178z" />
    <glyph glyph-name="Ydieresis" unicode="&#x178;" horiz-adv-x="668" 
d="M291 914v-73h-151v73h151zM529 914v-73h-151v73h151zM652 750l-231 -514v-236h-174v239l-231 511h178l138 -346h3l139 346h178z" />
    <glyph glyph-name="Ygrave" unicode="&#x1ef2;" horiz-adv-x="668" 
d="M464 897v-75l-309 42v75zM652 750l-231 -514v-236h-174v239l-231 511h178l138 -346h3l139 346h178z" />
    <glyph glyph-name="Z" unicode="Z" horiz-adv-x="665" 
d="M634 0h-604v123l395 483v3h-380v141h581v-140l-379 -466v-3h387v-141z" />
    <glyph glyph-name="Zacute" unicode="&#x179;" horiz-adv-x="665" 
d="M207 822v75l309 42v-75zM634 0h-604v123l395 483v3h-380v141h581v-140l-379 -466v-3h387v-141z" />
    <glyph glyph-name="Zcaron" unicode="&#x17d;" horiz-adv-x="665" 
d="M336 823h-3l-134 41v74l136 -39l132 39v-74zM247 141h387v-141h-604v123l395 483v3h-380v141h581v-140l-379 -466v-3z" />
    <glyph glyph-name="Zdotaccent" unicode="&#x17b;" horiz-adv-x="665" 
d="M253 841v73h160v-73h-160zM634 0h-604v123l395 483v3h-380v141h581v-140l-379 -466v-3h387v-141z" />
    <glyph glyph-name="uni0162" unicode="&#x162;" horiz-adv-x="637" 
d="M27 750h584v-141h-205v-609h-30v-74c0 -81 -46 -126 -127 -126h-69v102h39c30 0 43 12 43 41v57h-31v609h-204v141z" />
    <glyph glyph-name="uni021A" unicode="&#x21a;" horiz-adv-x="637" 
d="M406 0h-175v609h-204v141h584v-141h-205v-609zM224 -196l37 131h123l-70 -131h-90z" />
    <glyph glyph-name="Iacute_J.loclNLD" horiz-adv-x="746" 
d="M26 794v70l255 42v-70zM431 794v70l254 42v-70zM55 0v750h171v-750h-171zM312 0v141h172c33 0 47 17 47 49v419h-140v141h315v-558c0 -124 -68 -192 -196 -192h-198z" />
    <glyph glyph-name="a" unicode="a" horiz-adv-x="585" 
d="M344 516c122 0 187 -57 187 -164v-352h-164v51c-35 -42 -90 -65 -159 -65c-108 0 -179 61 -179 157c0 88 62 148 162 157l176 18v17c0 26 -13 40 -38 40h-254v141h269zM260 99c50 0 92 27 107 66v50l-117 -14c-38 -5 -57 -22 -57 -52c0 -32 23 -50 67 -50z" />
    <glyph glyph-name="aacute" unicode="&#xe1;" horiz-adv-x="585" 
d="M473 758l-135 -154h-126l106 154h155zM344 516c122 0 187 -57 187 -164v-352h-164v51c-35 -42 -90 -65 -159 -65c-108 0 -179 61 -179 157c0 88 62 148 162 157l176 18v17c0 26 -13 40 -38 40h-254v141h269zM260 99c50 0 92 27 107 66v50l-117 -14
c-38 -5 -57 -22 -57 -52c0 -32 23 -50 67 -50z" />
    <glyph glyph-name="abreve" unicode="&#x103;" horiz-adv-x="585" 
d="M248 597c-85 0 -127 41 -127 112v39h117v-23c0 -24 11 -37 36 -37h35c24 0 37 13 37 37v23h117v-39c0 -71 -45 -112 -128 -112h-87zM344 516c122 0 187 -57 187 -164v-352h-164v51c-35 -42 -90 -65 -159 -65c-108 0 -179 61 -179 157c0 88 62 148 162 157l176 18v17
c0 26 -13 40 -38 40h-254v141h269zM260 99c50 0 92 27 107 66v50l-117 -14c-38 -5 -57 -22 -57 -52c0 -32 23 -50 67 -50z" />
    <glyph glyph-name="acircumflex" unicode="&#xe2;" horiz-adv-x="585" 
d="M290 665l-49 -61h-126l116 154h122l116 -154h-131zM344 516c122 0 187 -57 187 -164v-352h-164v51c-35 -42 -90 -65 -159 -65c-108 0 -179 61 -179 157c0 88 62 148 162 157l176 18v17c0 26 -13 40 -38 40h-254v141h269zM260 99c50 0 92 27 107 66v50l-117 -14
c-38 -5 -57 -22 -57 -52c0 -32 23 -50 67 -50z" />
    <glyph glyph-name="adieresis" unicode="&#xe4;" horiz-adv-x="585" 
d="M243 750v-153h-136v153h136zM478 750v-153h-136v153h136zM344 516c122 0 187 -57 187 -164v-352h-164v51c-35 -42 -90 -65 -159 -65c-108 0 -179 61 -179 157c0 88 62 148 162 157l176 18v17c0 26 -13 40 -38 40h-254v141h269zM260 99c50 0 92 27 107 66v50l-117 -14
c-38 -5 -57 -22 -57 -52c0 -32 23 -50 67 -50z" />
    <glyph glyph-name="agrave" unicode="&#xe0;" horiz-adv-x="585" 
d="M369 604h-127l-134 154h154zM344 516c122 0 187 -57 187 -164v-352h-164v51c-35 -42 -90 -65 -159 -65c-108 0 -179 61 -179 157c0 88 62 148 162 157l176 18v17c0 26 -13 40 -38 40h-254v141h269zM260 99c50 0 92 27 107 66v50l-117 -14c-38 -5 -57 -22 -57 -52
c0 -32 23 -50 67 -50z" />
    <glyph glyph-name="amacron" unicode="&#x101;" horiz-adv-x="585" 
d="M480 724v-125h-376v125h376zM344 516c122 0 187 -57 187 -164v-352h-164v51c-35 -42 -90 -65 -159 -65c-108 0 -179 61 -179 157c0 88 62 148 162 157l176 18v17c0 26 -13 40 -38 40h-254v141h269zM260 99c50 0 92 27 107 66v50l-117 -14c-38 -5 -57 -22 -57 -52
c0 -32 23 -50 67 -50z" />
    <glyph glyph-name="aogonek" unicode="&#x105;" horiz-adv-x="585" 
d="M412 -84c0 -11 8 -18 30 -18c10 0 27 1 39 5v-97c-17 -8 -52 -13 -80 -13c-69 0 -106 31 -106 80c0 55 49 99 106 127h-34v51c-35 -42 -90 -65 -159 -65c-108 0 -179 61 -179 157c0 88 62 148 162 157l176 18v17c0 26 -13 40 -38 40h-254v141h269c122 0 187 -57 187 -164
v-352h1c-57 -23 -120 -57 -120 -84zM260 99c50 0 92 27 107 66v50l-117 -14c-38 -5 -57 -22 -57 -52c0 -32 23 -50 67 -50z" />
    <glyph glyph-name="aring" unicode="&#xe5;" horiz-adv-x="585" 
d="M292 584c-55 0 -100 44 -100 100c0 54 45 99 100 99c56 0 101 -45 101 -99c0 -56 -45 -100 -101 -100zM292 717c-19 0 -35 -14 -35 -33c0 -20 16 -35 35 -35c20 0 36 15 36 35c0 19 -16 33 -36 33zM344 516c122 0 187 -57 187 -164v-352h-164v51
c-35 -42 -90 -65 -159 -65c-108 0 -179 61 -179 157c0 88 62 148 162 157l176 18v17c0 26 -13 40 -38 40h-254v141h269zM260 99c50 0 92 27 107 66v50l-117 -14c-38 -5 -57 -22 -57 -52c0 -32 23 -50 67 -50z" />
    <glyph glyph-name="aringacute" unicode="&#x1fb;" horiz-adv-x="585" 
d="M293 584c-56 0 -101 44 -101 100c0 42 27 78 66 93l60 105h155l-112 -126c20 -18 32 -44 32 -72c0 -56 -45 -100 -100 -100zM293 649c19 0 35 15 35 35c0 19 -16 33 -35 33c-20 0 -36 -14 -36 -33c0 -20 16 -35 36 -35zM344 516c122 0 187 -57 187 -164v-352h-164v51
c-35 -42 -90 -65 -159 -65c-108 0 -179 61 -179 157c0 88 62 148 162 157l176 18v17c0 26 -13 40 -38 40h-254v141h269zM260 99c50 0 92 27 107 66v50l-117 -14c-38 -5 -57 -22 -57 -52c0 -32 23 -50 67 -50z" />
    <glyph glyph-name="atilde" unicode="&#xe3;" horiz-adv-x="585" 
d="M480 724v-125h-376v125h376zM344 516c122 0 187 -57 187 -164v-352h-164v51c-35 -42 -90 -65 -159 -65c-108 0 -179 61 -179 157c0 88 62 148 162 157l176 18v17c0 26 -13 40 -38 40h-254v141h269zM260 99c50 0 92 27 107 66v50l-117 -14c-38 -5 -57 -22 -57 -52
c0 -32 23 -50 67 -50z" />
    <glyph glyph-name="ae" unicode="&#xe6;" horiz-adv-x="952" 
d="M916 260c0 -12 -1 -28 -2 -37h-381c10 -72 52 -109 121 -109c48 0 80 18 95 37h158c-27 -92 -125 -165 -252 -165c-89 0 -159 39 -202 104c-50 -63 -125 -104 -238 -104s-186 61 -186 157c0 88 62 148 162 157l176 18v17c0 26 -13 40 -38 40h-254v141h269
c66 0 115 -16 146 -48c42 38 97 62 163 62c169 0 263 -117 263 -270zM647 406c-57 0 -94 -26 -109 -82h213c-12 57 -46 82 -104 82zM258 99c51 0 94 27 109 66v50l-117 -14c-38 -5 -57 -22 -57 -52c0 -32 23 -50 65 -50z" />
    <glyph glyph-name="aeacute" unicode="&#x1fd;" horiz-adv-x="952" 
d="M670 758l-135 -154h-126l106 154h155zM916 260c0 -12 -1 -28 -2 -37h-381c10 -72 52 -109 121 -109c48 0 80 18 95 37h158c-27 -92 -125 -165 -252 -165c-89 0 -159 39 -202 104c-50 -63 -125 -104 -238 -104s-186 61 -186 157c0 88 62 148 162 157l176 18v17
c0 26 -13 40 -38 40h-254v141h269c66 0 115 -16 146 -48c42 38 97 62 163 62c169 0 263 -117 263 -270zM647 406c-57 0 -94 -26 -109 -82h213c-12 57 -46 82 -104 82zM258 99c51 0 94 27 109 66v50l-117 -14c-38 -5 -57 -22 -57 -52c0 -32 23 -50 65 -50z" />
    <glyph glyph-name="b" unicode="b" horiz-adv-x="627" 
d="M361 530c139 0 228 -111 228 -271c0 -164 -89 -273 -230 -273c-60 0 -107 20 -139 59v-45h-165v750h165v-279c33 37 80 59 141 59zM318 137c65 0 104 42 104 122c0 77 -39 119 -103 119c-48 0 -80 -25 -99 -61v-119c18 -35 51 -61 98 -61z" />
    <glyph glyph-name="c" unicode="c" horiz-adv-x="601" 
d="M565 199c-20 -137 -118 -213 -254 -213c-167 0 -272 111 -272 272c0 160 105 272 272 272c136 0 234 -79 255 -218h-158c-18 44 -46 69 -97 69c-70 0 -110 -48 -110 -123c0 -76 40 -123 110 -123c50 0 77 21 96 64h158z" />
    <glyph glyph-name="cacute" unicode="&#x107;" horiz-adv-x="601" 
d="M230 604l106 154h155l-135 -154h-126zM565 199c-20 -137 -118 -213 -254 -213c-167 0 -272 111 -272 272c0 160 105 272 272 272c136 0 234 -79 255 -218h-158c-18 44 -46 69 -97 69c-70 0 -110 -48 -110 -123c0 -76 40 -123 110 -123c50 0 77 21 96 64h158z" />
    <glyph glyph-name="ccaron" unicode="&#x10d;" horiz-adv-x="601" 
d="M356 758h131l-116 -154h-122l-116 154h126l49 -61zM565 199c-20 -137 -118 -213 -254 -213c-167 0 -272 111 -272 272c0 160 105 272 272 272c136 0 234 -79 255 -218h-158c-18 44 -46 69 -97 69c-70 0 -110 -48 -110 -123c0 -76 40 -123 110 -123c50 0 77 21 96 64h158z
    <glyph glyph-name="ccedilla" unicode="&#xe7;" horiz-adv-x="601" 
d="M311 135c50 0 77 21 96 64h158c-16 -111 -84 -182 -182 -205v-68c0 -81 -45 -126 -127 -126h-69v102h39c30 0 43 12 43 41v45c-142 18 -230 123 -230 270c0 160 105 272 272 272c136 0 234 -79 255 -218h-158c-18 44 -46 69 -97 69c-70 0 -110 -48 -110 -123
c0 -76 40 -123 110 -123z" />
    <glyph glyph-name="ccircumflex" unicode="&#x109;" horiz-adv-x="601" 
d="M487 604h-131l-48 61l-49 -61h-126l116 154h122zM565 199c-20 -137 -118 -213 -254 -213c-167 0 -272 111 -272 272c0 160 105 272 272 272c136 0 234 -79 255 -218h-158c-18 44 -46 69 -97 69c-70 0 -110 -48 -110 -123c0 -76 40 -123 110 -123c50 0 77 21 96 64h158z
    <glyph glyph-name="cdotaccent" unicode="&#x10b;" horiz-adv-x="601" 
d="M243 596v154h136v-154h-136zM565 199c-20 -137 -118 -213 -254 -213c-167 0 -272 111 -272 272c0 160 105 272 272 272c136 0 234 -79 255 -218h-158c-18 44 -46 69 -97 69c-70 0 -110 -48 -110 -123c0 -76 40 -123 110 -123c50 0 77 21 96 64h158z" />
    <glyph glyph-name="d" unicode="d" horiz-adv-x="627" 
d="M407 750h165v-750h-165v44c-32 -38 -79 -58 -138 -58c-142 0 -230 109 -230 273c0 160 88 271 227 271c61 0 108 -22 141 -58v278zM309 137c47 0 80 25 98 60v120c-19 36 -51 61 -99 61c-64 0 -103 -42 -103 -119c0 -80 39 -122 104 -122z" />
    <glyph glyph-name="eth" unicode="&#xf0;" horiz-adv-x="616" 
d="M434 622c77 -88 148 -213 148 -356c0 -163 -105 -280 -272 -280c-166 0 -271 111 -271 272c0 160 105 272 271 272c24 0 47 -4 68 -12c-23 29 -48 55 -72 80l-182 -35v72l116 22c-50 41 -98 72 -138 93h185c24 -14 55 -37 88 -67l140 27v-72zM310 134
c70 0 110 48 110 124c0 75 -40 123 -110 123s-109 -48 -109 -123c0 -76 39 -124 109 -124z" />
    <glyph glyph-name="dcaron" unicode="&#x10f;" horiz-adv-x="818" 
d="M407 472v278h165v-750h-165v44c-32 -38 -79 -58 -138 -58c-142 0 -230 109 -230 273c0 160 88 271 227 271c61 0 108 -22 141 -58zM646 750h172l-90 -194h-123zM309 137c47 0 80 25 98 60v120c-19 36 -51 61 -99 61c-64 0 -103 -42 -103 -119c0 -80 39 -122 104 -122z
    <glyph glyph-name="dcroat" unicode="&#x111;" horiz-adv-x="627" 
d="M630 674v-88h-58v-586h-165v44c-32 -38 -79 -58 -138 -58c-142 0 -230 109 -230 273c0 160 88 271 227 271c61 0 108 -22 141 -58v114h-131v88h131v76h165v-76h58zM309 137c47 0 80 25 98 60v120c-19 36 -51 61 -99 61c-64 0 -103 -42 -103 -119c0 -80 39 -122 104 -122z
    <glyph glyph-name="e" unicode="e" horiz-adv-x="617" 
d="M581 260c0 -12 -1 -28 -2 -37h-381c10 -72 51 -109 121 -109c48 0 80 18 95 37h158c-27 -92 -125 -165 -258 -165c-166 0 -275 110 -275 275c0 156 108 269 273 269c175 0 269 -117 269 -270zM312 406c-57 0 -94 -26 -109 -82h213c-12 57 -46 82 -104 82z" />
    <glyph glyph-name="eacute" unicode="&#xe9;" horiz-adv-x="617" 
d="M492 758l-135 -154h-126l106 154h155zM581 260c0 -12 -1 -28 -2 -37h-381c10 -72 51 -109 121 -109c48 0 80 18 95 37h158c-27 -92 -125 -165 -258 -165c-166 0 -275 110 -275 275c0 156 108 269 273 269c175 0 269 -117 269 -270zM312 406c-57 0 -94 -26 -109 -82h213
c-12 57 -46 82 -104 82z" />
    <glyph glyph-name="ebreve" unicode="&#x115;" horiz-adv-x="617" 
d="M268 597c-85 0 -127 41 -127 112v39h117v-23c0 -24 11 -37 36 -37h35c24 0 37 13 37 37v23h117v-39c0 -71 -45 -112 -128 -112h-87zM581 260c0 -12 -1 -28 -2 -37h-381c10 -72 51 -109 121 -109c48 0 80 18 95 37h158c-27 -92 -125 -165 -258 -165
c-166 0 -275 110 -275 275c0 156 108 269 273 269c175 0 269 -117 269 -270zM312 406c-57 0 -94 -26 -109 -82h213c-12 57 -46 82 -104 82z" />
    <glyph glyph-name="ecaron" unicode="&#x11b;" horiz-adv-x="617" 
d="M372 604h-122l-116 154h126l49 -61l48 61h131zM581 260c0 -12 -1 -28 -2 -37h-381c10 -72 51 -109 121 -109c48 0 80 18 95 37h158c-27 -92 -125 -165 -258 -165c-166 0 -275 110 -275 275c0 156 108 269 273 269c175 0 269 -117 269 -270zM312 406
c-57 0 -94 -26 -109 -82h213c-12 57 -46 82 -104 82z" />
    <glyph glyph-name="ecircumflex" unicode="&#xea;" horiz-adv-x="617" 
d="M309 665l-49 -61h-126l116 154h122l116 -154h-131zM581 260c0 -12 -1 -28 -2 -37h-381c10 -72 51 -109 121 -109c48 0 80 18 95 37h158c-27 -92 -125 -165 -258 -165c-166 0 -275 110 -275 275c0 156 108 269 273 269c175 0 269 -117 269 -270zM312 406
c-57 0 -94 -26 -109 -82h213c-12 57 -46 82 -104 82z" />
    <glyph glyph-name="edieresis" unicode="&#xeb;" horiz-adv-x="617" 
d="M262 750v-153h-136v153h136zM497 750v-153h-136v153h136zM581 260c0 -12 -1 -28 -2 -37h-381c10 -72 51 -109 121 -109c48 0 80 18 95 37h158c-27 -92 -125 -165 -258 -165c-166 0 -275 110 -275 275c0 156 108 269 273 269c175 0 269 -117 269 -270zM312 406
c-57 0 -94 -26 -109 -82h213c-12 57 -46 82 -104 82z" />
    <glyph glyph-name="edotaccent" unicode="&#x117;" horiz-adv-x="617" 
d="M380 750v-154h-136v154h136zM581 260c0 -12 -1 -28 -2 -37h-381c10 -72 51 -109 121 -109c48 0 80 18 95 37h158c-27 -92 -125 -165 -258 -165c-166 0 -275 110 -275 275c0 156 108 269 273 269c175 0 269 -117 269 -270zM312 406c-57 0 -94 -26 -109 -82h213
c-12 57 -46 82 -104 82z" />
    <glyph glyph-name="egrave" unicode="&#xe8;" horiz-adv-x="617" 
d="M388 604h-127l-134 154h154zM581 260c0 -12 -1 -28 -2 -37h-381c10 -72 51 -109 121 -109c48 0 80 18 95 37h158c-27 -92 -125 -165 -258 -165c-166 0 -275 110 -275 275c0 156 108 269 273 269c175 0 269 -117 269 -270zM312 406c-57 0 -94 -26 -109 -82h213
c-12 57 -46 82 -104 82z" />
    <glyph glyph-name="emacron" unicode="&#x113;" horiz-adv-x="617" 
d="M499 724v-125h-376v125h376zM581 260c0 -12 -1 -28 -2 -37h-381c10 -72 51 -109 121 -109c48 0 80 18 95 37h158c-27 -92 -125 -165 -258 -165c-166 0 -275 110 -275 275c0 156 108 269 273 269c175 0 269 -117 269 -270zM312 406c-57 0 -94 -26 -109 -82h213
c-12 57 -46 82 -104 82z" />
    <glyph glyph-name="eogonek" unicode="&#x119;" horiz-adv-x="617" 
d="M581 260c0 -12 -1 -28 -2 -37h-381c10 -72 51 -109 121 -109c48 0 80 18 95 37h158c-20 -68 -78 -125 -161 -151h1c-57 -23 -120 -57 -120 -84c0 -11 8 -18 30 -18c10 0 27 1 39 5v-97c-17 -8 -52 -13 -80 -13c-69 0 -106 31 -106 80s39 89 87 117
c-136 20 -223 124 -223 271c0 156 108 269 273 269c175 0 269 -117 269 -270zM312 406c-57 0 -94 -26 -109 -82h213c-12 57 -46 82 -104 82z" />
    <glyph glyph-name="f" unicode="f" horiz-adv-x="439" 
d="M110 0v375h-80v141h80v73c0 100 59 161 183 161h167v-138h-141c-25 0 -39 -13 -39 -39v-57h135v-141h-135v-375h-170z" />
    <glyph glyph-name="g" unicode="g" horiz-adv-x="626" 
d="M407 516h165v-534c0 -113 -65 -182 -203 -182h-222v131h207c34 0 53 18 53 57v76c-32 -37 -79 -56 -138 -56c-142 0 -230 105 -230 261c0 152 88 261 227 261c61 0 108 -22 141 -57v43zM309 152c48 0 80 26 98 58v118c-18 33 -50 58 -99 58c-64 0 -103 -42 -103 -117
c0 -76 39 -117 104 -117z" />
    <glyph glyph-name="gbreve" unicode="&#x11f;" horiz-adv-x="626" 
d="M296 597c-85 0 -127 41 -127 112v39h117v-23c0 -24 11 -37 36 -37h35c24 0 37 13 37 37v23h117v-39c0 -71 -45 -112 -128 -112h-87zM407 516h165v-534c0 -113 -65 -182 -203 -182h-222v131h207c34 0 53 18 53 57v76c-32 -37 -79 -56 -138 -56c-142 0 -230 105 -230 261
c0 152 88 261 227 261c61 0 108 -22 141 -57v43zM309 152c48 0 80 26 98 58v118c-18 33 -50 58 -99 58c-64 0 -103 -42 -103 -117c0 -76 39 -117 104 -117z" />
    <glyph glyph-name="gcircumflex" unicode="&#x11d;" horiz-adv-x="626" 
d="M337 665l-49 -61h-126l116 154h122l116 -154h-131zM407 516h165v-534c0 -113 -65 -182 -203 -182h-222v131h207c34 0 53 18 53 57v76c-32 -37 -79 -56 -138 -56c-142 0 -230 105 -230 261c0 152 88 261 227 261c61 0 108 -22 141 -57v43zM309 152c48 0 80 26 98 58v118
c-18 33 -50 58 -99 58c-64 0 -103 -42 -103 -117c0 -76 39 -117 104 -117z" />
    <glyph glyph-name="uni0123" unicode="&#x123;" horiz-adv-x="626" 
d="M445 750l-41 -146h-160l79 146h122zM407 516h165v-534c0 -113 -65 -182 -203 -182h-222v131h207c34 0 53 18 53 57v76c-32 -37 -79 -56 -138 -56c-142 0 -230 105 -230 261c0 152 88 261 227 261c61 0 108 -22 141 -57v43zM309 152c48 0 80 26 98 58v118
c-18 33 -50 58 -99 58c-64 0 -103 -42 -103 -117c0 -76 39 -117 104 -117z" />
    <glyph glyph-name="gdotaccent" unicode="&#x121;" horiz-adv-x="626" 
d="M408 750v-154h-136v154h136zM407 516h165v-534c0 -113 -65 -182 -203 -182h-222v131h207c34 0 53 18 53 57v76c-32 -37 -79 -56 -138 -56c-142 0 -230 105 -230 261c0 152 88 261 227 261c61 0 108 -22 141 -57v43zM309 152c48 0 80 26 98 58v118c-18 33 -50 58 -99 58
c-64 0 -103 -42 -103 -117c0 -76 39 -117 104 -117z" />
    <glyph glyph-name="h" unicode="h" horiz-adv-x="630" 
d="M400 530c110 0 178 -73 178 -189v-341h-171v287c0 55 -24 91 -81 91c-40 0 -81 -23 -101 -55v-323h-170v750h170v-291c42 45 105 71 175 71z" />
    <glyph glyph-name="hbar" unicode="&#x127;" horiz-adv-x="630" 
d="M400 530c110 0 178 -73 178 -189v-341h-171v287c0 55 -24 91 -81 91c-40 0 -81 -23 -101 -55v-323h-170v586h-53v88h53v76h170v-76h132v-88h-132v-127c42 45 105 71 175 71z" />
    <glyph glyph-name="hcircumflex" unicode="&#x125;" horiz-adv-x="630" 
d="M274 800l-132 39l-136 -39v74l134 41h3l131 -41v-74zM400 530c110 0 178 -73 178 -189v-341h-171v287c0 55 -24 91 -81 91c-40 0 -81 -23 -101 -55v-323h-170v750h170v-291c42 45 105 71 175 71z" />
    <glyph glyph-name="i" unicode="i" horiz-adv-x="350" 
d="M294 596h-170v154h170v-154zM124 0v375h-96v141h266v-516h-170z" />
    <glyph glyph-name="dotlessi" unicode="&#x131;" horiz-adv-x="350" 
d="M124 0v375h-96v141h266v-516h-170z" />
    <glyph glyph-name="iacute" unicode="&#xed;" horiz-adv-x="350" 
d="M75 604l106 154h155l-135 -154h-126zM124 0v375h-96v141h266v-516h-170z" />
    <glyph glyph-name="ibreve" unicode="&#x12d;" horiz-adv-x="350" 
d="M111 597c-85 0 -127 41 -127 112v39h117v-23c0 -24 11 -37 36 -37h35c24 0 37 13 37 37v23h117v-39c0 -71 -45 -112 -128 -112h-87zM124 0v375h-96v141h266v-516h-170z" />
    <glyph glyph-name="icircumflex" unicode="&#xee;" horiz-adv-x="350" 
d="M332 604h-131l-48 61l-49 -61h-126l116 154h122zM124 0v375h-96v141h266v-516h-170z" />
    <glyph glyph-name="idieresis" unicode="&#xef;" horiz-adv-x="350" 
d="M14 598v152h118v-152h-118zM178 598v152h118v-152h-118zM124 0v375h-96v141h266v-516h-170z" />
    <glyph glyph-name="i.loclTRK" horiz-adv-x="350" 
d="M136 596v154h136v-154h-136zM124 0v375h-96v141h266v-516h-170z" />
    <glyph glyph-name="igrave" unicode="&#xec;" horiz-adv-x="350" 
d="M105 604l-134 154h154l107 -154h-127zM124 0v375h-96v141h266v-516h-170z" />
    <glyph glyph-name="ij" unicode="&#x133;" horiz-adv-x="701" 
d="M294 596h-170v154h170v-154zM645 596h-170v154h170v-154zM124 0v375h-96v141h266v-516h-170zM311 -200v141h129c22 0 35 12 35 37v397h-96v141h266v-555c0 -100 -57 -161 -178 -161h-156z" />
    <glyph glyph-name="imacron" unicode="&#x12b;" horiz-adv-x="350" 
d="M8 622v110h294v-110h-294zM124 0v375h-96v141h266v-516h-170z" />
    <glyph glyph-name="iogonek" unicode="&#x12f;" horiz-adv-x="350" 
d="M124 750h170v-154h-170v154zM28 375v141h266v-516c-56 -23 -120 -57 -120 -84c0 -11 9 -18 30 -18c10 0 27 1 39 5v-97c-16 -8 -52 -13 -79 -13c-70 0 -107 31 -107 80c0 42 28 77 67 104v398h-96z" />
    <glyph glyph-name="itilde" unicode="&#x129;" horiz-adv-x="350" 
d="M-16 599v125h376v-125h-376zM124 0v375h-96v141h266v-516h-170z" />
    <glyph glyph-name="j" unicode="j" horiz-adv-x="351" 
d="M295 596h-170v154h170v-154zM-39 -200v141h129c22 0 35 12 35 37v397h-96v141h266v-555c0 -100 -57 -161 -178 -161h-156z" />
    <glyph glyph-name="uni0237" horiz-adv-x="351" 
d="M-39 -200v141h129c22 0 35 12 35 37v397h-96v141h266v-555c0 -100 -57 -161 -178 -161h-156z" />
    <glyph glyph-name="jcircumflex" unicode="&#x135;" horiz-adv-x="351" 
d="M335 604h-131l-48 61l-49 -61h-126l116 154h122zM-39 -200v141h129c22 0 35 12 35 37v397h-96v141h266v-555c0 -100 -57 -161 -178 -161h-156z" />
    <glyph glyph-name="k" unicode="k" horiz-adv-x="595" 
d="M393 0l-121 201h-47v-201h-170v750h170v-419h46l118 185h183l-158 -242l169 -274h-190z" />
    <glyph glyph-name="uni0137" unicode="&#x137;" horiz-adv-x="595" 
d="M414 274l169 -274h-190l-121 201h-47v-201h-170v750h170v-419h46l118 185h183zM217 -196l36 131h124l-70 -131h-90z" />
    <glyph glyph-name="l" unicode="l" horiz-adv-x="330" 
d="M307 0h-84c-115 0 -171 61 -171 161v451h-69v138h240v-573c0 -24 12 -36 34 -36h50v-141z" />
    <glyph glyph-name="lacute" unicode="&#x13a;" horiz-adv-x="330" 
d="M53 794v76l223 43v-80zM307 0h-84c-115 0 -171 61 -171 161v451h-69v138h240v-573c0 -24 12 -36 34 -36h50v-141z" />
    <glyph glyph-name="lcaron" unicode="&#x13e;" horiz-adv-x="482" 
d="M307 0h-84c-115 0 -171 61 -171 161v451h-69v138h240v-573c0 -24 12 -36 34 -36h50v-141zM386 552h-118l41 198h173z" />
    <glyph glyph-name="uni013C" unicode="&#x13c;" horiz-adv-x="330" 
d="M307 0h-84c-115 0 -171 61 -171 161v451h-69v138h240v-573c0 -24 12 -36 34 -36h50v-141zM109 -196l36 131h124l-70 -131h-90z" />
    <glyph glyph-name="ldot" unicode="&#x140;" horiz-adv-x="424" 
d="M307 0h-84c-115 0 -171 61 -171 161v451h-69v138h240v-573c0 -24 12 -36 34 -36h50v-141zM420 253h-137v165h137v-165z" />
    <glyph glyph-name="lslash" unicode="&#x142;" horiz-adv-x="330" 
d="M257 141h50v-141h-84c-115 0 -171 61 -171 161v127l-42 -15v114l42 15v210h-69v138h240v-286l61 22v-114l-61 -22v-173c0 -24 12 -36 34 -36z" />
    <glyph glyph-name="m" unicode="m" horiz-adv-x="877" 
d="M678 530c91 0 147 -64 147 -162v-368h-156v300c0 47 -22 78 -70 78c-30 0 -60 -18 -79 -42v-336h-156v300c0 47 -22 78 -70 78c-32 0 -65 -20 -83 -47v-331h-156v516h156v-56c40 43 98 70 161 70c64 0 111 -31 133 -83c40 51 104 83 173 83z" />
    <glyph glyph-name="n" unicode="n" horiz-adv-x="630" 
d="M400 530c110 0 178 -73 178 -189v-341h-171v288c0 54 -25 90 -81 90c-40 0 -81 -23 -101 -55v-323h-170v516h170v-57c42 45 105 71 175 71z" />
    <glyph glyph-name="nacute" unicode="&#x144;" horiz-adv-x="630" 
d="M492 758l-134 -154h-126l106 154h154zM400 530c110 0 178 -73 178 -189v-341h-171v288c0 54 -25 90 -81 90c-40 0 -81 -23 -101 -55v-323h-170v516h170v-57c42 45 105 71 175 71z" />
    <glyph glyph-name="ncaron" unicode="&#x148;" horiz-adv-x="630" 
d="M379 604h-122l-116 154h126l49 -61l48 61h131zM400 530c110 0 178 -73 178 -189v-341h-171v288c0 54 -25 90 -81 90c-40 0 -81 -23 -101 -55v-323h-170v516h170v-57c42 45 105 71 175 71z" />
    <glyph glyph-name="uni0146" unicode="&#x146;" horiz-adv-x="630" 
d="M400 530c110 0 178 -73 178 -189v-341h-171v288c0 54 -25 90 -81 90c-40 0 -81 -23 -101 -55v-323h-170v516h170v-57c42 45 105 71 175 71zM233 -196l36 131h124l-70 -131h-90z" />
    <glyph glyph-name="eng" unicode="&#x14b;" horiz-adv-x="634" 
d="M400 530c110 0 178 -73 178 -189v-380c0 -100 -57 -161 -178 -161h-108v141h80c22 0 35 12 35 37v310c0 54 -25 90 -81 90c-40 0 -81 -23 -101 -55v-323h-170v516h170v-57c42 45 105 71 175 71z" />
    <glyph glyph-name="ntilde" unicode="&#xf1;" horiz-adv-x="630" 
d="M507 724v-125h-376v125h376zM400 530c110 0 178 -73 178 -189v-341h-171v288c0 54 -25 90 -81 90c-40 0 -81 -23 -101 -55v-323h-170v516h170v-57c42 45 105 71 175 71z" />
    <glyph glyph-name="o" unicode="o" horiz-adv-x="621" 
d="M310 -14c-166 0 -271 111 -271 272c0 160 105 272 271 272c167 0 272 -112 272 -272c0 -161 -105 -272 -272 -272zM310 134c70 0 110 48 110 124c0 75 -40 123 -110 123s-109 -48 -109 -123c0 -76 39 -124 109 -124z" />
    <glyph glyph-name="oacute" unicode="&#xf3;" horiz-adv-x="621" 
d="M230 604l106 154h155l-135 -154h-126zM310 -14c-166 0 -271 111 -271 272c0 160 105 272 271 272c167 0 272 -112 272 -272c0 -161 -105 -272 -272 -272zM310 134c70 0 110 48 110 124c0 75 -40 123 -110 123s-109 -48 -109 -123c0 -76 39 -124 109 -124z" />
    <glyph glyph-name="obreve" unicode="&#x14f;" horiz-adv-x="621" 
d="M266 597c-85 0 -127 41 -127 112v39h117v-23c0 -24 11 -37 36 -37h35c24 0 37 13 37 37v23h117v-39c0 -71 -45 -112 -128 -112h-87zM310 -14c-166 0 -271 111 -271 272c0 160 105 272 271 272c167 0 272 -112 272 -272c0 -161 -105 -272 -272 -272zM310 134
c70 0 110 48 110 124c0 75 -40 123 -110 123s-109 -48 -109 -123c0 -76 39 -124 109 -124z" />
    <glyph glyph-name="ocircumflex" unicode="&#xf4;" horiz-adv-x="621" 
d="M487 604h-131l-48 61l-49 -61h-126l116 154h122zM310 -14c-166 0 -271 111 -271 272c0 160 105 272 271 272c167 0 272 -112 272 -272c0 -161 -105 -272 -272 -272zM310 134c70 0 110 48 110 124c0 75 -40 123 -110 123s-109 -48 -109 -123c0 -76 39 -124 109 -124z" />
    <glyph glyph-name="odieresis" unicode="&#xf6;" horiz-adv-x="621" 
d="M125 597v153h136v-153h-136zM360 597v153h136v-153h-136zM310 -14c-166 0 -271 111 -271 272c0 160 105 272 271 272c167 0 272 -112 272 -272c0 -161 -105 -272 -272 -272zM310 134c70 0 110 48 110 124c0 75 -40 123 -110 123s-109 -48 -109 -123
c0 -76 39 -124 109 -124z" />
    <glyph glyph-name="ograve" unicode="&#xf2;" horiz-adv-x="621" 
d="M260 604l-134 154h154l107 -154h-127zM310 -14c-166 0 -271 111 -271 272c0 160 105 272 271 272c167 0 272 -112 272 -272c0 -161 -105 -272 -272 -272zM310 134c70 0 110 48 110 124c0 75 -40 123 -110 123s-109 -48 -109 -123c0 -76 39 -124 109 -124z" />
    <glyph glyph-name="ohungarumlaut" unicode="&#x151;" horiz-adv-x="621" 
d="M178 604l93 154h120l-98 -154h-115zM336 604l98 154h120l-103 -154h-115zM310 -14c-166 0 -271 111 -271 272c0 160 105 272 271 272c167 0 272 -112 272 -272c0 -161 -105 -272 -272 -272zM310 134c70 0 110 48 110 124c0 75 -40 123 -110 123s-109 -48 -109 -123
c0 -76 39 -124 109 -124z" />
    <glyph glyph-name="omacron" unicode="&#x14d;" horiz-adv-x="621" 
d="M122 599v125h376v-125h-376zM310 -14c-166 0 -271 111 -271 272c0 160 105 272 271 272c167 0 272 -112 272 -272c0 -161 -105 -272 -272 -272zM310 134c70 0 110 48 110 124c0 75 -40 123 -110 123s-109 -48 -109 -123c0 -76 39 -124 109 -124z" />
    <glyph glyph-name="oslash" unicode="&#xf8;" horiz-adv-x="621" 
d="M589 516l-70 -73c41 -47 63 -111 63 -185c0 -161 -105 -272 -272 -272c-70 0 -129 20 -174 55l-39 -41h-65l70 73c-41 47 -63 111 -63 185c0 160 105 272 271 272c70 0 129 -20 174 -55l39 41h66zM201 258c0 -26 4 -48 13 -67l162 171c-17 12 -40 19 -66 19
c-70 0 -109 -48 -109 -123zM420 258c0 26 -5 48 -14 67l-162 -171c17 -13 39 -20 66 -20c70 0 110 48 110 124z" />
    <glyph glyph-name="oslashacute" unicode="&#x1ff;" horiz-adv-x="621" 
d="M492 758l-135 -154h-126l106 154h155zM589 516l-70 -73c41 -47 63 -111 63 -185c0 -161 -105 -272 -272 -272c-70 0 -129 20 -174 55l-39 -41h-65l70 73c-41 47 -63 111 -63 185c0 160 105 272 271 272c70 0 129 -20 174 -55l39 41h66zM201 258c0 -26 4 -48 13 -67
l162 171c-17 12 -40 19 -66 19c-70 0 -109 -48 -109 -123zM420 258c0 26 -5 48 -14 67l-162 -171c17 -13 39 -20 66 -20c70 0 110 48 110 124z" />
    <glyph glyph-name="otilde" unicode="&#xf5;" horiz-adv-x="621" 
d="M122 599v125h376v-125h-376zM310 -14c-166 0 -271 111 -271 272c0 160 105 272 271 272c167 0 272 -112 272 -272c0 -161 -105 -272 -272 -272zM310 134c70 0 110 48 110 124c0 75 -40 123 -110 123s-109 -48 -109 -123c0 -76 39 -124 109 -124z" />
    <glyph glyph-name="oe" unicode="&#x153;" horiz-adv-x="1012" 
d="M975 260c0 -12 0 -28 -2 -37h-380c10 -72 51 -109 121 -109c48 0 79 18 94 37h159c-28 -92 -125 -165 -258 -165c-85 0 -155 33 -200 89c-45 -56 -114 -89 -199 -89c-166 0 -271 111 -271 272c0 160 105 272 271 272c85 0 154 -33 198 -89c45 56 114 89 198 89
c175 0 269 -117 269 -270zM707 406c-57 0 -94 -26 -109 -82h212c-12 57 -45 82 -103 82zM310 134c70 0 110 48 110 124c0 75 -40 123 -110 123s-109 -48 -109 -123c0 -76 39 -124 109 -124z" />
    <glyph glyph-name="p" unicode="p" horiz-adv-x="627" 
d="M361 530c139 0 228 -111 228 -271c0 -163 -89 -273 -230 -273c-60 0 -107 20 -139 59v-245h-165v716h165v-45c33 37 80 59 141 59zM318 137c65 0 104 42 104 122c0 77 -39 119 -103 119c-48 0 -80 -25 -99 -61v-119c18 -35 51 -61 98 -61z" />
    <glyph glyph-name="thorn" unicode="&#xfe;" horiz-adv-x="627" 
d="M361 530c139 0 228 -111 228 -271c0 -163 -89 -273 -230 -273c-60 0 -107 20 -139 59v-245h-165v950h165v-279c33 37 80 59 141 59zM318 137c65 0 104 42 104 122c0 77 -39 119 -103 119c-48 0 -80 -25 -99 -61v-119c18 -35 51 -61 98 -61z" />
    <glyph glyph-name="q" unicode="q" horiz-adv-x="627" 
d="M407 516h165v-716h-165v244c-32 -38 -79 -58 -138 -58c-142 0 -230 109 -230 273c0 160 88 271 227 271c61 0 108 -22 141 -58v44zM309 137c47 0 80 25 98 60v120c-19 36 -52 61 -99 61c-64 0 -103 -42 -103 -119c0 -80 39 -122 104 -122z" />
    <glyph glyph-name="r" unicode="r" horiz-adv-x="435" 
d="M359 519h56v-144h-87c-51 0 -86 -22 -104 -52v-323h-170v516h170v-65c32 43 78 68 135 68z" />
    <glyph glyph-name="racute" unicode="&#x155;" horiz-adv-x="435" 
d="M416 758l-135 -154h-126l106 154h155zM224 451c32 43 78 68 135 68h56v-144h-87c-51 0 -86 -22 -104 -52v-323h-170v516h170v-65z" />
    <glyph glyph-name="rcaron" unicode="&#x159;" horiz-adv-x="435" 
d="M295 604h-122l-116 154h126l49 -61l48 61h131zM359 519h56v-144h-87c-51 0 -86 -22 -104 -52v-323h-170v516h170v-65c32 43 78 68 135 68z" />
    <glyph glyph-name="uni0157" unicode="&#x157;" horiz-adv-x="435" 
d="M359 519h56v-144h-87c-51 0 -86 -22 -104 -52v-323h-170v516h170v-65c32 43 78 68 135 68zM44 -196l36 131h124l-70 -131h-90z" />
    <glyph glyph-name="s" unicode="s" horiz-adv-x="557" 
d="M290 -14c-158 0 -253 67 -258 174h164c6 -36 39 -55 94 -55c52 0 84 19 84 50c0 34 -18 47 -112 53c-158 11 -217 60 -217 153c0 108 85 169 237 169c146 0 227 -57 241 -157h-161c-10 24 -34 39 -82 39c-47 0 -75 -15 -75 -41c0 -29 17 -39 107 -45
c159 -9 221 -61 221 -163c0 -113 -88 -177 -243 -177z" />
    <glyph glyph-name="sacute" unicode="&#x15b;" horiz-adv-x="557" 
d="M201 604l106 154h155l-135 -154h-126zM290 -14c-158 0 -253 67 -258 174h164c6 -36 39 -55 94 -55c52 0 84 19 84 50c0 34 -18 47 -112 53c-158 11 -217 60 -217 153c0 108 85 169 237 169c146 0 227 -57 241 -157h-161c-10 24 -34 39 -82 39c-47 0 -75 -15 -75 -41
c0 -29 17 -39 107 -45c159 -9 221 -61 221 -163c0 -113 -88 -177 -243 -177z" />
    <glyph glyph-name="scaron" unicode="&#x161;" horiz-adv-x="557" 
d="M327 758h131l-116 -154h-122l-116 154h126l49 -61zM290 -14c-158 0 -253 67 -258 174h164c6 -36 39 -55 94 -55c52 0 84 19 84 50c0 34 -18 47 -112 53c-158 11 -217 60 -217 153c0 108 85 169 237 169c146 0 227 -57 241 -157h-161c-10 24 -34 39 -82 39
c-47 0 -75 -15 -75 -41c0 -29 17 -39 107 -45c159 -9 221 -61 221 -163c0 -113 -88 -177 -243 -177z" />
    <glyph glyph-name="scedilla" unicode="&#x15f;" horiz-adv-x="557" 
d="M533 163c0 -92 -58 -152 -164 -171v-66c0 -81 -46 -126 -127 -126h-69v102h39c29 0 43 12 43 41v44c-137 9 -218 74 -223 173h164c6 -36 39 -55 94 -55c52 0 84 19 84 50c0 34 -18 47 -112 53c-158 11 -217 60 -217 153c0 108 85 169 237 169c146 0 227 -57 241 -157
h-161c-10 24 -34 39 -82 39c-47 0 -75 -15 -75 -41c0 -29 17 -39 107 -45c159 -9 221 -61 221 -163z" />
    <glyph glyph-name="scircumflex" unicode="&#x15d;" horiz-adv-x="557" 
d="M458 604h-131l-48 61l-49 -61h-126l116 154h122zM290 -14c-158 0 -253 67 -258 174h164c6 -36 39 -55 94 -55c52 0 84 19 84 50c0 34 -18 47 -112 53c-158 11 -217 60 -217 153c0 108 85 169 237 169c146 0 227 -57 241 -157h-161c-10 24 -34 39 -82 39
c-47 0 -75 -15 -75 -41c0 -29 17 -39 107 -45c159 -9 221 -61 221 -163c0 -113 -88 -177 -243 -177z" />
    <glyph glyph-name="uni0219" unicode="&#x219;" horiz-adv-x="557" 
d="M290 -14c-158 0 -253 67 -258 174h164c6 -36 39 -55 94 -55c52 0 84 19 84 50c0 34 -18 47 -112 53c-158 11 -217 60 -217 153c0 108 85 169 237 169c146 0 227 -57 241 -157h-161c-10 24 -34 39 -82 39c-47 0 -75 -15 -75 -41c0 -29 17 -39 107 -45
c159 -9 221 -61 221 -163c0 -113 -88 -177 -243 -177zM209 -196l36 131h124l-70 -131h-90z" />
    <glyph glyph-name="germandbls" unicode="&#xdf;" horiz-adv-x="759" 
d="M601 416c87 -32 135 -106 135 -195c0 -149 -96 -235 -253 -235c-138 0 -226 79 -231 206h158c7 -44 32 -68 76 -68c52 0 80 34 80 98c0 55 -26 108 -108 108h-145v142h108c71 0 94 36 94 74c0 46 -29 76 -92 76h-90c-74 0 -113 -45 -113 -115v-544
c0 -101 -60 -163 -187 -163h-71v129h49c24 0 38 12 38 38v530c0 162 94 267 274 267h115c145 0 243 -82 243 -197c0 -66 -30 -120 -80 -151z" />
    <glyph glyph-name="t" unicode="t" horiz-adv-x="428" 
d="M405 0h-129c-124 0 -183 61 -183 161v214h-81v141h81v167h170v-167h142v-141h-142v-194c0 -27 13 -40 37 -40h105v-141z" />
    <glyph glyph-name="tbar" unicode="&#x167;" horiz-adv-x="428" 
d="M405 375h-142v-74h67v-88h-67v-32c0 -27 13 -40 37 -40h105v-141h-129c-124 0 -183 61 -183 161v52h-61v88h61v74h-81v141h81v167h170v-167h142v-141z" />
    <glyph glyph-name="tcaron" unicode="&#x165;" horiz-adv-x="529" 
d="M445 585h-122l33 165h173zM405 0h-129c-124 0 -183 61 -183 161v214h-81v141h81v167h170v-167h142v-141h-142v-194c0 -27 13 -40 37 -40h105v-141z" />
    <glyph glyph-name="u" unicode="u" horiz-adv-x="624" 
d="M399 516h170v-516h-170v56c-42 -44 -104 -70 -173 -70c-108 0 -174 73 -174 189v341h170v-289c0 -54 25 -90 79 -90c39 0 78 23 98 55v324z" />
    <glyph glyph-name="uacute" unicode="&#xfa;" horiz-adv-x="624" 
d="M491 758l-135 -154h-126l106 154h155zM399 516h170v-516h-170v56c-42 -44 -104 -70 -173 -70c-108 0 -174 73 -174 189v341h170v-289c0 -54 25 -90 79 -90c39 0 78 23 98 55v324z" />
    <glyph glyph-name="ubreve" unicode="&#x16d;" horiz-adv-x="624" 
d="M266 597c-85 0 -127 41 -127 112v39h117v-23c0 -24 11 -37 36 -37h35c24 0 37 13 37 37v23h117v-39c0 -71 -45 -112 -128 -112h-87zM399 516h170v-516h-170v56c-42 -44 -104 -70 -173 -70c-108 0 -174 73 -174 189v341h170v-289c0 -54 25 -90 79 -90c39 0 78 23 98 55
v324z" />
    <glyph glyph-name="ucircumflex" unicode="&#xfb;" horiz-adv-x="624" 
d="M308 665l-49 -61h-126l116 154h122l116 -154h-131zM399 516h170v-516h-170v56c-42 -44 -104 -70 -173 -70c-108 0 -174 73 -174 189v341h170v-289c0 -54 25 -90 79 -90c39 0 78 23 98 55v324z" />
    <glyph glyph-name="udieresis" unicode="&#xfc;" horiz-adv-x="624" 
d="M261 750v-153h-136v153h136zM496 750v-153h-136v153h136zM399 516h170v-516h-170v56c-42 -44 -104 -70 -173 -70c-108 0 -174 73 -174 189v341h170v-289c0 -54 25 -90 79 -90c39 0 78 23 98 55v324z" />
    <glyph glyph-name="ugrave" unicode="&#xf9;" horiz-adv-x="624" 
d="M387 604h-127l-134 154h154zM399 516h170v-516h-170v56c-42 -44 -104 -70 -173 -70c-108 0 -174 73 -174 189v341h170v-289c0 -54 25 -90 79 -90c39 0 78 23 98 55v324z" />
    <glyph glyph-name="uhungarumlaut" unicode="&#x171;" horiz-adv-x="624" 
d="M391 758l-98 -154h-115l93 154h120zM451 604h-115l98 154h120zM399 516h170v-516h-170v56c-42 -44 -104 -70 -173 -70c-108 0 -174 73 -174 189v341h170v-289c0 -54 25 -90 79 -90c39 0 78 23 98 55v324z" />
    <glyph glyph-name="umacron" unicode="&#x16b;" horiz-adv-x="624" 
d="M498 724v-125h-376v125h376zM399 516h170v-516h-170v56c-42 -44 -104 -70 -173 -70c-108 0 -174 73 -174 189v341h170v-289c0 -54 25 -90 79 -90c39 0 78 23 98 55v324z" />
    <glyph glyph-name="uni0163" unicode="&#x163;" horiz-adv-x="428" 
d="M405 375h-142v-194c0 -27 13 -40 37 -40h105v-141h-84v-74c0 -81 -45 -126 -127 -126h-69v102h39c30 0 43 12 43 41v65c-77 19 -114 74 -114 153v214h-81v141h81v167h170v-167h142v-141z" />
    <glyph glyph-name="uni021B" unicode="&#x21b;" horiz-adv-x="428" 
d="M405 0h-129c-124 0 -183 61 -183 161v214h-81v141h81v167h170v-167h142v-141h-142v-194c0 -27 13 -40 37 -40h105v-141zM182 -196l36 131h124l-70 -131h-90z" />
    <glyph glyph-name="uogonek" unicode="&#x173;" horiz-adv-x="624" 
d="M569 0c-57 -23 -120 -57 -120 -84c0 -11 8 -18 30 -18c10 0 27 1 39 5v-97c-17 -8 -52 -13 -80 -13c-69 0 -106 31 -106 80c0 55 49 99 106 127h-39v56c-42 -44 -104 -70 -173 -70c-108 0 -174 73 -174 189v341h170v-289c0 -54 25 -90 79 -90c39 0 78 23 98 55v324h170
v-516z" />
    <glyph glyph-name="uring" unicode="&#x16f;" horiz-adv-x="624" 
d="M310 584c-55 0 -100 44 -100 100c0 54 45 99 100 99c56 0 101 -45 101 -99c0 -56 -45 -100 -101 -100zM310 717c-19 0 -35 -14 -35 -33c0 -20 16 -35 35 -35c20 0 36 15 36 35c0 19 -16 33 -36 33zM399 516h170v-516h-170v56c-42 -44 -104 -70 -173 -70
c-108 0 -174 73 -174 189v341h170v-289c0 -54 25 -90 79 -90c39 0 78 23 98 55v324z" />
    <glyph glyph-name="utilde" unicode="&#x169;" horiz-adv-x="624" 
d="M498 724v-125h-376v125h376zM399 516h170v-516h-170v56c-42 -44 -104 -70 -173 -70c-108 0 -174 73 -174 189v341h170v-289c0 -54 25 -90 79 -90c39 0 78 23 98 55v324z" />
    <glyph glyph-name="v" unicode="v" horiz-adv-x="540" 
d="M380 0h-220l-146 516h171l83 -374h3l84 374h171z" />
    <glyph glyph-name="w" unicode="w" horiz-adv-x="828" 
d="M650 516h164l-122 -516h-208l-70 294l-70 -294h-208l-122 516h164l71 -349h3l87 327h150l86 -327h3z" />
    <glyph glyph-name="wacute" unicode="&#x1e83;" horiz-adv-x="828" 
d="M595 758l-135 -154h-126l106 154h155zM650 516h164l-122 -516h-208l-70 294l-70 -294h-208l-122 516h164l71 -349h3l87 327h150l86 -327h3z" />
    <glyph glyph-name="wcircumflex" unicode="&#x175;" horiz-adv-x="828" 
d="M412 665l-49 -61h-126l116 154h122l116 -154h-131zM650 516h164l-122 -516h-208l-70 294l-70 -294h-208l-122 516h164l71 -349h3l87 327h150l86 -327h3z" />
    <glyph glyph-name="wdieresis" unicode="&#x1e85;" horiz-adv-x="828" 
d="M365 750v-153h-136v153h136zM600 750v-153h-136v153h136zM650 516h164l-122 -516h-208l-70 294l-70 -294h-208l-122 516h164l71 -349h3l87 327h150l86 -327h3z" />
    <glyph glyph-name="wgrave" unicode="&#x1e81;" horiz-adv-x="828" 
d="M491 604h-127l-134 154h154zM650 516h164l-122 -516h-208l-70 294l-70 -294h-208l-122 516h164l71 -349h3l87 327h150l86 -327h3z" />
    <glyph glyph-name="x" unicode="x" horiz-adv-x="567" 
d="M554 0h-179l-93 150l-90 -150h-179l173 262l-166 254h178l83 -139l83 139h178l-166 -254z" />
    <glyph glyph-name="y" unicode="y" horiz-adv-x="554" 
d="M371 516h169l-206 -576c-33 -94 -75 -140 -177 -140h-112v141h92c34 0 48 12 59 42l11 32l-193 501h173l92 -302h3z" />
    <glyph glyph-name="yacute" unicode="&#xfd;" horiz-adv-x="554" 
d="M457 758l-135 -154h-126l106 154h155zM371 516h169l-206 -576c-33 -94 -75 -140 -177 -140h-112v141h92c34 0 48 12 59 42l11 32l-193 501h173l92 -302h3z" />
    <glyph glyph-name="ycircumflex" unicode="&#x177;" horiz-adv-x="554" 
d="M274 665l-49 -61h-126l116 154h122l116 -154h-131zM371 516h169l-206 -576c-33 -94 -75 -140 -177 -140h-112v141h92c34 0 48 12 59 42l11 32l-193 501h173l92 -302h3z" />
    <glyph glyph-name="ydieresis" unicode="&#xff;" horiz-adv-x="554" 
d="M227 750v-153h-136v153h136zM462 750v-153h-136v153h136zM371 516h169l-206 -576c-33 -94 -75 -140 -177 -140h-112v141h92c34 0 48 12 59 42l11 32l-193 501h173l92 -302h3z" />
    <glyph glyph-name="ygrave" unicode="&#x1ef3;" horiz-adv-x="554" 
d="M353 604h-127l-134 154h154zM371 516h169l-206 -576c-33 -94 -75 -140 -177 -140h-112v141h92c34 0 48 12 59 42l11 32l-193 501h173l92 -302h3z" />
    <glyph glyph-name="z" unicode="z" horiz-adv-x="527" 
d="M497 0h-466v100l252 272v3h-239v141h443v-119l-233 -253v-3h243v-141z" />
    <glyph glyph-name="zacute" unicode="&#x17a;" horiz-adv-x="527" 
d="M183 604l106 154h155l-135 -154h-126zM497 0h-466v100l252 272v3h-239v141h443v-119l-233 -253v-3h243v-141z" />
    <glyph glyph-name="zcaron" unicode="&#x17e;" horiz-adv-x="527" 
d="M309 758h131l-116 -154h-122l-116 154h126l49 -61zM497 0h-466v100l252 272v3h-239v141h443v-119l-233 -253v-3h243v-141z" />
    <glyph glyph-name="zdotaccent" unicode="&#x17c;" horiz-adv-x="527" 
d="M196 596v154h136v-154h-136zM497 0h-466v100l252 272v3h-239v141h443v-119l-233 -253v-3h243v-141z" />
    <glyph glyph-name="iacute_j.loclNLD" horiz-adv-x="701" 
d="M77 604l106 154h155l-135 -154h-126zM428 604l107 154h154l-134 -154h-127zM124 0v375h-96v141h266v-516h-170zM311 -200v141h129c22 0 35 12 35 37v397h-96v141h266v-555c0 -100 -57 -161 -178 -161h-156z" />
    <glyph glyph-name="ordfeminine" unicode="&#xaa;" horiz-adv-x="355" 
d="M222 526c-19 -30 -49 -48 -84 -48c-67 0 -120 61 -120 143c0 83 53 143 120 143c35 0 65 -16 84 -46v39h93v-272h-93v41zM111 621c0 -34 23 -57 54 -57c26 0 48 17 57 36v42c-9 20 -31 36 -57 36c-31 0 -54 -24 -54 -57zM311 326h-259v84h259v-84z" />
    <glyph glyph-name="ordmasculine" unicode="&#xba;" horiz-adv-x="361" 
d="M176 478c-89 0 -149 61 -149 143s60 143 149 143c90 0 150 -61 150 -143s-60 -143 -150 -143zM176 562c35 0 60 26 60 59s-25 58 -60 58s-59 -25 -59 -58s24 -59 59 -59zM50 326v84h251v-84h-251z" />
    <glyph glyph-name="a.subs" horiz-adv-x="359" 
d="M208 240c73 0 112 -34 112 -97v-201h-101v28c-20 -23 -51 -36 -90 -36c-63 0 -103 35 -103 90c0 51 37 85 96 91l97 8v9c0 15 -7 22 -21 22h-145v86h155zM162 1c27 0 49 15 57 36v26l-61 -7c-22 -3 -32 -11 -32 -28s12 -27 36 -27z" />
    <glyph glyph-name="b.subs" horiz-adv-x="381" 
d="M219 248c81 0 130 -64 130 -157c0 -94 -50 -157 -131 -157c-33 0 -59 11 -77 32v-24h-100v432h100v-158c18 20 44 32 78 32zM192 26c35 0 56 22 56 65c0 42 -21 64 -55 64c-25 0 -42 -13 -52 -31v-68c9 -17 27 -30 51 -30z" />
    <glyph glyph-name="c.subs" horiz-adv-x="367" 
d="M336 59c-11 -81 -68 -125 -147 -125c-97 0 -157 64 -157 157s60 157 157 157c79 0 137 -47 147 -129h-95c-10 24 -24 37 -52 37c-38 0 -59 -25 -59 -65c0 -41 21 -67 59 -67c27 0 41 12 51 35h96z" />
    <glyph glyph-name="d.subs" horiz-adv-x="381" 
d="M240 374h100v-432h-100v25c-18 -22 -44 -33 -77 -33c-81 0 -131 63 -131 157c0 93 49 157 129 157c34 0 61 -12 79 -33v159zM189 26c24 0 42 13 51 30v68c-10 18 -27 31 -52 31c-35 0 -55 -22 -55 -64c0 -43 20 -65 56 -65z" />
    <glyph glyph-name="e.subs" horiz-adv-x="377" 
d="M345 92c0 -7 0 -17 -1 -22h-216c6 -40 28 -60 67 -60c25 0 43 9 50 20h95c-15 -53 -70 -96 -149 -96c-96 0 -159 64 -159 158c0 91 62 156 158 156c103 0 155 -70 155 -156zM190 174c-31 0 -51 -14 -59 -45h116c-7 32 -25 45 -57 45z" />
    <glyph glyph-name="f.subs" horiz-adv-x="295" 
d="M72 -58v212h-44v86h44v38c0 60 36 96 108 96h98v-84h-80c-14 0 -22 -7 -22 -21v-29h76v-86h-76v-212h-104z" />
    <glyph glyph-name="g.subs" horiz-adv-x="380" 
d="M240 240h100v-308c0 -66 -37 -105 -117 -105h-128v79h118c16 0 27 9 27 29v44c-18 -21 -44 -32 -77 -32c-81 0 -131 61 -131 151c0 87 49 150 129 150c34 0 61 -12 79 -32v24zM189 35c25 0 42 13 51 30v65c-10 16 -26 30 -52 30c-35 0 -55 -22 -55 -62
c0 -42 20 -63 56 -63z" />
    <glyph glyph-name="h.subs" horiz-adv-x="384" 
d="M245 248c62 0 100 -42 100 -108v-198h-104v164c0 30 -13 49 -44 49c-22 0 -43 -12 -53 -28v-185h-103v432h103v-166c24 25 61 40 101 40z" />
    <glyph glyph-name="i.subs" horiz-adv-x="226" 
d="M186 283h-104v91h104v-91zM82 -58v212h-61v86h165v-298h-104z" />
    <glyph glyph-name="j.subs" horiz-adv-x="227" 
d="M186 283h-104v91h104v-91zM-9 -173v85h72c12 0 19 7 19 21v221h-61v86h165v-318c0 -59 -34 -95 -106 -95h-89z" />
    <glyph glyph-name="k.subs" horiz-adv-x="369" 
d="M236 -58l-66 113h-26v-113h-103v432h103v-240h27l63 106h110l-88 -140l95 -158h-115z" />
    <glyph glyph-name="l.subs" horiz-adv-x="214" 
d="M191 -58h-51c-69 0 -101 36 -101 96v250h-38v86h142v-326c0 -14 7 -21 19 -21h29v-85z" />
    <glyph glyph-name="m.subs" horiz-adv-x="526" 
d="M404 248c51 0 83 -36 83 -93v-213h-94v170c0 26 -12 43 -39 43c-15 0 -32 -9 -42 -22v-191h-94v170c0 26 -13 43 -39 43c-17 0 -34 -10 -44 -25v-188h-94v298h94v-33c23 25 58 41 94 41c37 0 63 -18 75 -48c23 29 60 48 100 48z" />
    <glyph glyph-name="n.subs" horiz-adv-x="384" 
d="M245 248c62 0 100 -42 100 -108v-198h-104v164c0 30 -13 49 -44 49c-22 0 -43 -12 -53 -28v-185h-103v298h103v-32c24 25 61 40 101 40z" />
    <glyph glyph-name="o.subs" horiz-adv-x="377" 
d="M345 91c0 -93 -60 -157 -157 -157c-96 0 -156 64 -156 157s60 157 156 157c97 0 157 -64 157 -157zM130 91c0 -41 21 -67 58 -67c38 0 58 26 58 67c0 40 -20 65 -58 65c-37 0 -58 -25 -58 -65z" />
    <glyph glyph-name="p.subs" horiz-adv-x="381" 
d="M219 248c81 0 130 -64 130 -157c0 -94 -50 -157 -131 -157c-33 0 -59 11 -77 32v-139h-100v413h100v-24c18 20 44 32 78 32zM192 26c35 0 56 22 56 65c0 42 -21 64 -55 64c-25 0 -42 -13 -52 -31v-68c9 -17 27 -30 51 -30z" />
    <glyph glyph-name="q.subs" horiz-adv-x="381" 
d="M240 240h100v-413h-100v140c-18 -22 -44 -33 -77 -33c-81 0 -131 63 -131 157c0 93 49 157 129 157c34 0 61 -12 79 -33v25zM189 26c24 0 42 13 51 30v68c-10 18 -27 31 -52 31c-35 0 -55 -22 -55 -64c0 -43 20 -65 56 -65z" />
    <glyph glyph-name="r.subs" horiz-adv-x="275" 
d="M221 241h32v-87h-53c-27 0 -47 -12 -56 -29v-183h-104v298h104v-36c18 23 45 37 77 37z" />
    <glyph glyph-name="s.subs" horiz-adv-x="346" 
d="M179 -66c-92 0 -149 38 -150 100h98c3 -19 22 -30 52 -30c29 0 46 11 46 28c0 19 -10 25 -64 29c-90 7 -125 35 -125 89c0 63 49 98 139 98c86 0 133 -33 141 -91h-97c-6 13 -20 21 -45 21c-26 0 -42 -8 -42 -23c0 -16 11 -21 62 -24c91 -6 128 -36 128 -94
c0 -66 -52 -103 -143 -103z" />
    <glyph glyph-name="t.subs" horiz-adv-x="270" 
d="M247 -58h-75c-73 0 -108 36 -108 95v117h-46v86h46v95h104v-95h79v-86h-79v-104c0 -15 7 -23 20 -23h59v-85z" />
    <glyph glyph-name="u.subs" horiz-adv-x="381" 
d="M237 240h104v-298h-104v32c-24 -25 -60 -40 -99 -40c-62 0 -99 41 -99 107v199h104v-166c0 -29 13 -48 42 -48c21 0 41 12 52 28v186z" />
    <glyph glyph-name="v.subs" horiz-adv-x="336" 
d="M235 -58h-134l-82 298h103l45 -212h1l45 212h105z" />
    <glyph glyph-name="w.subs" horiz-adv-x="504" 
d="M386 240h100l-70 -298h-126l-38 164l-39 -164h-125l-69 298h98l40 -196h2l47 183h92l47 -183h2z" />
    <glyph glyph-name="x.subs" horiz-adv-x="352" 
d="M334 -58h-109l-50 83l-48 -83h-109l98 151l-94 147h108l45 -77l45 77h107l-94 -146z" />
    <glyph glyph-name="y.subs" horiz-adv-x="345" 
d="M224 240h102l-118 -331c-20 -54 -45 -82 -105 -82h-66v85h54c19 0 27 7 33 24l6 17l-111 287h105l50 -167h1z" />
    <glyph glyph-name="z.subs" horiz-adv-x="325" 
d="M297 -58h-269v59l141 151v2h-133v86h256v-71l-129 -140v-2h134v-85z" />
    <glyph glyph-name="a.sups" horiz-adv-x="337" 
d="M197 750c73 0 111 -34 111 -97v-201h-100v28c-20 -23 -51 -36 -90 -36c-63 0 -103 35 -103 90c0 51 36 85 96 91l97 9v9c0 14 -7 21 -21 21h-145v86h155zM151 511c27 0 49 15 57 36v27l-62 -8c-21 -2 -31 -11 -31 -28s12 -27 36 -27z" />
    <glyph glyph-name="b.sups" horiz-adv-x="358" 
d="M208 758c81 0 129 -64 129 -157c0 -94 -49 -157 -130 -157c-33 0 -60 11 -78 34v-26h-99v432h99v-159c18 20 45 33 79 33zM181 537c35 0 56 21 56 64c0 42 -21 65 -55 65c-25 0 -43 -14 -53 -32v-66c9 -18 27 -31 52 -31z" />
    <glyph glyph-name="c.sups" horiz-adv-x="344" 
d="M324 569c-10 -80 -67 -125 -147 -125c-96 0 -156 64 -156 157s60 157 156 157c80 0 138 -47 148 -129h-95c-10 25 -24 38 -53 38c-37 0 -59 -25 -59 -66s22 -66 59 -66c28 0 42 12 52 34h95z" />
    <glyph glyph-name="d.sups" horiz-adv-x="358" 
d="M229 884h100v-432h-100v25c-18 -22 -44 -33 -77 -33c-81 0 -131 63 -131 157c0 93 49 157 129 157c34 0 61 -12 79 -33v159zM177 537c25 0 42 12 52 29v68c-10 18 -27 32 -52 32c-35 0 -55 -23 -55 -65c0 -43 20 -64 55 -64z" />
    <glyph glyph-name="e.sups" horiz-adv-x="354" 
d="M334 602c0 -7 0 -17 -1 -22h-216c6 -39 28 -59 66 -59c26 0 44 9 51 19h94c-15 -53 -69 -96 -148 -96c-96 0 -159 64 -159 158c0 91 62 156 158 156c103 0 155 -70 155 -156zM179 684c-31 0 -51 -14 -59 -45h115c-7 32 -24 45 -56 45z" />
    <glyph glyph-name="f.sups" horiz-adv-x="255" 
d="M61 452v212h-45v86h45v39c0 59 35 95 108 95h98v-83h-81c-13 0 -21 -8 -21 -21v-30h76v-86h-76v-212h-104z" />
    <glyph glyph-name="g.sups" horiz-adv-x="358" 
d="M229 750h100v-308c0 -66 -38 -105 -117 -105h-129v79h119c16 0 27 9 27 29v44c-18 -21 -44 -31 -77 -31c-81 0 -131 60 -131 150c0 87 49 150 129 150c34 0 61 -12 79 -32v24zM177 545c26 0 43 14 52 30v65c-10 17 -26 30 -52 30c-35 0 -55 -21 -55 -62
c0 -42 20 -63 55 -63z" />
    <glyph glyph-name="h.sups" horiz-adv-x="361" 
d="M233 758c63 0 101 -41 101 -108v-198h-104v164c0 30 -14 50 -44 50c-21 0 -42 -12 -53 -27v-187h-103v432h103v-166c24 25 60 40 100 40z" />
    <glyph glyph-name="i.sups" horiz-adv-x="204" 
d="M174 793h-103v91h103v-91zM71 452v212h-61v86h164v-298h-103z" />
    <glyph glyph-name="j.sups" horiz-adv-x="238" 
d="M208 793h-104v91h104v-91zM13 337v86h72c12 0 19 6 19 20v221h-60v86h164v-318c0 -59 -34 -95 -105 -95h-90z" />
    <glyph glyph-name="k.sups" horiz-adv-x="346" 
d="M225 452l-66 114h-26v-114h-103v432h103v-239h26l64 105h110l-88 -140l95 -158h-115z" />
    <glyph glyph-name="l.sups" horiz-adv-x="191" 
d="M179 452h-50c-69 0 -101 36 -101 96v251h-39v85h143v-326c0 -14 6 -20 19 -20h28v-86z" />
    <glyph glyph-name="m.sups" horiz-adv-x="504" 
d="M392 758c52 0 84 -36 84 -92v-214h-95v171c0 25 -11 43 -38 43c-15 0 -32 -10 -42 -22v-192h-94v171c0 25 -13 43 -39 43c-17 0 -34 -10 -44 -24v-190h-94v298h94v-32c23 25 57 40 93 40s63 -18 76 -48c23 30 60 48 99 48z" />
    <glyph glyph-name="n.sups" horiz-adv-x="361" 
d="M233 758c63 0 101 -42 101 -108v-198h-104v165c0 30 -14 49 -44 49c-21 0 -42 -12 -53 -27v-187h-103v298h103v-32c24 25 60 40 100 40z" />
    <glyph glyph-name="o.sups" horiz-adv-x="355" 
d="M334 601c0 -93 -61 -157 -157 -157s-156 64 -156 157s60 157 156 157s157 -64 157 -157zM118 601c0 -41 22 -66 59 -66c38 0 58 25 58 66s-20 66 -58 66c-37 0 -59 -25 -59 -66z" />
    <glyph glyph-name="p.sups" horiz-adv-x="358" 
d="M208 758c81 0 129 -64 129 -157c0 -94 -49 -157 -130 -157c-33 0 -60 11 -78 34v-141h-99v413h99v-25c18 20 45 33 79 33zM181 537c35 0 56 21 56 64c0 42 -21 65 -55 65c-25 0 -43 -14 -53 -32v-66c9 -18 27 -31 52 -31z" />
    <glyph glyph-name="q.sups" horiz-adv-x="358" 
d="M229 750h100v-413h-100v140c-18 -22 -44 -33 -77 -33c-81 0 -131 63 -131 157c0 93 49 157 129 157c34 0 61 -12 79 -33v25zM177 537c25 0 42 12 52 29v68c-10 18 -27 32 -52 32c-35 0 -55 -23 -55 -65c0 -43 20 -64 55 -64z" />
    <glyph glyph-name="r.sups" horiz-adv-x="252" 
d="M209 752h33v-87h-53c-28 0 -47 -12 -56 -29v-184h-104v298h104v-36c18 24 44 38 76 38z" />
    <glyph glyph-name="s.sups" horiz-adv-x="323" 
d="M168 444c-92 0 -149 38 -151 100h99c3 -19 21 -29 52 -29c29 0 46 10 46 27c0 19 -11 26 -65 29c-89 6 -125 35 -125 89c0 63 50 98 140 98c85 0 133 -32 141 -91h-98c-5 13 -19 21 -44 21c-26 0 -42 -8 -42 -23s11 -21 62 -24c90 -5 128 -35 128 -94
c0 -66 -52 -103 -143 -103z" />
    <glyph glyph-name="t.sups" horiz-adv-x="247" 
d="M235 452h-74c-73 0 -108 37 -108 96v116h-46v86h46v95h103v-95h79v-86h-79v-104c0 -15 8 -22 21 -22h58v-86z" />
    <glyph glyph-name="u.sups" horiz-adv-x="358" 
d="M225 750h104v-298h-104v31c-24 -25 -60 -39 -99 -39c-61 0 -98 41 -98 108v198h104v-165c0 -30 13 -48 42 -48c21 0 40 11 51 25v188z" />
    <glyph glyph-name="v.sups" horiz-adv-x="314" 
d="M224 452h-134l-83 298h104l45 -212h1l45 212h105z" />
    <glyph glyph-name="w.sups" horiz-adv-x="481" 
d="M375 750h99l-69 -298h-126l-38 166l-39 -166h-125l-70 298h99l39 -195h2l48 182h91l48 -182h1z" />
    <glyph glyph-name="x.sups" horiz-adv-x="329" 
d="M323 452h-109l-50 83l-49 -83h-108l98 151l-94 147h108l45 -76l44 76h108l-94 -146z" />
    <glyph glyph-name="y.sups" horiz-adv-x="322" 
d="M212 750h103l-118 -330c-20 -55 -46 -83 -105 -83h-66v86h54c19 0 27 6 33 23l6 17l-112 287h105l51 -167h1z" />
    <glyph glyph-name="z.sups" horiz-adv-x="302" 
d="M286 452h-269v59l140 152v1h-133v86h257v-71l-130 -139v-2h135v-86z" />
    <glyph glyph-name="pi" unicode="&#x3c0;" horiz-adv-x="688" 
d="M663 386h-87v-240c0 -23 10 -36 37 -36c11 0 21 1 28 5v-114c-20 -10 -51 -15 -81 -15c-102 0 -154 42 -154 136v264h-132v-386h-170v386h-80v130h639v-130z" />
    <glyph glyph-name="uni0621" unicode="&#x621;" horiz-adv-x="518" 
d="M270 164h201v-164h-447v164h58c-9 19 -15 44 -15 74c0 116 72 193 228 193c83 0 140 -25 140 -25l-22 -155s-61 13 -120 13c-60 0 -88 -23 -88 -52c0 -28 14 -48 65 -48z" />
    <glyph glyph-name="uni0621" horiz-adv-x="518" 
d="M270 164h201v-164h-447v164h58c-9 19 -15 44 -15 74c0 116 72 193 228 193c83 0 140 -25 140 -25l-22 -155s-61 13 -120 13c-60 0 -88 -23 -88 -52c0 -28 14 -48 65 -48z" />
    <glyph glyph-name="uni0627" unicode="&#x627;" horiz-adv-x="258" 
d="M59 0v713h141v-713h-141z" />
    <glyph glyph-name="uni0627" horiz-adv-x="258" 
d="M59 0v713h141v-713h-141z" />
    <glyph glyph-name="uni0627.short" horiz-adv-x="258" 
d="M59 0v613h141v-613h-141z" />
    <glyph glyph-name="uniFE8E.short" horiz-adv-x="288" 
d="M265 0c-150 0 -206 61 -206 208v405h141v-385c0 -50 16 -56 88 -56l17 -10v-152l-17 -10h-23z" />
    <glyph glyph-name="uni0623" unicode="&#x623;" horiz-adv-x="258" 
d="M139 759h90v-77h-201v69h28c-8 9 -14 23 -14 46c0 61 45 92 107 92c40 0 70 -13 70 -13l-13 -68s-27 5 -57 5c-27 0 -45 -9 -45 -28c0 -17 7 -26 35 -26zM59 0v613h141v-613h-141z" />
    <glyph glyph-name="uni0623" horiz-adv-x="258" 
d="M139 759h90v-77h-201v69h28c-8 9 -14 23 -14 46c0 61 45 92 107 92c40 0 70 -13 70 -13l-13 -68s-27 5 -57 5c-27 0 -45 -9 -45 -28c0 -17 7 -26 35 -26zM59 0v613h141v-613h-141z" />
    <glyph glyph-name="uni0625" unicode="&#x625;" horiz-adv-x="250" 
d="M200 713v-613h-141v613h141zM137 -73h90v-77h-201v69h28c-8 9 -14 23 -14 46c0 61 45 92 107 92c40 0 70 -13 70 -13l-13 -68s-27 5 -57 5c-27 0 -45 -9 -45 -28c0 -17 7 -26 35 -26z" />
    <glyph glyph-name="uni0625" horiz-adv-x="250" 
d="M200 713v-613h-141v613h141zM137 -73h90v-77h-201v69h28c-8 9 -14 23 -14 46c0 61 45 92 107 92c40 0 70 -13 70 -13l-13 -68s-27 5 -57 5c-27 0 -45 -9 -45 -28c0 -17 7 -26 35 -26z" />
    <glyph glyph-name="uni0622" unicode="&#x622;" horiz-adv-x="258" 
d="M251 777l14 -72c-12 -11 -43 -27 -75 -27c-46 0 -80 21 -113 21c-23 0 -46 -8 -62 -16l-17 72c17 12 50 27 83 27c43 0 62 -21 109 -21c22 0 39 5 61 16zM59 0v613h141v-613h-141z" />
    <glyph glyph-name="uni0622" horiz-adv-x="258" 
d="M251 777l14 -72c-12 -11 -43 -27 -75 -27c-46 0 -80 21 -113 21c-23 0 -46 -8 -62 -16l-17 72c17 12 50 27 83 27c43 0 62 -21 109 -21c22 0 39 5 61 16zM59 0v613h141v-613h-141z" />
    <glyph glyph-name="uni0671" unicode="&#x671;" horiz-adv-x="258" 
d="M59 0v613h141v-613h-141z" />
    <glyph glyph-name="uni0671" horiz-adv-x="258" 
d="M59 0v613h141v-613h-141z" />
    <glyph glyph-name="uni066E" unicode="&#x66e;" horiz-adv-x="925" 
d="M300 0c-224 0 -271 127 -271 265c0 58 16 124 32 165h136c-13 -35 -27 -100 -27 -139c0 -90 41 -119 142 -119h335c51 0 85 5 85 50v234h141v-227c0 -153 -61 -229 -228 -229h-345z" />
    <glyph glyph-name="uni066E" horiz-adv-x="925" 
d="M300 0c-224 0 -271 127 -271 265c0 58 16 124 32 165h136c-13 -35 -27 -100 -27 -139c0 -90 41 -119 142 -119h335c51 0 85 5 85 50v234h141v-227c0 -153 -61 -229 -228 -229h-345z" />
    <glyph glyph-name="uni0628" unicode="&#x628;" horiz-adv-x="925" 
d="M300 0c-224 0 -271 127 -271 265c0 58 16 124 32 165h136c-13 -35 -27 -100 -27 -139c0 -90 41 -119 142 -119h335c51 0 85 5 85 50v234h141v-227c0 -153 -61 -229 -228 -229h-345zM394 -216v117h116v-117h-116z" />
    <glyph glyph-name="uni0628" horiz-adv-x="925" 
d="M300 0c-224 0 -271 127 -271 265c0 58 16 124 32 165h136c-13 -35 -27 -100 -27 -139c0 -90 41 -119 142 -119h335c51 0 85 5 85 50v234h141v-227c0 -153 -61 -229 -228 -229h-345zM394 -216v117h116v-117h-116z" />
    <glyph glyph-name="uni062A" unicode="&#x62a;" horiz-adv-x="925" 
d="M322 461v117h115v-117h-115zM479 461v117h114v-117h-114zM300 0c-224 0 -271 127 -271 265c0 58 16 124 32 165h136c-13 -35 -27 -100 -27 -139c0 -90 41 -119 142 -119h335c51 0 85 5 85 50v234h141v-227c0 -153 -61 -229 -228 -229h-345z" />
    <glyph glyph-name="uni062A" horiz-adv-x="925" 
d="M322 461v117h115v-117h-115zM479 461v117h114v-117h-114zM300 0c-224 0 -271 127 -271 265c0 58 16 124 32 165h136c-13 -35 -27 -100 -27 -139c0 -90 41 -119 142 -119h335c51 0 85 5 85 50v234h141v-227c0 -153 -61 -229 -228 -229h-345z" />
    <glyph glyph-name="uni062B" unicode="&#x62b;" horiz-adv-x="925" 
d="M400 617v116h117v-116h-117zM321 460v118h114v-118h-114zM480 460v118h114v-118h-114zM300 0c-224 0 -271 127 -271 265c0 58 16 124 32 165h136c-13 -35 -27 -100 -27 -139c0 -90 41 -119 142 -119h335c51 0 85 5 85 50v234h141v-227c0 -153 -61 -229 -228 -229h-345z
    <glyph glyph-name="uni062B" horiz-adv-x="925" 
d="M400 617v116h117v-116h-117zM321 460v118h114v-118h-114zM480 460v118h114v-118h-114zM300 0c-224 0 -271 127 -271 265c0 58 16 124 32 165h136c-13 -35 -27 -100 -27 -139c0 -90 41 -119 142 -119h335c51 0 85 5 85 50v234h141v-227c0 -153 -61 -229 -228 -229h-345z
    <glyph glyph-name="uni062C" unicode="&#x62c;" horiz-adv-x="687" 
d="M289 -319c-195 0 -269 99 -269 248c0 146 63 243 233 243h230c16 0 24 6 24 20v34c0 66 -74 81 -146 81c-80 0 -146 -12 -196 -26l-29 148c47 20 125 50 249 50c104 0 268 -27 268 -223v-75c0 -121 -59 -181 -173 -181h-229c-69 0 -85 -33 -85 -68c0 -40 21 -79 121 -79
h175v-172h-173zM524 -292v112h112v-112h-112z" />
    <glyph glyph-name="uni062C" horiz-adv-x="687" 
d="M289 -319c-195 0 -269 99 -269 248c0 146 63 243 233 243h230c16 0 24 6 24 20v34c0 66 -74 81 -146 81c-80 0 -146 -12 -196 -26l-29 148c47 20 125 50 249 50c104 0 268 -27 268 -223v-75c0 -121 -59 -181 -173 -181h-229c-69 0 -85 -33 -85 -68c0 -40 21 -79 121 -79
h175v-172h-173zM524 -292v112h112v-112h-112z" />
    <glyph glyph-name="uni062D" unicode="&#x62d;" horiz-adv-x="687" 
d="M295 -319c-195 0 -269 99 -269 248c0 146 62 243 233 243h224c16 0 24 6 24 20v34c0 66 -74 81 -146 81c-80 0 -146 -12 -196 -26l-29 152c47 18 125 46 249 46c104 0 268 -27 268 -223v-75c0 -121 -59 -181 -173 -181h-223c-70 0 -85 -33 -85 -68c0 -40 20 -79 121 -79
h242v-172h-240z" />
    <glyph glyph-name="uni062D" horiz-adv-x="687" 
d="M295 -319c-195 0 -269 99 -269 248c0 146 62 243 233 243h224c16 0 24 6 24 20v34c0 66 -74 81 -146 81c-80 0 -146 -12 -196 -26l-29 152c47 18 125 46 249 46c104 0 268 -27 268 -223v-75c0 -121 -59 -181 -173 -181h-223c-70 0 -85 -33 -85 -68c0 -40 20 -79 121 -79
h242v-172h-240z" />
    <glyph glyph-name="uni062E" unicode="&#x62e;" horiz-adv-x="687" 
d="M310 563v117h116v-117h-116zM295 -319c-195 0 -269 99 -269 248c0 146 62 243 233 243h224c16 0 24 6 24 20v34c0 66 -74 81 -146 81c-80 0 -146 -12 -196 -26l-29 152c47 18 125 46 249 46c104 0 268 -27 268 -223v-75c0 -121 -59 -181 -173 -181h-223
c-70 0 -85 -33 -85 -68c0 -40 20 -79 121 -79h242v-172h-240z" />
    <glyph glyph-name="uni062E" horiz-adv-x="687" 
d="M310 563v117h116v-117h-116zM295 -319c-195 0 -269 99 -269 248c0 146 62 243 233 243h224c16 0 24 6 24 20v34c0 66 -74 81 -146 81c-80 0 -146 -12 -196 -26l-29 152c47 18 125 46 249 46c104 0 268 -27 268 -223v-75c0 -121 -59 -181 -173 -181h-223
c-70 0 -85 -33 -85 -68c0 -40 20 -79 121 -79h242v-172h-240z" />
    <glyph glyph-name="uni062F" unicode="&#x62f;" horiz-adv-x="560" 
d="M115 489c345 -47 411 -126 409 -258l-1 -48c-2 -123 -58 -183 -174 -183h-320v172h351v38c0 49 -31 79 -291 116z" />
    <glyph glyph-name="uni062F" horiz-adv-x="560" 
d="M115 489c345 -47 411 -126 409 -258l-1 -48c-2 -123 -58 -183 -174 -183h-320v172h351v38c0 49 -31 79 -291 116z" />
    <glyph glyph-name="uni0630" unicode="&#x630;" horiz-adv-x="560" 
d="M297 692v-117h-116v117h116zM115 489c345 -47 411 -126 409 -258l-1 -48c-2 -123 -58 -183 -174 -183h-320v172h351v38c0 49 -31 79 -291 116z" />
    <glyph glyph-name="uni0630" horiz-adv-x="560" 
d="M297 692v-117h-116v117h116zM115 489c345 -47 411 -126 409 -258l-1 -48c-2 -123 -58 -183 -174 -183h-320v172h351v38c0 49 -31 79 -291 116z" />
    <glyph glyph-name="uni0631" unicode="&#x631;" horiz-adv-x="337" 
d="M-10 -217v172h97c48 0 63 11 63 44v456h140v-455c0 -116 -39 -217 -199 -217h-101z" />
    <glyph glyph-name="uni0631" horiz-adv-x="337" 
d="M-10 -217v172h97c48 0 63 11 63 44v456h140v-455c0 -116 -39 -217 -199 -217h-101z" />
    <glyph glyph-name="uni0632" unicode="&#x632;" horiz-adv-x="337" 
d="M159 539v117h116v-117h-116zM-10 -217v172h97c48 0 63 11 63 44v456h140v-455c0 -116 -39 -217 -199 -217h-101z" />
    <glyph glyph-name="uni0632" horiz-adv-x="337" 
d="M159 539v117h116v-117h-116zM-10 -217v172h97c48 0 63 11 63 44v456h140v-455c0 -116 -39 -217 -199 -217h-101z" />
    <glyph glyph-name="uni0633" unicode="&#x633;" horiz-adv-x="1274" 
d="M1082 453h140v-248c0 -141 -90 -205 -214 -205c-70 0 -112 20 -134 55c-21 -32 -62 -55 -133 -55h-93c-24 -118 -113 -212 -312 -212c-242 0 -307 156 -307 317c0 85 20 177 37 219h138c-8 -27 -32 -109 -32 -199c0 -92 32 -165 173 -165c136 0 170 49 170 119v314h140
v-221h102c31 0 45 9 45 31v190h140v-212c14 -5 36 -9 68 -9c49 0 72 9 72 33v248z" />
    <glyph glyph-name="uni0633" horiz-adv-x="1274" 
d="M1082 453h140v-248c0 -141 -90 -205 -214 -205c-70 0 -112 20 -134 55c-21 -32 -62 -55 -133 -55h-93c-24 -118 -113 -212 -312 -212c-242 0 -307 156 -307 317c0 85 20 177 37 219h138c-8 -27 -32 -109 -32 -199c0 -92 32 -165 173 -165c136 0 170 49 170 119v314h140
v-221h102c31 0 45 9 45 31v190h140v-212c14 -5 36 -9 68 -9c49 0 72 9 72 33v248z" />
    <glyph glyph-name="uni0634" unicode="&#x634;" horiz-adv-x="1274" 
d="M932 764v-116h-117v116h117zM850 609v-118h-114v118h114zM895 491v118h114v-118h-114zM1082 453h140v-248c0 -141 -90 -205 -214 -205c-70 0 -112 20 -134 55c-21 -32 -62 -55 -133 -55h-93c-24 -118 -113 -212 -312 -212c-242 0 -307 156 -307 317c0 85 20 177 37 219
h138c-8 -27 -32 -109 -32 -199c0 -92 32 -165 173 -165c136 0 170 49 170 119v314h140v-221h102c31 0 45 9 45 31v190h140v-212c14 -5 36 -9 68 -9c49 0 72 9 72 33v248z" />
    <glyph glyph-name="uni0634" horiz-adv-x="1274" 
d="M932 764v-116h-117v116h117zM850 609v-118h-114v118h114zM895 491v118h114v-118h-114zM1082 453h140v-248c0 -141 -90 -205 -214 -205c-70 0 -112 20 -134 55c-21 -32 -62 -55 -133 -55h-93c-24 -118 -113 -212 -312 -212c-242 0 -307 156 -307 317c0 85 20 177 37 219
h138c-8 -27 -32 -109 -32 -199c0 -92 32 -165 173 -165c136 0 170 49 170 119v314h140v-221h102c31 0 45 9 45 31v190h140v-212c14 -5 36 -9 68 -9c49 0 72 9 72 33v248z" />
    <glyph glyph-name="uni0635" unicode="&#x635;" horiz-adv-x="1225" 
d="M966 479c122 0 208 -76 208 -236c0 -171 -94 -243 -260 -243h-266c-24 -118 -113 -212 -312 -212c-242 0 -307 156 -307 317c0 85 20 177 37 219h138c-8 -27 -32 -109 -32 -199c0 -92 32 -165 173 -165c136 0 170 49 170 119v365h140v-40c141 42 228 75 311 75zM931 172
c68 0 101 12 101 62c0 52 -38 73 -90 73c-67 0 -166 -29 -287 -63v-72h276z" />
    <glyph glyph-name="uni0635" horiz-adv-x="1225" 
d="M966 479c122 0 208 -76 208 -236c0 -171 -94 -243 -260 -243h-266c-24 -118 -113 -212 -312 -212c-242 0 -307 156 -307 317c0 85 20 177 37 219h138c-8 -27 -32 -109 -32 -199c0 -92 32 -165 173 -165c136 0 170 49 170 119v365h140v-40c141 42 228 75 311 75zM931 172
c68 0 101 12 101 62c0 52 -38 73 -90 73c-67 0 -166 -29 -287 -63v-72h276z" />
    <glyph glyph-name="uni0636" unicode="&#x636;" horiz-adv-x="1225" 
d="M759 644v-117h-116v117h116zM966 479c122 0 208 -76 208 -236c0 -171 -94 -243 -260 -243h-266c-24 -118 -113 -212 -312 -212c-242 0 -307 156 -307 317c0 85 20 177 37 219h138c-8 -27 -32 -109 -32 -199c0 -92 32 -165 173 -165c136 0 170 49 170 119v365h140v-40
c141 42 228 75 311 75zM931 172c68 0 101 12 101 62c0 52 -38 73 -90 73c-67 0 -166 -29 -287 -63v-72h276z" />
    <glyph glyph-name="uni0636" horiz-adv-x="1225" 
d="M759 644v-117h-116v117h116zM966 479c122 0 208 -76 208 -236c0 -171 -94 -243 -260 -243h-266c-24 -118 -113 -212 -312 -212c-242 0 -307 156 -307 317c0 85 20 177 37 219h138c-8 -27 -32 -109 -32 -199c0 -92 32 -165 173 -165c136 0 170 49 170 119v365h140v-40
c141 42 228 75 311 75zM931 172c68 0 101 12 101 62c0 52 -38 73 -90 73c-67 0 -166 -29 -287 -63v-72h276z" />
    <glyph glyph-name="uni0637" unicode="&#x637;" horiz-adv-x="801" 
d="M539 479c123 0 210 -77 210 -238c0 -169 -93 -241 -259 -241h-466v172h85v552h141v-315c90 30 210 70 289 70zM507 172c68 0 100 12 100 60c0 53 -37 75 -89 75c-63 0 -155 -25 -268 -54v-81h257z" />
    <glyph glyph-name="uni0637" horiz-adv-x="801" 
d="M539 479c123 0 210 -77 210 -238c0 -169 -93 -241 -259 -241h-466v172h85v552h141v-315c90 30 210 70 289 70zM507 172c68 0 100 12 100 60c0 53 -37 75 -89 75c-63 0 -155 -25 -268 -54v-81h257z" />
    <glyph glyph-name="uni0638" unicode="&#x638;" horiz-adv-x="801" 
d="M539 479c123 0 210 -77 210 -238c0 -169 -93 -241 -259 -241h-466v172h85v552h141v-315c90 30 210 70 289 70zM540 684v-117h-116v117h116zM507 172c68 0 100 12 100 60c0 53 -37 75 -89 75c-63 0 -155 -25 -268 -54v-81h257z" />
    <glyph glyph-name="uni0638" horiz-adv-x="801" 
d="M539 479c123 0 210 -77 210 -238c0 -169 -93 -241 -259 -241h-466v172h85v552h141v-315c90 30 210 70 289 70zM540 684v-117h-116v117h116zM507 172c68 0 100 12 100 60c0 53 -37 75 -89 75c-63 0 -155 -25 -268 -54v-81h257z" />
    <glyph glyph-name="uni0639" unicode="&#x639;" horiz-adv-x="571" 
d="M298 -147h249v-172h-260c-204 0 -269 96 -269 237c0 91 50 148 124 180c-57 39 -70 95 -70 158c0 160 116 226 259 226c74 0 142 -17 170 -29l-27 -159c-21 5 -71 16 -140 16c-81 0 -116 -26 -116 -68c0 -47 30 -70 126 -70h186v-172h-210c-139 0 -156 -38 -156 -73
c0 -37 22 -74 134 -74z" />
    <glyph glyph-name="uni0639" horiz-adv-x="571" 
d="M298 -147h249v-172h-260c-204 0 -269 96 -269 237c0 91 50 148 124 180c-57 39 -70 95 -70 158c0 160 116 226 259 226c74 0 142 -17 170 -29l-27 -159c-21 5 -71 16 -140 16c-81 0 -116 -26 -116 -68c0 -47 30 -70 126 -70h186v-172h-210c-139 0 -156 -38 -156 -73
c0 -37 22 -74 134 -74z" />
    <glyph glyph-name="uni063A" unicode="&#x63a;" horiz-adv-x="571" 
d="M381 682v-117h-116v117h116zM298 -147h249v-172h-260c-204 0 -269 96 -269 237c0 91 50 148 124 180c-57 39 -70 95 -70 158c0 160 116 226 259 226c74 0 142 -17 170 -29l-27 -159c-21 5 -71 16 -140 16c-81 0 -116 -26 -116 -68c0 -47 30 -70 126 -70h186v-172h-210
c-139 0 -156 -38 -156 -73c0 -37 22 -74 134 -74z" />
    <glyph glyph-name="uni063A" horiz-adv-x="571" 
d="M381 682v-117h-116v117h116zM298 -147h249v-172h-260c-204 0 -269 96 -269 237c0 91 50 148 124 180c-57 39 -70 95 -70 158c0 160 116 226 259 226c74 0 142 -17 170 -29l-27 -159c-21 5 -71 16 -140 16c-81 0 -116 -26 -116 -68c0 -47 30 -70 126 -70h186v-172h-210
c-139 0 -156 -38 -156 -73c0 -37 22 -74 134 -74z" />
    <glyph glyph-name="uni0641" unicode="&#x641;" horiz-adv-x="999" 
d="M802 838v-117h-116v117h116zM946 590l1 -358c0 -132 -58 -232 -222 -232h-427c-221 0 -269 136 -269 281c0 67 18 143 34 189h138c-13 -41 -29 -117 -29 -162c0 -103 40 -136 137 -136h417c57 0 79 12 79 56v44c-21 -29 -57 -51 -128 -51c-132 0 -186 89 -186 184
c0 141 99 238 251 238c118 0 204 -53 204 -53zM716 365c42 0 72 9 89 24v72s-29 18 -75 18c-66 0 -96 -26 -96 -61c0 -30 25 -53 82 -53z" />
    <glyph glyph-name="uni0641" horiz-adv-x="999" 
d="M802 838v-117h-116v117h116zM946 590l1 -358c0 -132 -58 -232 -222 -232h-427c-221 0 -269 136 -269 281c0 67 18 143 34 189h138c-13 -41 -29 -117 -29 -162c0 -103 40 -136 137 -136h417c57 0 79 12 79 56v44c-21 -29 -57 -51 -128 -51c-132 0 -186 89 -186 184
c0 141 99 238 251 238c118 0 204 -53 204 -53zM716 365c42 0 72 9 89 24v72s-29 18 -75 18c-66 0 -96 -26 -96 -61c0 -30 25 -53 82 -53z" />
    <glyph glyph-name="uni06A4" unicode="&#x6a4;" horiz-adv-x="999" 
d="M806 993v-116h-117v116h117zM724 838v-118h-114v118h114zM769 720v118h114v-118h-114zM946 590l1 -358c0 -132 -58 -232 -222 -232h-427c-221 0 -269 136 -269 281c0 67 18 143 34 189h138c-13 -41 -29 -117 -29 -162c0 -103 40 -136 137 -136h417c57 0 79 12 79 56v44
c-21 -29 -57 -51 -128 -51c-132 0 -186 89 -186 184c0 141 99 238 251 238c118 0 204 -53 204 -53zM716 365c42 0 72 9 89 24v72s-29 18 -75 18c-66 0 -96 -26 -96 -61c0 -30 25 -53 82 -53z" />
    <glyph glyph-name="uni06A4" horiz-adv-x="999" 
d="M806 993v-116h-117v116h117zM724 838v-118h-114v118h114zM769 720v118h114v-118h-114zM946 590l1 -358c0 -132 -58 -232 -222 -232h-427c-221 0 -269 136 -269 281c0 67 18 143 34 189h138c-13 -41 -29 -117 -29 -162c0 -103 40 -136 137 -136h417c57 0 79 12 79 56v44
c-21 -29 -57 -51 -128 -51c-132 0 -186 89 -186 184c0 141 99 238 251 238c118 0 204 -53 204 -53zM716 365c42 0 72 9 89 24v72s-29 18 -75 18c-66 0 -96 -26 -96 -61c0 -30 25 -53 82 -53z" />
    <glyph glyph-name="uni06A1" unicode="&#x6a1;" horiz-adv-x="999" 
d="M946 590l1 -358c0 -132 -58 -232 -222 -232h-427c-221 0 -269 136 -269 281c0 67 18 143 34 189h138c-13 -41 -29 -117 -29 -162c0 -103 40 -136 137 -136h417c57 0 79 12 79 56v44c-21 -29 -57 -51 -128 -51c-132 0 -186 89 -186 184c0 141 99 238 251 238
c118 0 204 -53 204 -53zM716 365c42 0 72 9 89 24v72s-29 18 -75 18c-66 0 -96 -26 -96 -61c0 -30 25 -53 82 -53z" />
    <glyph glyph-name="uni06A1" horiz-adv-x="999" 
d="M946 590l1 -358c0 -132 -58 -232 -222 -232h-427c-221 0 -269 136 -269 281c0 67 18 143 34 189h138c-13 -41 -29 -117 -29 -162c0 -103 40 -136 137 -136h417c57 0 79 12 79 56v44c-21 -29 -57 -51 -128 -51c-132 0 -186 89 -186 184c0 141 99 238 251 238
c118 0 204 -53 204 -53zM716 365c42 0 72 9 89 24v72s-29 18 -75 18c-66 0 -96 -26 -96 -61c0 -30 25 -53 82 -53z" />
    <glyph glyph-name="uni066F" unicode="&#x66f;" horiz-adv-x="857" 
d="M611 479c113 0 195 -53 195 -53v-434c0 -140 -64 -219 -241 -219h-220c-261 0 -316 101 -316 315c0 81 22 160 37 195h138c-15 -44 -32 -118 -32 -188c0 -106 28 -158 173 -158h234c63 0 87 12 87 58v66c-21 -32 -56 -55 -128 -55c-144 0 -201 103 -201 214
c0 154 108 259 274 259zM571 172c47 0 77 10 95 27v90s-31 18 -80 18c-72 0 -106 -28 -106 -71c0 -38 28 -64 91 -64z" />
    <glyph glyph-name="uni066F" horiz-adv-x="857" 
d="M611 479c113 0 195 -53 195 -53v-434c0 -140 -64 -219 -241 -219h-220c-261 0 -316 101 -316 315c0 81 22 160 37 195h138c-15 -44 -32 -118 -32 -188c0 -106 28 -158 173 -158h234c63 0 87 12 87 58v66c-21 -32 -56 -55 -128 -55c-144 0 -201 103 -201 214
c0 154 108 259 274 259zM571 172c47 0 77 10 95 27v90s-31 18 -80 18c-72 0 -106 -28 -106 -71c0 -38 28 -64 91 -64z" />
    <glyph glyph-name="uni0642" unicode="&#x642;" horiz-adv-x="857" 
d="M571 679v-117h-115v117h115zM727 679v-117h-114v117h114zM611 479c113 0 195 -53 195 -53v-434c0 -140 -64 -219 -241 -219h-220c-261 0 -316 101 -316 315c0 81 22 160 37 195h138c-15 -44 -32 -118 -32 -188c0 -106 28 -158 173 -158h234c63 0 87 12 87 58v66
c-21 -32 -56 -55 -128 -55c-144 0 -201 103 -201 214c0 154 108 259 274 259zM571 172c47 0 77 10 95 27v90s-31 18 -80 18c-72 0 -106 -28 -106 -71c0 -38 28 -64 91 -64z" />
    <glyph glyph-name="uni0642" horiz-adv-x="857" 
d="M571 679v-117h-115v117h115zM727 679v-117h-114v117h114zM611 479c113 0 195 -53 195 -53v-434c0 -140 -64 -219 -241 -219h-220c-261 0 -316 101 -316 315c0 81 22 160 37 195h138c-15 -44 -32 -118 -32 -188c0 -106 28 -158 173 -158h234c63 0 87 12 87 58v66
c-21 -32 -56 -55 -128 -55c-144 0 -201 103 -201 214c0 154 108 259 274 259zM571 172c47 0 77 10 95 27v90s-31 18 -80 18c-72 0 -106 -28 -106 -71c0 -38 28 -64 91 -64z" />
    <glyph glyph-name="uni0643" unicode="&#x643;" horiz-adv-x="886" 
d="M687 724h141v-506c0 -146 -62 -218 -229 -218h-299c-224 0 -271 127 -271 265c0 58 16 124 32 165h136c-13 -35 -27 -100 -27 -139c0 -90 41 -119 142 -119h290c50 0 85 5 85 50v502zM566 410c0 -69 -36 -107 -117 -107h-130v93h129c20 0 37 4 37 14c0 15 -17 32 -144 32
l-6 113l203 83l18 -86l-108 -37c72 -10 118 -39 118 -105z" />
    <glyph glyph-name="uni0643" horiz-adv-x="886" 
d="M687 724h141v-506c0 -146 -62 -218 -229 -218h-299c-224 0 -271 127 -271 265c0 58 16 124 32 165h136c-13 -35 -27 -100 -27 -139c0 -90 41 -119 142 -119h290c50 0 85 5 85 50v502zM566 410c0 -69 -36 -107 -117 -107h-130v93h129c20 0 37 4 37 14c0 15 -17 32 -144 32
l-6 113l203 83l18 -86l-108 -37c72 -10 118 -39 118 -105z" />
    <glyph glyph-name="uni06A9" unicode="&#x6a9;" horiz-adv-x="886" 
d="M687 724h141v-506c0 -146 -62 -218 -229 -218h-299c-224 0 -271 127 -271 265c0 58 16 124 32 165h136c-13 -35 -27 -100 -27 -139c0 -90 41 -119 142 -119h290c50 0 85 5 85 50v502zM566 410c0 -69 -36 -107 -117 -107h-130v93h129c20 0 37 4 37 14c0 15 -17 32 -144 32
l-6 113l203 83l18 -86l-108 -37c72 -10 118 -39 118 -105z" />
    <glyph glyph-name="uni06A9" horiz-adv-x="886" 
d="M687 724h141v-506c0 -146 -62 -218 -229 -218h-299c-224 0 -271 127 -271 265c0 58 16 124 32 165h136c-13 -35 -27 -100 -27 -139c0 -90 41 -119 142 -119h290c50 0 85 5 85 50v502zM566 410c0 -69 -36 -107 -117 -107h-130v93h129c20 0 37 4 37 14c0 15 -17 32 -144 32
l-6 113l203 83l18 -86l-108 -37c72 -10 118 -39 118 -105z" />
    <glyph glyph-name="uni0644" unicode="&#x644;" horiz-adv-x="687" 
d="M326 -152c-234 0 -297 156 -297 317c0 85 22 177 40 219h135c-8 -27 -32 -109 -32 -199c0 -92 30 -165 163 -165c123 0 152 49 152 119v574h141v-579c0 -151 -76 -286 -302 -286z" />
    <glyph glyph-name="uni0644" horiz-adv-x="687" 
d="M326 -152c-234 0 -297 156 -297 317c0 85 22 177 40 219h135c-8 -27 -32 -109 -32 -199c0 -92 30 -165 163 -165c123 0 152 49 152 119v574h141v-579c0 -151 -76 -286 -302 -286z" />
    <glyph glyph-name="uni0645" unicode="&#x645;" horiz-adv-x="785" 
d="M511 479c116 0 203 -47 203 -47v-247c0 -100 -54 -210 -237 -210c-89 0 -149 32 -186 80h-57c-51 0 -63 -9 -63 -59v-295h-141v317c0 136 57 205 215 208c8 151 111 253 266 253zM573 186l1 103s-31 18 -79 18c-73 0 -107 -35 -107 -85c0 -43 31 -75 97 -75
c49 0 77 16 88 39z" />
    <glyph glyph-name="uni0645" horiz-adv-x="785" 
d="M511 479c116 0 203 -47 203 -47v-247c0 -100 -54 -210 -237 -210c-89 0 -149 32 -186 80h-57c-51 0 -63 -9 -63 -59v-295h-141v317c0 136 57 205 215 208c8 151 111 253 266 253zM573 186l1 103s-31 18 -79 18c-73 0 -107 -35 -107 -85c0 -43 31 -75 97 -75
c49 0 77 16 88 39z" />
    <glyph glyph-name="uni0646" unicode="&#x646;" horiz-adv-x="707" 
d="M287 433v117h116v-117h-116zM336 -216c-242 0 -307 156 -307 316c0 86 20 177 37 220h138c-8 -27 -32 -110 -32 -199c0 -92 32 -165 173 -165c136 0 170 49 170 118v381h140v-385c0 -152 -80 -286 -319 -286z" />
    <glyph glyph-name="uni0646" horiz-adv-x="707" 
d="M287 433v117h116v-117h-116zM336 -216c-242 0 -307 156 -307 316c0 86 20 177 37 220h138c-8 -27 -32 -110 -32 -199c0 -92 32 -165 173 -165c136 0 170 49 170 118v381h140v-385c0 -152 -80 -286 -319 -286z" />
    <glyph glyph-name="uni06BA" unicode="&#x6ba;" horiz-adv-x="707" 
d="M336 -216c-242 0 -307 156 -307 316c0 86 20 177 37 220h138c-8 -27 -32 -110 -32 -199c0 -92 32 -165 173 -165c136 0 170 49 170 118v381h140v-385c0 -152 -80 -286 -319 -286z" />
    <glyph glyph-name="uni06BA" horiz-adv-x="707" 
d="M336 -216c-242 0 -307 156 -307 316c0 86 20 177 37 220h138c-8 -27 -32 -110 -32 -199c0 -92 32 -165 173 -165c136 0 170 49 170 118v381h140v-385c0 -152 -80 -286 -319 -286z" />
    <glyph glyph-name="uni0647" unicode="&#x647;" horiz-adv-x="550" 
d="M357 543h141c0 -110 -1 -279 -1 -312c0 -146 -74 -231 -240 -231c-163 0 -228 108 -228 224c0 151 104 254 264 254c23 0 45 -2 64 -6v71zM263 172c66 0 94 21 94 52v83c-15 2 -41 5 -74 5c-75 0 -111 -31 -111 -74c0 -37 21 -66 91 -66z" />
    <glyph glyph-name="uni0647" horiz-adv-x="550" 
d="M357 543h141c0 -110 -1 -279 -1 -312c0 -146 -74 -231 -240 -231c-163 0 -228 108 -228 224c0 151 104 254 264 254c23 0 45 -2 64 -6v71zM263 172c66 0 94 21 94 52v83c-15 2 -41 5 -74 5c-75 0 -111 -31 -111 -74c0 -37 21 -66 91 -66z" />
    <glyph glyph-name="uni0629" unicode="&#x629;" horiz-adv-x="550" 
d="M259 721v-117h-115v117h115zM415 721v-117h-114v117h114zM357 543h141c0 -110 -1 -279 -1 -312c0 -146 -74 -231 -240 -231c-163 0 -228 108 -228 224c0 151 104 254 264 254c23 0 45 -2 64 -6v71zM263 172c66 0 94 21 94 52v83c-15 2 -41 5 -74 5
c-75 0 -111 -31 -111 -74c0 -37 21 -66 91 -66z" />
    <glyph glyph-name="uni0629" horiz-adv-x="550" 
d="M259 721v-117h-115v117h115zM415 721v-117h-114v117h114zM357 543h141c0 -110 -1 -279 -1 -312c0 -146 -74 -231 -240 -231c-163 0 -228 108 -228 224c0 151 104 254 264 254c23 0 45 -2 64 -6v71zM263 172c66 0 94 21 94 52v83c-15 2 -41 5 -74 5
c-75 0 -111 -31 -111 -74c0 -37 21 -66 91 -66z" />
    <glyph glyph-name="uni0648" unicode="&#x648;" horiz-adv-x="540" 
d="M298 479c113 0 195 -53 195 -53v-437c0 -132 -57 -206 -214 -206h-228v164h242c44 0 60 9 60 44v75c-21 -31 -56 -55 -128 -55c-144 0 -201 100 -201 207c0 155 108 261 274 261zM258 172c47 0 78 10 95 27v90s-31 18 -80 18c-72 0 -106 -29 -106 -73
c0 -36 28 -62 91 -62z" />
    <glyph glyph-name="uni0648" horiz-adv-x="540" 
d="M298 479c113 0 195 -53 195 -53v-437c0 -132 -57 -206 -214 -206h-228v164h242c44 0 60 9 60 44v75c-21 -31 -56 -55 -128 -55c-144 0 -201 100 -201 207c0 155 108 261 274 261zM258 172c47 0 78 10 95 27v90s-31 18 -80 18c-72 0 -106 -29 -106 -73
c0 -36 28 -62 91 -62z" />
    <glyph glyph-name="uni0624" unicode="&#x624;" horiz-adv-x="540" 
d="M376 625v-77h-201v69h28c-8 9 -14 23 -14 46c0 61 45 92 107 92c40 0 70 -13 70 -13l-13 -68s-27 5 -57 5c-27 0 -45 -9 -45 -28c0 -17 7 -26 35 -26h90zM298 479c113 0 195 -53 195 -53v-437c0 -132 -57 -206 -214 -206h-228v164h242c44 0 60 9 60 44v75
c-21 -31 -56 -55 -128 -55c-144 0 -201 100 -201 207c0 155 108 261 274 261zM258 172c47 0 78 10 95 27v90s-31 18 -80 18c-72 0 -106 -29 -106 -73c0 -36 28 -62 91 -62z" />
    <glyph glyph-name="uni0624" horiz-adv-x="540" 
d="M376 625v-77h-201v69h28c-8 9 -14 23 -14 46c0 61 45 92 107 92c40 0 70 -13 70 -13l-13 -68s-27 5 -57 5c-27 0 -45 -9 -45 -28c0 -17 7 -26 35 -26h90zM298 479c113 0 195 -53 195 -53v-437c0 -132 -57 -206 -214 -206h-228v164h242c44 0 60 9 60 44v75
c-21 -31 -56 -55 -128 -55c-144 0 -201 100 -201 207c0 155 108 261 274 261zM258 172c47 0 78 10 95 27v90s-31 18 -80 18c-72 0 -106 -29 -106 -73c0 -36 28 -62 91 -62z" />
    <glyph glyph-name="uni0649" unicode="&#x649;" horiz-adv-x="876" 
d="M416 -223c-326 0 -387 149 -387 343c0 83 16 175 33 217h138c-8 -27 -28 -113 -28 -204c0 -142 59 -184 254 -184c215 0 255 28 255 62c0 30 -11 41 -46 46l-106 16c-144 21 -189 69 -189 220s107 242 265 242c58 0 133 -17 179 -47l-39 -149c-31 11 -73 25 -143 25
c-82 0 -119 -20 -119 -65s19 -55 79 -63l105 -13c125 -15 157 -74 157 -198c0 -152 -92 -248 -408 -248z" />
    <glyph glyph-name="uni0649" horiz-adv-x="876" 
d="M416 -223c-326 0 -387 149 -387 343c0 83 16 175 33 217h138c-8 -27 -28 -113 -28 -204c0 -142 59 -184 254 -184c215 0 255 28 255 62c0 30 -11 41 -46 46l-106 16c-144 21 -189 69 -189 220s107 242 265 242c58 0 133 -17 179 -47l-39 -149c-31 11 -73 25 -143 25
c-82 0 -119 -20 -119 -65s19 -55 79 -63l105 -13c125 -15 157 -74 157 -198c0 -152 -92 -248 -408 -248z" />
    <glyph glyph-name="uni064A" unicode="&#x64a;" horiz-adv-x="876" 
d="M416 -223c-326 0 -387 149 -387 343c0 83 16 175 33 217h138c-8 -27 -28 -113 -28 -204c0 -142 59 -184 254 -184c215 0 255 28 255 62c0 30 -11 41 -46 46l-106 16c-144 21 -189 69 -189 220s107 242 265 242c58 0 133 -17 179 -47l-39 -149c-31 11 -73 25 -143 25
c-82 0 -119 -20 -119 -65s19 -55 79 -63l105 -13c125 -15 157 -74 157 -198c0 -152 -92 -248 -408 -248zM290 -418v117h115v-117h-115zM447 -418v117h114v-117h-114z" />
    <glyph glyph-name="uni064A" horiz-adv-x="876" 
d="M416 -223c-326 0 -387 149 -387 343c0 83 16 175 33 217h138c-8 -27 -28 -113 -28 -204c0 -142 59 -184 254 -184c215 0 255 28 255 62c0 30 -11 41 -46 46l-106 16c-144 21 -189 69 -189 220s107 242 265 242c58 0 133 -17 179 -47l-39 -149c-31 11 -73 25 -143 25
c-82 0 -119 -20 -119 -65s19 -55 79 -63l105 -13c125 -15 157 -74 157 -198c0 -152 -92 -248 -408 -248zM290 -418v117h115v-117h-115zM447 -418v117h114v-117h-114z" />
    <glyph glyph-name="uni0626" unicode="&#x626;" horiz-adv-x="876" 
d="M226 482v-77h-201v69h28c-8 9 -14 23 -14 46c0 61 45 92 107 92c40 0 70 -13 70 -13l-13 -68s-27 5 -57 5c-27 0 -45 -9 -45 -28c0 -17 7 -26 35 -26h90zM667 223c125 -15 157 -74 157 -198c0 -152 -92 -248 -408 -248c-326 0 -387 149 -387 343c0 83 16 175 33 217h138
c-8 -27 -28 -113 -28 -204c0 -142 59 -184 254 -184c215 0 255 28 255 62c0 30 -11 41 -46 46l-106 16c-144 21 -189 69 -189 220s107 242 265 242c58 0 133 -17 179 -47l-39 -149c-31 11 -73 25 -143 25c-82 0 -119 -20 -119 -65s19 -55 79 -63z" />
    <glyph glyph-name="uni0626" horiz-adv-x="876" 
d="M226 482v-77h-201v69h28c-8 9 -14 23 -14 46c0 61 45 92 107 92c40 0 70 -13 70 -13l-13 -68s-27 5 -57 5c-27 0 -45 -9 -45 -28c0 -17 7 -26 35 -26h90zM667 223c125 -15 157 -74 157 -198c0 -152 -92 -248 -408 -248c-326 0 -387 149 -387 343c0 83 16 175 33 217h138
c-8 -27 -28 -113 -28 -204c0 -142 59 -184 254 -184c215 0 255 28 255 62c0 30 -11 41 -46 46l-106 16c-144 21 -189 69 -189 220s107 242 265 242c58 0 133 -17 179 -47l-39 -149c-31 11 -73 25 -143 25c-82 0 -119 -20 -119 -65s19 -55 79 -63z" />
    <glyph glyph-name="uni06CC" unicode="&#x6cc;" horiz-adv-x="876" 
d="M416 -223c-326 0 -387 149 -387 343c0 83 16 175 33 217h138c-8 -27 -28 -113 -28 -204c0 -142 59 -184 254 -184c215 0 255 28 255 62c0 30 -11 41 -46 46l-106 16c-144 21 -189 69 -189 220s107 242 265 242c58 0 133 -17 179 -47l-39 -149c-31 11 -73 25 -143 25
c-82 0 -119 -20 -119 -65s19 -55 79 -63l105 -13c125 -15 157 -74 157 -198c0 -152 -92 -248 -408 -248zM290 -418v117h115v-117h-115zM447 -418v117h114v-117h-114z" />
    <glyph glyph-name="uni06CC" horiz-adv-x="876" 
d="M416 -223c-326 0 -387 149 -387 343c0 83 16 175 33 217h138c-8 -27 -28 -113 -28 -204c0 -142 59 -184 254 -184c215 0 255 28 255 62c0 30 -11 41 -46 46l-106 16c-144 21 -189 69 -189 220s107 242 265 242c58 0 133 -17 179 -47l-39 -149c-31 11 -73 25 -143 25
c-82 0 -119 -20 -119 -65s19 -55 79 -63l105 -13c125 -15 157 -74 157 -198c0 -152 -92 -248 -408 -248zM290 -418v117h115v-117h-115zM447 -418v117h114v-117h-114z" />
    <glyph glyph-name="uni0640" unicode="&#x640;" horiz-adv-x="216" 
d="M0 172h216l17 -10v-152l-17 -10h-216l-17 10v152z" />
    <glyph glyph-name="uni0640" horiz-adv-x="216" 
d="M0 172h216l17 -10v-152l-17 -10h-216l-17 10v152z" />
    <glyph glyph-name="uniFED3FE8A" horiz-adv-x="967" 
d="M766 841v-117h-116v117h116zM710 640c118 0 205 -53 205 -53v-350c0 -118 -45 -212 -167 -233v-17c0 -142 -98 -235 -352 -235c-309 0 -367 151 -367 348c0 81 16 171 33 212h138c-8 -27 -28 -110 -28 -199c0 -145 54 -183 234 -183c177 0 199 27 199 60v18h-151v160h241
c56 0 78 12 78 56v47c-21 -29 -57 -50 -128 -50c-132 0 -186 88 -186 182c0 140 99 237 251 237zM226 457v-77h-201v69h28c-8 9 -14 23 -14 46c0 61 45 92 107 92c40 0 70 -13 70 -13l-13 -68s-27 5 -57 5c-27 0 -45 -9 -45 -28c0 -17 7 -26 35 -26h90zM685 362
c42 0 71 8 88 23v73s-29 18 -75 18c-66 0 -95 -25 -95 -61c0 -29 24 -53 82 -53z" />
    <glyph glyph-name="uni06A1.initFEF0" horiz-adv-x="967" 
d="M710 640c118 0 205 -53 205 -53v-350c0 -118 -45 -212 -167 -233v-17c0 -142 -98 -235 -352 -235c-309 0 -367 151 -367 348c0 81 16 171 33 212h138c-8 -27 -28 -110 -28 -199c0 -145 54 -183 234 -183c177 0 199 27 199 60v18h-151v160h241c56 0 78 12 78 56v47
c-21 -29 -57 -50 -128 -50c-132 0 -186 88 -186 182c0 140 99 237 251 237zM685 362c42 0 71 8 88 23v73s-29 18 -75 18c-66 0 -95 -25 -95 -61c0 -29 24 -53 82 -53z" />
    <glyph glyph-name="uniFED7FE8A" horiz-adv-x="967" 
d="M691 841v-117h-115v117h115zM847 841v-117h-114v117h114zM710 640c118 0 205 -53 205 -53v-350c0 -118 -45 -212 -167 -233v-17c0 -142 -98 -235 -352 -235c-309 0 -367 151 -367 348c0 81 16 171 33 212h138c-8 -27 -28 -110 -28 -199c0 -145 54 -183 234 -183
c177 0 199 27 199 60v18h-151v160h241c56 0 78 12 78 56v47c-21 -29 -57 -50 -128 -50c-132 0 -186 88 -186 182c0 140 99 237 251 237zM226 457v-77h-201v69h28c-8 9 -14 23 -14 46c0 61 45 92 107 92c40 0 70 -13 70 -13l-13 -68s-27 5 -57 5c-27 0 -45 -9 -45 -28
c0 -17 7 -26 35 -26h90zM685 362c42 0 71 8 88 23v73s-29 18 -75 18c-66 0 -95 -25 -95 -61c0 -29 24 -53 82 -53z" />
    <glyph glyph-name="zero" unicode="0" horiz-adv-x="607" 
d="M571 259c0 -159 -102 -273 -268 -273c-164 0 -267 114 -267 273v232c0 156 103 273 267 273c166 0 268 -117 268 -273v-232zM203 254c0 -70 34 -114 100 -114c68 0 101 44 101 114v242c0 68 -33 114 -101 114c-66 0 -100 -46 -100 -114v-242z" />
    <glyph glyph-name="one" unicode="1" horiz-adv-x="404" 
d="M203 750h146v-750h-170v577l-157 -62v159z" />
    <glyph glyph-name="two" unicode="2" horiz-adv-x="575" 
d="M275 154h272v-154h-514v120l284 311c37 40 47 67 47 97c0 45 -27 81 -82 81c-57 0 -85 -41 -85 -85v-11h-163v11c0 136 91 240 257 240c157 0 244 -101 244 -227c0 -71 -27 -126 -94 -200z" />
    <glyph glyph-name="three" unicode="3" horiz-adv-x="588" 
d="M459 412c63 -42 100 -111 100 -186c0 -137 -110 -240 -269 -240c-156 0 -266 102 -266 236c0 11 2 22 4 32h165c-1 -8 -2 -12 -2 -17c0 -59 42 -101 100 -101c59 0 101 41 101 101c0 57 -42 100 -100 100h-51v133h51c45 0 77 31 77 78c0 45 -32 78 -78 78
c-44 0 -77 -33 -77 -78c0 -6 0 -8 1 -12h-154c-1 6 -1 15 -1 25c0 116 95 203 230 203c138 0 233 -88 233 -208c0 -57 -23 -107 -64 -144z" />
    <glyph glyph-name="four" unicode="4" horiz-adv-x="639" 
d="M621 322v-135h-92v-187h-171v187h-332v120l332 443h171v-428h92zM204 322h154v208z" />
    <glyph glyph-name="five" unicode="5" horiz-adv-x="590" 
d="M296 -14c-155 0 -264 101 -264 231c0 12 1 25 4 36h163c-2 -9 -2 -12 -2 -18c0 -59 42 -99 101 -99c62 0 103 44 103 109c0 67 -42 109 -103 109c-37 0 -70 -18 -86 -38h-168l61 434h418v-155h-287l-22 -151c22 22 71 43 127 43c133 0 225 -98 225 -246
s-107 -255 -270 -255z" />
    <glyph glyph-name="six" unicode="6" horiz-adv-x="594" 
d="M330 482c150 -7 245 -116 245 -242c0 -148 -115 -254 -276 -254c-159 0 -275 104 -275 248c0 47 14 89 35 126l223 390h205zM299 137c64 0 109 41 109 102c0 59 -45 104 -109 104c-62 0 -108 -45 -108 -104c0 -61 46 -102 108 -102z" />
    <glyph glyph-name="seven" unicode="7" horiz-adv-x="573" 
d="M25 750h525v-139l-272 -611h-186l277 595h-344v155z" />
    <glyph glyph-name="eight" unicode="8" horiz-adv-x="593" 
d="M463 412c63 -42 101 -111 101 -186c0 -135 -109 -240 -268 -240c-158 0 -267 105 -267 240c0 75 38 144 100 186c-41 37 -64 87 -64 144c0 119 94 208 231 208c138 0 232 -89 232 -208c0 -57 -23 -107 -65 -144zM296 627c-47 0 -81 -33 -81 -79c0 -48 34 -81 81 -81
c49 0 83 33 83 81c0 46 -34 79 -83 79zM296 135c62 0 106 42 106 102c0 58 -44 102 -106 102c-61 0 -104 -45 -104 -102c0 -60 43 -102 104 -102z" />
    <glyph glyph-name="nine" unicode="9" horiz-adv-x="591" 
d="M297 764c159 0 275 -104 275 -248c0 -47 -14 -89 -35 -126l-223 -390h-203l157 268c-152 6 -246 116 -246 242c0 148 114 254 275 254zM297 407c63 0 109 45 109 104c0 61 -46 102 -109 102c-64 0 -109 -41 -109 -102c0 -59 45 -104 109 -104z" />
    <glyph glyph-name="uni24FF" unicode="&#x24ff;" horiz-adv-x="892" 
d="M446 -14c-218 0 -392 170 -392 387s174 391 392 391s391 -174 391 -391s-173 -387 -391 -387zM446 218c69 0 110 47 110 113v87c0 65 -41 113 -110 113c-70 0 -111 -48 -111 -113v-87c0 -66 41 -113 111 -113zM446 299c-16 0 -23 10 -23 30v91c0 19 6 30 23 30
c15 0 22 -10 22 -30v-91c0 -20 -6 -30 -22 -30z" />
    <glyph glyph-name="uni2776" unicode="&#x2776;" horiz-adv-x="892" 
d="M446 -14c-218 0 -392 170 -392 387s174 391 392 391s391 -174 391 -391s-173 -387 -391 -387zM417 224h89v301h-78l-81 -44v-84l70 36v-209z" />
    <glyph glyph-name="uni2777" unicode="&#x2777;" horiz-adv-x="892" 
d="M446 -14c-218 0 -392 170 -392 387s174 391 392 391s391 -174 391 -391s-173 -387 -391 -387zM338 224h217v80h-94l52 57c23 24 38 46 38 75c0 54 -38 95 -108 95c-69 0 -105 -43 -105 -101v-4h80v4c0 15 9 23 25 23c14 0 22 -8 22 -21c0 -10 -3 -18 -11 -26l-116 -125
v-57z" />
    <glyph glyph-name="uni2778" unicode="&#x2778;" horiz-adv-x="892" 
d="M446 -14c-218 0 -392 170 -392 387s174 391 392 391s391 -174 391 -391s-173 -387 -391 -387zM445 218c71 0 117 42 117 96c0 27 -14 55 -38 71c16 15 25 35 25 57c0 51 -40 89 -104 89c-62 0 -102 -35 -102 -84v-14h79v6c0 15 9 24 24 24s24 -9 24 -24
c0 -17 -10 -24 -25 -24h-10v-67h10c17 0 28 -10 28 -27s-12 -25 -27 -25c-14 0 -26 8 -26 22v5h-87c-1 -5 -1 -10 -1 -14c0 -51 44 -91 113 -91z" />
    <glyph glyph-name="uni2779" unicode="&#x2779;" horiz-adv-x="892" 
d="M446 -14c-218 0 -392 170 -392 387s174 391 392 391s391 -174 391 -391s-173 -387 -391 -387zM429 224h92v72h32v66h-32v163h-92l-131 -170v-59h131v-72zM375 362l54 70v-70h-54z" />
    <glyph glyph-name="uni277A" unicode="&#x277a;" horiz-adv-x="892" 
d="M446 -14c-218 0 -392 170 -392 387s174 391 392 391s391 -174 391 -391s-173 -387 -391 -387zM448 218c69 0 116 42 116 108c0 51 -33 90 -88 90c-25 0 -41 -8 -53 -22l7 50h116v81h-187l-19 -178h86c4 7 11 12 23 12c20 0 28 -13 28 -32s-9 -31 -29 -31
c-16 0 -26 11 -26 25v2h-86c-1 -4 -2 -10 -2 -18c0 -46 44 -87 114 -87z" />
    <glyph glyph-name="uni277B" unicode="&#x277b;" horiz-adv-x="892" 
d="M446 -14c-218 0 -392 170 -392 387s174 391 392 391s391 -174 391 -391s-173 -387 -391 -387zM440 218c70 0 120 45 120 107c0 48 -34 92 -90 99l64 101h-108l-88 -142c-12 -19 -17 -37 -17 -62c0 -60 50 -103 119 -103zM440 294c-19 0 -33 12 -33 30c0 19 14 33 33 33
c20 0 35 -15 35 -33s-15 -30 -35 -30z" />
    <glyph glyph-name="uni277C" unicode="&#x277c;" horiz-adv-x="892" 
d="M446 -14c-218 0 -392 170 -392 387s174 391 392 391s391 -174 391 -391s-173 -387 -391 -387zM363 224h98l101 223v78h-220v-81h126z" />
    <glyph glyph-name="uni277D" unicode="&#x277d;" horiz-adv-x="892" 
d="M446 -14c-218 0 -392 170 -392 387s174 391 392 391s391 -174 391 -391s-173 -387 -391 -387zM444 218c70 0 115 41 115 95c0 27 -14 53 -39 69c18 15 28 35 28 58c0 53 -42 91 -104 91c-64 0 -104 -38 -104 -91c0 -21 8 -42 27 -58c-24 -16 -38 -42 -38 -69
c0 -56 47 -95 115 -95zM444 411c-16 0 -29 10 -29 28c0 15 13 27 29 27s28 -12 28 -27c0 -17 -11 -28 -28 -28zM444 290c-18 0 -34 12 -34 29c0 18 15 31 34 31s34 -12 34 -31c0 -17 -15 -29 -34 -29z" />
    <glyph glyph-name="uni277E" unicode="&#x277e;" horiz-adv-x="892" 
d="M446 -14c-218 0 -392 170 -392 387s174 391 392 391s391 -174 391 -391s-173 -387 -391 -387zM361 224h108l88 142c12 20 17 38 17 59c0 61 -49 106 -119 106c-71 0 -120 -46 -120 -109c0 -48 33 -92 90 -99zM454 392c-20 0 -34 14 -34 31c0 18 14 30 34 30
c19 0 34 -12 34 -30c0 -17 -14 -31 -34 -31z" />
    <glyph glyph-name="zero.subs" horiz-adv-x="274" 
d="M137 -84c-69 0 -110 47 -110 113v87c0 65 41 113 110 113c70 0 111 -48 111 -113v-87c0 -66 -41 -113 -111 -113zM137 -3c16 0 23 10 23 30v91c0 20 -7 30 -23 30s-23 -11 -23 -30v-91c0 -20 7 -30 23 -30z" />
    <glyph glyph-name="one.subs" horiz-adv-x="207" 
d="M101 223h78v-301h-89v209l-70 -36v84z" />
    <glyph glyph-name="two.subs" horiz-adv-x="266" 
d="M150 2h95v-80h-217v57l116 125c8 8 11 16 11 26c0 13 -8 21 -22 21c-16 0 -25 -8 -25 -23v-4h-80v4c0 58 36 101 105 101c70 0 108 -41 108 -95c0 -29 -15 -51 -38 -75z" />
    <glyph glyph-name="three.subs" horiz-adv-x="272" 
d="M215 83c24 -17 38 -44 38 -71c0 -54 -46 -96 -117 -96c-69 0 -113 40 -113 91c0 4 0 9 1 14h87v-5c0 -14 12 -22 26 -22c15 0 27 8 27 25s-11 27 -28 27h-10v67h10c15 0 25 7 25 24c0 15 -10 24 -25 24c-14 0 -23 -9 -23 -24v-6h-79v14c0 49 39 84 102 84
c64 0 104 -38 104 -89c0 -22 -9 -42 -25 -57z" />
    <glyph glyph-name="four.subs" horiz-adv-x="300" 
d="M275 60v-66h-32v-72h-92v72h-131v59l131 170h92v-163h32zM98 60h53v70z" />
    <glyph glyph-name="five.subs" horiz-adv-x="273" 
d="M139 -84c-71 0 -115 41 -115 87c0 8 1 14 2 18h86v-2c0 -14 10 -25 27 -25c19 0 28 12 28 31s-7 32 -28 32c-11 0 -19 -5 -23 -12h-86l19 178h187v-81h-116l-7 -50c12 14 28 22 53 22c55 0 88 -39 88 -90c0 -66 -46 -108 -115 -108z" />
    <glyph glyph-name="six.subs" horiz-adv-x="277" 
d="M172 122c57 -7 90 -52 90 -99c0 -62 -50 -107 -120 -107c-69 0 -119 43 -119 103c0 25 5 43 17 62l88 142h108zM142 -8c20 0 34 12 34 30s-14 33 -34 33c-19 0 -33 -14 -33 -33c0 -18 14 -30 33 -30z" />
    <glyph glyph-name="seven.subs" horiz-adv-x="251" 
d="M19 223h216v-78l-101 -223h-99l106 220h-122v81z" />
    <glyph glyph-name="eight.subs" horiz-adv-x="271" 
d="M211 80c24 -15 39 -41 39 -69c0 -54 -45 -95 -115 -95c-68 0 -114 39 -114 95c0 27 14 53 38 69c-19 16 -28 37 -28 58c0 53 40 91 104 91c62 0 104 -38 104 -91c0 -22 -10 -43 -28 -58zM135 164c-16 0 -29 -12 -29 -27c0 -18 13 -28 29 -28c18 0 28 11 28 28
c0 15 -11 27 -28 27zM135 -12c19 0 34 12 34 29c0 19 -15 31 -34 31s-34 -13 -34 -31c0 -17 16 -29 34 -29z" />
    <glyph glyph-name="nine.subs" horiz-adv-x="277" 
d="M139 229c70 0 120 -45 120 -106c0 -21 -5 -39 -17 -59l-88 -142h-108l63 98c-56 8 -89 53 -89 100c0 63 49 109 119 109zM138 151c-19 0 -33 -12 -33 -30c0 -17 14 -31 33 -31c21 0 34 14 34 31c0 18 -14 30 -34 30z" />
    <glyph glyph-name="zero.dnom" horiz-adv-x="274" 
d="M137 -6c-69 0 -110 47 -110 113v87c0 65 41 113 110 113c70 0 111 -48 111 -113v-87c0 -66 -41 -113 -111 -113zM137 75c16 0 23 10 23 30v91c0 20 -7 30 -23 30s-23 -11 -23 -30v-91c0 -20 7 -30 23 -30z" />
    <glyph glyph-name="one.dnom" horiz-adv-x="207" 
d="M101 301h78v-301h-89v209l-70 -36v84z" />
    <glyph glyph-name="two.dnom" horiz-adv-x="266" 
d="M150 80h95v-80h-217v57l116 125c8 8 11 16 11 26c0 13 -8 21 -22 21c-16 0 -25 -8 -25 -23v-4h-80v4c0 58 36 101 105 101c70 0 108 -41 108 -95c0 -29 -15 -51 -38 -75z" />
    <glyph glyph-name="three.dnom" horiz-adv-x="272" 
d="M215 161c24 -17 38 -44 38 -71c0 -54 -46 -96 -117 -96c-69 0 -113 40 -113 91c0 4 0 9 1 14h87v-5c0 -14 12 -22 26 -22c15 0 27 8 27 25s-11 27 -28 27h-10v67h10c15 0 25 7 25 24c0 15 -10 24 -25 24c-14 0 -23 -9 -23 -24v-6h-79v14c0 49 39 84 102 84
c64 0 104 -38 104 -89c0 -22 -9 -42 -25 -57z" />
    <glyph glyph-name="four.dnom" horiz-adv-x="300" 
d="M275 138v-66h-32v-72h-92v72h-131v59l131 170h92v-163h32zM98 138h53v70z" />
    <glyph glyph-name="five.dnom" horiz-adv-x="273" 
d="M139 -6c-71 0 -115 41 -115 87c0 8 1 14 2 18h86v-2c0 -14 10 -25 27 -25c19 0 28 12 28 31s-7 32 -28 32c-11 0 -19 -5 -23 -12h-86l19 178h187v-81h-116l-7 -50c12 14 28 22 53 22c55 0 88 -39 88 -90c0 -66 -46 -108 -115 -108z" />
    <glyph glyph-name="six.dnom" horiz-adv-x="277" 
d="M172 200c57 -7 90 -52 90 -99c0 -62 -50 -107 -120 -107c-69 0 -119 43 -119 103c0 25 5 43 17 62l88 142h108zM142 70c20 0 34 12 34 30s-14 33 -34 33c-19 0 -33 -14 -33 -33c0 -18 14 -30 33 -30z" />
    <glyph glyph-name="seven.dnom" horiz-adv-x="251" 
d="M19 301h216v-78l-101 -223h-99l106 220h-122v81z" />
    <glyph glyph-name="eight.dnom" horiz-adv-x="271" 
d="M211 158c24 -15 39 -41 39 -69c0 -54 -45 -95 -115 -95c-68 0 -114 39 -114 95c0 27 14 53 38 69c-19 16 -28 37 -28 58c0 53 40 91 104 91c62 0 104 -38 104 -91c0 -22 -10 -43 -28 -58zM135 242c-16 0 -29 -12 -29 -27c0 -18 13 -28 29 -28c18 0 28 11 28 28
c0 15 -11 27 -28 27zM135 66c19 0 34 12 34 29c0 19 -15 31 -34 31s-34 -13 -34 -31c0 -17 16 -29 34 -29z" />
    <glyph glyph-name="nine.dnom" horiz-adv-x="277" 
d="M139 307c70 0 120 -45 120 -106c0 -21 -5 -39 -17 -59l-88 -142h-108l63 98c-56 8 -89 53 -89 100c0 63 49 109 119 109zM138 229c-19 0 -33 -12 -33 -30c0 -17 14 -31 33 -31c21 0 34 14 34 31c0 18 -14 30 -34 30z" />
    <glyph glyph-name="zero.numr" horiz-adv-x="274" 
d="M137 443c-69 0 -110 47 -110 113v87c0 65 41 113 110 113c70 0 111 -48 111 -113v-87c0 -66 -41 -113 -111 -113zM137 524c16 0 23 10 23 30v91c0 20 -7 30 -23 30s-23 -11 -23 -30v-91c0 -20 7 -30 23 -30z" />
    <glyph glyph-name="one.numr" horiz-adv-x="207" 
d="M101 750h78v-301h-89v209l-70 -36v84z" />
    <glyph glyph-name="two.numr" horiz-adv-x="266" 
d="M150 529h95v-80h-217v57l116 125c8 8 11 16 11 26c0 13 -8 21 -22 21c-16 0 -25 -8 -25 -23v-4h-80v4c0 58 36 101 105 101c70 0 108 -41 108 -95c0 -29 -15 -51 -38 -75z" />
    <glyph glyph-name="three.numr" horiz-adv-x="272" 
d="M215 610c24 -17 38 -44 38 -71c0 -54 -46 -96 -117 -96c-69 0 -113 40 -113 91c0 4 0 9 1 14h87v-5c0 -14 12 -22 26 -22c15 0 27 8 27 25s-11 27 -28 27h-10v67h10c15 0 25 7 25 24c0 15 -10 24 -25 24c-14 0 -23 -9 -23 -24v-6h-79v14c0 49 39 84 102 84
c64 0 104 -38 104 -89c0 -22 -9 -42 -25 -57z" />
    <glyph glyph-name="four.numr" horiz-adv-x="300" 
d="M275 587v-66h-32v-72h-92v72h-131v59l131 170h92v-163h32zM98 587h53v70z" />
    <glyph glyph-name="five.numr" horiz-adv-x="273" 
d="M139 443c-71 0 -115 41 -115 87c0 8 1 14 2 18h86v-2c0 -14 10 -25 27 -25c19 0 28 12 28 31s-7 32 -28 32c-11 0 -19 -5 -23 -12h-86l19 178h187v-81h-116l-7 -50c12 14 28 22 53 22c55 0 88 -39 88 -90c0 -66 -46 -108 -115 -108z" />
    <glyph glyph-name="six.numr" horiz-adv-x="277" 
d="M172 649c57 -7 90 -52 90 -99c0 -62 -50 -107 -120 -107c-69 0 -119 43 -119 103c0 25 5 43 17 62l88 142h108zM142 519c20 0 34 12 34 30s-14 33 -34 33c-19 0 -33 -14 -33 -33c0 -18 14 -30 33 -30z" />
    <glyph glyph-name="seven.numr" horiz-adv-x="251" 
d="M19 750h216v-78l-101 -223h-99l106 220h-122v81z" />
    <glyph glyph-name="eight.numr" horiz-adv-x="271" 
d="M211 607c24 -15 39 -41 39 -69c0 -54 -45 -95 -115 -95c-68 0 -114 39 -114 95c0 27 14 53 38 69c-19 16 -28 37 -28 58c0 53 40 91 104 91c62 0 104 -38 104 -91c0 -22 -10 -43 -28 -58zM135 691c-16 0 -29 -12 -29 -27c0 -18 13 -28 29 -28c18 0 28 11 28 28
c0 15 -11 27 -28 27zM135 515c19 0 34 12 34 29c0 19 -15 31 -34 31s-34 -13 -34 -31c0 -17 16 -29 34 -29z" />
    <glyph glyph-name="nine.numr" horiz-adv-x="277" 
d="M139 756c70 0 120 -45 120 -106c0 -21 -5 -39 -17 -59l-88 -142h-108l63 98c-56 8 -89 53 -89 100c0 63 49 109 119 109zM138 678c-19 0 -33 -12 -33 -30c0 -17 14 -31 33 -31c21 0 34 14 34 31c0 18 -14 30 -34 30z" />
    <glyph glyph-name="zero.sups" unicode="&#x2070;" horiz-adv-x="274" 
d="M137 443c-69 0 -110 47 -110 113v87c0 65 41 113 110 113c70 0 111 -48 111 -113v-87c0 -66 -41 -113 -111 -113zM137 524c16 0 23 10 23 30v91c0 20 -7 30 -23 30s-23 -11 -23 -30v-91c0 -20 7 -30 23 -30z" />
    <glyph glyph-name="one.sups" unicode="&#xb9;" horiz-adv-x="207" 
d="M101 750h78v-301h-89v209l-70 -36v84z" />
    <glyph glyph-name="two.sups" unicode="&#xb2;" horiz-adv-x="266" 
d="M150 529h95v-80h-217v57l116 125c8 8 11 16 11 26c0 13 -8 21 -22 21c-16 0 -25 -8 -25 -23v-4h-80v4c0 58 36 101 105 101c70 0 108 -41 108 -95c0 -29 -15 -51 -38 -75z" />
    <glyph glyph-name="three.sups" unicode="&#xb3;" horiz-adv-x="272" 
d="M215 610c24 -17 38 -44 38 -71c0 -54 -46 -96 -117 -96c-69 0 -113 40 -113 91c0 4 0 9 1 14h87v-5c0 -14 12 -22 26 -22c15 0 27 8 27 25s-11 27 -28 27h-10v67h10c15 0 25 7 25 24c0 15 -10 24 -25 24c-14 0 -23 -9 -23 -24v-6h-79v14c0 49 39 84 102 84
c64 0 104 -38 104 -89c0 -22 -9 -42 -25 -57z" />
    <glyph glyph-name="four.sups" unicode="&#x2074;" horiz-adv-x="300" 
d="M275 587v-66h-32v-72h-92v72h-131v59l131 170h92v-163h32zM98 587h53v70z" />
    <glyph glyph-name="five.sups" unicode="&#x2075;" horiz-adv-x="273" 
d="M139 443c-71 0 -115 41 -115 87c0 8 1 14 2 18h86v-2c0 -14 10 -25 27 -25c19 0 28 12 28 31s-7 32 -28 32c-11 0 -19 -5 -23 -12h-86l19 178h187v-81h-116l-7 -50c12 14 28 22 53 22c55 0 88 -39 88 -90c0 -66 -46 -108 -115 -108z" />
    <glyph glyph-name="six.sups" unicode="&#x2076;" horiz-adv-x="277" 
d="M172 649c57 -7 90 -52 90 -99c0 -62 -50 -107 -120 -107c-69 0 -119 43 -119 103c0 25 5 43 17 62l88 142h108zM142 519c20 0 34 12 34 30s-14 33 -34 33c-19 0 -33 -14 -33 -33c0 -18 14 -30 33 -30z" />
    <glyph glyph-name="seven.sups" unicode="&#x2077;" horiz-adv-x="251" 
d="M19 750h216v-78l-101 -223h-99l106 220h-122v81z" />
    <glyph glyph-name="eight.sups" unicode="&#x2078;" horiz-adv-x="271" 
d="M211 607c24 -15 39 -41 39 -69c0 -54 -45 -95 -115 -95c-68 0 -114 39 -114 95c0 27 14 53 38 69c-19 16 -28 37 -28 58c0 53 40 91 104 91c62 0 104 -38 104 -91c0 -22 -10 -43 -28 -58zM135 691c-16 0 -29 -12 -29 -27c0 -18 13 -28 29 -28c18 0 28 11 28 28
c0 15 -11 27 -28 27zM135 515c19 0 34 12 34 29c0 19 -15 31 -34 31s-34 -13 -34 -31c0 -17 16 -29 34 -29z" />
    <glyph glyph-name="nine.sups" unicode="&#x2079;" horiz-adv-x="277" 
d="M139 756c70 0 120 -45 120 -106c0 -21 -5 -39 -17 -59l-88 -142h-108l63 98c-56 8 -89 53 -89 100c0 63 49 109 119 109zM138 678c-19 0 -33 -12 -33 -30c0 -17 14 -31 33 -31c21 0 34 14 34 31c0 18 -14 30 -34 30z" />
    <glyph glyph-name="fraction" unicode="&#x2044;" horiz-adv-x="585" 
d="M9 0l491 750h76l-491 -750h-76z" />
    <glyph glyph-name="onehalf" unicode="&#xbd;" horiz-adv-x="591" 
d="M500 750h76l-491 -750h-76zM123 449v209l-70 -36v84l81 44h78v-301h-89zM528 137l-53 -57h95v-80h-217v57l116 125c8 8 11 16 11 26c0 13 -8 21 -22 21c-16 0 -25 -8 -25 -23v-4h-80v4c0 58 36 101 105 101c70 0 108 -41 108 -95c0 -29 -15 -51 -38 -75z" />
    <glyph glyph-name="uni2153" unicode="&#x2153;" horiz-adv-x="597" 
d="M500 750h76l-491 -750h-76zM123 449v209l-70 -36v84l81 44h78v-301h-89zM540 161c24 -17 38 -44 38 -71c0 -54 -46 -96 -117 -96c-69 0 -113 40 -113 91c0 4 0 9 1 14h87v-5c0 -14 12 -22 26 -22c15 0 27 8 27 25s-11 27 -28 27h-10v67h10c15 0 25 7 25 24
c0 15 -10 24 -25 24c-14 0 -23 -9 -23 -24v-6h-79v14c0 49 39 84 102 84c64 0 104 -38 104 -89c0 -22 -9 -42 -25 -57z" />
    <glyph glyph-name="uni2154" unicode="&#x2154;" horiz-adv-x="623" 
d="M245 529v-80h-217v57l116 125c8 8 11 16 11 26c0 13 -8 21 -22 21c-16 0 -25 -8 -25 -23v-4h-80v4c0 58 36 101 105 101c70 0 108 -41 108 -95c0 -29 -15 -51 -38 -75l-53 -57h95zM526 750h76l-491 -750h-76zM566 161c24 -17 38 -44 38 -71c0 -54 -46 -96 -117 -96
c-69 0 -113 40 -113 91c0 4 0 9 1 14h87v-5c0 -14 12 -22 26 -22c15 0 27 8 27 25s-11 27 -28 27h-10v67h10c15 0 25 7 25 24c0 15 -10 24 -25 24c-14 0 -23 -9 -23 -24v-6h-79v14c0 49 39 84 102 84c64 0 104 -38 104 -89c0 -22 -9 -42 -25 -57z" />
    <glyph glyph-name="onequarter" unicode="&#xbc;" horiz-adv-x="585" 
d="M500 750h76l-491 -750h-76zM123 449v209l-70 -36v84l81 44h78v-301h-89zM528 301v-163h32v-66h-32v-72h-92v72h-131v59l131 170h92zM383 138h53v70z" />
    <glyph glyph-name="threequarters" unicode="&#xbe;" horiz-adv-x="617" 
d="M136 443c-69 0 -113 40 -113 91c0 4 0 9 1 14h87v-5c0 -14 12 -22 26 -22c15 0 27 8 27 25s-11 27 -28 27h-10v67h10c15 0 25 7 25 24c0 15 -10 24 -25 24c-14 0 -23 -9 -23 -24v-6h-79v14c0 49 39 84 102 84c64 0 104 -38 104 -89c0 -22 -9 -42 -25 -57
c24 -17 38 -44 38 -71c0 -54 -46 -96 -117 -96zM532 750h76l-491 -750h-76zM560 301v-163h32v-66h-32v-72h-92v72h-131v59l131 170h92zM415 138h53v70z" />
    <glyph glyph-name="uni2155" unicode="&#x2155;" horiz-adv-x="598" 
d="M500 750h76l-491 -750h-76zM123 449v209l-70 -36v84l81 44h78v-301h-89zM491 192c55 0 88 -39 88 -90c0 -66 -46 -108 -115 -108c-71 0 -115 41 -115 87c0 8 1 14 2 18h86v-2c0 -14 10 -25 27 -25c19 0 28 12 28 31s-7 32 -28 32c-11 0 -19 -5 -23 -12h-86l19 178h187
v-81h-116l-7 -50c12 14 28 22 53 22z" />
    <glyph glyph-name="uni2156" unicode="&#x2156;" horiz-adv-x="624" 
d="M245 529v-80h-217v57l116 125c8 8 11 16 11 26c0 13 -8 21 -22 21c-16 0 -25 -8 -25 -23v-4h-80v4c0 58 36 101 105 101c70 0 108 -41 108 -95c0 -29 -15 -51 -38 -75l-53 -57h95zM526 750h76l-491 -750h-76zM517 192c55 0 88 -39 88 -90c0 -66 -46 -108 -115 -108
c-71 0 -115 41 -115 87c0 8 1 14 2 18h86v-2c0 -14 10 -25 27 -25c19 0 28 12 28 31s-7 32 -28 32c-11 0 -19 -5 -23 -12h-86l19 178h187v-81h-116l-7 -50c12 14 28 22 53 22z" />
    <glyph glyph-name="uni2157" unicode="&#x2157;" horiz-adv-x="630" 
d="M136 443c-69 0 -113 40 -113 91c0 4 0 9 1 14h87v-5c0 -14 12 -22 26 -22c15 0 27 8 27 25s-11 27 -28 27h-10v67h10c15 0 25 7 25 24c0 15 -10 24 -25 24c-14 0 -23 -9 -23 -24v-6h-79v14c0 49 39 84 102 84c64 0 104 -38 104 -89c0 -22 -9 -42 -25 -57
c24 -17 38 -44 38 -71c0 -54 -46 -96 -117 -96zM532 750h76l-491 -750h-76zM523 192c55 0 88 -39 88 -90c0 -66 -46 -108 -115 -108c-71 0 -115 41 -115 87c0 8 1 14 2 18h86v-2c0 -14 10 -25 27 -25c19 0 28 12 28 31s-7 32 -28 32c-11 0 -19 -5 -23 -12h-86l19 178h187
v-81h-116l-7 -50c12 14 28 22 53 22z" />
    <glyph glyph-name="uni2158" unicode="&#x2158;" horiz-adv-x="658" 
d="M151 449v72h-131v59l131 170h92v-163h32v-66h-32v-72h-92zM560 750h76l-491 -750h-76zM98 587h53v70zM551 192c55 0 88 -39 88 -90c0 -66 -46 -108 -115 -108c-71 0 -115 41 -115 87c0 8 1 14 2 18h86v-2c0 -14 10 -25 27 -25c19 0 28 12 28 31s-7 32 -28 32
c-11 0 -19 -5 -23 -12h-86l19 178h187v-81h-116l-7 -50c12 14 28 22 53 22z" />
    <glyph glyph-name="uni2159" unicode="&#x2159;" horiz-adv-x="593" 
d="M500 750h76l-491 -750h-76zM123 449v209l-70 -36v84l81 44h78v-301h-89zM488 200c57 -7 90 -52 90 -99c0 -62 -50 -107 -120 -107c-69 0 -119 43 -119 103c0 25 5 43 17 62l88 142h108zM458 70c20 0 34 12 34 30s-14 33 -34 33c-19 0 -33 -14 -33 -33
c0 -18 14 -30 33 -30z" />
    <glyph glyph-name="uni2150" unicode="&#x2150;" horiz-adv-x="576" 
d="M500 750h76l-491 -750h-76zM123 449v209l-70 -36v84l81 44h78v-301h-89zM344 220v81h216v-78l-101 -223h-99l106 220h-122z" />
    <glyph glyph-name="oneeighth" unicode="&#x215b;" horiz-adv-x="596" 
d="M500 750h76l-491 -750h-76zM123 449v209l-70 -36v84l81 44h78v-301h-89zM536 158c24 -15 39 -41 39 -69c0 -54 -45 -95 -115 -95c-68 0 -114 39 -114 95c0 27 14 53 38 69c-19 16 -28 37 -28 58c0 53 40 91 104 91c62 0 104 -38 104 -91c0 -22 -10 -43 -28 -58zM460 242
c-16 0 -29 -12 -29 -27c0 -18 13 -28 29 -28c18 0 28 11 28 28c0 15 -11 27 -28 27zM460 66c19 0 34 12 34 29c0 19 -15 31 -34 31s-34 -13 -34 -31c0 -17 16 -29 34 -29z" />
    <glyph glyph-name="uni2151" unicode="&#x2151;" horiz-adv-x="602" 
d="M500 750h76l-491 -750h-76zM123 449v209l-70 -36v84l81 44h78v-301h-89zM464 307c70 0 120 -45 120 -106c0 -21 -5 -39 -17 -59l-88 -142h-108l63 98c-56 8 -89 53 -89 100c0 63 49 109 119 109zM463 229c-19 0 -33 -12 -33 -30c0 -17 14 -31 33 -31c21 0 34 14 34 31
c0 18 -14 30 -34 30z" />
    <glyph glyph-name="uni066B" unicode="&#x66b;" horiz-adv-x="300" 
d="M139 -143h-122l70 303h172z" />
    <glyph glyph-name="uni066B" horiz-adv-x="300" 
d="M139 -143h-122l70 303h172z" />
    <glyph glyph-name="uni066C" unicode="&#x66c;" horiz-adv-x="300" 
d="M139 -143h-122l70 303h172z" />
    <glyph glyph-name="uni066C" horiz-adv-x="300" 
d="M139 -143h-122l70 303h172z" />
    <glyph glyph-name="uni0660" unicode="&#x660;" horiz-adv-x="310" 
d="M64 221v173h182v-173h-182z" />
    <glyph glyph-name="uni0660" horiz-adv-x="310" 
d="M64 221v173h182v-173h-182z" />
    <glyph glyph-name="uni0661" unicode="&#x661;" horiz-adv-x="281" 
d="M70 0v674h141v-674h-141z" />
    <glyph glyph-name="uni0661" horiz-adv-x="281" 
d="M70 0v674h141v-674h-141z" />
    <glyph glyph-name="uni0662" unicode="&#x662;" horiz-adv-x="505" 
d="M253 674h213v-172h-207c-41 0 -59 -14 -59 -41c0 -14 4 -32 10 -54l101 -379l-145 -33l-108 408c-9 36 -15 69 -15 98c0 109 66 173 210 173z" />
    <glyph glyph-name="uni0662" horiz-adv-x="505" 
d="M253 674h213v-172h-207c-41 0 -59 -14 -59 -41c0 -14 4 -32 10 -54l101 -379l-145 -33l-108 408c-9 36 -15 69 -15 98c0 109 66 173 210 173z" />
    <glyph glyph-name="uni0663" unicode="&#x663;" horiz-adv-x="681" 
d="M505 674h141v-158c0 -136 -68 -205 -169 -205c-63 0 -101 15 -124 49c-21 -38 -60 -47 -110 -47h-26l39 -313h-142l-81 674h140l23 -188h45c28 0 43 9 43 30v158h130v-152c0 -27 16 -39 47 -39c29 0 44 12 44 38v153z" />
    <glyph glyph-name="uni0663" horiz-adv-x="681" 
d="M505 674h141v-158c0 -136 -68 -205 -169 -205c-63 0 -101 15 -124 49c-21 -38 -60 -47 -110 -47h-26l39 -313h-142l-81 674h140l23 -188h45c28 0 43 9 43 30v158h130v-152c0 -27 16 -39 47 -39c29 0 44 12 44 38v153z" />
    <glyph glyph-name="uni0664" unicode="&#x664;" horiz-adv-x="515" 
d="M480 172l1 -172h-236c-149 0 -212 61 -212 185c0 82 40 121 75 143c-43 30 -64 65 -64 139c0 138 78 207 231 207h174v-163h-177c-59 0 -90 -18 -90 -54c0 -25 25 -39 72 -39h195l1 -146l-205 -2c-46 0 -68 -16 -68 -49c0 -36 23 -49 75 -49h228z" />
    <glyph glyph-name="uni0664" horiz-adv-x="515" 
d="M480 172l1 -172h-236c-149 0 -212 61 -212 185c0 82 40 121 75 143c-43 30 -64 65 -64 139c0 138 78 207 231 207h174v-163h-177c-59 0 -90 -18 -90 -54c0 -25 25 -39 72 -39h195l1 -146l-205 -2c-46 0 -68 -16 -68 -49c0 -36 23 -49 75 -49h228z" />
    <glyph glyph-name="uni0665" unicode="&#x665;" horiz-adv-x="604" 
d="M301 -10c-204 0 -268 120 -267 294c3 239 112 348 268 348c157 0 265 -105 267 -338c2 -180 -61 -304 -268 -304zM302 162c99 0 126 46 126 130c0 127 -56 168 -126 168s-127 -42 -127 -168c0 -84 27 -130 127 -130z" />
    <glyph glyph-name="uni0665" horiz-adv-x="604" 
d="M301 -10c-204 0 -268 120 -267 294c3 239 112 348 268 348c157 0 265 -105 267 -338c2 -180 -61 -304 -268 -304zM302 162c99 0 126 46 126 130c0 127 -56 168 -126 168s-127 -42 -127 -168c0 -84 27 -130 127 -130z" />
    <glyph glyph-name="uni0666" unicode="&#x666;" horiz-adv-x="490" 
d="M431 503v-503h-141v462c0 27 -15 40 -54 40h-213v172h226c128 0 182 -51 182 -171z" />
    <glyph glyph-name="uni0666" horiz-adv-x="490" 
d="M431 503v-503h-141v462c0 27 -15 40 -54 40h-213v172h226c128 0 182 -51 182 -171z" />
    <glyph glyph-name="uni0667" unicode="&#x667;" horiz-adv-x="602" 
d="M441 674h144l-179 -674h-195l-194 674h144l147 -512z" />
    <glyph glyph-name="uni0667" horiz-adv-x="602" 
d="M441 674h144l-179 -674h-195l-194 674h144l147 -512z" />
    <glyph glyph-name="uni0668" unicode="&#x668;" horiz-adv-x="602" 
d="M585 0h-144l-133 512l-147 -512h-144l194 674h195z" />
    <glyph glyph-name="uni0668" horiz-adv-x="602" 
d="M585 0h-144l-133 512l-147 -512h-144l194 674h195z" />
    <glyph glyph-name="uni0669" unicode="&#x669;" horiz-adv-x="538" 
d="M292 674c113 0 196 -34 196 -34v-640h-141v249c-27 -20 -65 -28 -111 -28c-148 0 -206 98 -206 204c0 148 103 249 262 249zM258 387c38 0 68 3 89 8v100s-29 10 -73 10c-69 0 -101 -27 -101 -65c0 -29 27 -53 85 -53z" />
    <glyph glyph-name="uni0669" horiz-adv-x="538" 
d="M292 674c113 0 196 -34 196 -34v-640h-141v249c-27 -20 -65 -28 -111 -28c-148 0 -206 98 -206 204c0 148 103 249 262 249zM258 387c38 0 68 3 89 8v100s-29 10 -73 10c-69 0 -101 -27 -101 -65c0 -29 27 -53 85 -53z" />
    <glyph glyph-name="period" unicode="." horiz-adv-x="253" 
d="M204 0h-155v160h155v-160z" />
    <glyph glyph-name="comma" unicode="," horiz-adv-x="300" 
d="M139 -143h-122l70 303h172z" />
    <glyph glyph-name="colon" unicode=":" horiz-adv-x="270" 
d="M212 356h-154v160h154v-160zM212 0h-154v160h154v-160z" />
    <glyph glyph-name="semicolon" unicode=";" horiz-adv-x="305" 
d="M244 356h-154v160h154v-160zM134 -143h-116l71 303h165z" />
    <glyph glyph-name="ellipsis" unicode="&#x2026;" horiz-adv-x="710" 
d="M204 0h-155v160h155v-160zM432 0h-155v160h155v-160zM661 0h-155v160h155v-160z" />
    <glyph glyph-name="exclam" unicode="!" horiz-adv-x="293" 
d="M204 234h-115l-39 516h193zM232 0h-170v154h170v-154z" />
    <glyph glyph-name="exclamdown" unicode="&#xa1;" horiz-adv-x="293" 
d="M232 361h-170v155h170v-155zM243 -200h-193l39 482h115z" />
    <glyph glyph-name="question" unicode="?" horiz-adv-x="577" 
d="M297 764c162 0 249 -104 249 -212c0 -99 -59 -149 -125 -204l-64 -54v-60h-170v118l131 103c27 21 47 45 47 80c0 33 -24 72 -77 72c-52 0 -81 -38 -81 -82v-12h-167v11c0 136 91 240 257 240zM187 0v154h170v-154h-170z" />
    <glyph glyph-name="questiondown" unicode="&#xbf;" horiz-adv-x="577" 
d="M390 516v-141h-170v141h170zM371 37h167v-12c0 -135 -92 -239 -258 -239c-162 0 -248 105 -248 212c0 100 57 144 124 198l64 51v48h170v-108l-130 -94c-29 -20 -47 -43 -47 -77s24 -73 76 -73c53 0 82 38 82 82v12z" />
    <glyph glyph-name="periodcentered" unicode="&#xb7;" horiz-adv-x="253" 
d="M204 220h-155v160h155v-160z" />
    <glyph glyph-name="bullet" unicode="&#x2022;" horiz-adv-x="394" 
d="M197 176c-69 0 -123 54 -123 122s54 123 123 123c68 0 123 -55 123 -123s-55 -122 -123 -122z" />
    <glyph glyph-name="asterisk" unicode="*" horiz-adv-x="327" 
d="M307 677l-95 -49l94 -49l-29 -49l-89 56l5 -105h-62l8 105l-90 -56l-29 51l99 46l-97 50l27 48l90 -57l-5 104h62l-8 -104l93 55z" />
    <glyph glyph-name="numbersign" unicode="#" horiz-adv-x="890" 
d="M857 488h-166l-66 -193h178v-92h-209l-69 -203h-102l69 203h-217l-69 -203h-103l69 203h-139v92h170l66 193h-180v92h211l58 170h102l-58 -170h217l58 170h103l-58 -170h135v-92zM523 295l65 193h-217l-65 -193h217z" />
    <glyph glyph-name="slash" unicode="/" horiz-adv-x="394" 
d="M104 0h-59l258 750h60z" />
    <glyph glyph-name="backslash" unicode="\" horiz-adv-x="394" 
d="M349 0h-60l-258 750h58z" />
    <glyph glyph-name="colon.case" horiz-adv-x="270" 
d="M212 442h-154v160h154v-160zM212 87h-154v160h154v-160z" />
    <glyph glyph-name="exclamdown.case" horiz-adv-x="293" 
d="M232 596h-170v154h170v-154zM243 0h-193l39 516h115z" />
    <glyph glyph-name="questiondown.case" horiz-adv-x="577" 
d="M390 750v-141h-170v141h170zM371 237h167v-12c0 -135 -92 -239 -258 -239c-162 0 -248 105 -248 212c0 100 57 144 124 198l64 51v83h170v-143l-130 -94c-29 -20 -47 -43 -47 -77s24 -73 76 -73c53 0 82 38 82 82v12z" />
    <glyph glyph-name="periodcentered.case" horiz-adv-x="253" 
d="M204 309h-155v160h155v-160z" />
    <glyph glyph-name="parenleft" unicode="(" horiz-adv-x="341" 
d="M232 -128c-73 76 -172 240 -172 453c0 216 98 378 172 455h124c-76 -85 -164 -252 -164 -455c0 -201 89 -369 164 -453h-124z" />
    <glyph glyph-name="parenright" unicode=")" horiz-adv-x="341" 
d="M109 -128h-125c75 84 164 252 164 453c0 203 -88 370 -164 455h125c74 -77 171 -239 171 -455c0 -213 -98 -377 -171 -453z" />
    <glyph glyph-name="braceleft" unicode="{" horiz-adv-x="361" 
d="M273 -200c-101 0 -192 36 -192 148c0 67 20 136 20 201c0 42 -22 72 -63 72h-11v112h11c41 0 63 27 63 67c0 62 -20 127 -20 192c0 119 91 158 192 158h60l1 -117c-44 0 -98 -16 -98 -84c0 -59 14 -111 14 -168c0 -68 -34 -98 -72 -103v-2c38 -6 72 -38 72 -109
c0 -60 -14 -113 -14 -176c0 -60 54 -73 98 -73l-1 -118h-60z" />
    <glyph glyph-name="braceright" unicode="}" horiz-adv-x="361" 
d="M89 -200h-61l-1 118c44 0 99 13 99 73c0 63 -15 116 -15 176c0 71 34 103 73 109v2c-39 5 -73 35 -73 103c0 57 15 109 15 168c0 68 -55 84 -99 84l1 117h61c101 0 191 -39 191 -158c0 -65 -20 -130 -20 -192c0 -40 22 -67 63 -67h11v-112h-11c-41 0 -63 -30 -63 -72
c0 -65 20 -134 20 -201c0 -112 -90 -148 -191 -148z" />
    <glyph glyph-name="bracketleft" unicode="[" horiz-adv-x="319" 
d="M291 614h-72v-678h72v-136h-243v950h243v-136z" />
    <glyph glyph-name="bracketright" unicode="]" horiz-adv-x="319" 
d="M28 750h243v-950h-243v136h72v678h-72v136z" />
    <glyph glyph-name="braceleft.case" horiz-adv-x="361" 
d="M273 0c-101 0 -192 29 -192 116c0 53 20 108 20 159c0 34 -22 58 -63 58h-11v88h11c41 0 63 21 63 52c0 49 -20 101 -20 152c0 94 91 125 192 125h60l1 -112c-44 0 -98 -11 -98 -61c0 -45 14 -84 14 -124c0 -50 -34 -72 -72 -76v-1c38 -4 72 -28 72 -81
c0 -43 -14 -84 -14 -129c0 -44 54 -53 98 -53l-1 -113h-60z" />
    <glyph glyph-name="braceright.case" horiz-adv-x="361" 
d="M89 0h-61l-1 112c44 0 99 10 99 54c0 45 -15 86 -15 129c0 53 34 77 73 81v1c-39 4 -73 26 -73 76c0 40 15 79 15 124c0 50 -55 61 -99 61l1 112h61c101 0 191 -31 191 -125c0 -51 -20 -103 -20 -152c0 -31 22 -52 63 -52h11v-88h-11c-41 0 -63 -24 -63 -58
c0 -51 20 -106 20 -159c0 -87 -90 -116 -191 -116z" />
    <glyph glyph-name="bracketleft.case" horiz-adv-x="322" 
d="M288 614h-72v-478h72v-136h-242v750h242v-136z" />
    <glyph glyph-name="bracketright.case" horiz-adv-x="322" 
d="M34 750h242v-750h-242v136h72v478h-72v136z" />
    <glyph glyph-name="hyphen" unicode="-" horiz-adv-x="448" 
d="M384 212h-320v110h320v-110z" />
    <glyph glyph-name="endash" unicode="&#x2013;" horiz-adv-x="765" 
d="M104 212v110h558v-110h-558z" />
    <glyph glyph-name="emdash" unicode="&#x2014;" horiz-adv-x="1397" 
d="M267 212v110h863v-110h-863z" />
    <glyph glyph-name="underscore" unicode="_" horiz-adv-x="580" 
d="M76 -110v110h428v-110h-428z" />
    <glyph glyph-name="hyphen.case" horiz-adv-x="448" 
d="M384 328h-320v110h320v-110z" />
    <glyph glyph-name="endash.case" horiz-adv-x="765" 
d="M104 328v110h558v-110h-558z" />
    <glyph glyph-name="emdash.case" horiz-adv-x="1297" 
d="M267 328v110h863v-110h-863z" />
    <glyph glyph-name="quotesinglbase" unicode="&#x201a;" horiz-adv-x="300" 
d="M139 -143h-122l70 303h172z" />
    <glyph glyph-name="quotedblbase" unicode="&#x201e;" horiz-adv-x="521" 
d="M139 -143h-122l70 303h172zM360 -143h-123l70 303h172z" />
    <glyph glyph-name="quotedblleft" unicode="&#x201c;" horiz-adv-x="521" 
d="M17 447l120 303h122l-70 -303h-172zM237 447l120 303h123l-71 -303h-172z" />
    <glyph glyph-name="quotedblright" unicode="&#x201d;" horiz-adv-x="521" 
d="M139 447h-122l70 303h172zM360 447h-123l70 303h173z" />
    <glyph glyph-name="quoteleft" unicode="&#x2018;" horiz-adv-x="300" 
d="M17 447l120 303h122l-70 -303h-172z" />
    <glyph glyph-name="quoteright" unicode="&#x2019;" horiz-adv-x="300" 
d="M139 447h-122l70 303h172z" />
    <glyph glyph-name="guillemotleft" unicode="&#xab;" horiz-adv-x="615" 
d="M190 46l-168 200v7l168 200h168l-170 -203l170 -204h-168zM425 46l-168 200v7l168 200h168l-170 -203l170 -204h-168z" />
    <glyph glyph-name="guillemotright" unicode="&#xbb;" horiz-adv-x="615" 
d="M190 46h-168l170 204l-170 203h168l168 -200v-7zM425 46h-168l170 204l-170 203h168l168 -200v-7z" />
    <glyph glyph-name="guilsinglleft" unicode="&#x2039;" horiz-adv-x="380" 
d="M190 46l-168 200v7l168 200h168l-170 -203l170 -204h-168z" />
    <glyph glyph-name="guilsinglright" unicode="&#x203a;" horiz-adv-x="380" 
d="M190 46h-168l170 204l-170 203h168l168 -200v-7z" />
    <glyph glyph-name="quotedbl" unicode="&#x22;" horiz-adv-x="465" 
d="M186 447h-110l-21 303h152zM390 447h-111l-20 303h152z" />
    <glyph glyph-name="quotesingle" unicode="'" horiz-adv-x="265" 
d="M190 447h-114l-21 303h155z" />
    <glyph glyph-name="guillemotleft.case" horiz-adv-x="630" 
d="M190 151l-168 200v7l168 200h168l-170 -203l170 -204h-168zM440 151l-168 200v7l168 200h168l-170 -203l170 -204h-168z" />
    <glyph glyph-name="guillemotright.case" horiz-adv-x="627" 
d="M190 151h-168l170 204l-170 203h168l168 -200v-7zM437 151h-168l170 204l-170 203h168l168 -200v-7z" />
    <glyph glyph-name="guilsinglleft.case" horiz-adv-x="380" 
d="M190 151l-168 200v7l168 200h168l-170 -203l170 -204h-168z" />
    <glyph glyph-name="guilsinglright.case" horiz-adv-x="380" 
d="M190 151h-168l170 204l-170 203h168l168 -200v-7z" />
    <glyph glyph-name="hyphen.subs" horiz-adv-x="278" 
d="M232 42h-186v65h186v-65z" />
    <glyph glyph-name="parenleft.subs" horiz-adv-x="219" 
d="M145 -179c-43 46 -99 145 -99 276s56 229 99 276h74c-44 -52 -95 -153 -95 -276s51 -224 95 -276h-74z" />
    <glyph glyph-name="parenright.subs" horiz-adv-x="219" 
d="M73 -179h-73c43 52 95 153 95 276s-51 224 -95 276h73c43 -47 101 -145 101 -276s-58 -230 -101 -276z" />
    <glyph glyph-name="period.subs" horiz-adv-x="166" 
d="M130 -80h-92v94h92v-94z" />
    <glyph glyph-name="comma.subs" horiz-adv-x="193" 
d="M92 -161h-74l41 175h102z" />
    <glyph glyph-name="hyphen.sups" horiz-adv-x="278" 
d="M232 572h-186v65h186v-65z" />
    <glyph glyph-name="parenleft.sups" horiz-adv-x="219" 
d="M145 351c-43 45 -99 144 -99 276c0 131 56 229 99 275h74c-44 -51 -95 -152 -95 -275c0 -124 51 -224 95 -276h-74z" />
    <glyph glyph-name="parenright.sups" horiz-adv-x="219" 
d="M73 351h-73c43 52 95 152 95 276c0 123 -51 224 -95 275h73c43 -46 101 -144 101 -275c0 -132 -58 -231 -101 -276z" />
    <glyph glyph-name="period.sups" horiz-adv-x="166" 
d="M130 450h-92v93h92v-93z" />
    <glyph glyph-name="comma.sups" horiz-adv-x="193" 
d="M92 368h-74l41 175h102z" />
    <glyph glyph-name="uni060C" unicode="&#x60c;" horiz-adv-x="306" 
d="M144 288h123l-71 -303h-172z" />
    <glyph glyph-name="uni060C" horiz-adv-x="306" 
d="M144 288h123l-71 -303h-172z" />
    <glyph glyph-name="uni061B" unicode="&#x61b;" horiz-adv-x="300" 
d="M150 570h115l-70 -303h-165zM40 146h154v-160h-154v160z" />
    <glyph glyph-name="uni061B" horiz-adv-x="300" 
d="M150 570h115l-70 -303h-165zM40 146h154v-160h-154v160z" />
    <glyph glyph-name="uni061F" unicode="&#x61f;" horiz-adv-x="575" 
d="M536 513h-168v12c0 44 -28 82 -81 82s-76 -39 -76 -72c0 -35 20 -59 47 -80l130 -103v-118h-170v60l-64 54c-66 55 -124 105 -124 204c0 108 87 212 248 212c166 0 258 -104 258 -240v-11zM218 0v154h170v-154h-170z" />
    <glyph glyph-name="uni061F" horiz-adv-x="575" 
d="M536 513h-168v12c0 44 -28 82 -81 82s-76 -39 -76 -72c0 -35 20 -59 47 -80l130 -103v-118h-170v60l-64 54c-66 55 -124 105 -124 204c0 108 87 212 248 212c166 0 258 -104 258 -240v-11zM218 0v154h170v-154h-170z" />
    <glyph glyph-name="uni066D" unicode="&#x66d;" horiz-adv-x="600" 
d="M307 677l-95 -49l94 -49l-29 -49l-89 56l5 -105h-62l8 105l-90 -56l-29 51l99 46l-97 50l27 48l90 -57l-5 104h62l-8 -104l93 55z" />
    <glyph glyph-name="uni066D" horiz-adv-x="600" 
d="M307 677l-95 -49l94 -49l-29 -49l-89 56l5 -105h-62l8 105l-90 -56l-29 51l99 46l-97 50l27 48l90 -57l-5 104h62l-8 -104l93 55z" />
    <glyph glyph-name="uniFD3E" unicode="&#xfd3e;" horiz-adv-x="341" 
d="M232 -128c-73 76 -172 240 -172 453c0 216 98 378 172 455h124c-76 -85 -164 -252 -164 -455c0 -201 89 -369 164 -453h-124z" />
    <glyph glyph-name="uniFD3F" unicode="&#xfd3f;" horiz-adv-x="341" 
d="M109 -128h-125c75 84 164 252 164 453c0 203 -88 370 -164 455h125c74 -77 171 -239 171 -455c0 -213 -98 -377 -171 -453z" />
    <glyph glyph-name="Euro" unicode="&#x20ac;" horiz-adv-x="574" 
d="M439 764c42 0 71 -5 100 -17v-178c-28 14 -57 19 -91 19c-98 0 -162 -50 -178 -137h207v-49h-477v49h78c18 184 163 313 361 313zM270 300c15 -87 80 -139 178 -139c34 0 63 6 91 21v-180c-29 -12 -58 -16 -100 -16c-199 0 -344 129 -361 314h-78v50h477v-50h-207z" />
    <glyph glyph-name="cent" unicode="&#xa2;" horiz-adv-x="601" 
d="M311 135c50 0 77 21 96 64h158c-18 -125 -102 -200 -220 -211v-102h-70v102c-146 15 -236 121 -236 270c0 148 90 255 236 270v102h70v-102c118 -12 202 -89 221 -216h-158c-18 44 -46 69 -97 69c-70 0 -110 -48 -110 -123c0 -76 40 -123 110 -123z" />
    <glyph glyph-name="currency" unicode="&#xa4;" horiz-adv-x="571" 
d="M520 126l-65 -64l-59 59c-34 -22 -73 -33 -111 -33s-77 11 -111 33l-59 -58l-63 63l59 59c-22 34 -33 71 -33 109c0 40 11 78 33 112l-59 59l65 64l59 -59c34 22 72 33 110 33s76 -11 110 -32l58 58l65 -63l-59 -59c22 -34 33 -72 33 -111c0 -38 -11 -77 -33 -110z
M284 188c28 0 55 10 77 32s32 50 32 77c0 29 -10 56 -30 76c-22 21 -48 30 -74 30c-28 0 -57 -10 -80 -32c-21 -22 -32 -50 -32 -77c0 -28 10 -55 31 -75c22 -21 48 -31 76 -31z" />
    <glyph glyph-name="dollar" unicode="$" horiz-adv-x="658" 
d="M634 229c0 -140 -101 -231 -261 -242v-98h-70v98c-165 13 -268 112 -274 266h173c4 -79 57 -126 143 -126c72 0 121 36 121 90c0 64 -40 90 -154 99c-171 14 -260 89 -260 220s99 219 250 227v97h71v-98c147 -15 235 -99 244 -238h-171c-7 67 -47 101 -119 101
c-65 0 -107 -31 -107 -79c0 -61 40 -85 155 -92c172 -11 259 -86 259 -225z" />
    <glyph glyph-name="florin" unicode="&#x192;" horiz-adv-x="368" 
d="M79 -200h-71v129h50c24 0 38 12 38 38v417h-82v132h82v71c0 101 60 163 187 163h70v-129h-48c-25 0 -39 -12 -39 -38v-67h87v-132h-87v-421c0 -101 -60 -163 -187 -163z" />
    <glyph glyph-name="sterling" unicode="&#xa3;" horiz-adv-x="489" 
d="M253 152h214v-152h-458v152h56v160h-56v138h56v71c0 151 83 229 231 229h132v-154h-82c-62 0 -93 -34 -93 -100v-46h122v-138h-122v-160z" />
    <glyph glyph-name="yen" unicode="&#xa5;" horiz-adv-x="668" 
d="M652 750l-208 -463h128v-49h-150l-1 -2v-65h151v-50h-151v-121h-174v121h-151v50h151v67h-151v49h129l-209 463h178l138 -346h3l139 346h178z" />
    <glyph glyph-name="plus" unicode="+" horiz-adv-x="610" 
d="M519 412v-111h-159v-158h-110v158h-159v111h159v159h110v-159h159z" />
    <glyph glyph-name="minus" unicode="&#x2212;" horiz-adv-x="610" 
d="M91 301v111h428v-111h-428z" />
    <glyph glyph-name="multiply" unicode="&#xd7;" horiz-adv-x="610" 
d="M495 470l-113 -113l113 -113l-77 -77l-113 113l-113 -114l-77 78l113 113l-113 113l77 78l113 -114l113 113z" />
    <glyph glyph-name="divide" unicode="&#xf7;" horiz-adv-x="610" 
d="M383 474h-155v160h155v-160zM91 307v100h428v-100h-428zM383 80h-155v159h155v-159z" />
    <glyph glyph-name="equal" unicode="=" horiz-adv-x="610" 
d="M91 392v105h428v-105h-428zM91 204v104h428v-104h-428z" />
    <glyph glyph-name="notequal" unicode="&#x2260;" horiz-adv-x="610" 
d="M519 392h-153l-17 -84h170v-96h-189l-27 -131h-105l27 131h-134v96h153l17 84h-170v97h190l27 133h105l-27 -133h133v-97z" />
    <glyph glyph-name="greater" unicode="&#x3e;" horiz-adv-x="609" 
d="M86 566l437 -168v-98l-437 -169v111l288 109l-288 108v107z" />
    <glyph glyph-name="less" unicode="&#x3c;" horiz-adv-x="609" 
d="M523 566v-107l-288 -108l288 -109v-111l-437 169v98z" />
    <glyph glyph-name="greaterequal" unicode="&#x2265;" horiz-adv-x="609" 
d="M86 631l437 -154v-101l-437 -155v109l295 98l-295 97v106zM86 64v103l437 151v-100z" />
    <glyph glyph-name="lessequal" unicode="&#x2264;" horiz-adv-x="609" 
d="M523 631v-106l-295 -97l295 -98v-109l-437 155v101zM86 218v100l437 -151v-103z" />
    <glyph glyph-name="plusminus" unicode="&#xb1;" horiz-adv-x="610" 
d="M357 510h136v-94h-136v-137h-103v137h-137v94h137v145h103v-145zM117 135v96h376v-96h-376z" />
    <glyph glyph-name="approxequal" unicode="&#x2248;" horiz-adv-x="520" 
d="M470 529c0 -118 -44 -162 -123 -162c-76 0 -109 62 -153 62c-26 0 -35 -21 -35 -48h-109c0 112 38 162 123 162c71 0 105 -61 153 -61c26 0 35 20 35 47h109zM470 329c0 -119 -44 -163 -123 -163c-76 0 -109 62 -153 62c-26 0 -35 -20 -35 -48h-109c0 112 38 163 123 163
c71 0 105 -62 153 -62c26 0 35 20 35 48h109z" />
    <glyph glyph-name="asciitilde" unicode="~" horiz-adv-x="520" 
d="M470 422c0 -118 -44 -162 -123 -162c-76 0 -109 62 -153 62c-26 0 -35 -21 -35 -48h-109c0 113 38 162 123 162c71 0 105 -62 153 -62c26 0 35 20 35 48h109z" />
    <glyph glyph-name="asciicircum" unicode="^" horiz-adv-x="570" 
d="M520 204h-138l-99 267l-100 -267h-133l168 420h134z" />
    <glyph glyph-name="infinity" unicode="&#x221e;" horiz-adv-x="784" 
d="M590 520c105 0 179 -70 179 -164c0 -96 -73 -165 -177 -165c-62 0 -119 35 -156 71l-37 35l-37 -35c-37 -35 -93 -71 -154 -71c-106 0 -177 70 -177 165s75 164 178 164c69 0 118 -31 153 -68l37 -38l37 38c36 37 85 68 154 68zM301 333l22 23l-22 25
c-16 19 -48 44 -85 44c-45 0 -75 -31 -75 -69c0 -39 30 -66 75 -66c34 0 67 24 85 43zM583 290c45 0 76 27 76 66c0 38 -31 69 -77 69c-35 0 -68 -26 -84 -44l-23 -25l23 -23c19 -21 51 -43 85 -43z" />
    <glyph glyph-name="percent" unicode="%" horiz-adv-x="726" 
d="M171 478c-89 0 -149 61 -149 143s60 143 149 143s150 -61 150 -143s-61 -143 -150 -143zM54 0l503 750h118l-509 -750h-112zM171 562c35 0 59 26 59 59s-24 58 -59 58s-59 -25 -59 -58s24 -59 59 -59zM554 -14c-88 0 -149 60 -149 143c0 81 61 142 149 142
c90 0 151 -61 151 -142c0 -83 -61 -143 -151 -143zM554 70c35 0 60 25 60 59c0 32 -25 58 -60 58s-59 -26 -59 -58c0 -34 24 -59 59 -59z" />
    <glyph glyph-name="perthousand" unicode="&#x2030;" horiz-adv-x="831" 
d="M259 559c0 -66 -50 -115 -120 -115c-67 0 -117 49 -117 115v82c0 65 50 115 117 115c70 0 120 -50 120 -115v-82zM179 0h-59l259 750h59zM109 555c0 -20 13 -33 30 -33c20 0 32 13 32 33v89c0 20 -12 34 -32 34c-17 0 -30 -14 -30 -34v-89zM537 108
c0 -66 -50 -115 -119 -115s-119 49 -119 115v83c0 65 50 114 119 114s119 -49 119 -114v-83zM809 108c0 -66 -50 -115 -119 -115c-68 0 -118 49 -118 115v83c0 65 50 114 118 114c70 0 119 -49 119 -114v-83zM387 105c0 -21 13 -34 31 -34s31 13 31 34v89
c0 19 -13 34 -31 34s-31 -15 -31 -34v-89zM659 105c0 -21 13 -34 31 -34c19 0 32 13 32 34v89c0 19 -13 34 -32 34c-18 0 -31 -15 -31 -34v-89z" />
    <glyph glyph-name="uni22A0" unicode="&#x22a0;" horiz-adv-x="850" 
d="M796 0h-743v750h743v-750zM167 642v-534h516v534h-516zM592 267l-68 -68l-103 103l-104 -104l-67 69l102 103l-102 104l67 69l104 -104l103 103l68 -68l-102 -104z" />
    <glyph glyph-name="arrowup" unicode="&#x2191;" horiz-adv-x="564" 
d="M531 340v-155l-191 146v-331h-116v331l-192 -146v155l246 190h6z" />
    <glyph glyph-name="uni2197" unicode="&#x2197;" horiz-adv-x="642" 
d="M608 516l4 -5v-352h-122v156l-316 -315h-164l403 403h-170v113h365z" />
    <glyph glyph-name="arrowright" unicode="&#x2192;" horiz-adv-x="740" 
d="M494 507l190 -246v-5l-190 -248h-155l147 192h-429v116h429l-147 191h155z" />
    <glyph glyph-name="uni2198" unicode="&#x2198;" horiz-adv-x="642" 
d="M490 357h122v-352l-4 -5h-365v113h170l-403 403h164l316 -315v156z" />
    <glyph glyph-name="arrowdown" unicode="&#x2193;" horiz-adv-x="564" 
d="M340 184l191 147v-155l-247 -190h-6l-246 190v155l192 -148v333h116v-332z" />
    <glyph glyph-name="uni2199" unicode="&#x2199;" horiz-adv-x="642" 
d="M632 516l-402 -403h169v-113h-364l-5 5v352h123v-155l315 314h164z" />
    <glyph glyph-name="arrowleft" unicode="&#x2190;" horiz-adv-x="740" 
d="M684 316v-116h-429l146 -192h-154l-190 248v5l190 246h154l-146 -191h429z" />
    <glyph glyph-name="uni2196" unicode="&#x2196;" horiz-adv-x="642" 
d="M632 0h-164l-315 314v-155h-123v352l5 5h364v-113h-169z" />
    <glyph glyph-name="arrowboth" unicode="&#x2194;" horiz-adv-x="969" 
d="M723 507l190 -246v-5l-190 -248h-155l147 192h-460l146 -192h-154l-190 248v5l190 246h154l-146 -191h460l-147 191h155z" />
    <glyph glyph-name="arrowupdn" unicode="&#x2195;" horiz-adv-x="550" 
d="M513 301l-177 72v-231l177 72v-134l-236 -94h-5l-235 95v133l177 -73v232l-177 -72v134l235 95h5l236 -95v-134z" />
    <glyph glyph-name="arrowup.case" horiz-adv-x="564" 
d="M531 574v-155l-191 147v-566h-116v566l-192 -147v155l246 190h6z" />
    <glyph glyph-name="uni2197.case" horiz-adv-x="875" 
d="M842 750l3 -5v-352h-122v156l-549 -549h-164l636 637h-169v113h365z" />
    <glyph glyph-name="arrowright.case" horiz-adv-x="740" 
d="M494 632l190 -247v-5l-190 -248h-155l147 192h-429v116h429l-147 192h155z" />
    <glyph glyph-name="uni2198.case" horiz-adv-x="875" 
d="M723 357h122v-352l-3 -5h-365v113h169l-636 637h164l549 -549v156z" />
    <glyph glyph-name="arrowdown.case" horiz-adv-x="564" 
d="M340 184l191 147v-155l-247 -190h-6l-246 190v155l192 -148v567h116v-566z" />
    <glyph glyph-name="uni2199.case" horiz-adv-x="875" 
d="M865 750l-635 -637h169v-113h-364l-5 5v352h123v-155l548 548h164z" />
    </font>
</svg>
