<?xml version="1.0" standalone="no"?>
<!DOCTYPE svg PUBLIC "-//W3C//DTD SVG 1.1//EN" "http://www.w3.org/Graphics/SVG/1.1/DTD/svg11.dtd" >
<svg xmlns="http://www.w3.org/2000/svg" xmlns:xlink="http://www.w3.org/1999/xlink" version="1.1">
<metadata>
Created by FontForge 20170730 at Tue Dec 10 20:13:04 2019
 By inseego,,,
Copyright Saudi Telecom Company
</metadata>
<font id="STCForward-Regular" horiz-adv-x="0" >
  <font-face 
    font-family="STC Forward"
    font-weight="400"
    font-stretch="normal"
    units-per-em="1000"
    panose-1="0 0 5 0 0 0 0 0 0 0"
    ascent="800"
    descent="-200"
    x-height="510"
    cap-height="750"
    bbox="-380 -425 1312 999"
    underline-thickness="50"
    underline-position="-100"
    stemh="81"
    stemv="90"
    unicode-range="U+0020-FEFC"
<missing-glyph horiz-adv-x="863" 
d="M60 0v750h743v-750h-743zM133 69h598v612h-598v-612zM537 217l-109 109l-110 -110l-42 44l109 109l-109 109l42 43l110 -109l109 108l43 -42l-109 -109l109 -109z" />
    <glyph glyph-name="f_b" unicode="fb" horiz-adv-x="1016" 
d="M134 612c0 86 52 138 152 138h144v-80h-138c-40 0 -68 -20 -68 -68v-92h155v-81h-155v-429h-90v429h-100v81h100v102zM728 523c137 0 238 -109 238 -268c0 -160 -101 -269 -238 -269c-75 0 -133 31 -170 85v-71h-89v750h89v-311c38 53 95 84 170 84zM715 69
c93 0 159 70 159 186c0 114 -66 185 -159 185c-78 0 -129 -43 -157 -105v-160c28 -63 80 -106 157 -106z" />
    <glyph glyph-name="f_f" unicode="ff" horiz-adv-x="752" 
d="M134 0v429h-100v81h100v102c0 86 52 138 152 138h144v-80h-138c-40 0 -68 -20 -68 -68v-92h110v-81h-110v-429h-90zM479 0v429h-98v81h98v102c0 86 52 138 152 138h145v-80h-139c-40 0 -68 -20 -68 -68v-92h155v-81h-155v-429h-90z" />
    <glyph glyph-name="f_f_b" unicode="ffb" horiz-adv-x="1362" 
d="M224 602v-92h104v-81h-104v-429h-90v429h-100v81h100v102c0 86 52 138 152 138h144v-80h-138c-40 0 -68 -20 -68 -68zM479 612c0 86 52 138 152 138h145v-80h-139c-40 0 -68 -20 -68 -68v-92h155v-81h-155v-429h-90v429h-100v81h100v102zM1073 523
c137 0 239 -109 239 -268c0 -160 -102 -269 -239 -269c-76 0 -133 31 -170 85v-71h-89v750h89v-311c38 53 95 84 170 84zM1060 69c93 0 160 70 160 186c0 114 -67 185 -160 185c-77 0 -129 -43 -157 -105v-160c28 -63 80 -106 157 -106z" />
    <glyph glyph-name="f_f_h" unicode="ffh" horiz-adv-x="1353" 
d="M224 602v-92h104v-81h-104v-429h-90v429h-100v81h100v102c0 86 52 138 152 138h144v-80h-138c-40 0 -68 -20 -68 -68zM479 612c0 86 52 138 152 138h145v-80h-139c-40 0 -68 -20 -68 -68v-92h155v-81h-155v-429h-90v429h-100v81h100v102zM1088 523
c121 0 196 -81 196 -204v-319h-91v299c0 83 -43 141 -129 141c-66 0 -132 -43 -159 -100v-340h-91v750h91v-316c42 56 107 89 183 89z" />
    <glyph glyph-name="f_f_i" unicode="ffi" horiz-adv-x="1022" 
d="M134 0v429h-100v81h100v102c0 86 52 138 152 138h144v-80h-138c-40 0 -68 -20 -68 -68v-92h110v-81h-110v-429h-90zM479 0v429h-98v81h98v102c0 86 52 138 152 138h145v-80h-139c-40 0 -68 -20 -68 -68v-92h155v-81h-155v-429h-90zM946 616h-90v134h90v-134zM856 0v429
h-86v81h176v-510h-90z" />
    <glyph glyph-name="f_f_j" unicode="ffj" horiz-adv-x="1023" 
d="M134 0v429h-100v81h100v102c0 86 52 138 152 138h144v-80h-138c-40 0 -68 -20 -68 -68v-92h105v-81h-105v-429h-90zM479 0v429h-100v81h100v102c0 86 52 138 152 138h145v-80h-139c-40 0 -68 -20 -68 -68v-92h109v-81h-109v-429h-90zM947 616h-90v134h90v-134zM663 -200
v80h141c31 0 53 17 53 56v493h-133v81h223v-584c0 -78 -46 -126 -137 -126h-147z" />
    <glyph glyph-name="f_f_k" unicode="ffk" horiz-adv-x="1272" 
d="M224 602v-92h107v-81h-107v-429h-90v429h-100v81h100v102c0 86 52 138 152 138h144v-80h-138c-40 0 -68 -20 -68 -68zM479 612c0 86 52 138 152 138h145v-80h-139c-40 0 -68 -20 -68 -68v-92h155v-81h-155v-429h-90v429h-100v81h100v102zM1144 0l-173 231h-66v-231h-91
v750h91v-445h66l166 205h106l-195 -238l205 -272h-109z" />
    <glyph glyph-name="f_f_l" unicode="ffl" horiz-adv-x="1058" 
d="M134 0v429h-100v81h100v102c0 86 52 138 152 138h144v-80h-138c-40 0 -68 -20 -68 -68v-92h110v-81h-110v-429h-90zM479 0v429h-98v81h98v102c0 86 52 138 152 138h145v-80h-139c-40 0 -68 -20 -68 -68v-92h155v-81h-155v-429h-90zM1030 0h-64c-85 0 -130 47 -130 122
v628h90v-620c0 -35 20 -50 48 -50h56v-80z" />
    <glyph glyph-name="f_h" unicode="fh" horiz-adv-x="1008" 
d="M134 612c0 86 52 138 152 138h144v-80h-138c-40 0 -68 -20 -68 -68v-92h155v-81h-155v-429h-90v429h-100v81h100v102zM742 523c122 0 196 -81 196 -204v-319h-90v299c0 83 -43 141 -130 141c-67 0 -133 -44 -159 -102v-338h-90v750h90v-317c41 56 107 90 183 90z" />
    <glyph glyph-name="f_idieresis" unicode="f&#xef;" horiz-adv-x="676" 
d="M224 602v-92h110v-81h-110v-429h-90v429h-100v81h100v102c0 86 52 138 152 138h177v-134h-74v54h-97c-40 0 -68 -20 -68 -68zM532 750h74v-134h-74v134zM379 429v81h222v-510h-90v429h-132z" />
    <glyph glyph-name="f_j" unicode="fj" horiz-adv-x="678" 
d="M134 0v429h-100v81h100v102c0 86 52 138 152 138h144v-80h-138c-40 0 -68 -20 -68 -68v-92h109v-81h-109v-429h-90zM602 616h-90v134h90v-134zM318 -200v80h141c31 0 53 17 53 56v493h-133v81h223v-584c0 -78 -46 -126 -137 -126h-147z" />
    <glyph glyph-name="f_k" unicode="fk" horiz-adv-x="927" 
d="M134 612c0 86 52 138 152 138h144v-80h-138c-40 0 -68 -20 -68 -68v-92h155v-81h-155v-429h-90v429h-100v81h100v102zM799 0l-173 231h-67v-231h-90v750h90v-445h67l166 205h106l-196 -238l205 -272h-108z" />
    <glyph glyph-name="fi" unicode="fi" horiz-adv-x="676" 
d="M134 0v429h-100v81h100v102c0 86 52 138 152 138h144v-80h-138c-40 0 -68 -20 -68 -68v-92h130v-81h-130v-429h-90zM601 616h-90v134h90v-134zM511 0v429h-97v81h187v-510h-90z" />
    <glyph glyph-name="fl" unicode="fl" horiz-adv-x="713" 
d="M134 0v429h-100v81h100v102c0 86 52 138 152 138h144v-80h-138c-40 0 -68 -20 -68 -68v-92h155v-81h-155v-429h-90zM685 0h-64c-86 0 -130 47 -130 122v628h90v-620c0 -35 20 -50 48 -50h56v-80z" />
    <glyph glyph-name="uniFEFB" unicode="&#xfedf;&#xfe8e;" horiz-adv-x="656" arabic-form="isolated" 
d="M499 705h80v-518c0 -133 -48 -187 -186 -187h-361v93h196v423h80v-423h85c75 0 106 9 106 91v521z" />
    <glyph glyph-name="uniFEFC" unicode="&#xfee0;&#xfe8e;" horiz-adv-x="682" arabic-form="final" 
d="M682 93l17 -10v-73l-17 -10c-72 0 -113 20 -133 57c-28 -39 -77 -57 -156 -57h-361v93h196v423h80v-423h85c75 0 106 9 106 91v521h80v-518c0 -10 0 -19 -1 -28c3 -59 36 -66 104 -66z" />
    <glyph glyph-name="uniFEF7" unicode="&#xfedf;&#xfe84;" horiz-adv-x="656" arabic-form="isolated" 
d="M350 649v-51h-177v48h31c-8 9 -16 23 -16 49c0 54 43 82 91 82c35 0 61 -13 61 -13l-11 -43s-24 6 -50 6c-27 0 -48 -12 -48 -38s9 -40 42 -40h77zM499 705h80v-518c0 -133 -48 -187 -186 -187h-361v93h196v423h80v-423h85c75 0 106 9 106 91v521z" />
    <glyph glyph-name="uniFEF8" unicode="&#xfee0;&#xfe84;" horiz-adv-x="682" arabic-form="final" 
d="M350 649v-51h-177v48h31c-8 9 -16 23 -16 49c0 54 43 82 91 82c35 0 61 -13 61 -13l-11 -43s-24 6 -50 6c-27 0 -48 -12 -48 -38s9 -40 42 -40h77zM682 93l17 -10v-73l-17 -10c-72 0 -113 20 -133 57c-28 -39 -77 -57 -156 -57h-361v93h196v423h80v-423h85
c75 0 106 9 106 91v521h80v-518c0 -10 0 -19 -1 -28c3 -59 36 -66 104 -66z" />
    <glyph glyph-name="uniFEF9" unicode="&#xfedf;&#xfe88;" horiz-adv-x="656" arabic-form="isolated" 
d="M499 705h80v-518c0 -133 -48 -187 -186 -187h-361v93h196v423h80v-423h85c75 0 106 9 106 91v521zM208 -149c0 -26 9 -40 42 -40h77v-51h-177v48h31c-8 9 -16 23 -16 49c0 54 43 82 91 82c35 0 61 -13 61 -13l-11 -43s-24 6 -50 6c-27 0 -48 -12 -48 -38z" />
    <glyph glyph-name="uniFEFA" unicode="&#xfee0;&#xfe88;" horiz-adv-x="682" arabic-form="final" 
d="M682 93l17 -10v-73l-17 -10c-72 0 -113 20 -133 57c-28 -39 -77 -57 -156 -57h-361v93h196v423h80v-423h85c75 0 106 9 106 91v521h80v-518c0 -10 0 -19 -1 -28c3 -59 36 -66 104 -66zM209 -149c0 -26 9 -40 42 -40h77v-51h-177v48h31c-8 9 -16 23 -16 49
c0 54 43 82 91 82c35 0 61 -13 61 -13l-11 -43s-24 6 -50 6c-27 0 -48 -12 -48 -38z" />
    <glyph glyph-name="uniFEF5" unicode="&#xfedf;&#xfe82;" horiz-adv-x="656" arabic-form="isolated" 
d="M499 705h80v-518c0 -133 -48 -187 -186 -187h-361v93h196v423h80v-423h85c75 0 106 9 106 91v521zM217 612c-23 0 -45 -10 -61 -20l-18 45c15 12 46 26 76 26c40 0 57 -24 99 -24c23 0 40 6 61 19l15 -45c-11 -10 -40 -25 -69 -25c-41 0 -73 24 -103 24z" />
    <glyph glyph-name="uniFEF6" unicode="&#xfee0;&#xfe82;" horiz-adv-x="682" arabic-form="final" 
d="M682 93l17 -10v-73l-17 -10c-72 0 -113 20 -133 57c-28 -39 -77 -57 -156 -57h-361v93h196v423h80v-423h85c75 0 106 9 106 91v521h80v-518c0 -10 0 -19 -1 -28c3 -59 36 -66 104 -66zM217 612c-23 0 -45 -10 -61 -20l-18 45c15 12 46 26 76 26c40 0 57 -24 99 -24
c23 0 40 6 61 19l15 -45c-11 -10 -40 -25 -69 -25c-41 0 -73 24 -103 24z" />
    <glyph glyph-name="uniFEDFFB51" unicode="&#xfedf;&#xfb51;" horiz-adv-x="656" 
d="M499 705h80v-518c0 -133 -48 -187 -186 -187h-361v93h196v423h80v-423h85c75 0 106 9 106 91v521z" />
    <glyph glyph-name="uniFEE0FB51" unicode="&#xfee0;&#xfb51;" horiz-adv-x="682" 
d="M682 93l17 -10v-73l-17 -10c-72 0 -113 20 -133 57c-28 -39 -77 -57 -156 -57h-361v93h196v423h80v-423h85c75 0 106 9 106 91v521h80v-518c0 -10 0 -19 -1 -28c3 -59 36 -66 104 -66z" />
    <glyph glyph-name="uniFE8E" unicode="&#x627;" horiz-adv-x="277" arabic-form="final" 
d="M254 0c-129 0 -176 50 -176 188v517h79v-517c0 -85 23 -95 120 -95l17 -10v-73l-17 -10h-23z" />
    <glyph glyph-name="uniFE84" unicode="&#x623;" horiz-adv-x="277" arabic-form="final" 
d="M201 747v-51h-177v48h31c-8 9 -16 23 -16 49c0 54 43 82 91 82c35 0 61 -13 61 -13l-11 -43s-24 6 -50 6c-27 0 -48 -12 -48 -38s9 -40 42 -40h77zM277 93l17 -10v-73l-17 -10h-23c-129 0 -176 50 -176 188v425h79v-425c0 -85 23 -95 120 -95z" />
    <glyph glyph-name="uniFE88" unicode="&#x625;" horiz-adv-x="277" arabic-form="final" 
d="M277 93l17 -10v-73l-17 -10h-23c-129 0 -176 50 -176 188v517h79v-517c0 -85 23 -95 120 -95zM101 -149c0 -26 9 -40 42 -40h77v-51h-177v48h31c-8 9 -16 23 -16 49c0 54 43 82 91 82c35 0 61 -13 61 -13l-11 -43s-24 6 -50 6c-27 0 -48 -12 -48 -38z" />
    <glyph glyph-name="uniFE82" unicode="&#x622;" horiz-adv-x="277" arabic-form="final" 
d="M225 756l15 -45c-11 -10 -40 -25 -69 -25c-41 0 -73 24 -103 24c-23 0 -45 -10 -61 -20l-18 45c15 12 46 26 76 26c40 0 57 -24 99 -24c23 0 40 6 61 19zM254 0c-129 0 -176 50 -176 188v425h79v-425c0 -85 23 -95 120 -95l17 -10v-73l-17 -10h-23z" />
    <glyph glyph-name="uniFB51" unicode="&#x671;" horiz-adv-x="277" arabic-form="final" 
d="M254 0c-129 0 -176 50 -176 188v425h79v-425c0 -85 23 -95 120 -95l17 -10v-73l-17 -10h-23z" />
    <glyph glyph-name="uni066E.init" unicode="&#x66e;" horiz-adv-x="265" 
d="M0 0l-17 10v73l17 10c83 0 126 10 126 86v217h79v-217c0 -128 -59 -179 -205 -179z" />
    <glyph glyph-name="uni066E.medi" unicode="&#x66e;" horiz-adv-x="330" 
d="M330 93l17 -10v-73l-17 -10c-87 0 -133 20 -154 65c-29 -45 -85 -65 -176 -65l-17 10v73l17 10c84 0 126 9 126 84v219h79v-217c0 -81 43 -86 125 -86z" />
    <glyph glyph-name="uni066E.fina" unicode="&#x66e;" horiz-adv-x="955" 
d="M955 93l17 -10v-73l-17 -10c-91 0 -139 21 -161 66c-29 -46 -85 -66 -176 -66h-325c-211 0 -256 86 -256 221c0 53 15 113 30 150h76c-13 -35 -27 -101 -27 -140c0 -104 50 -138 177 -138h325c84 0 125 9 125 84v219h79v-217c0 -81 46 -86 133 -86z" />
    <glyph glyph-name="uniFE90" unicode="&#x628;" horiz-adv-x="955" arabic-form="final" 
d="M955 93l17 -10v-73l-17 -10c-91 0 -139 21 -161 66c-29 -46 -85 -66 -176 -66h-325c-211 0 -256 86 -256 221c0 53 15 113 30 150h76c-13 -35 -27 -101 -27 -140c0 -104 50 -138 177 -138h325c84 0 125 9 125 84v219h79v-217c0 -81 46 -86 133 -86zM385 -199v106h79v-106
h-79z" />
    <glyph glyph-name="uniFE92" unicode="&#x628;" horiz-adv-x="330" arabic-form="medial" 
d="M330 93l17 -10v-73l-17 -10c-87 0 -133 20 -154 65c-29 -45 -85 -65 -176 -65l-17 10v73l17 10c84 0 126 9 126 84v219h79v-217c0 -81 43 -86 125 -86zM126 -199v106h79v-106h-79z" />
    <glyph glyph-name="uniFE91" unicode="&#x628;" horiz-adv-x="265" arabic-form="initial" 
d="M0 0l-17 10v73l17 10c83 0 126 10 126 86v217h79v-217c0 -128 -59 -179 -205 -179zM113 -200v106h79v-106h-79z" />
    <glyph glyph-name="uniFE96" unicode="&#x62a;" horiz-adv-x="955" arabic-form="final" 
d="M411 524v-106h-77v106h77zM539 524v-106h-76v106h76zM955 93l17 -10v-73l-17 -10c-91 0 -139 21 -161 66c-29 -46 -85 -66 -176 -66h-325c-211 0 -256 86 -256 221c0 53 15 113 30 150h76c-13 -35 -27 -101 -27 -140c0 -104 50 -138 177 -138h325c84 0 125 9 125 84v219
h79v-217c0 -81 46 -86 133 -86z" />
    <glyph glyph-name="uniFE98" unicode="&#x62a;" horiz-adv-x="330" arabic-form="medial" 
d="M140 590v-106h-77v106h77zM268 590v-106h-76v106h76zM330 93l17 -10v-73l-17 -10c-87 0 -133 20 -154 65c-29 -45 -85 -65 -176 -65l-17 10v73l17 10c84 0 126 9 126 84v219h79v-217c0 -81 43 -86 125 -86z" />
    <glyph glyph-name="uniFE97" unicode="&#x62a;" horiz-adv-x="265" arabic-form="initial" 
d="M63 484v106h77v-106h-77zM192 484v106h76v-106h-76zM0 0l-17 10v73l17 10c83 0 126 10 126 86v217h79v-217c0 -128 -59 -179 -205 -179z" />
    <glyph glyph-name="uniFE9A" unicode="&#x62b;" horiz-adv-x="955" arabic-form="final" 
d="M480 666v-103h-79v103h79zM412 527v-106h-76v106h76zM467 421v106h76v-106h-76zM955 93l17 -10v-73l-17 -10c-91 0 -139 21 -161 66c-29 -46 -85 -66 -176 -66h-325c-211 0 -256 86 -256 221c0 53 15 113 30 150h76c-13 -35 -27 -101 -27 -140c0 -104 50 -138 177 -138
h325c84 0 125 9 125 84v219h79v-217c0 -81 46 -86 133 -86z" />
    <glyph glyph-name="uniFE9C" unicode="&#x62b;" horiz-adv-x="330" arabic-form="medial" 
d="M209 732v-103h-79v103h79zM141 593v-106h-76v106h76zM196 487v106h76v-106h-76zM330 93l17 -10v-73l-17 -10c-87 0 -133 20 -154 65c-29 -45 -85 -65 -176 -65l-17 10v73l17 10c84 0 126 9 126 84v219h79v-217c0 -81 43 -86 125 -86z" />
    <glyph glyph-name="uniFE9B" unicode="&#x62b;" horiz-adv-x="265" arabic-form="initial" 
d="M130 629v103h79v-103h-79zM65 487v106h76v-106h-76zM196 487v106h76v-106h-76zM0 0l-17 10v73l17 10c83 0 126 10 126 86v217h79v-217c0 -128 -59 -179 -205 -179z" />
    <glyph glyph-name="uniFE9E" unicode="&#x62c;" horiz-adv-x="691" arabic-form="final" 
d="M691 93l17 -10v-73l-17 -10c-58 0 -96 11 -121 33c-20 -22 -50 -33 -90 -33h-244c-95 0 -117 -46 -117 -96c0 -62 31 -122 182 -122h194v-93h-201c-188 0 -259 92 -259 209c0 91 45 195 204 195h241c25 0 37 11 37 32v86c0 94 -82 116 -161 116c-76 0 -138 -17 -185 -36
l-22 80c40 19 108 49 215 49c88 0 235 -24 235 -198v-95c0 -7 0 -13 -1 -19c18 -15 49 -15 93 -15zM372 -166h-71v95h71v-95z" />
    <glyph glyph-name="uniFEA0" unicode="&#x62c;" horiz-adv-x="631" arabic-form="medial" 
d="M631 93l17 -10v-73l-17 -10c-54 0 -92 9 -117 28c-14 -19 -36 -28 -67 -28h-447l-17 4v85l17 4h449v99c0 109 -86 135 -169 135c-85 0 -154 -23 -207 -47l-23 79c43 24 120 61 238 61c92 0 243 -25 243 -211v-94c17 -22 50 -22 100 -22zM225 -199v106h79v-106h-79z" />
    <glyph glyph-name="uniFE9F" unicode="&#x62c;" horiz-adv-x="598" arabic-form="initial" 
d="M0 0l-17 4v85l17 4h449v99c0 109 -86 135 -169 135c-85 0 -154 -23 -207 -47l-23 79c43 24 120 61 238 61c92 0 243 -25 243 -211v-114c0 -64 -28 -95 -84 -95h-447zM225 -199v106h79v-106h-79z" />
    <glyph glyph-name="uniFEA2" unicode="&#x62d;" horiz-adv-x="691" arabic-form="final" 
d="M691 93l17 -10v-73l-17 -10c-58 0 -96 11 -121 33c-20 -22 -50 -33 -90 -33h-244c-95 0 -117 -46 -117 -96c0 -62 31 -122 182 -122h194v-93h-201c-188 0 -259 92 -259 209c0 91 45 195 204 195h241c25 0 37 11 37 32v86c0 94 -82 116 -161 116c-76 0 -138 -17 -185 -36
l-22 80c40 19 108 49 215 49c88 0 235 -24 235 -198v-95c0 -7 0 -13 -1 -19c18 -15 49 -15 93 -15z" />
    <glyph glyph-name="uniFEA4" unicode="&#x62d;" horiz-adv-x="631" arabic-form="medial" 
d="M631 93l17 -10v-73l-17 -10c-54 0 -92 9 -117 29c-14 -19 -36 -29 -67 -29h-447l-17 4v85l17 4h449v99c0 109 -86 135 -169 135c-85 0 -154 -23 -207 -47l-23 79c43 24 120 61 238 61c92 0 243 -25 243 -211v-93c17 -23 50 -23 100 -23z" />
    <glyph glyph-name="uniFEA3" unicode="&#x62d;" horiz-adv-x="598" arabic-form="initial" 
d="M0 0l-17 4v85l17 4h449v99c0 109 -86 135 -169 135c-85 0 -154 -23 -207 -47l-23 79c43 24 120 61 238 61c92 0 243 -25 243 -211v-114c0 -64 -28 -95 -84 -95h-447z" />
    <glyph glyph-name="uniFEA6" unicode="&#x62e;" horiz-adv-x="691" arabic-form="final" 
d="M396 620v-106h-79v106h79zM691 93l17 -10v-73l-17 -10c-58 0 -96 11 -121 33c-20 -22 -50 -33 -90 -33h-244c-95 0 -117 -46 -117 -96c0 -62 31 -122 182 -122h194v-93h-201c-188 0 -259 92 -259 209c0 91 45 195 204 195h241c25 0 37 11 37 32v86c0 94 -82 116 -161 116
c-76 0 -138 -17 -185 -36l-22 80c40 19 108 49 215 49c88 0 235 -24 235 -198v-95c0 -7 0 -13 -1 -19c18 -15 49 -15 93 -15z" />
    <glyph glyph-name="uniFEA8" unicode="&#x62e;" horiz-adv-x="631" arabic-form="medial" 
d="M331 619v-106h-79v106h79zM631 93l17 -10v-73l-17 -10c-54 0 -92 9 -117 29c-14 -19 -36 -29 -67 -29h-447l-17 4v85l17 4h449v99c0 109 -86 135 -169 135c-85 0 -154 -23 -207 -47l-23 79c43 24 120 61 238 61c92 0 243 -25 243 -211v-93c17 -23 50 -23 100 -23z" />
    <glyph glyph-name="uniFEA7" unicode="&#x62e;" horiz-adv-x="598" arabic-form="initial" 
d="M252 513v106h79v-106h-79zM0 0l-17 4v85l17 4h449v99c0 109 -86 135 -169 135c-85 0 -154 -23 -207 -47l-23 79c43 24 120 61 238 61c92 0 243 -25 243 -211v-114c0 -64 -28 -95 -84 -95h-447z" />
    <glyph glyph-name="uniFEAA" unicode="&#x62f;" horiz-adv-x="592" arabic-form="final" 
d="M592 93l17 -10v-73l-17 -10c-62 0 -101 15 -123 42c-19 -28 -53 -42 -104 -42h-325v93h366v86c0 74 -30 126 -301 162l14 89c316 -40 372 -125 370 -243v-34c4 -53 37 -60 103 -60z" />
    <glyph glyph-name="uniFEAC" unicode="&#x630;" horiz-adv-x="592" arabic-form="final" 
d="M287 643v-106h-79v106h79zM592 93l17 -10v-73l-17 -10c-62 0 -101 15 -123 42c-19 -28 -53 -42 -104 -42h-325v93h366v86c0 74 -30 126 -301 162l14 89c316 -40 372 -125 370 -243v-34c4 -53 37 -60 103 -60z" />
    <glyph glyph-name="uniFEAE" unicode="&#x631;" horiz-adv-x="353" arabic-form="final" 
d="M353 93l17 -10v-73l-17 -10c-47 0 -81 8 -104 25v-73c0 -93 -34 -161 -158 -161h-97v93h95c61 0 81 16 81 66v446h79v-229c0 -66 33 -74 104 -74z" />
    <glyph glyph-name="uniFEB0" unicode="&#x632;" horiz-adv-x="353" arabic-form="final" 
d="M249 595v-106h-79v106h79zM353 93l17 -10v-73l-17 -10c-47 0 -81 8 -104 25v-73c0 -93 -34 -161 -158 -161h-97v93h95c61 0 81 16 81 66v446h79v-229c0 -66 33 -74 104 -74z" />
    <glyph glyph-name="uniFEB2" unicode="&#x633;" horiz-adv-x="1288" arabic-form="final" 
d="M1288 93l17 -10v-73l-17 -10c-88 0 -139 22 -163 60c-19 -37 -62 -60 -140 -60c-73 0 -115 20 -135 54c-18 -31 -58 -54 -139 -54h-106c-16 -119 -96 -208 -287 -208c-219 0 -281 131 -281 276c0 76 19 159 36 197h80c-9 -26 -33 -105 -33 -190c0 -105 42 -190 204 -190
c161 0 204 67 204 162v287h80v-241h105c68 0 95 15 95 52v189h79v-211c14 -16 41 -30 99 -30c68 0 95 16 95 59v243h79v-266c19 -20 56 -36 128 -36z" />
    <glyph glyph-name="uniFEB4" unicode="&#x633;" horiz-adv-x="889" arabic-form="medial" 
d="M889 93l17 -10v-73l-17 -10c-86 0 -136 21 -160 59c-19 -36 -62 -59 -139 -59c-74 0 -116 20 -134 54c-20 -30 -63 -54 -152 -54c-81 0 -124 22 -143 54c-17 -31 -56 -54 -132 -54h-29l-17 10v73l17 10h32c62 0 88 15 88 52v189h79v-214c16 -14 47 -27 106 -27
c78 0 108 15 108 52v189h79v-211c14 -16 41 -30 99 -30c68 0 94 16 94 59v243h80v-267c19 -20 55 -35 124 -35z" />
    <glyph glyph-name="uniFEB3" unicode="&#x633;" horiz-adv-x="825" arabic-form="initial" 
d="M685 395h80v-244c-3 -104 -70 -151 -172 -151c-74 0 -118 19 -140 51c-20 -29 -63 -51 -149 -51c-81 0 -124 22 -143 54c-17 -31 -56 -54 -132 -54h-29l-17 10v73l17 10h32c62 0 88 15 88 52v189h79v-214c16 -14 47 -27 106 -27c78 0 108 15 108 52v189h79v-210
c14 -16 42 -31 103 -31c59 0 87 15 90 58v244z" />
    <glyph glyph-name="uniFEB6" unicode="&#x634;" horiz-adv-x="1288" arabic-form="final" 
d="M891 689v-103h-79v103h79zM823 550v-106h-76v106h76zM878 444v106h76v-106h-76zM1288 93l17 -10v-73l-17 -10c-88 0 -139 22 -163 60c-19 -37 -62 -60 -140 -60c-73 0 -115 20 -135 54c-18 -31 -58 -54 -139 -54h-106c-16 -119 -96 -208 -287 -208
c-219 0 -281 131 -281 276c0 76 19 159 36 197h80c-9 -26 -33 -105 -33 -190c0 -105 42 -190 204 -190c161 0 204 67 204 162v287h80v-241h105c68 0 95 15 95 52v189h79v-211c14 -16 41 -30 99 -30c68 0 95 16 95 59v243h79v-266c19 -20 56 -36 128 -36z" />
    <glyph glyph-name="uniFEB8" unicode="&#x634;" horiz-adv-x="889" arabic-form="medial" 
d="M495 690v-103h-79v103h79zM427 551v-106h-76v106h76zM482 445v106h76v-106h-76zM889 93l17 -10v-73l-17 -10c-86 0 -136 21 -160 59c-19 -36 -62 -59 -139 -59c-74 0 -116 20 -134 54c-20 -30 -63 -54 -152 -54c-81 0 -124 22 -143 54c-17 -31 -56 -54 -132 -54h-29
l-17 10v73l17 10h32c62 0 88 15 88 52v189h79v-214c16 -14 47 -27 106 -27c78 0 108 15 108 52v189h79v-211c14 -16 41 -30 99 -30c68 0 94 16 94 59v243h80v-267c19 -20 55 -35 124 -35z" />
    <glyph glyph-name="uniFEB7" unicode="&#x634;" horiz-adv-x="825" arabic-form="initial" 
d="M495 688v-103h-79v103h79zM427 549v-106h-76v106h76zM482 443v106h76v-106h-76zM685 395h80v-244c-3 -104 -70 -151 -172 -151c-74 0 -118 19 -140 51c-20 -29 -63 -51 -149 -51c-81 0 -124 22 -143 54c-17 -31 -56 -54 -132 -54h-29l-17 10v73l17 10h32
c62 0 88 15 88 52v189h79v-214c16 -14 47 -27 106 -27c78 0 108 15 108 52v189h79v-210c14 -16 42 -31 103 -31c59 0 87 15 90 58v244z" />
    <glyph glyph-name="uniFEBA" unicode="&#x635;" horiz-adv-x="1193" arabic-form="final" 
d="M1193 93l17 -10v-73l-17 -10c-71 0 -111 19 -132 55c-40 -38 -101 -55 -182 -55h-274c-16 -119 -96 -208 -287 -208c-219 0 -281 131 -281 276c0 76 19 159 36 197h80c-9 -26 -33 -105 -33 -190c0 -105 42 -190 204 -190c161 0 204 67 204 162v339h80v-71
c117 53 229 105 317 105c111 0 190 -70 190 -211c0 -35 -5 -66 -14 -92c15 -21 45 -24 92 -24zM879 93c105 0 154 22 154 111c0 87 -52 123 -122 123s-171 -42 -303 -99v-135h271z" />
    <glyph glyph-name="uniFEBC" unicode="&#x635;" horiz-adv-x="763" arabic-form="medial" 
d="M763 93l17 -10v-73l-17 -10c-71 0 -111 19 -132 56c-40 -39 -101 -56 -182 -56h-449l-17 12v69l17 12h102v291h79v-67c116 52 227 103 314 103c110 0 189 -70 189 -211c0 -35 -5 -65 -14 -91c16 -21 46 -25 93 -25zM449 93c104 0 154 22 154 111c0 87 -52 123 -122 123
c-69 0 -169 -42 -300 -98v-136h268z" />
    <glyph glyph-name="uniFEBB" unicode="&#x635;" horiz-adv-x="744" arabic-form="initial" 
d="M495 420c110 0 189 -70 189 -211c0 -150 -84 -209 -235 -209h-449l-17 12v69l17 12h102v291h79v-67c116 52 227 103 314 103zM449 93c104 0 154 22 154 111c0 87 -52 123 -122 123c-69 0 -169 -42 -300 -98v-136h268z" />
    <glyph glyph-name="uniFEBE" unicode="&#x636;" horiz-adv-x="1193" arabic-form="final" 
d="M711 595v-106h-79v106h79zM1193 93l17 -10v-73l-17 -10c-71 0 -111 19 -132 55c-40 -38 -101 -55 -182 -55h-274c-16 -119 -96 -208 -287 -208c-219 0 -281 131 -281 276c0 76 19 159 36 197h80c-9 -26 -33 -105 -33 -190c0 -105 42 -190 204 -190c161 0 204 67 204 162
v339h80v-71c117 53 229 105 317 105c111 0 190 -70 190 -211c0 -35 -5 -66 -14 -92c15 -21 45 -24 92 -24zM879 93c105 0 154 22 154 111c0 87 -52 123 -122 123s-171 -42 -303 -99v-135h271z" />
    <glyph glyph-name="uniFEC0" unicode="&#x636;" horiz-adv-x="763" arabic-form="medial" 
d="M281 595v-106h-79v106h79zM763 93l17 -10v-73l-17 -10c-71 0 -111 19 -132 56c-40 -39 -101 -56 -182 -56h-449l-17 12v69l17 12h102v291h79v-67c116 52 227 103 314 103c110 0 189 -70 189 -211c0 -35 -5 -65 -14 -91c16 -21 46 -25 93 -25zM449 93
c104 0 154 22 154 111c0 87 -52 123 -122 123c-69 0 -169 -42 -300 -98v-136h268z" />
    <glyph glyph-name="uniFEBF" unicode="&#x636;" horiz-adv-x="744" arabic-form="initial" 
d="M280 595v-106h-79v106h79zM495 420c110 0 189 -70 189 -211c0 -150 -84 -209 -235 -209h-449l-17 12v69l17 12h102v291h79v-67c116 52 227 103 314 103zM449 93c104 0 154 22 154 111c0 87 -52 123 -122 123c-69 0 -169 -42 -300 -98v-136h268z" />
    <glyph glyph-name="uniFEC2" unicode="&#x637;" horiz-adv-x="778" arabic-form="final" 
d="M778 93l17 -10v-73l-17 -10c-73 0 -113 20 -133 58c-40 -40 -103 -58 -186 -58h-429v93h96v612h79v-384c110 50 211 99 296 99c113 0 193 -71 193 -214c0 -32 -4 -59 -12 -83c14 -26 46 -30 96 -30zM459 93c104 0 153 21 153 108c0 89 -51 126 -121 126
c-69 0 -160 -40 -286 -94v-140h254z" />
    <glyph glyph-name="uniFEC4" unicode="&#x637;" horiz-adv-x="734" arabic-form="medial" 
d="M734 93l17 -10v-73l-17 -10c-72 0 -112 20 -133 57c-40 -40 -102 -57 -185 -57h-416l-17 10v73l17 10h84v612h79v-384c109 50 210 99 296 99c113 0 193 -71 193 -214c0 -33 -4 -61 -12 -85c14 -24 45 -28 94 -28zM416 93c105 0 154 21 154 108c0 89 -51 126 -121 126
c-69 0 -160 -40 -286 -94v-140h253z" />
    <glyph glyph-name="uniFEC3" unicode="&#x637;" horiz-adv-x="712" arabic-form="initial" 
d="M459 420c113 0 193 -71 193 -214c0 -148 -85 -206 -236 -206h-416l-17 10v73l17 10h84v612h79v-384c109 50 210 99 296 99zM416 93c105 0 154 21 154 108c0 89 -51 126 -121 126c-69 0 -160 -40 -286 -94v-140h253z" />
    <glyph glyph-name="uniFEC6" unicode="&#x638;" horiz-adv-x="778" arabic-form="final" 
d="M778 93l17 -10v-73l-17 -10c-73 0 -113 20 -133 58c-40 -40 -103 -58 -186 -58h-429v93h96v612h79v-384c110 50 211 99 296 99c113 0 193 -71 193 -214c0 -32 -4 -59 -12 -83c14 -26 46 -30 96 -30zM517 625v-106h-79v106h79zM459 93c104 0 153 21 153 108
c0 89 -51 126 -121 126c-69 0 -160 -40 -286 -94v-140h254z" />
    <glyph glyph-name="uniFEC8" unicode="&#x638;" horiz-adv-x="734" arabic-form="medial" 
d="M734 93l17 -10v-73l-17 -10c-72 0 -112 20 -133 57c-40 -40 -102 -57 -185 -57h-416l-17 10v73l17 10h84v612h79v-384c109 50 210 99 296 99c113 0 193 -71 193 -214c0 -33 -4 -61 -12 -85c14 -24 45 -28 94 -28zM480 619v-106h-79v106h79zM416 93c105 0 154 21 154 108
c0 89 -51 126 -121 126c-69 0 -160 -40 -286 -94v-140h253z" />
    <glyph glyph-name="uniFEC7" unicode="&#x638;" horiz-adv-x="712" arabic-form="initial" 
d="M459 420c113 0 193 -71 193 -214c0 -148 -85 -206 -236 -206h-416l-17 10v73l17 10h84v612h79v-384c109 50 210 99 296 99zM480 619v-106h-79v106h79zM416 93c105 0 154 21 154 108c0 89 -51 126 -121 126c-69 0 -160 -40 -286 -94v-140h253z" />
    <glyph glyph-name="uniFECA" unicode="&#x639;" horiz-adv-x="583" arabic-form="final" 
d="M583 93l17 -4v-85l-17 -4c-177 0 -243 6 -288 40c-117 -29 -187 -53 -187 -145c0 -59 28 -117 170 -117h245v-93h-253c-190 0 -245 92 -245 208c0 115 71 186 190 211l-140 187v93c43 17 120 35 224 35c114 0 181 -19 224 -35v-93l-146 -194c38 -4 92 -4 206 -4zM299 329
c-61 0 -107 -6 -142 -14l142 -194l141 193c-36 8 -83 15 -141 15z" />
    <glyph glyph-name="uniFECC" unicode="&#x639;" horiz-adv-x="563" arabic-form="medial" 
d="M563 93l17 -4v-85l-17 -4c-180 0 -240 7 -284 49c-45 -42 -105 -49 -279 -49l-17 4v85l17 4c109 0 162 0 200 4l-146 195v93c44 17 121 35 225 35c113 0 182 -19 224 -35v-93l-147 -195c38 -4 93 -4 207 -4zM279 330c-61 0 -107 -6 -142 -14l142 -194l141 194
c-36 8 -82 14 -141 14z" />
    <glyph glyph-name="uniFECB" unicode="&#x639;" horiz-adv-x="534" arabic-form="initial" 
d="M304 93h175v-93h-479l-17 3v86l17 4h102c-31 33 -38 76 -38 128c0 140 98 202 217 202c68 0 131 -17 157 -29l-22 -87c-20 6 -69 22 -135 22c-93 0 -134 -44 -134 -108c0 -84 36 -128 157 -128z" />
    <glyph glyph-name="uniFECE" unicode="&#x63a;" horiz-adv-x="583" arabic-form="final" 
d="M339 623v-106h-79v106h79zM583 93l17 -4v-85l-17 -4c-177 0 -243 6 -288 40c-117 -29 -187 -53 -187 -145c0 -59 28 -117 170 -117h245v-93h-253c-190 0 -245 92 -245 208c0 115 71 186 190 211l-140 187v93c43 17 120 35 224 35c114 0 181 -19 224 -35v-93l-146 -194
c38 -4 92 -4 206 -4zM299 329c-61 0 -107 -6 -142 -14l142 -194l141 193c-36 8 -83 15 -141 15z" />
    <glyph glyph-name="uniFED0" unicode="&#x63a;" horiz-adv-x="563" arabic-form="medial" 
d="M319 623v-106h-79v106h79zM563 93l17 -4v-85l-17 -4c-180 0 -240 7 -284 49c-45 -42 -105 -49 -279 -49l-17 4v85l17 4c109 0 162 0 200 4l-146 195v93c44 17 121 35 225 35c113 0 182 -19 224 -35v-93l-147 -195c38 -4 93 -4 207 -4zM279 330c-61 0 -107 -6 -142 -14
l142 -194l141 194c-36 8 -82 14 -141 14z" />
    <glyph glyph-name="uniFECF" unicode="&#x63a;" horiz-adv-x="534" arabic-form="initial" 
d="M319 625v-106h-79v106h79zM304 93h175v-93h-479l-17 3v86l17 4h102c-31 33 -38 76 -38 128c0 140 98 202 217 202c68 0 131 -17 157 -29l-22 -87c-20 6 -69 22 -135 22c-93 0 -134 -44 -134 -108c0 -84 36 -128 157 -128z" />
    <glyph glyph-name="uniFED2" unicode="&#x641;" horiz-adv-x="979" arabic-form="final" 
d="M746 657v-106h-79v106h79zM979 93l17 -5v-83l-17 -5h-689c-205 0 -253 95 -253 239c0 55 15 118 29 157l79 1c-13 -37 -26 -106 -26 -148c0 -119 49 -156 171 -156h281c-44 39 -66 84 -66 141c0 137 83 211 201 211c119 0 192 -74 192 -202c0 -59 -23 -108 -70 -150h151z
M701 352c-67 0 -113 -40 -113 -114c0 -44 24 -85 116 -145c93 60 111 101 111 145c0 74 -47 114 -114 114z" />
    <glyph glyph-name="uniFED4" unicode="&#x641;" horiz-adv-x="531" arabic-form="medial" 
d="M308 657v-106h-79v106h79zM531 93l17 -5v-83l-17 -5h-531l-17 5v83l17 5h134c-44 39 -66 84 -66 141c0 137 82 211 201 211s192 -74 192 -202c0 -59 -23 -108 -70 -150h140zM264 352c-67 0 -113 -40 -113 -114c0 -44 23 -85 116 -145c92 60 111 101 111 145
c0 74 -47 114 -114 114z" />
    <glyph glyph-name="uniFED3" unicode="&#x641;" horiz-adv-x="487" arabic-form="initial" 
d="M296 766v-106h-79v106h79zM426 520l1 -349c0 -113 -47 -171 -178 -171h-249l-17 10v73l17 10h250c70 0 97 16 97 73v64c-22 -31 -60 -56 -136 -56c-127 0 -180 86 -180 179c0 126 89 214 225 214c98 0 170 -47 170 -47zM229 267c59 0 98 16 118 40v142s-39 24 -99 24
c-92 0 -134 -46 -134 -109c0 -53 35 -97 115 -97z" />
    <glyph glyph-name="uniFB6B" unicode="&#x6a4;" horiz-adv-x="979" arabic-form="final" 
d="M749 794v-103h-79v103h79zM681 655v-106h-76v106h76zM736 549v106h76v-106h-76zM979 93l17 -5v-83l-17 -5h-689c-205 0 -253 95 -253 239c0 55 15 118 29 157l79 1c-13 -37 -26 -106 -26 -148c0 -119 49 -156 171 -156h281c-44 39 -66 84 -66 141c0 137 83 211 201 211
c119 0 192 -74 192 -202c0 -59 -23 -108 -70 -150h151zM701 352c-67 0 -113 -40 -113 -114c0 -44 24 -85 116 -145c93 60 111 101 111 145c0 74 -47 114 -114 114z" />
    <glyph glyph-name="uniFB6D" unicode="&#x6a4;" horiz-adv-x="531" arabic-form="medial" 
d="M312 794v-103h-79v103h79zM244 655v-106h-76v106h76zM299 549v106h76v-106h-76zM531 93l17 -5v-83l-17 -5h-531l-17 5v83l17 5h134c-44 39 -66 84 -66 141c0 137 82 211 201 211s192 -74 192 -202c0 -59 -23 -108 -70 -150h140zM264 352c-67 0 -113 -40 -113 -114
c0 -44 23 -85 116 -145c92 60 111 101 111 145c0 74 -47 114 -114 114z" />
    <glyph glyph-name="uniFB6C" unicode="&#x6a4;" horiz-adv-x="487" arabic-form="initial" 
d="M299 903v-103h-79v103h79zM231 764v-106h-76v106h76zM286 658v106h76v-106h-76zM426 520l1 -349c0 -113 -47 -171 -178 -171h-249l-17 10v73l17 10h250c70 0 97 16 97 73v64c-22 -31 -60 -56 -136 -56c-127 0 -180 86 -180 179c0 126 89 214 225 214
c98 0 170 -47 170 -47zM229 267c59 0 98 16 118 40v142s-39 24 -99 24c-92 0 -134 -46 -134 -109c0 -53 35 -97 115 -97z" />
    <glyph glyph-name="uni06A1.init" unicode="&#x6a1;" horiz-adv-x="487" 
d="M426 520l1 -349c0 -113 -47 -171 -178 -171h-249l-17 10v73l17 10h250c70 0 97 16 97 73v64c-22 -31 -60 -56 -136 -56c-127 0 -180 86 -180 179c0 126 89 214 225 214c98 0 170 -47 170 -47zM229 267c59 0 98 16 118 40v142s-39 24 -99 24c-92 0 -134 -46 -134 -109
c0 -53 35 -97 115 -97z" />
    <glyph glyph-name="uni06A1.medi" unicode="&#x6a1;" horiz-adv-x="531" 
d="M531 93l17 -5v-83l-17 -5h-531l-17 5v83l17 5h134c-44 39 -66 84 -66 141c0 137 82 211 201 211s192 -74 192 -202c0 -59 -23 -108 -70 -150h140zM264 352c-67 0 -113 -40 -113 -114c0 -44 23 -85 116 -145c92 60 111 101 111 145c0 74 -47 114 -114 114z" />
    <glyph glyph-name="uni06A1.fina" unicode="&#x6a1;" horiz-adv-x="979" 
d="M979 93l17 -5v-83l-17 -5h-689c-205 0 -253 95 -253 239c0 55 15 118 29 157l79 1c-13 -37 -26 -106 -26 -148c0 -119 49 -156 171 -156h281c-44 39 -66 84 -66 141c0 137 83 211 201 211c119 0 192 -74 192 -202c0 -59 -23 -108 -70 -150h151zM701 352
c-67 0 -113 -40 -113 -114c0 -44 24 -85 116 -145c93 60 111 101 111 145c0 74 -47 114 -114 114z" />
    <glyph glyph-name="uni066F.fina" unicode="&#x66f;" horiz-adv-x="826" 
d="M826 93l17 -10v-73l-17 -10h-103v-16c0 -138 -66 -207 -248 -207h-145c-240 0 -293 93 -293 271c0 77 20 151 33 184h79c-14 -41 -29 -111 -29 -177c0 -119 34 -185 210 -185h148c119 0 166 24 166 116v14h-122c-161 0 -206 94 -206 194c0 132 91 222 233 222
c101 0 174 -43 174 -43v-280h103zM527 93h117v208s-40 21 -103 21c-96 0 -142 -49 -142 -119c0 -61 36 -110 128 -110z" />
    <glyph glyph-name="uniFED6" unicode="&#x642;" horiz-adv-x="826" arabic-form="final" 
d="M523 620v-106h-77v106h77zM651 620v-106h-76v106h76zM826 93l17 -10v-73l-17 -10h-103v-16c0 -138 -66 -207 -248 -207h-145c-240 0 -293 93 -293 271c0 77 20 151 33 184h79c-14 -41 -29 -111 -29 -177c0 -119 34 -185 210 -185h148c119 0 166 24 166 116v14h-122
c-161 0 -206 94 -206 194c0 132 91 222 233 222c101 0 174 -43 174 -43v-280h103zM527 93h117v208s-40 21 -103 21c-96 0 -142 -49 -142 -119c0 -61 36 -110 128 -110z" />
    <glyph glyph-name="uniFED8" unicode="&#x642;" horiz-adv-x="531" arabic-form="medial" 
d="M243 651v-106h-77v106h77zM371 651v-106h-76v106h76zM531 93l17 -5v-83l-17 -5h-531l-17 5v83l17 5h134c-44 39 -66 84 -66 141c0 137 82 211 201 211s192 -74 192 -202c0 -59 -23 -108 -70 -150h140zM264 352c-67 0 -113 -40 -113 -114c0 -44 23 -85 116 -145
c92 60 111 101 111 145c0 74 -47 114 -114 114z" />
    <glyph glyph-name="uniFED7" unicode="&#x642;" horiz-adv-x="487" arabic-form="initial" 
d="M230 760v-106h-77v106h77zM358 760v-106h-76v106h76zM426 520l1 -349c0 -113 -47 -171 -178 -171h-249l-17 10v73l17 10h250c70 0 97 16 97 73v64c-22 -31 -60 -56 -136 -56c-127 0 -180 86 -180 179c0 126 89 214 225 214c98 0 170 -47 170 -47zM229 267
c59 0 98 16 118 40v142s-39 24 -99 24c-92 0 -134 -46 -134 -109c0 -53 35 -97 115 -97z" />
    <glyph glyph-name="uniFEDA" unicode="&#x643;" horiz-adv-x="884" arabic-form="final" 
d="M884 93l17 -10v-73l-17 -10c-78 0 -119 23 -137 66c-35 -45 -96 -66 -182 -66h-274c-211 0 -254 86 -254 221c0 53 15 113 30 150h76c-13 -35 -27 -101 -27 -140c0 -104 50 -138 177 -138h281c69 0 127 10 127 85v527h79v-538c0 -66 33 -74 104 -74zM526 373
c0 -56 -34 -90 -105 -90h-111v63h111c27 0 50 7 50 25c0 17 -16 49 -142 49l-5 80l181 90l12 -57l-126 -61c75 -5 135 -31 135 -99z" />
    <glyph glyph-name="uniFEDC" unicode="&#x643;" horiz-adv-x="647" arabic-form="medial" 
d="M647 93l17 -10v-73l-17 -10c-54 0 -90 11 -114 33c-13 -23 -36 -33 -70 -33h-463l-17 4v85l17 4h464v90c0 78 -32 133 -175 133h-226l-24 92l384 310l47 -71l-317 -247h140c208 0 253 -95 253 -217v-45c10 -40 42 -45 101 -45z" />
    <glyph glyph-name="uniFEDB" unicode="&#x643;" horiz-adv-x="600" arabic-form="initial" 
d="M293 400c208 0 253 -95 253 -217v-90c0 -67 -28 -93 -83 -93h-463l-17 4v85l17 4h464v90c0 78 -32 133 -175 133h-226l-24 92l384 310l47 -71l-317 -247h140z" />
    <glyph glyph-name="uniFB8F" unicode="&#x6a9;" horiz-adv-x="884" arabic-form="final" 
d="M884 93l17 -10v-73l-17 -10c-78 0 -119 23 -137 66c-35 -45 -96 -66 -182 -66h-274c-211 0 -254 86 -254 221c0 53 15 113 30 150h76c-13 -35 -27 -101 -27 -140c0 -104 50 -138 177 -138h281c69 0 127 10 127 85v527h79v-538c0 -66 33 -74 104 -74zM526 373
c0 -56 -34 -90 -105 -90h-111v63h111c27 0 50 7 50 25c0 17 -16 49 -142 49l-5 80l181 90l12 -57l-126 -61c75 -5 135 -31 135 -99z" />
    <glyph glyph-name="uniFB91" unicode="&#x6a9;" horiz-adv-x="647" arabic-form="medial" 
d="M647 93l17 -10v-73l-17 -10c-54 0 -90 11 -114 33c-13 -23 -36 -33 -70 -33h-463l-17 4v85l17 4h464v90c0 78 -32 133 -175 133h-226l-24 92l384 310l47 -71l-317 -247h140c208 0 253 -95 253 -217v-45c10 -40 42 -45 101 -45z" />
    <glyph glyph-name="uniFB90" unicode="&#x6a9;" horiz-adv-x="600" arabic-form="initial" 
d="M293 400c208 0 253 -95 253 -217v-90c0 -67 -28 -93 -83 -93h-463l-17 4v85l17 4h464v90c0 78 -32 133 -175 133h-226l-24 92l384 310l47 -71l-317 -247h140z" />
    <glyph glyph-name="uniFEDE" unicode="&#x644;" horiz-adv-x="678" arabic-form="final" 
d="M678 93l17 -10v-73l-17 -10c-54 0 -90 11 -113 32c-25 -104 -100 -180 -262 -180c-208 0 -266 131 -266 281c0 73 19 155 36 192h79c-8 -25 -32 -103 -32 -185c0 -108 37 -195 189 -195c148 0 186 72 186 174v586h79v-538c0 -66 33 -74 104 -74z" />
    <glyph glyph-name="uniFEE0" unicode="&#x644;" horiz-adv-x="294" arabic-form="medial" 
d="M294 93l17 -10v-73l-17 -10c-74 0 -114 21 -134 59c-28 -41 -79 -59 -160 -59l-17 10v73l17 10c78 0 110 9 110 95v517h80v-538c0 -66 33 -74 104 -74z" />
    <glyph glyph-name="uniFEDF" unicode="&#x644;" horiz-adv-x="267" arabic-form="initial" 
d="M0 0l-17 10v73l17 10c78 0 110 9 110 95v517h80v-514c0 -137 -50 -191 -190 -191z" />
    <glyph glyph-name="uniFEE2" unicode="&#x645;" horiz-adv-x="744" arabic-form="final" 
d="M744 93l17 -10v-73l-17 -10c-70 0 -110 19 -131 54c-29 -42 -83 -73 -176 -73c-96 0 -154 41 -183 99h-23c-93 -2 -118 -12 -118 -83v-296h-79v299c0 115 52 166 198 172v13c0 140 92 235 234 235c101 0 174 -47 174 -47v-206c0 -66 33 -74 104 -74zM560 148l1 155
s-41 24 -103 24c-97 0 -143 -55 -143 -131c0 -68 40 -121 127 -121c71 0 108 24 118 73z" />
    <glyph glyph-name="uniFEE4" unicode="&#x645;" horiz-adv-x="592" arabic-form="medial" 
d="M592 93l17 -10v-73l-17 -10c-73 0 -113 20 -133 58c-29 -39 -83 -67 -174 -67c-73 0 -123 23 -156 58c-23 -33 -63 -49 -129 -49l-17 10v73l17 10c46 0 75 4 90 26c-7 23 -10 47 -10 72c0 136 92 229 234 229c101 0 174 -47 174 -47v-206c0 -66 33 -74 104 -74zM408 148
l1 155s-41 24 -103 24c-97 0 -143 -53 -143 -126c0 -65 40 -116 127 -116c71 0 108 21 118 63z" />
    <glyph glyph-name="uniFEE3" unicode="&#x645;" horiz-adv-x="548" arabic-form="initial" 
d="M314 420c101 0 174 -47 174 -47v-220c0 -80 -46 -162 -203 -162c-73 0 -123 23 -156 58c-23 -33 -63 -49 -129 -49l-17 10v73l17 10c46 0 75 4 90 26c-7 23 -10 47 -10 72c0 136 92 229 234 229zM408 148l1 155s-41 24 -103 24c-97 0 -143 -53 -143 -126
c0 -65 40 -116 127 -116c71 0 108 21 118 63z" />
    <glyph glyph-name="uniFEE6" unicode="&#x646;" horiz-adv-x="712" arabic-form="final" 
d="M365 517v-106h-79v106h79zM712 93l17 -10v-73l-17 -10c-47 0 -81 9 -105 25c-6 -133 -83 -236 -289 -236c-219 0 -281 131 -281 276c0 76 19 159 36 197h80c-9 -26 -33 -105 -33 -190c0 -105 42 -190 204 -190c161 0 204 67 204 162v350h80v-227c0 -66 33 -74 104 -74z
    <glyph glyph-name="uniFEE8" unicode="&#x646;" horiz-adv-x="330" arabic-form="medial" 
d="M206 595v-106h-79v106h79zM330 93l17 -10v-73l-17 -10c-87 0 -133 20 -154 65c-29 -45 -85 -65 -176 -65l-17 10v73l17 10c84 0 126 9 126 84v219h79v-217c0 -81 43 -86 125 -86z" />
    <glyph glyph-name="uniFEE7" unicode="&#x646;" horiz-adv-x="265" arabic-form="initial" 
d="M127 489v106h79v-106h-79zM0 0l-17 10v73l17 10c83 0 126 10 126 86v217h79v-217c0 -128 -59 -179 -205 -179z" />
    <glyph glyph-name="uniFB9F" unicode="&#x6ba;" horiz-adv-x="712" arabic-form="final" 
d="M712 93l17 -10v-73l-17 -10c-48 0 -81 9 -104 25c-7 -133 -84 -236 -290 -236c-219 0 -281 131 -281 276c0 76 19 159 36 197h80c-9 -26 -33 -105 -33 -190c0 -105 42 -190 204 -190c161 0 204 67 204 162v350h80v-227c0 -66 33 -74 104 -74z" />
    <glyph glyph-name="uniFEEA" unicode="&#x647;" horiz-adv-x="560" arabic-form="final" 
d="M560 93l17 -4v-85l-17 -4c-97 0 -164 25 -187 112c-20 -39 -58 -72 -145 -72c-137 0 -191 94 -191 197c0 135 93 228 242 228c34 0 64 -7 86 -15v46h79c0 -141 -1 -266 -1 -304c0 -79 28 -99 117 -99zM246 133c61 0 99 17 119 45v8v175c-6 2 -39 11 -88 11
c-109 0 -157 -52 -157 -124c0 -64 39 -115 126 -115z" />
    <glyph glyph-name="uniFEEC" unicode="&#x647;" horiz-adv-x="579" arabic-form="medial" 
d="M579 93l17 -4v-85l-17 -4h-82c12 -15 20 -34 20 -59c0 -93 -58 -172 -211 -172c-151 0 -224 72 -228 231h-78l-17 4v85l17 4h78v285c45 20 112 42 200 42c129 0 199 -83 199 -195c0 -51 -11 -99 -50 -132h152zM271 327c-47 0 -86 -7 -113 -19v-215h79
c123 0 157 42 157 116c0 64 -37 118 -123 118zM311 -138c93 0 123 39 123 75c0 33 -18 76 -118 76l-160 -1c2 -113 42 -150 155 -150z" />
    <glyph glyph-name="uniFEEB" unicode="&#x647;" horiz-adv-x="721" arabic-form="initial" 
d="M166 546c328 -90 495 -161 495 -337c0 -122 -52 -209 -265 -209c-56 0 -113 7 -164 24c-57 -22 -154 -24 -232 -24l-17 5v83l17 5h104c-34 31 -51 73 -51 126c0 117 87 197 209 197c19 0 36 -2 53 -4c-49 16 -106 33 -173 51zM411 93c105 2 167 23 167 110
c0 73 -41 122 -167 174v-284zM263 342c-77 0 -130 -43 -130 -117c0 -93 64 -124 198 -130v233c-6 4 -32 14 -68 14z" />
    <glyph glyph-name="uniFE94" unicode="&#x629;" horiz-adv-x="560" arabic-form="final" 
d="M231 671v-106h-77v106h77zM359 671v-106h-76v106h76zM560 93l17 -4v-85l-17 -4c-97 0 -164 25 -187 112c-20 -39 -58 -72 -145 -72c-137 0 -191 94 -191 197c0 135 93 228 242 228c34 0 64 -7 86 -15v46h79c0 -141 -1 -266 -1 -304c0 -79 28 -99 117 -99zM246 133
c61 0 99 17 119 45v8v175c-6 2 -39 11 -88 11c-109 0 -157 -52 -157 -124c0 -64 39 -115 126 -115z" />
    <glyph glyph-name="uniFEEE" unicode="&#x648;" horiz-adv-x="549" arabic-form="final" 
d="M549 93l17 -10v-73l-17 -10h-104v-32c0 -116 -49 -177 -183 -177h-190v93h192c74 0 102 19 102 89v27h-122c-166 0 -206 92 -206 191c0 134 91 225 233 225c101 0 174 -43 174 -43v-280h104zM249 93h117v208s-40 21 -103 21c-97 0 -142 -51 -142 -122
c0 -59 34 -107 128 -107z" />
    <glyph glyph-name="uniFE86" unicode="&#x624;" horiz-adv-x="549" arabic-form="final" 
d="M342 550v-51h-177v48h31c-8 9 -16 23 -16 49c0 54 43 82 91 82c35 0 61 -13 61 -13l-11 -43s-24 6 -50 6c-27 0 -48 -12 -48 -38s9 -40 42 -40h77zM549 93l17 -10v-73l-17 -10h-104v-32c0 -116 -49 -177 -183 -177h-190v93h192c74 0 102 19 102 89v27h-122
c-166 0 -206 92 -206 191c0 134 91 225 233 225c101 0 174 -43 174 -43v-280h104zM249 93h117v208s-40 21 -103 21c-97 0 -142 -51 -142 -122c0 -59 34 -107 128 -107z" />
    <glyph glyph-name="uniFEF0" unicode="&#x649;" horiz-adv-x="742" arabic-form="final" 
d="M742 93l17 -10v-73l-17 -10h-47v-19c0 -133 -88 -219 -318 -219c-269 0 -340 110 -340 292c0 76 15 161 31 199h79c-8 -26 -27 -104 -27 -189c0 -162 69 -209 262 -209c195 0 231 53 231 118v27h-175v93h304z" />
    <glyph glyph-name="uniFEF2" unicode="&#x64a;" horiz-adv-x="742" arabic-form="final" 
d="M742 93l17 -10v-73l-17 -10h-47v-19c0 -133 -88 -219 -318 -219c-269 0 -340 110 -340 292c0 76 15 161 31 199h79c-8 -26 -27 -104 -27 -189c0 -162 69 -209 262 -209c195 0 231 53 231 118v27h-175v93h304zM279 -423v106h76v-106h-76zM408 -423v106h76v-106h-76z" />
    <glyph glyph-name="uniFEF4" unicode="&#x64a;" horiz-adv-x="330" arabic-form="medial" 
d="M330 93l17 -10v-73l-17 -10c-87 0 -133 20 -154 65c-29 -45 -85 -65 -176 -65l-17 10v73l17 10c84 0 126 9 126 84v219h79v-217c0 -81 43 -86 125 -86zM68 -198v107h76v-107h-76zM196 -198v107h77v-107h-77z" />
    <glyph glyph-name="uniFEF3" unicode="&#x64a;" horiz-adv-x="265" arabic-form="initial" 
d="M0 0l-17 10v73l17 10c83 0 126 10 126 86v217h79v-217c0 -128 -59 -179 -205 -179zM39 -198v107h76v-107h-76zM168 -198v107h76v-107h-76z" />
    <glyph glyph-name="uniFE8A" unicode="&#x626;" horiz-adv-x="742" arabic-form="final" 
d="M197 390v-51h-177v48h31c-8 9 -16 23 -16 49c0 54 43 82 91 82c35 0 61 -13 61 -13l-11 -43s-24 6 -50 6c-27 0 -48 -12 -48 -38s9 -40 42 -40h77zM742 93l17 -10v-73l-17 -10h-47v-19c0 -133 -88 -219 -318 -219c-269 0 -340 110 -340 292c0 76 15 161 31 199h79
c-8 -26 -27 -104 -27 -189c0 -162 69 -209 262 -209c195 0 231 53 231 118v27h-175v93h304z" />
    <glyph glyph-name="uniFE8C" unicode="&#x626;" horiz-adv-x="330" arabic-form="medial" 
d="M250 530v-51h-177v48h31c-8 9 -16 23 -16 49c0 54 43 82 91 82c35 0 61 -13 61 -13l-11 -43s-24 6 -50 6c-27 0 -48 -12 -48 -38s9 -40 42 -40h77zM330 93l17 -10v-73l-17 -10c-87 0 -133 20 -154 65c-29 -45 -85 -65 -176 -65l-17 10v73l17 10c84 0 126 9 126 84v219h79
v-217c0 -81 43 -86 125 -86z" />
    <glyph glyph-name="uniFE8B" unicode="&#x626;" horiz-adv-x="265" arabic-form="initial" 
d="M173 530h77v-51h-177v48h31c-8 9 -16 23 -16 49c0 54 43 82 91 82c35 0 61 -13 61 -13l-11 -43s-24 6 -50 6c-27 0 -48 -12 -48 -38s9 -40 42 -40zM126 179v217h79v-217c0 -128 -59 -179 -205 -179l-17 10v73l17 10c83 0 126 10 126 86z" />
    <glyph glyph-name="uniFBFD" unicode="&#x6cc;" horiz-adv-x="742" arabic-form="final" 
d="M742 93l17 -10v-73l-17 -10h-47v-19c0 -133 -88 -219 -318 -219c-269 0 -340 110 -340 292c0 76 15 161 31 199h79c-8 -26 -27 -104 -27 -189c0 -162 69 -209 262 -209c195 0 231 53 231 118v27h-175v93h304zM279 -423v106h76v-106h-76zM408 -423v106h76v-106h-76z" />
    <glyph glyph-name="uniFBFF" unicode="&#x6cc;" horiz-adv-x="330" arabic-form="medial" 
d="M330 93l17 -10v-73l-17 -10c-87 0 -133 20 -154 65c-29 -45 -85 -65 -176 -65l-17 10v73l17 10c84 0 126 9 126 84v219h79v-217c0 -81 43 -86 125 -86zM68 -198v107h76v-107h-76zM196 -198v107h77v-107h-77z" />
    <glyph glyph-name="uniFBFE" unicode="&#x6cc;" horiz-adv-x="265" arabic-form="initial" 
d="M0 0l-17 10v73l17 10c83 0 126 10 126 86v217h79v-217c0 -128 -59 -179 -205 -179zM39 -198v107h76v-107h-76zM168 -198v107h76v-107h-76z" />
    <glyph glyph-name="uniFC31" unicode="&#xfc31;" horiz-adv-x="902" arabic-form="isolated" 
d="M711 766v-106h-79v106h79zM842 171c0 -104 -39 -161 -147 -170v-20c0 -133 -88 -219 -318 -219c-269 0 -340 110 -340 292c0 76 15 161 31 199h79c-8 -26 -27 -104 -27 -189c0 -162 69 -209 262 -209c195 0 231 53 231 118v27h-172v93h224c69 0 97 16 97 73v65
c-22 -32 -60 -57 -137 -57c-126 0 -179 86 -179 179c0 126 88 214 225 214c98 0 170 -47 170 -47zM643 267c60 0 98 16 119 40v142s-40 24 -100 24c-92 0 -133 -46 -133 -109c0 -53 34 -97 114 -97z" />
    <glyph glyph-name="uniFC32" unicode="&#xfc32;" horiz-adv-x="902" arabic-form="isolated" 
d="M711 766v-106h-79v106h79zM842 171c0 -104 -39 -161 -147 -170v-20c0 -133 -88 -219 -318 -219c-269 0 -340 110 -340 292c0 76 15 161 31 199h79c-8 -26 -27 -104 -27 -189c0 -162 69 -209 262 -209c195 0 231 53 231 118v27h-172v93h224c69 0 97 16 97 73v65
c-22 -32 -60 -57 -137 -57c-126 0 -179 86 -179 179c0 126 88 214 225 214c98 0 170 -47 170 -47zM643 267c60 0 98 16 119 40v142s-40 24 -100 24c-92 0 -133 -46 -133 -109c0 -53 34 -97 114 -97zM280 -425v106h76v-106h-76zM409 -425v106h76v-106h-76z" />
    <glyph glyph-name="uniFC35" unicode="&#xfc35;" horiz-adv-x="902" arabic-form="isolated" 
d="M645 760v-106h-77v106h77zM773 760v-106h-76v106h76zM842 171c0 -104 -39 -161 -147 -170v-20c0 -133 -88 -219 -318 -219c-269 0 -340 110 -340 292c0 76 15 161 31 199h79c-8 -26 -27 -104 -27 -189c0 -162 69 -209 262 -209c195 0 231 53 231 118v27h-172v93h224
c69 0 97 16 97 73v65c-22 -32 -60 -57 -137 -57c-126 0 -179 86 -179 179c0 126 88 214 225 214c98 0 170 -47 170 -47zM643 267c60 0 98 16 119 40v142s-40 24 -100 24c-92 0 -133 -46 -133 -109c0 -53 34 -97 114 -97z" />
    <glyph glyph-name="uniFC36" unicode="&#xfc36;" horiz-adv-x="902" arabic-form="isolated" 
d="M645 760v-106h-77v106h77zM773 760v-106h-76v106h76zM842 171c0 -104 -39 -161 -147 -170v-20c0 -133 -88 -219 -318 -219c-269 0 -340 110 -340 292c0 76 15 161 31 199h79c-8 -26 -27 -104 -27 -189c0 -162 69 -209 262 -209c195 0 231 53 231 118v27h-172v93h224
c69 0 97 16 97 73v65c-22 -32 -60 -57 -137 -57c-126 0 -179 86 -179 179c0 126 88 214 225 214c98 0 170 -47 170 -47zM643 267c60 0 98 16 119 40v142s-40 24 -100 24c-92 0 -133 -46 -133 -109c0 -53 34 -97 114 -97zM280 -425v106h76v-106h-76zM409 -425v106h76v-106
h-76z" />
    <glyph glyph-name=".notdef" horiz-adv-x="863" 
d="M60 0v750h743v-750h-743zM133 69h598v612h-598v-612zM537 217l-109 109l-110 -110l-42 44l109 109l-109 109l42 43l110 -109l109 108l43 -42l-109 -109l109 -109z" />
    <glyph glyph-name="space" unicode=" " horiz-adv-x="243" 
    <glyph glyph-name="A" unicode="A" horiz-adv-x="684" 
d="M554 0l-72 224h-279l-73 -224h-98l247 750h127l247 -750h-99zM229 304h227l-112 347h-3z" />
    <glyph glyph-name="Aacute" unicode="&#xc1;" horiz-adv-x="684" 
d="M535 923v-47l-304 -42v47zM554 0l-72 224h-279l-73 -224h-98l247 750h127l247 -750h-99zM229 304h227l-112 347h-3z" />
    <glyph glyph-name="Abreve" unicode="&#x102;" horiz-adv-x="684" 
d="M274 852c-45 0 -64 23 -64 61v22h43v-13c0 -19 7 -26 27 -26h124c21 0 28 7 28 26v13h43v-22c0 -37 -22 -61 -65 -61h-136zM554 0l-72 224h-279l-73 -224h-98l247 750h127l247 -750h-99zM229 304h227l-112 347h-3z" />
    <glyph glyph-name="Acircumflex" unicode="&#xc2;" horiz-adv-x="684" 
d="M476 839l-131 40l-136 -40v47l134 41h3l130 -41v-47zM554 0l-72 224h-279l-73 -224h-98l247 750h127l247 -750h-99zM229 304h227l-112 347h-3z" />
    <glyph glyph-name="Adieresis" unicode="&#xc4;" horiz-adv-x="684" 
d="M299 903v-46h-132v46h132zM516 903v-46h-132v46h132zM554 0l-72 224h-279l-73 -224h-98l247 750h127l247 -750h-99zM229 304h227l-112 347h-3z" />
    <glyph glyph-name="Agrave" unicode="&#xc0;" horiz-adv-x="684" 
d="M451 881v-47l-304 42v47zM554 0l-72 224h-279l-73 -224h-98l247 750h127l247 -750h-99zM229 304h227l-112 347h-3z" />
    <glyph glyph-name="Amacron" unicode="&#x100;" horiz-adv-x="684" 
d="M501 903v-46h-318v46h318zM554 0l-72 224h-279l-73 -224h-98l247 750h127l247 -750h-99zM229 304h227l-112 347h-3z" />
    <glyph glyph-name="Aogonek" unicode="&#x104;" horiz-adv-x="684" 
d="M502 -127c0 -18 14 -29 43 -29c17 0 38 4 51 10v-54c-14 -8 -43 -14 -71 -14c-52 0 -85 24 -85 67c0 54 60 104 116 137l-75 234h-278l-73 -224h-98l247 750h127l247 -750c-79 -30 -151 -87 -151 -127zM229 304h226l-111 347h-3z" />
    <glyph glyph-name="Aring" unicode="&#xc5;" horiz-adv-x="684" 
d="M342 827c-57 0 -91 21 -91 60c0 38 35 60 91 60c55 0 91 -22 91 -60c0 -39 -36 -60 -91 -60zM342 916c-33 0 -56 -7 -56 -30c0 -20 23 -28 56 -28s56 8 56 28c0 23 -23 30 -56 30zM554 0l-72 224h-279l-73 -224h-98l247 750h127l247 -750h-99zM229 304h227l-112 347h-3z
    <glyph glyph-name="Aringacute" unicode="&#x1fa;" horiz-adv-x="684" 
d="M342 827c-57 0 -91 21 -91 60c0 34 28 55 74 59l36 53h58l-48 -54c39 -7 62 -27 62 -58c0 -39 -36 -60 -91 -60zM342 916c-33 0 -56 -7 -56 -30c0 -20 23 -28 56 -28s56 8 56 28c0 23 -23 30 -56 30zM554 0l-72 224h-279l-73 -224h-98l247 750h127l247 -750h-99zM229 304
h227l-112 347h-3z" />
    <glyph glyph-name="Atilde" unicode="&#xc3;" horiz-adv-x="684" 
d="M501 903v-46h-318v46h318zM554 0l-72 224h-279l-73 -224h-98l247 750h127l247 -750h-99zM229 304h227l-112 347h-3z" />
    <glyph glyph-name="AE" unicode="&#xc6;" horiz-adv-x="922" 
d="M554 80h325v-80h-420v224h-220l-109 -224h-98l368 750h465v-80h-311v-229h264v-80h-264v-281zM278 304h181v366h-3z" />
    <glyph glyph-name="AEacute" unicode="&#x1fc;" horiz-adv-x="922" 
d="M779 923v-47l-304 -42v47zM554 80h325v-80h-420v224h-220l-109 -224h-98l368 750h465v-80h-311v-229h264v-80h-264v-281zM278 304h181v366h-3z" />
    <glyph glyph-name="B" unicode="B" horiz-adv-x="622" 
d="M454 412c89 -28 138 -97 138 -187c0 -131 -93 -225 -260 -225h-252v750h266c140 0 215 -75 215 -182c0 -70 -37 -129 -107 -156zM470 557c0 66 -41 113 -132 113h-167v-227h168c87 0 131 51 131 114zM327 80c113 0 173 63 173 145c0 81 -54 139 -172 139h-157v-284h156z
    <glyph glyph-name="C" unicode="C" horiz-adv-x="800" 
d="M762 267c-42 -176 -170 -281 -350 -281c-217 0 -370 162 -370 389s153 389 370 389c177 0 304 -101 350 -274h-98c-43 118 -123 184 -252 184c-163 0 -273 -121 -273 -300c0 -178 110 -299 273 -299c132 0 216 70 254 192h96z" />
    <glyph glyph-name="Cacute" unicode="&#x106;" horiz-adv-x="800" 
d="M259 834v47l304 42v-47zM762 267c-42 -176 -170 -281 -350 -281c-217 0 -370 162 -370 389s153 389 370 389c177 0 304 -101 350 -274h-98c-43 118 -123 184 -252 184c-163 0 -273 -121 -273 -300c0 -178 110 -299 273 -299c132 0 216 70 254 192h96z" />
    <glyph glyph-name="Ccaron" unicode="&#x10c;" horiz-adv-x="800" 
d="M415 838h-3l-134 42v47l136 -40l131 40v-47zM412 75c132 0 216 70 254 192h96c-42 -176 -170 -281 -350 -281c-217 0 -370 162 -370 389s153 389 370 389c177 0 304 -101 350 -274h-98c-43 118 -123 184 -252 184c-163 0 -273 -121 -273 -300c0 -178 110 -299 273 -299z
    <glyph glyph-name="Ccedilla" unicode="&#xc7;" horiz-adv-x="800" 
d="M412 75c132 0 216 70 254 192h96c-37 -156 -142 -256 -290 -277v-81c0 -68 -36 -99 -99 -99h-44v66h27c29 0 43 12 43 42v68c-210 7 -357 167 -357 389c0 227 153 389 370 389c177 0 304 -101 350 -274h-98c-43 118 -123 184 -252 184c-163 0 -273 -121 -273 -300
c0 -178 110 -299 273 -299z" />
    <glyph glyph-name="Ccircumflex" unicode="&#x108;" horiz-adv-x="800" 
d="M545 839l-131 40l-136 -40v47l134 41h3l130 -41v-47zM412 75c132 0 216 70 254 192h96c-42 -176 -170 -281 -350 -281c-217 0 -370 162 -370 389s153 389 370 389c177 0 304 -101 350 -274h-98c-43 118 -123 184 -252 184c-163 0 -273 -121 -273 -300
c0 -178 110 -299 273 -299z" />
    <glyph glyph-name="Cdotaccent" unicode="&#x10a;" horiz-adv-x="800" 
d="M339 857v46h145v-46h-145zM762 267c-42 -176 -170 -281 -350 -281c-217 0 -370 162 -370 389s153 389 370 389c177 0 304 -101 350 -274h-98c-43 118 -123 184 -252 184c-163 0 -273 -121 -273 -300c0 -178 110 -299 273 -299c132 0 216 70 254 192h96z" />
    <glyph glyph-name="D" unicode="D" horiz-adv-x="745" 
d="M321 750c243 0 381 -153 381 -374c0 -224 -139 -376 -380 -376h-242v750h241zM320 87c201 0 286 127 286 289c0 160 -85 288 -287 288h-146v-577h147z" />
    <glyph glyph-name="Eth" unicode="&#xd0;" horiz-adv-x="745" 
d="M321 750c243 0 381 -153 381 -374c0 -224 -139 -376 -380 -376h-242v359h-69v48h69v343h241zM320 87c201 0 286 127 286 289c0 160 -85 288 -287 288h-146v-257h183v-48h-183v-272h147z" />
    <glyph glyph-name="Dcaron" unicode="&#x10e;" horiz-adv-x="745" 
d="M316 838h-3l-134 42v47l136 -40l131 40v-47zM321 750c243 0 381 -153 381 -374c0 -224 -139 -376 -380 -376h-242v750h241zM320 87c201 0 286 127 286 289c0 160 -85 288 -287 288h-146v-577h147z" />
    <glyph glyph-name="Dcroat" unicode="&#x110;" horiz-adv-x="745" 
d="M321 750c243 0 381 -153 381 -374c0 -224 -139 -376 -380 -376h-242v359h-69v48h69v343h241zM320 87c201 0 286 127 286 289c0 160 -85 288 -287 288h-146v-257h183v-48h-183v-272h147z" />
    <glyph glyph-name="E" unicode="E" horiz-adv-x="596" 
d="M175 80h378v-80h-473v750h460v-80h-365v-229h317v-80h-317v-281z" />
    <glyph glyph-name="Eacute" unicode="&#xc9;" horiz-adv-x="596" 
d="M475 923v-47l-304 -42v47zM175 80h378v-80h-473v750h460v-80h-365v-229h317v-80h-317v-281z" />
    <glyph glyph-name="Ebreve" unicode="&#x114;" horiz-adv-x="596" 
d="M230 852c-45 0 -64 23 -64 61v22h43v-13c0 -19 7 -26 27 -26h124c21 0 28 7 28 26v13h43v-22c0 -37 -22 -61 -65 -61h-136zM175 80h378v-80h-473v750h460v-80h-365v-229h317v-80h-317v-281z" />
    <glyph glyph-name="Ecaron" unicode="&#x11a;" horiz-adv-x="596" 
d="M312 838h-3l-134 42v47l136 -40l131 40v-47zM175 80h378v-80h-473v750h460v-80h-365v-229h317v-80h-317v-281z" />
    <glyph glyph-name="Ecircumflex" unicode="&#xca;" horiz-adv-x="596" 
d="M443 839l-131 40l-136 -40v47l134 41h3l130 -41v-47zM175 80h378v-80h-473v750h460v-80h-365v-229h317v-80h-317v-281z" />
    <glyph glyph-name="Edieresis" unicode="&#xcb;" horiz-adv-x="596" 
d="M255 903v-46h-132v46h132zM472 903v-46h-132v46h132zM175 80h378v-80h-473v750h460v-80h-365v-229h317v-80h-317v-281z" />
    <glyph glyph-name="Edotaccent" unicode="&#x116;" horiz-adv-x="596" 
d="M371 903v-46h-145v46h145zM175 80h378v-80h-473v750h460v-80h-365v-229h317v-80h-317v-281z" />
    <glyph glyph-name="Egrave" unicode="&#xc8;" horiz-adv-x="596" 
d="M450 881v-47l-304 42v47zM175 80h378v-80h-473v750h460v-80h-365v-229h317v-80h-317v-281z" />
    <glyph glyph-name="Emacron" unicode="&#x112;" horiz-adv-x="596" 
d="M457 903v-46h-318v46h318zM175 80h378v-80h-473v750h460v-80h-365v-229h317v-80h-317v-281z" />
    <glyph glyph-name="Eogonek" unicode="&#x118;" horiz-adv-x="596" 
d="M553 0c-60 -31 -125 -82 -125 -117c0 -17 12 -26 38 -26c12 0 29 1 43 7v-62c-15 -8 -44 -14 -69 -14c-54 0 -86 25 -86 69c0 56 63 111 118 143h-392v750h460v-80h-365v-229h317v-80h-317v-281h378v-80z" />
    <glyph glyph-name="F" unicode="F" horiz-adv-x="606" 
d="M567 670h-393v-229h343v-80h-343v-361h-95v750h488v-80z" />
    <glyph glyph-name="G" unicode="G" horiz-adv-x="802" 
d="M764 387v-387h-79v142c-54 -97 -150 -156 -276 -156c-214 0 -367 166 -367 389c0 225 153 389 370 389c168 0 299 -90 347 -239h-101c-38 93 -124 151 -245 151c-164 0 -274 -123 -274 -302c0 -178 110 -302 274 -302c145 0 243 92 262 235h-224v80h313z" />
    <glyph glyph-name="Gbreve" unicode="&#x11e;" horiz-adv-x="802" 
d="M333 852c-45 0 -64 23 -64 61v22h43v-13c0 -19 7 -26 27 -26h124c21 0 28 7 28 26v13h43v-22c0 -37 -22 -61 -65 -61h-136zM764 387v-387h-79v142c-54 -97 -150 -156 -276 -156c-214 0 -367 166 -367 389c0 225 153 389 370 389c168 0 299 -90 347 -239h-101
c-38 93 -124 151 -245 151c-164 0 -274 -123 -274 -302c0 -178 110 -302 274 -302c145 0 243 92 262 235h-224v80h313z" />
    <glyph glyph-name="Gcircumflex" unicode="&#x11c;" horiz-adv-x="802" 
d="M535 839l-131 40l-136 -40v47l134 41h3l130 -41v-47zM764 387v-387h-79v142c-54 -97 -150 -156 -276 -156c-214 0 -367 166 -367 389c0 225 153 389 370 389c168 0 299 -90 347 -239h-101c-38 93 -124 151 -245 151c-164 0 -274 -123 -274 -302c0 -178 110 -302 274 -302
c145 0 243 92 262 235h-224v80h313z" />
    <glyph glyph-name="uni0122" unicode="&#x122;" horiz-adv-x="802" 
d="M764 387v-387h-79v142c-54 -97 -150 -156 -276 -156c-214 0 -367 166 -367 389c0 225 153 389 370 389c168 0 299 -90 347 -239h-101c-38 93 -124 151 -245 151c-164 0 -274 -123 -274 -302c0 -178 110 -302 274 -302c145 0 243 92 262 235h-224v80h313zM339 -194l40 124
h85l-63 -124h-62z" />
    <glyph glyph-name="Gdotaccent" unicode="&#x120;" horiz-adv-x="802" 
d="M474 903v-46h-145v46h145zM764 387v-387h-79v142c-54 -97 -150 -156 -276 -156c-214 0 -367 166 -367 389c0 225 153 389 370 389c168 0 299 -90 347 -239h-101c-38 93 -124 151 -245 151c-164 0 -274 -123 -274 -302c0 -178 110 -302 274 -302c145 0 243 92 262 235
h-224v80h313z" />
    <glyph glyph-name="H" unicode="H" horiz-adv-x="699" 
d="M524 750h95v-750h-95v361h-349v-361h-95v750h95v-309h349v309z" />
    <glyph glyph-name="Hbar" unicode="&#x126;" horiz-adv-x="699" 
d="M682 619v-55h-63v-564h-95v361h-349v-361h-95v564h-63v55h63v131h95v-131h349v131h95v-131h63zM524 441v123h-349v-123h349z" />
    <glyph glyph-name="Hcircumflex" unicode="&#x124;" horiz-adv-x="699" 
d="M483 839l-131 40l-136 -40v47l134 41h3l130 -41v-47zM524 750h95v-750h-95v361h-349v-361h-95v750h95v-309h349v309z" />
    <glyph glyph-name="I" unicode="I" horiz-adv-x="253" 
d="M80 0v750h93v-750h-93z" />
    <glyph glyph-name="IJ" unicode="&#x132;" horiz-adv-x="685" 
d="M80 0v750h93v-750h-93zM288 0v80h166c54 0 76 27 76 75v515h-163v80h258v-588c0 -104 -57 -162 -164 -162h-173z" />
    <glyph glyph-name="Iacute" unicode="&#xcd;" horiz-adv-x="253" 
d="M46 809v46l195 43v-47zM80 0v750h93v-750h-93z" />
    <glyph glyph-name="Ibreve" unicode="&#x12c;" horiz-adv-x="253" 
d="M58 840c-44 0 -64 24 -64 62v21h44v-13c0 -18 6 -26 26 -26h124c21 0 28 8 28 26v13h43v-21c0 -38 -22 -62 -64 -62h-137zM80 0v750h93v-750h-93z" />
    <glyph glyph-name="Icircumflex" unicode="&#xce;" horiz-adv-x="253" 
d="M130 927l130 -41v-47l-131 40l-136 -40v47l134 41h3zM80 0v750h93v-750h-93z" />
    <glyph glyph-name="Idieresis" unicode="&#xcf;" horiz-adv-x="253" 
d="M-11 821v44h101v-44h-101zM163 821v44h101v-44h-101zM80 0v750h93v-750h-93z" />
    <glyph glyph-name="Idotaccent" unicode="&#x130;" horiz-adv-x="253" 
d="M44 821v44h165v-44h-165zM80 0v750h93v-750h-93z" />
    <glyph glyph-name="Igrave" unicode="&#xcc;" horiz-adv-x="253" 
d="M211 809l-204 42v46l204 -42v-46zM80 0v750h93v-750h-93z" />
    <glyph glyph-name="Imacron" unicode="&#x12a;" horiz-adv-x="253" 
d="M-11 821v44h275v-44h-275zM80 0v750h93v-750h-93z" />
    <glyph glyph-name="Iogonek" unicode="&#x12e;" horiz-adv-x="253" 
d="M173 0c-66 -37 -125 -89 -125 -125c0 -17 12 -28 40 -28c12 0 28 2 42 8v-56c-15 -8 -40 -13 -66 -13c-51 0 -82 24 -82 66c0 49 48 98 98 133v765h93v-750z" />
    <glyph glyph-name="Itilde" unicode="&#x128;" horiz-adv-x="253" 
d="M-33 857v46h318v-46h-318zM80 0v750h93v-750h-93z" />
    <glyph glyph-name="J" unicode="J" horiz-adv-x="432" 
d="M35 0v80h166c54 0 76 27 76 75v515h-163v80h258v-588c0 -104 -57 -162 -164 -162h-173z" />
    <glyph glyph-name="Jcircumflex" unicode="&#x134;" horiz-adv-x="432" 
d="M247 927l130 -41v-47l-131 40l-136 -40v47l134 41h3zM114 670v80h258v-588c0 -104 -57 -162 -164 -162h-173v80h166c54 0 76 27 76 75v515h-163z" />
    <glyph glyph-name="K" unicode="K" horiz-adv-x="660" 
d="M534 0l-256 361h-103v-361h-95v750h95v-309h102l243 309h114l-274 -346l289 -404h-115z" />
    <glyph glyph-name="uni0136" unicode="&#x136;" horiz-adv-x="660" 
d="M360 404l289 -404h-115l-256 361h-103v-361h-95v750h95v-309h102l243 309h114zM265 -194l40 124h85l-63 -124h-62z" />
    <glyph glyph-name="L" unicode="L" horiz-adv-x="567" 
d="M175 80h356v-80h-451v750h95v-670z" />
    <glyph glyph-name="Lacute" unicode="&#x139;" horiz-adv-x="567" 
d="M368 886v-46l-272 -43v46zM175 80h356v-80h-451v750h95v-670z" />
    <glyph glyph-name="Lcaron" unicode="&#x13d;" horiz-adv-x="567" 
d="M175 80h356v-80h-451v750h95v-670zM432 750l-75 -185h-69l50 185h94z" />
    <glyph glyph-name="uni013B" unicode="&#x13b;" horiz-adv-x="567" 
d="M175 80h356v-80h-451v750h95v-670zM231 -194l40 124h85l-63 -124h-62z" />
    <glyph glyph-name="Ldot" unicode="&#x13f;" horiz-adv-x="567" 
d="M175 80h356v-80h-451v750h95v-670zM440 457v-136h-79v136h79z" />
    <glyph glyph-name="Lslash" unicode="&#x141;" horiz-adv-x="567" 
d="M175 80h356v-80h-451v309l-71 -23v77l71 24v363h95v-332l144 48v-78l-144 -47v-261z" />
    <glyph glyph-name="M" unicode="M" horiz-adv-x="906" 
d="M175 0h-95v750h145l227 -610h2l228 610h145v-750h-95v619h-3l-236 -613h-79l-236 613h-3v-619z" />
    <glyph glyph-name="N" unicode="N" horiz-adv-x="715" 
d="M170 0h-90v750h103l359 -599h3v599h90v-750h-102l-360 599h-3v-599z" />
    <glyph glyph-name="Nacute" unicode="&#x143;" horiz-adv-x="715" 
d="M205 834v47l304 42v-47zM170 0h-90v750h103l359 -599h3v599h90v-750h-102l-360 599h-3v-599z" />
    <glyph glyph-name="Ncaron" unicode="&#x147;" horiz-adv-x="715" 
d="M361 838h-3l-134 42v47l136 -40l131 40v-47zM545 750h90v-750h-102l-360 599h-3v-599h-90v750h103l359 -599h3v599z" />
    <glyph glyph-name="uni0145" unicode="&#x145;" horiz-adv-x="715" 
d="M170 0h-90v750h103l359 -599h3v599h90v-750h-102l-360 599h-3v-599zM295 -194l40 124h85l-63 -124h-62z" />
    <glyph glyph-name="Eng" unicode="&#x14a;" horiz-adv-x="694" 
d="M545 750h90v-788c0 -104 -57 -162 -164 -162h-145v80h138c54 0 76 27 76 75v32l-367 612h-3v-599h-90v750h103l359 -599h3v599z" />
    <glyph glyph-name="Ntilde" unicode="&#xd1;" horiz-adv-x="715" 
d="M198 857v46h318v-46h-318zM170 0h-90v750h103l359 -599h3v599h90v-750h-102l-360 599h-3v-599z" />
    <glyph glyph-name="O" unicode="O" horiz-adv-x="840" 
d="M420 -14c-220 0 -374 165 -374 389s154 389 374 389c219 0 373 -165 373 -389s-154 -389 -373 -389zM420 75c165 0 276 124 276 299c0 177 -111 300 -276 300c-166 0 -277 -123 -277 -300c0 -175 111 -299 277 -299z" />
    <glyph glyph-name="Oacute" unicode="&#xd3;" horiz-adv-x="840" 
d="M268 834v47l304 42v-47zM420 -14c-220 0 -374 165 -374 389s154 389 374 389c219 0 373 -165 373 -389s-154 -389 -373 -389zM420 75c165 0 276 124 276 299c0 177 -111 300 -276 300c-166 0 -277 -123 -277 -300c0 -175 111 -299 277 -299z" />
    <glyph glyph-name="Obreve" unicode="&#x14e;" horiz-adv-x="840" 
d="M352 852c-45 0 -64 23 -64 61v22h43v-13c0 -19 7 -26 27 -26h124c21 0 28 7 28 26v13h43v-22c0 -37 -22 -61 -65 -61h-136zM420 -14c-220 0 -374 165 -374 389s154 389 374 389c219 0 373 -165 373 -389s-154 -389 -373 -389zM420 75c165 0 276 124 276 299
c0 177 -111 300 -276 300c-166 0 -277 -123 -277 -300c0 -175 111 -299 277 -299z" />
    <glyph glyph-name="Ocircumflex" unicode="&#xd4;" horiz-adv-x="840" 
d="M553 839l-131 40l-136 -40v47l134 41h3l130 -41v-47zM420 764c219 0 373 -165 373 -389s-154 -389 -373 -389c-220 0 -374 165 -374 389s154 389 374 389zM420 75c165 0 276 124 276 299c0 177 -111 300 -276 300c-166 0 -277 -123 -277 -300c0 -175 111 -299 277 -299z
    <glyph glyph-name="Odieresis" unicode="&#xd6;" horiz-adv-x="840" 
d="M245 857v46h132v-46h-132zM462 857v46h132v-46h-132zM420 -14c-220 0 -374 165 -374 389s154 389 374 389c219 0 373 -165 373 -389s-154 -389 -373 -389zM420 75c165 0 276 124 276 299c0 177 -111 300 -276 300c-166 0 -277 -123 -277 -300c0 -175 111 -299 277 -299z
    <glyph glyph-name="Ograve" unicode="&#xd2;" horiz-adv-x="840" 
d="M572 834l-304 42v47l304 -42v-47zM420 -14c-220 0 -374 165 -374 389s154 389 374 389c219 0 373 -165 373 -389s-154 -389 -373 -389zM420 75c165 0 276 124 276 299c0 177 -111 300 -276 300c-166 0 -277 -123 -277 -300c0 -175 111 -299 277 -299z" />
    <glyph glyph-name="Ohungarumlaut" unicode="&#x150;" horiz-adv-x="840" 
d="M279 847l124 65h83l-126 -65h-81zM452 847l124 65h83l-126 -65h-81zM420 -14c-220 0 -374 165 -374 389s154 389 374 389c219 0 373 -165 373 -389s-154 -389 -373 -389zM420 75c165 0 276 124 276 299c0 177 -111 300 -276 300c-166 0 -277 -123 -277 -300
c0 -175 111 -299 277 -299z" />
    <glyph glyph-name="Omacron" unicode="&#x14c;" horiz-adv-x="840" 
d="M261 857v46h318v-46h-318zM420 -14c-220 0 -374 165 -374 389s154 389 374 389c219 0 373 -165 373 -389s-154 -389 -373 -389zM420 75c165 0 276 124 276 299c0 177 -111 300 -276 300c-166 0 -277 -123 -277 -300c0 -175 111 -299 277 -299z" />
    <glyph glyph-name="Oslash" unicode="&#xd8;" horiz-adv-x="840" 
d="M802 750l-101 -110c58 -68 92 -160 92 -265c0 -224 -154 -389 -373 -389c-96 0 -179 31 -243 85l-65 -71h-74l101 110c-59 68 -93 160 -93 265c0 224 154 389 374 389c95 0 178 -31 242 -85l65 71h75zM143 374c0 -77 21 -144 60 -195l396 432c-47 40 -108 63 -179 63
c-166 0 -277 -123 -277 -300zM696 374c0 78 -21 145 -59 196l-397 -431c46 -41 108 -64 180 -64c165 0 276 124 276 299z" />
    <glyph glyph-name="Oslashacute" unicode="&#x1fe;" horiz-adv-x="840" 
d="M572 923v-47l-304 -42v47zM802 750l-101 -110c58 -68 92 -160 92 -265c0 -224 -154 -389 -373 -389c-96 0 -179 31 -243 85l-65 -71h-74l101 110c-59 68 -93 160 -93 265c0 224 154 389 374 389c95 0 178 -31 242 -85l65 71h75zM143 374c0 -77 21 -144 60 -195l396 432
c-47 40 -108 63 -179 63c-166 0 -277 -123 -277 -300zM696 374c0 78 -21 145 -59 196l-397 -431c46 -41 108 -64 180 -64c165 0 276 124 276 299z" />
    <glyph glyph-name="Otilde" unicode="&#xd5;" horiz-adv-x="840" 
d="M261 857v46h318v-46h-318zM420 -14c-220 0 -374 165 -374 389s154 389 374 389c219 0 373 -165 373 -389s-154 -389 -373 -389zM420 75c165 0 276 124 276 299c0 177 -111 300 -276 300c-166 0 -277 -123 -277 -300c0 -175 111 -299 277 -299z" />
    <glyph glyph-name="OE" unicode="&#x152;" horiz-adv-x="1260" 
d="M838 80h378v-80h-473v172c-62 -114 -178 -186 -323 -186c-220 0 -374 165 -374 389s154 389 374 389c145 0 261 -72 323 -186v172h460v-80h-365v-229h318v-80h-318v-281zM420 75c165 0 276 124 276 299c0 177 -111 300 -276 300c-166 0 -277 -123 -277 -300
c0 -175 111 -299 277 -299z" />
    <glyph glyph-name="P" unicode="P" horiz-adv-x="603" 
d="M360 750c137 0 216 -82 216 -197s-78 -199 -215 -199h-189v-354h-95v750h283zM355 435c90 0 126 54 126 118c0 63 -36 117 -124 117h-185v-235h183z" />
    <glyph glyph-name="Thorn" unicode="&#xde;" horiz-adv-x="635" 
d="M343 616c170 0 264 -97 264 -235s-94 -236 -263 -236h-169v-145h-95v750h95v-134h168zM335 225c124 0 175 72 175 156c0 82 -50 154 -174 154h-161v-310h160z" />
    <glyph glyph-name="Q" unicode="Q" horiz-adv-x="832" 
d="M790 375c0 -112 -39 -210 -105 -279l91 -96h-101l-47 48c-59 -39 -131 -62 -212 -62c-220 0 -374 165 -374 389s154 389 374 389c219 0 374 -165 374 -389zM139 374c0 -175 112 -299 277 -299c56 0 105 14 146 39l-162 170h105l115 -121c46 53 72 126 72 211
c0 177 -111 300 -276 300s-277 -123 -277 -300z" />
    <glyph glyph-name="R" unicode="R" horiz-adv-x="608" 
d="M577 552c0 -94 -55 -166 -156 -189l149 -363h-101l-144 355h-150v-355h-95v750h267c148 0 230 -84 230 -198zM175 670v-235h166c98 0 138 55 138 118c0 62 -39 117 -137 117h-167z" />
    <glyph glyph-name="Racute" unicode="&#x154;" horiz-adv-x="608" 
d="M456 923v-47l-304 -42v47zM577 552c0 -94 -55 -166 -156 -189l149 -363h-101l-144 355h-150v-355h-95v750h267c148 0 230 -84 230 -198zM175 670v-235h166c98 0 138 55 138 118c0 62 -39 117 -137 117h-167z" />
    <glyph glyph-name="Rcaron" unicode="&#x158;" horiz-adv-x="608" 
d="M308 838h-3l-134 42v47l136 -40l131 40v-47zM577 552c0 -94 -55 -166 -156 -189l149 -363h-101l-144 355h-150v-355h-95v750h267c148 0 230 -84 230 -198zM175 670v-235h166c98 0 138 55 138 118c0 62 -39 117 -137 117h-167z" />
    <glyph glyph-name="uni0156" unicode="&#x156;" horiz-adv-x="608" 
d="M577 552c0 -94 -55 -166 -156 -189l149 -363h-101l-144 355h-150v-355h-95v750h267c148 0 230 -84 230 -198zM175 670v-235h166c98 0 138 55 138 118c0 62 -39 117 -137 117h-167zM239 -194l40 124h85l-63 -124h-62z" />
    <glyph glyph-name="S" unicode="S" horiz-adv-x="655" 
d="M344 -14c-186 0 -299 102 -303 273h98c3 -118 80 -189 208 -189c105 0 175 54 175 135c0 89 -56 128 -200 138c-175 13 -256 79 -256 208c0 128 102 213 256 213c169 0 271 -88 280 -241h-98c-8 102 -72 158 -181 158c-98 0 -162 -49 -162 -124c0 -87 53 -123 196 -133
c178 -12 260 -79 260 -213c0 -136 -107 -225 -273 -225z" />
    <glyph glyph-name="Sacute" unicode="&#x15a;" horiz-adv-x="655" 
d="M183 834v47l304 42v-47zM344 -14c-186 0 -299 102 -303 273h98c3 -118 80 -189 208 -189c105 0 175 54 175 135c0 89 -56 128 -200 138c-175 13 -256 79 -256 208c0 128 102 213 256 213c169 0 271 -88 280 -241h-98c-8 102 -72 158 -181 158c-98 0 -162 -49 -162 -124
c0 -87 53 -123 196 -133c178 -12 260 -79 260 -213c0 -136 -107 -225 -273 -225z" />
    <glyph glyph-name="Scaron" unicode="&#x160;" horiz-adv-x="655" 
d="M331 838h-3l-134 42v47l136 -40l131 40v-47zM357 424c178 -12 260 -79 260 -213c0 -136 -107 -225 -273 -225c-186 0 -299 102 -303 273h98c3 -118 80 -189 208 -189c105 0 175 54 175 135c0 89 -56 128 -200 138c-175 13 -256 79 -256 208c0 128 102 213 256 213
c169 0 271 -88 280 -241h-98c-8 102 -72 158 -181 158c-98 0 -162 -49 -162 -124c0 -87 53 -123 196 -133z" />
    <glyph glyph-name="Scedilla" unicode="&#x15e;" horiz-adv-x="655" 
d="M617 211c0 -125 -90 -210 -233 -223v-79c0 -68 -35 -99 -99 -99h-43v66h27c29 0 43 13 43 42v69c-167 11 -267 111 -271 272h98c3 -118 80 -189 208 -189c105 0 175 54 175 135c0 89 -56 128 -200 138c-175 13 -256 79 -256 208c0 128 102 213 256 213
c169 0 271 -88 280 -241h-98c-8 102 -72 158 -181 158c-98 0 -162 -49 -162 -124c0 -87 53 -123 196 -133c178 -12 260 -79 260 -213z" />
    <glyph glyph-name="Scircumflex" unicode="&#x15c;" horiz-adv-x="655" 
d="M461 839l-131 40l-136 -40v47l134 41h3l130 -41v-47zM357 424c178 -12 260 -79 260 -213c0 -136 -107 -225 -273 -225c-186 0 -299 102 -303 273h98c3 -118 80 -189 208 -189c105 0 175 54 175 135c0 89 -56 128 -200 138c-175 13 -256 79 -256 208
c0 128 102 213 256 213c169 0 271 -88 280 -241h-98c-8 102 -72 158 -181 158c-98 0 -162 -49 -162 -124c0 -87 53 -123 196 -133z" />
    <glyph glyph-name="uni0218" unicode="&#x218;" horiz-adv-x="655" 
d="M344 -14c-186 0 -299 102 -303 273h98c3 -118 80 -189 208 -189c105 0 175 54 175 135c0 89 -56 128 -200 138c-175 13 -256 79 -256 208c0 128 102 213 256 213c169 0 271 -88 280 -241h-98c-8 102 -72 158 -181 158c-98 0 -162 -49 -162 -124c0 -87 53 -123 196 -133
c178 -12 260 -79 260 -213c0 -136 -107 -225 -273 -225zM280 -194l40 124h85l-63 -124h-62z" />
    <glyph glyph-name="uni1E9E" unicode="&#x1e9e;" horiz-adv-x="711" 
d="M442 455c167 -7 242 -113 242 -239c0 -143 -89 -230 -238 -230c-135 0 -209 72 -219 176h99c10 -59 50 -96 124 -96c84 0 135 56 135 149c0 84 -43 159 -173 159h-118l196 296h-206c-75 0 -129 -49 -129 -146v-524h-96v530c0 145 82 220 204 220h380z" />
    <glyph glyph-name="T" unicode="T" horiz-adv-x="611" 
d="M353 0h-95v670h-232v80h559v-80h-232v-670z" />
    <glyph glyph-name="Tbar" unicode="&#x166;" horiz-adv-x="611" 
d="M585 670h-232v-245h98v-56h-98v-369h-95v369h-97v56h97v245h-232v80h559v-80z" />
    <glyph glyph-name="Tcaron" unicode="&#x164;" horiz-adv-x="611" 
d="M308 838h-3l-133 42v47l136 -40l131 40v-47zM26 750h559v-80h-232v-670h-95v670h-232v80z" />
    <glyph glyph-name="U" unicode="U" horiz-adv-x="745" 
d="M678 300c0 -195 -118 -314 -305 -314s-305 119 -305 314v450h95v-456c0 -133 76 -221 210 -221s210 88 210 221v456h95v-450z" />
    <glyph glyph-name="Uacute" unicode="&#xda;" horiz-adv-x="745" 
d="M237 834v47l304 42v-47zM678 300c0 -195 -118 -314 -305 -314s-305 119 -305 314v450h95v-456c0 -133 76 -221 210 -221s210 88 210 221v456h95v-450z" />
    <glyph glyph-name="Ubreve" unicode="&#x16c;" horiz-adv-x="745" 
d="M304 852c-45 0 -64 23 -64 61v22h43v-13c0 -19 7 -26 27 -26h124c21 0 28 7 28 26v13h43v-22c0 -37 -22 -61 -65 -61h-136zM678 300c0 -195 -118 -314 -305 -314s-305 119 -305 314v450h95v-456c0 -133 76 -221 210 -221s210 88 210 221v456h95v-450z" />
    <glyph glyph-name="Ucircumflex" unicode="&#xdb;" horiz-adv-x="745" 
d="M506 839l-131 40l-136 -40v47l134 41h3l130 -41v-47zM583 750h95v-450c0 -195 -118 -314 -305 -314s-305 119 -305 314v450h95v-456c0 -133 76 -221 210 -221s210 88 210 221v456z" />
    <glyph glyph-name="Udieresis" unicode="&#xdc;" horiz-adv-x="745" 
d="M198 857v46h132v-46h-132zM415 857v46h132v-46h-132zM678 300c0 -195 -118 -314 -305 -314s-305 119 -305 314v450h95v-456c0 -133 76 -221 210 -221s210 88 210 221v456h95v-450z" />
    <glyph glyph-name="Ugrave" unicode="&#xd9;" horiz-adv-x="745" 
d="M505 834l-304 42v47l304 -42v-47zM678 300c0 -195 -118 -314 -305 -314s-305 119 -305 314v450h95v-456c0 -133 76 -221 210 -221s210 88 210 221v456h95v-450z" />
    <glyph glyph-name="Uhungarumlaut" unicode="&#x170;" horiz-adv-x="745" 
d="M232 847l124 65h83l-126 -65h-81zM405 847l124 65h83l-126 -65h-81zM678 300c0 -195 -118 -314 -305 -314s-305 119 -305 314v450h95v-456c0 -133 76 -221 210 -221s210 88 210 221v456h95v-450z" />
    <glyph glyph-name="Umacron" unicode="&#x16a;" horiz-adv-x="745" 
d="M214 857v46h318v-46h-318zM678 300c0 -195 -118 -314 -305 -314s-305 119 -305 314v450h95v-456c0 -133 76 -221 210 -221s210 88 210 221v456h95v-450z" />
    <glyph glyph-name="Uogonek" unicode="&#x172;" horiz-adv-x="745" 
d="M583 750h95v-450c0 -176 -96 -290 -252 -311c-54 -35 -97 -81 -97 -114c0 -17 12 -28 40 -28c12 0 28 2 42 8v-56c-15 -8 -40 -13 -66 -13c-50 0 -81 24 -81 66c0 51 46 101 94 134c-178 7 -290 124 -290 314v450h95v-456c0 -133 76 -221 210 -221s210 88 210 221v456z
    <glyph glyph-name="Uring" unicode="&#x16e;" horiz-adv-x="745" 
d="M372 827c-57 0 -91 21 -91 60c0 38 35 60 91 60c55 0 91 -22 91 -60c0 -39 -36 -60 -91 -60zM372 858c33 0 56 8 56 28c0 23 -23 30 -56 30s-56 -7 -56 -30c0 -20 23 -28 56 -28zM678 300c0 -195 -118 -314 -305 -314s-305 119 -305 314v450h95v-456
c0 -133 76 -221 210 -221s210 88 210 221v456h95v-450z" />
    <glyph glyph-name="Utilde" unicode="&#x168;" horiz-adv-x="745" 
d="M214 857v46h318v-46h-318zM678 300c0 -195 -118 -314 -305 -314s-305 119 -305 314v450h95v-456c0 -133 76 -221 210 -221s210 88 210 221v456h95v-450z" />
    <glyph glyph-name="V" unicode="V" horiz-adv-x="680" 
d="M404 0h-127l-245 750h100l207 -650h3l207 650h100z" />
    <glyph glyph-name="W" unicode="W" horiz-adv-x="1058" 
d="M929 750h98l-218 -750h-117l-163 579l-162 -579h-117l-218 750h97l178 -630h3l171 602h96l171 -602h4z" />
    <glyph glyph-name="Wacute" unicode="&#x1e82;" horiz-adv-x="1058" 
d="M717 923v-47l-304 -42v47zM929 750h98l-218 -750h-117l-163 579l-162 -579h-117l-218 750h97l178 -630h3l171 602h96l171 -602h4z" />
    <glyph glyph-name="Wcircumflex" unicode="&#x174;" horiz-adv-x="1058" 
d="M663 839l-131 40l-136 -40v47l134 41h3l130 -41v-47zM929 750h98l-218 -750h-117l-163 579l-162 -579h-117l-218 750h97l178 -630h3l171 602h96l171 -602h4z" />
    <glyph glyph-name="Wdieresis" unicode="&#x1e84;" horiz-adv-x="1058" 
d="M486 903v-46h-132v46h132zM703 903v-46h-132v46h132zM929 750h98l-218 -750h-117l-163 579l-162 -579h-117l-218 750h97l178 -630h3l171 602h96l171 -602h4z" />
    <glyph glyph-name="Wgrave" unicode="&#x1e80;" horiz-adv-x="1058" 
d="M670 881v-47l-304 42v47zM929 750h98l-218 -750h-117l-163 579l-162 -579h-117l-218 750h97l178 -630h3l171 602h96l171 -602h4z" />
    <glyph glyph-name="X" unicode="X" horiz-adv-x="618" 
d="M604 0h-111l-184 312l-184 -312h-111l240 395l-225 355h112l168 -279l168 279h112l-225 -355z" />
    <glyph glyph-name="Y" unicode="Y" horiz-adv-x="636" 
d="M610 750l-244 -499v-251h-95v253l-243 497h99l190 -400h3l191 400h99z" />
    <glyph glyph-name="Yacute" unicode="&#xdd;" horiz-adv-x="636" 
d="M496 923v-47l-304 -42v47zM610 750l-244 -499v-251h-95v253l-243 497h99l190 -400h3l191 400h99z" />
    <glyph glyph-name="Ycircumflex" unicode="&#x176;" horiz-adv-x="636" 
d="M452 839l-131 40l-136 -40v47l134 41h3l130 -41v-47zM610 750l-244 -499v-251h-95v253l-243 497h99l190 -400h3l191 400h99z" />
    <glyph glyph-name="Ydieresis" unicode="&#x178;" horiz-adv-x="636" 
d="M275 903v-46h-132v46h132zM492 903v-46h-132v46h132zM610 750l-244 -499v-251h-95v253l-243 497h99l190 -400h3l191 400h99z" />
    <glyph glyph-name="Ygrave" unicode="&#x1ef2;" horiz-adv-x="636" 
d="M445 881v-47l-304 42v47zM610 750l-244 -499v-251h-95v253l-243 497h99l190 -400h3l191 400h99z" />
    <glyph glyph-name="Z" unicode="Z" horiz-adv-x="656" 
d="M618 0h-580v77l457 590v3h-439v80h550v-83l-452 -584v-3h464v-80z" />
    <glyph glyph-name="Zacute" unicode="&#x179;" horiz-adv-x="656" 
d="M205 834v47l304 42v-47zM618 0h-580v77l457 590v3h-439v80h550v-83l-452 -584v-3h464v-80z" />
    <glyph glyph-name="Zcaron" unicode="&#x17d;" horiz-adv-x="656" 
d="M331 838h-3l-134 42v47l136 -40l131 40v-47zM154 80h464v-80h-580v77l457 590v3h-439v80h550v-83l-452 -584v-3z" />
    <glyph glyph-name="Zdotaccent" unicode="&#x17b;" horiz-adv-x="656" 
d="M256 857v46h145v-46h-145zM618 0h-580v77l457 590v3h-439v80h550v-83l-452 -584v-3h464v-80z" />
    <glyph glyph-name="uni0162" unicode="&#x162;" horiz-adv-x="611" 
d="M26 750h559v-80h-232v-670h-13v-91c0 -68 -35 -99 -99 -99h-43v66h27c29 0 43 13 43 42v82h-10v670h-232v80z" />
    <glyph glyph-name="uni021A" unicode="&#x21a;" horiz-adv-x="611" 
d="M353 0h-95v670h-232v80h559v-80h-232v-670zM224 -194l39 124h86l-63 -124h-62z" />
    <glyph glyph-name="Iacute_J.loclNLD" horiz-adv-x="685" 
d="M45 797v46l195 43v-47zM413 797v46l195 43v-47zM80 0v750h93v-750h-93zM288 0v80h166c54 0 76 27 76 75v515h-163v80h258v-588c0 -104 -57 -162 -164 -162h-173z" />
    <glyph glyph-name="a" unicode="a" horiz-adv-x="564" 
d="M340 510c99 0 154 -51 154 -140v-370h-89v76c-38 -57 -106 -90 -189 -90c-105 0 -176 61 -176 152c0 82 54 135 145 149l220 34v39c0 45 -24 69 -67 69h-250v81h252zM235 59c76 0 146 43 170 106v84l-188 -31c-56 -9 -86 -35 -86 -80c0 -49 40 -79 104 -79z" />
    <glyph glyph-name="aacute" unicode="&#xe1;" horiz-adv-x="564" 
d="M428 752l-118 -133h-82l104 133h96zM340 510c99 0 154 -51 154 -140v-370h-89v76c-38 -57 -106 -90 -189 -90c-105 0 -176 61 -176 152c0 82 54 135 145 149l220 34v39c0 45 -24 69 -67 69h-250v81h252zM235 59c76 0 146 43 170 106v84l-188 -31c-56 -9 -86 -35 -86 -80
c0 -49 40 -79 104 -79z" />
    <glyph glyph-name="abreve" unicode="&#x103;" horiz-adv-x="564" 
d="M235 612c-73 0 -106 34 -106 91v29h74v-20c0 -28 14 -41 44 -41h69c29 0 45 13 45 41v20h73v-29c0 -57 -35 -91 -107 -91h-92zM340 510c99 0 154 -51 154 -140v-370h-89v76c-38 -57 -106 -90 -189 -90c-105 0 -176 61 -176 152c0 82 54 135 145 149l220 34v39
c0 45 -24 69 -67 69h-250v81h252zM235 59c76 0 146 43 170 106v84l-188 -31c-56 -9 -86 -35 -86 -80c0 -49 40 -79 104 -79z" />
    <glyph glyph-name="acircumflex" unicode="&#xe2;" horiz-adv-x="564" 
d="M279 690l-67 -71h-81l116 133h69l116 -133h-86zM340 510c99 0 154 -51 154 -140v-370h-89v76c-38 -57 -106 -90 -189 -90c-105 0 -176 61 -176 152c0 82 54 135 145 149l220 34v39c0 45 -24 69 -67 69h-250v81h252zM235 59c76 0 146 43 170 106v84l-188 -31
c-56 -9 -86 -35 -86 -80c0 -49 40 -79 104 -79z" />
    <glyph glyph-name="adieresis" unicode="&#xe4;" horiz-adv-x="564" 
d="M214 750v-134h-80v134h80zM428 750v-134h-79v134h79zM340 510c99 0 154 -51 154 -140v-370h-89v76c-38 -57 -106 -90 -189 -90c-105 0 -176 61 -176 152c0 82 54 135 145 149l220 34v39c0 45 -24 69 -67 69h-250v81h252zM235 59c76 0 146 43 170 106v84l-188 -31
c-56 -9 -86 -35 -86 -80c0 -49 40 -79 104 -79z" />
    <glyph glyph-name="agrave" unicode="&#xe0;" horiz-adv-x="564" 
d="M339 619h-82l-118 133h96zM340 510c99 0 154 -51 154 -140v-370h-89v76c-38 -57 -106 -90 -189 -90c-105 0 -176 61 -176 152c0 82 54 135 145 149l220 34v39c0 45 -24 69 -67 69h-250v81h252zM235 59c76 0 146 43 170 106v84l-188 -31c-56 -9 -86 -35 -86 -80
c0 -49 40 -79 104 -79z" />
    <glyph glyph-name="amacron" unicode="&#x101;" horiz-adv-x="564" 
d="M462 700v-70h-360v70h360zM340 510c99 0 154 -51 154 -140v-370h-89v76c-38 -57 -106 -90 -189 -90c-105 0 -176 61 -176 152c0 82 54 135 145 149l220 34v39c0 45 -24 69 -67 69h-250v81h252zM235 59c76 0 146 43 170 106v84l-188 -31c-56 -9 -86 -35 -86 -80
c0 -49 40 -79 104 -79z" />
    <glyph glyph-name="aogonek" unicode="&#x105;" horiz-adv-x="564" 
d="M494 0c-60 -31 -125 -82 -125 -117c0 -17 12 -26 38 -26c12 0 29 1 43 7v-62c-15 -8 -44 -14 -69 -14c-54 0 -86 25 -86 69c0 56 63 111 118 143h-8v76c-38 -57 -106 -90 -189 -90c-105 0 -176 61 -176 152c0 82 54 135 145 149l220 34v39c0 45 -24 69 -67 69h-250v81
h252c99 0 154 -51 154 -140v-370zM235 59c76 0 146 43 170 106v84l-188 -31c-56 -9 -86 -35 -86 -80c0 -49 40 -79 104 -79z" />
    <glyph glyph-name="aring" unicode="&#xe5;" horiz-adv-x="564" 
d="M282 609c-47 0 -86 38 -86 86c0 47 39 85 86 85s86 -38 86 -85c0 -48 -39 -86 -86 -86zM282 734c-22 0 -41 -17 -41 -39c0 -23 19 -40 41 -40s41 17 41 40c0 22 -19 39 -41 39zM340 510c99 0 154 -51 154 -140v-370h-89v76c-38 -57 -106 -90 -189 -90
c-105 0 -176 61 -176 152c0 82 54 135 145 149l220 34v39c0 45 -24 69 -67 69h-250v81h252zM235 59c76 0 146 43 170 106v84l-188 -31c-56 -9 -86 -35 -86 -80c0 -49 40 -79 104 -79z" />
    <glyph glyph-name="aringacute" unicode="&#x1fb;" horiz-adv-x="564" 
d="M282 609c-48 0 -86 38 -86 86c0 40 27 73 65 82l64 97h97l-93 -108c23 -15 38 -41 38 -71c0 -48 -38 -86 -85 -86zM282 655c22 0 41 17 41 40c0 22 -19 39 -41 39c-23 0 -41 -17 -41 -39c0 -23 18 -40 41 -40zM340 510c99 0 154 -51 154 -140v-370h-89v76
c-38 -57 -106 -90 -189 -90c-105 0 -176 61 -176 152c0 82 54 135 145 149l220 34v39c0 45 -24 69 -67 69h-250v81h252zM235 59c76 0 146 43 170 106v84l-188 -31c-56 -9 -86 -35 -86 -80c0 -49 40 -79 104 -79z" />
    <glyph glyph-name="atilde" unicode="&#xe3;" horiz-adv-x="564" 
d="M462 700v-70h-360v70h360zM340 510c99 0 154 -51 154 -140v-370h-89v76c-38 -57 -106 -90 -189 -90c-105 0 -176 61 -176 152c0 82 54 135 145 149l220 34v39c0 45 -24 69 -67 69h-250v81h252zM235 59c76 0 146 43 170 106v84l-188 -31c-56 -9 -86 -35 -86 -80
c0 -49 40 -79 104 -79z" />
    <glyph glyph-name="ae" unicode="&#xe6;" horiz-adv-x="955" 
d="M908 264c0 -7 0 -18 -2 -27h-411c7 -108 67 -171 167 -171c70 0 121 31 144 74h95c-30 -90 -128 -154 -240 -154c-93 0 -167 45 -208 120c-41 -69 -121 -120 -235 -120c-106 0 -178 61 -178 152c0 82 54 135 145 149l220 34v39c0 45 -24 69 -67 69h-250v81h252
c69 0 116 -25 139 -69c43 51 106 82 181 82c146 0 248 -101 248 -259zM659 443c-87 0 -145 -48 -161 -134h315c-13 87 -66 134 -154 134zM235 59c76 0 146 43 170 106v84l-188 -31c-56 -9 -86 -35 -86 -80c0 -49 40 -79 104 -79z" />
    <glyph glyph-name="aeacute" unicode="&#x1fd;" horiz-adv-x="955" 
d="M627 752l-118 -133h-82l103 133h97zM908 264c0 -7 0 -18 -2 -27h-411c7 -108 67 -171 167 -171c70 0 121 31 144 74h95c-30 -90 -128 -154 -240 -154c-93 0 -167 45 -208 120c-41 -69 -121 -120 -235 -120c-106 0 -178 61 -178 152c0 82 54 135 145 149l220 34v39
c0 45 -24 69 -67 69h-250v81h252c69 0 116 -25 139 -69c43 51 106 82 181 82c146 0 248 -101 248 -259zM659 443c-87 0 -145 -48 -161 -134h315c-13 87 -66 134 -154 134zM235 59c76 0 146 43 170 106v84l-188 -31c-56 -9 -86 -35 -86 -80c0 -49 40 -79 104 -79z" />
    <glyph glyph-name="b" unicode="b" horiz-adv-x="623" 
d="M334 523c137 0 239 -109 239 -268c0 -160 -102 -269 -239 -269c-75 0 -133 31 -170 86v-72h-88v750h88v-312c38 54 95 85 170 85zM322 69c92 0 159 70 159 186c0 114 -67 185 -159 185c-79 0 -130 -44 -158 -108v-155c27 -64 80 -108 158 -108z" />
    <glyph glyph-name="c" unicode="c" horiz-adv-x="594" 
d="M550 165c-31 -114 -120 -179 -238 -179c-156 0 -262 113 -262 269c0 155 106 268 262 268c118 0 206 -65 238 -182h-91c-28 64 -75 100 -147 100c-104 0 -170 -75 -170 -186c0 -112 66 -187 170 -187c72 0 119 34 146 97h92z" />
    <glyph glyph-name="cacute" unicode="&#x107;" horiz-adv-x="594" 
d="M261 619l103 133h97l-118 -133h-82zM550 165c-31 -114 -120 -179 -238 -179c-156 0 -262 113 -262 269c0 155 106 268 262 268c118 0 206 -65 238 -182h-91c-28 64 -75 100 -147 100c-104 0 -170 -75 -170 -186c0 -112 66 -187 170 -187c72 0 119 34 146 97h92z" />
    <glyph glyph-name="ccaron" unicode="&#x10d;" horiz-adv-x="594" 
d="M376 752h86l-116 -133h-69l-116 133h81l67 -71zM550 165c-31 -114 -120 -179 -238 -179c-156 0 -262 113 -262 269c0 155 106 268 262 268c118 0 206 -65 238 -182h-91c-28 64 -75 100 -147 100c-104 0 -170 -75 -170 -186c0 -112 66 -187 170 -187c72 0 119 34 146 97
h92z" />
    <glyph glyph-name="ccedilla" unicode="&#xe7;" horiz-adv-x="594" 
d="M312 68c72 0 119 34 146 97h92c-27 -99 -98 -161 -193 -176v-80c0 -68 -36 -99 -99 -99h-44v66h27c29 0 43 12 43 42v69c-141 13 -234 122 -234 268c0 155 106 268 262 268c118 0 206 -65 238 -182h-91c-28 64 -75 100 -147 100c-104 0 -170 -75 -170 -186
c0 -112 66 -187 170 -187z" />
    <glyph glyph-name="ccircumflex" unicode="&#x109;" horiz-adv-x="594" 
d="M462 619h-86l-67 71l-67 -71h-81l116 133h69zM550 165c-31 -114 -120 -179 -238 -179c-156 0 -262 113 -262 269c0 155 106 268 262 268c118 0 206 -65 238 -182h-91c-28 64 -75 100 -147 100c-104 0 -170 -75 -170 -186c0 -112 66 -187 170 -187c72 0 119 34 146 97h92z
    <glyph glyph-name="cdotaccent" unicode="&#x10b;" horiz-adv-x="594" 
d="M272 616v134h80v-134h-80zM550 165c-31 -114 -120 -179 -238 -179c-156 0 -262 113 -262 269c0 155 106 268 262 268c118 0 206 -65 238 -182h-91c-28 64 -75 100 -147 100c-104 0 -170 -75 -170 -186c0 -112 66 -187 170 -187c72 0 119 34 146 97h92z" />
    <glyph glyph-name="d" unicode="d" horiz-adv-x="623" 
d="M459 750h88v-750h-88v72c-37 -55 -95 -86 -170 -86c-137 0 -239 109 -239 269c0 159 102 268 239 268c75 0 132 -31 170 -85v312zM302 69c76 0 129 43 157 106v160c-28 62 -80 105 -157 105c-93 0 -160 -71 -160 -185c0 -116 67 -186 160 -186z" />
    <glyph glyph-name="eth" unicode="&#xf0;" horiz-adv-x="613" 
d="M406 629c85 -91 165 -221 165 -373c0 -157 -105 -270 -261 -270c-154 0 -260 113 -260 269c0 155 106 268 260 268c47 0 87 -14 118 -37c-31 46 -66 88 -103 125l-166 -38v53l120 27c-50 43 -100 76 -141 97h124c27 -17 63 -43 100 -78l144 33v-53zM310 68
c103 0 169 75 169 187c0 111 -66 186 -169 186s-168 -75 -168 -186c0 -112 65 -187 168 -187z" />
    <glyph glyph-name="dcaron" unicode="&#x10f;" horiz-adv-x="726" 
d="M459 438v312h88v-750h-88v72c-37 -55 -95 -86 -170 -86c-137 0 -239 109 -239 269c0 159 102 268 239 268c75 0 132 -31 170 -85zM631 750h95l-69 -173h-69zM302 69c76 0 129 43 157 106v160c-28 62 -80 105 -157 105c-93 0 -160 -71 -160 -185c0 -116 67 -186 160 -186z
    <glyph glyph-name="dcroat" unicode="&#x111;" horiz-adv-x="623" 
d="M610 653v-58h-63v-595h-88v72c-37 -55 -95 -86 -170 -86c-137 0 -239 109 -239 269c0 159 102 268 239 268c75 0 132 -31 170 -85v157h-176v58h176v97h88v-97h63zM302 69c76 0 129 43 157 106v160c-28 62 -80 105 -157 105c-93 0 -160 -71 -160 -185
c0 -116 67 -186 160 -186z" />
    <glyph glyph-name="e" unicode="e" horiz-adv-x="601" 
d="M554 264c0 -7 0 -18 -1 -27h-412c7 -108 67 -171 167 -171c70 0 121 31 145 74h94c-30 -90 -128 -154 -240 -154c-152 0 -257 110 -257 272c0 155 107 265 256 265c146 0 248 -101 248 -259zM306 443c-88 0 -146 -48 -162 -134h315c-13 87 -65 134 -153 134z" />
    <glyph glyph-name="eacute" unicode="&#xe9;" horiz-adv-x="601" 
d="M456 752l-118 -133h-82l103 133h97zM554 264c0 -7 0 -18 -1 -27h-412c7 -108 67 -171 167 -171c70 0 121 31 145 74h94c-30 -90 -128 -154 -240 -154c-152 0 -257 110 -257 272c0 155 107 265 256 265c146 0 248 -101 248 -259zM306 443c-88 0 -146 -48 -162 -134h315
c-13 87 -65 134 -153 134z" />
    <glyph glyph-name="ebreve" unicode="&#x115;" horiz-adv-x="601" 
d="M259 612c-73 0 -106 34 -106 91v29h74v-20c0 -28 14 -41 44 -41h69c29 0 45 13 45 41v20h73v-29c0 -57 -35 -91 -107 -91h-92zM554 264c0 -7 0 -18 -1 -27h-412c7 -108 67 -171 167 -171c70 0 121 31 145 74h94c-30 -90 -128 -154 -240 -154c-152 0 -257 110 -257 272
c0 155 107 265 256 265c146 0 248 -101 248 -259zM306 443c-88 0 -146 -48 -162 -134h315c-13 87 -65 134 -153 134z" />
    <glyph glyph-name="ecaron" unicode="&#x11b;" horiz-adv-x="601" 
d="M340 619h-69l-116 133h81l67 -71l67 71h86zM554 264c0 -7 0 -18 -1 -27h-412c7 -108 67 -171 167 -171c70 0 121 31 145 74h94c-30 -90 -128 -154 -240 -154c-152 0 -257 110 -257 272c0 155 107 265 256 265c146 0 248 -101 248 -259zM306 443c-88 0 -146 -48 -162 -134
h315c-13 87 -65 134 -153 134z" />
    <glyph glyph-name="ecircumflex" unicode="&#xea;" horiz-adv-x="601" 
d="M303 690l-67 -71h-81l116 133h69l116 -133h-86zM554 264c0 -7 0 -18 -1 -27h-412c7 -108 67 -171 167 -171c70 0 121 31 145 74h94c-30 -90 -128 -154 -240 -154c-152 0 -257 110 -257 272c0 155 107 265 256 265c146 0 248 -101 248 -259zM306 443
c-88 0 -146 -48 -162 -134h315c-13 87 -65 134 -153 134z" />
    <glyph glyph-name="edieresis" unicode="&#xeb;" horiz-adv-x="601" 
d="M239 750v-134h-80v134h80zM453 750v-134h-79v134h79zM554 264c0 -7 0 -18 -1 -27h-412c7 -108 67 -171 167 -171c70 0 121 31 145 74h94c-30 -90 -128 -154 -240 -154c-152 0 -257 110 -257 272c0 155 107 265 256 265c146 0 248 -101 248 -259zM306 443
c-88 0 -146 -48 -162 -134h315c-13 87 -65 134 -153 134z" />
    <glyph glyph-name="edotaccent" unicode="&#x117;" horiz-adv-x="601" 
d="M346 750v-134h-80v134h80zM554 264c0 -7 0 -18 -1 -27h-412c7 -108 67 -171 167 -171c70 0 121 31 145 74h94c-30 -90 -128 -154 -240 -154c-152 0 -257 110 -257 272c0 155 107 265 256 265c146 0 248 -101 248 -259zM306 443c-88 0 -146 -48 -162 -134h315
c-13 87 -65 134 -153 134z" />
    <glyph glyph-name="egrave" unicode="&#xe8;" horiz-adv-x="601" 
d="M350 619h-82l-118 133h96zM554 264c0 -7 0 -18 -1 -27h-412c7 -108 67 -171 167 -171c70 0 121 31 145 74h94c-30 -90 -128 -154 -240 -154c-152 0 -257 110 -257 272c0 155 107 265 256 265c146 0 248 -101 248 -259zM306 443c-88 0 -146 -48 -162 -134h315
c-13 87 -65 134 -153 134z" />
    <glyph glyph-name="emacron" unicode="&#x113;" horiz-adv-x="601" 
d="M486 700v-70h-360v70h360zM554 264c0 -7 0 -18 -1 -27h-412c7 -108 67 -171 167 -171c70 0 121 31 145 74h94c-30 -90 -128 -154 -240 -154c-152 0 -257 110 -257 272c0 155 107 265 256 265c146 0 248 -101 248 -259zM306 443c-88 0 -146 -48 -162 -134h315
c-13 87 -65 134 -153 134z" />
    <glyph glyph-name="eogonek" unicode="&#x119;" horiz-adv-x="601" 
d="M554 264c0 -7 0 -18 -1 -27h-412c7 -108 67 -171 167 -171c70 0 121 31 145 74h94c-22 -66 -80 -118 -154 -141c-59 -31 -124 -81 -124 -116c0 -17 12 -26 38 -26c13 0 30 1 44 7v-62c-15 -8 -44 -14 -69 -14c-54 0 -86 25 -86 69c0 49 47 97 96 129
c-144 7 -242 115 -242 272c0 155 107 265 256 265c146 0 248 -101 248 -259zM306 443c-88 0 -146 -48 -162 -134h315c-13 87 -65 134 -153 134z" />
    <glyph glyph-name="f" unicode="f" horiz-adv-x="407" 
d="M134 0v429h-100v81h100v102c0 86 52 138 152 138h144v-80h-138c-40 0 -68 -20 -68 -68v-92h155v-81h-155v-429h-90z" />
    <glyph glyph-name="g" unicode="g" horiz-adv-x="618" 
d="M459 510h88v-545c0 -103 -60 -165 -174 -165h-211v79h209c52 0 88 29 88 93v108c-37 -53 -95 -84 -170 -84c-137 0 -239 107 -239 264c0 156 102 263 239 263c75 0 132 -31 170 -84v71zM302 77c77 0 129 43 157 105v154c-28 64 -80 106 -157 106
c-93 0 -160 -70 -160 -182c0 -114 67 -183 160 -183z" />
    <glyph glyph-name="gbreve" unicode="&#x11f;" horiz-adv-x="618" 
d="M278 612c-73 0 -106 34 -106 91v29h74v-20c0 -28 14 -41 44 -41h69c29 0 45 13 45 41v20h73v-29c0 -57 -35 -91 -107 -91h-92zM459 510h88v-545c0 -103 -60 -165 -174 -165h-211v79h209c52 0 88 29 88 93v108c-37 -53 -95 -84 -170 -84c-137 0 -239 107 -239 264
c0 156 102 263 239 263c75 0 132 -31 170 -84v71zM302 77c77 0 129 43 157 105v154c-28 64 -80 106 -157 106c-93 0 -160 -70 -160 -182c0 -114 67 -183 160 -183z" />
    <glyph glyph-name="gcircumflex" unicode="&#x11d;" horiz-adv-x="618" 
d="M322 690l-67 -71h-81l116 133h69l116 -133h-86zM459 510h88v-545c0 -103 -60 -165 -174 -165h-211v79h209c52 0 88 29 88 93v108c-37 -53 -95 -84 -170 -84c-137 0 -239 107 -239 264c0 156 102 263 239 263c75 0 132 -31 170 -84v71zM302 77c77 0 129 43 157 105v154
c-28 64 -80 106 -157 106c-93 0 -160 -70 -160 -182c0 -114 67 -183 160 -183z" />
    <glyph glyph-name="uni0123" unicode="&#x123;" horiz-adv-x="618" 
d="M400 750l-40 -131h-96l64 131h72zM459 510h88v-545c0 -103 -60 -165 -174 -165h-211v79h209c52 0 88 29 88 93v108c-37 -53 -95 -84 -170 -84c-137 0 -239 107 -239 264c0 156 102 263 239 263c75 0 132 -31 170 -84v71zM302 77c77 0 129 43 157 105v154
c-28 64 -80 106 -157 106c-93 0 -160 -70 -160 -182c0 -114 67 -183 160 -183z" />
    <glyph glyph-name="gdotaccent" unicode="&#x121;" horiz-adv-x="618" 
d="M365 750v-134h-80v134h80zM459 510h88v-545c0 -103 -60 -165 -174 -165h-211v79h209c52 0 88 29 88 93v108c-37 -53 -95 -84 -170 -84c-137 0 -239 107 -239 264c0 156 102 263 239 263c75 0 132 -31 170 -84v71zM302 77c77 0 129 43 157 105v154
c-28 64 -80 106 -157 106c-93 0 -160 -70 -160 -182c0 -114 67 -183 160 -183z" />
    <glyph glyph-name="h" unicode="h" horiz-adv-x="615" 
d="M349 523c122 0 196 -81 196 -204v-319h-90v299c0 83 -43 141 -130 141c-66 0 -132 -43 -159 -100v-340h-90v750h90v-317c41 56 107 90 183 90z" />
    <glyph glyph-name="hbar" unicode="&#x127;" horiz-adv-x="615" 
d="M349 523c122 0 196 -81 196 -204v-319h-90v299c0 83 -43 141 -130 141c-66 0 -132 -43 -159 -100v-340h-90v595h-70v58h70v97h90v-97h166v-58h-166v-162c41 56 107 90 183 90z" />
    <glyph glyph-name="hcircumflex" unicode="&#x125;" horiz-adv-x="615" 
d="M254 801l-131 40l-135 -40v47l133 41h3l130 -41v-47zM349 523c122 0 196 -81 196 -204v-319h-90v299c0 83 -43 141 -130 141c-66 0 -132 -43 -159 -100v-340h-90v750h90v-317c41 56 107 90 183 90z" />
    <glyph glyph-name="i" unicode="i" horiz-adv-x="302" 
d="M227 616h-90v134h90v-134zM137 0v429h-114v81h204v-510h-90z" />
    <glyph glyph-name="dotlessi" unicode="&#x131;" horiz-adv-x="302" 
d="M137 0v429h-114v81h204v-510h-90z" />
    <glyph glyph-name="iacute" unicode="&#xed;" horiz-adv-x="302" 
d="M67 619l103 133h97l-118 -133h-82zM137 0v429h-114v81h204v-510h-90z" />
    <glyph glyph-name="ibreve" unicode="&#x12d;" horiz-adv-x="302" 
d="M71 612c-73 0 -106 34 -106 91v29h74v-20c0 -28 14 -41 44 -41h69c29 0 45 13 45 41v20h73v-29c0 -57 -35 -91 -107 -91h-92zM137 0v429h-114v81h204v-510h-90z" />
    <glyph glyph-name="icircumflex" unicode="&#xee;" horiz-adv-x="302" 
d="M268 619h-86l-67 71l-67 -71h-81l116 133h69zM137 0v429h-114v81h204v-510h-90z" />
    <glyph glyph-name="idieresis" unicode="&#xef;" horiz-adv-x="302" 
d="M15 616v134h74v-134h-74zM158 616v134h74v-134h-74zM137 0v429h-114v81h204v-510h-90z" />
    <glyph glyph-name="i.loclTRK" horiz-adv-x="302" 
d="M138 616v134h80v-134h-80zM137 0v429h-114v81h204v-510h-90z" />
    <glyph glyph-name="igrave" unicode="&#xec;" horiz-adv-x="302" 
d="M95 619l-118 133h96l104 -133h-82zM137 0v429h-114v81h204v-510h-90z" />
    <glyph glyph-name="ij" unicode="&#x133;" horiz-adv-x="610" 
d="M227 616h-90v134h90v-134zM534 616h-90v134h90v-134zM137 0v429h-114v81h204v-510h-90zM250 -200v80h141c31 0 53 17 53 56v493h-116v81h206v-584c0 -78 -47 -126 -137 -126h-147z" />
    <glyph glyph-name="imacron" unicode="&#x12b;" horiz-adv-x="302" 
d="M-2 637v65h241v-65h-241zM137 0v429h-114v81h204v-510h-90z" />
    <glyph glyph-name="iogonek" unicode="&#x12f;" horiz-adv-x="302" 
d="M137 750h90v-134h-90v134zM23 429v81h204v-510c-60 -31 -125 -82 -125 -117c0 -17 12 -26 38 -26c12 0 29 1 43 7v-62c-15 -8 -44 -14 -69 -14c-54 0 -86 25 -86 69c0 53 56 105 109 137v435h-114z" />
    <glyph glyph-name="itilde" unicode="&#x129;" horiz-adv-x="302" 
d="M-38 630v70h360v-70h-360zM137 0v429h-114v81h204v-510h-90z" />
    <glyph glyph-name="j" unicode="j" horiz-adv-x="307" 
d="M232 616h-90v134h90v-134zM-52 -200v80h141c31 0 53 17 53 56v493h-116v81h206v-584c0 -78 -47 -126 -137 -126h-147z" />
    <glyph glyph-name="uni0237" horiz-adv-x="307" 
d="M-52 -200v80h141c31 0 53 17 53 56v493h-116v81h206v-584c0 -78 -47 -126 -137 -126h-147z" />
    <glyph glyph-name="jcircumflex" unicode="&#x135;" horiz-adv-x="307" 
d="M273 619h-86l-67 71l-67 -71h-81l116 133h69zM-52 -200v80h141c31 0 53 17 53 56v493h-116v81h206v-584c0 -78 -47 -126 -137 -126h-147z" />
    <glyph glyph-name="k" unicode="k" horiz-adv-x="533" 
d="M406 0l-173 231h-67v-231h-90v750h90v-445h66l167 205h106l-196 -238l205 -272h-108z" />
    <glyph glyph-name="uni0137" unicode="&#x137;" horiz-adv-x="533" 
d="M309 272l205 -272h-108l-173 231h-67v-231h-90v750h90v-445h66l167 205h106zM203 -194l40 124h85l-63 -124h-62z" />
    <glyph glyph-name="l" unicode="l" horiz-adv-x="296" 
d="M268 0h-63c-86 0 -131 47 -131 122v548h-85v80h176v-620c0 -35 19 -50 48 -50h55v-80z" />
    <glyph glyph-name="lacute" unicode="&#x13a;" horiz-adv-x="296" 
d="M60 797v53l169 44v-58zM268 0h-63c-86 0 -131 47 -131 122v548h-85v80h176v-620c0 -35 19 -50 48 -50h55v-80z" />
    <glyph glyph-name="lcaron" unicode="&#x13e;" horiz-adv-x="356" 
d="M268 0h-63c-86 0 -131 47 -131 122v548h-85v80h176v-620c0 -35 19 -50 48 -50h55v-80zM287 577h-69l42 173h96z" />
    <glyph glyph-name="uni013C" unicode="&#x13c;" horiz-adv-x="296" 
d="M268 0h-63c-86 0 -131 47 -131 122v548h-85v80h176v-620c0 -35 19 -50 48 -50h55v-80zM112 -194l40 124h85l-63 -124h-62z" />
    <glyph glyph-name="ldot" unicode="&#x140;" horiz-adv-x="330" 
d="M268 0h-63c-86 0 -131 47 -131 122v548h-85v80h176v-620c0 -35 19 -50 48 -50h55v-80zM322 252h-80v138h80v-138z" />
    <glyph glyph-name="lslash" unicode="&#x142;" horiz-adv-x="296" 
d="M213 80h55v-80h-63c-86 0 -131 47 -131 122v184l-59 -29v81l59 28v284h-85v80h176v-320l62 30v-80l-62 -30v-220c0 -35 19 -50 48 -50z" />
    <glyph glyph-name="m" unicode="m" horiz-adv-x="865" 
d="M639 523c97 0 157 -68 157 -171v-352h-86v326c0 67 -35 114 -104 114c-50 0 -99 -33 -125 -75v-13v-352h-86v326c0 67 -34 114 -103 114c-54 0 -107 -39 -131 -86v-354h-85v510h85v-69c38 50 98 82 163 82c70 0 119 -34 143 -91c38 55 102 91 172 91z" />
    <glyph glyph-name="n" unicode="n" horiz-adv-x="615" 
d="M350 523c121 0 195 -80 195 -202v-321h-90v301c0 82 -43 139 -129 139c-66 0 -133 -44 -160 -101v-339h-90v510h90v-78c42 57 108 91 184 91z" />
    <glyph glyph-name="nacute" unicode="&#x144;" horiz-adv-x="615" 
d="M454 752l-119 -133h-81l103 133h97zM350 523c121 0 195 -80 195 -202v-321h-90v301c0 82 -43 139 -129 139c-66 0 -133 -44 -160 -101v-339h-90v510h90v-78c42 57 108 91 184 91z" />
    <glyph glyph-name="ncaron" unicode="&#x148;" horiz-adv-x="615" 
d="M354 619h-69l-116 133h81l67 -71l67 71h86zM350 523c121 0 195 -80 195 -202v-321h-90v301c0 82 -43 139 -129 139c-66 0 -133 -44 -160 -101v-339h-90v510h90v-78c42 57 108 91 184 91z" />
    <glyph glyph-name="uni0146" unicode="&#x146;" horiz-adv-x="615" 
d="M350 523c121 0 195 -80 195 -202v-321h-90v301c0 82 -43 139 -129 139c-66 0 -133 -44 -160 -101v-339h-90v510h90v-78c42 57 108 91 184 91zM244 -194l40 124h85l-63 -124h-62z" />
    <glyph glyph-name="eng" unicode="&#x14b;" horiz-adv-x="621" 
d="M350 523c121 0 195 -80 195 -202v-395c0 -78 -46 -126 -137 -126h-129v80h123c31 0 53 17 53 56v365c0 82 -43 139 -129 139c-66 0 -133 -44 -160 -101v-339h-90v510h90v-78c42 57 108 91 184 91z" />
    <glyph glyph-name="ntilde" unicode="&#xf1;" horiz-adv-x="615" 
d="M499 700v-70h-360v70h360zM350 523c121 0 195 -80 195 -202v-321h-90v301c0 82 -43 139 -129 139c-66 0 -133 -44 -160 -101v-339h-90v510h90v-78c42 57 108 91 184 91z" />
    <glyph glyph-name="o" unicode="o" horiz-adv-x="621" 
d="M310 -14c-154 0 -260 113 -260 269c0 155 106 268 260 268c156 0 261 -113 261 -268c0 -156 -105 -269 -261 -269zM310 68c103 0 169 75 169 187c0 111 -66 186 -169 186s-168 -75 -168 -186c0 -112 65 -187 168 -187z" />
    <glyph glyph-name="oacute" unicode="&#xf3;" horiz-adv-x="621" 
d="M260 619l103 133h97l-118 -133h-82zM310 -14c-154 0 -260 113 -260 269c0 155 106 268 260 268c156 0 261 -113 261 -268c0 -156 -105 -269 -261 -269zM310 68c103 0 169 75 169 187c0 111 -66 186 -169 186s-168 -75 -168 -186c0 -112 65 -187 168 -187z" />
    <glyph glyph-name="obreve" unicode="&#x14f;" horiz-adv-x="621" 
d="M264 612c-73 0 -106 34 -106 91v29h74v-20c0 -28 14 -41 44 -41h69c29 0 45 13 45 41v20h73v-29c0 -57 -35 -91 -107 -91h-92zM310 -14c-154 0 -260 113 -260 269c0 155 106 268 260 268c156 0 261 -113 261 -268c0 -156 -105 -269 -261 -269zM310 68
c103 0 169 75 169 187c0 111 -66 186 -169 186s-168 -75 -168 -186c0 -112 65 -187 168 -187z" />
    <glyph glyph-name="ocircumflex" unicode="&#xf4;" horiz-adv-x="621" 
d="M461 619h-86l-67 71l-67 -71h-81l116 133h69zM310 -14c-154 0 -260 113 -260 269c0 155 106 268 260 268c156 0 261 -113 261 -268c0 -156 -105 -269 -261 -269zM310 68c103 0 169 75 169 187c0 111 -66 186 -169 186s-168 -75 -168 -186c0 -112 65 -187 168 -187z" />
    <glyph glyph-name="odieresis" unicode="&#xf6;" horiz-adv-x="621" 
d="M163 616v134h80v-134h-80zM378 616v134h79v-134h-79zM310 -14c-154 0 -260 113 -260 269c0 155 106 268 260 268c156 0 261 -113 261 -268c0 -156 -105 -269 -261 -269zM310 68c103 0 169 75 169 187c0 111 -66 186 -169 186s-168 -75 -168 -186c0 -112 65 -187 168 -187
    <glyph glyph-name="ograve" unicode="&#xf2;" horiz-adv-x="621" 
d="M272 619l-118 133h96l104 -133h-82zM310 -14c-154 0 -260 113 -260 269c0 155 106 268 260 268c156 0 261 -113 261 -268c0 -156 -105 -269 -261 -269zM310 68c103 0 169 75 169 187c0 111 -66 186 -169 186s-168 -75 -168 -186c0 -112 65 -187 168 -187z" />
    <glyph glyph-name="ohungarumlaut" unicode="&#x151;" horiz-adv-x="621" 
d="M208 619l83 133h80l-85 -133h-78zM341 619l84 133h81l-87 -133h-78zM310 -14c-154 0 -260 113 -260 269c0 155 106 268 260 268c156 0 261 -113 261 -268c0 -156 -105 -269 -261 -269zM310 68c103 0 169 75 169 187c0 111 -66 186 -169 186s-168 -75 -168 -186
c0 -112 65 -187 168 -187z" />
    <glyph glyph-name="omacron" unicode="&#x14d;" horiz-adv-x="621" 
d="M131 630v70h360v-70h-360zM310 -14c-154 0 -260 113 -260 269c0 155 106 268 260 268c156 0 261 -113 261 -268c0 -156 -105 -269 -261 -269zM310 68c103 0 169 75 169 187c0 111 -66 186 -169 186s-168 -75 -168 -186c0 -112 65 -187 168 -187z" />
    <glyph glyph-name="oslash" unicode="&#xf8;" horiz-adv-x="621" 
d="M579 510l-70 -74c40 -47 62 -110 62 -181c0 -156 -105 -269 -261 -269c-66 0 -124 21 -168 57l-40 -43h-60l69 74c-39 47 -61 109 -61 181c0 155 106 268 260 268c67 0 124 -21 168 -56l40 43h61zM142 255c0 -45 11 -85 30 -115l247 264c-28 24 -65 37 -109 37
c-103 0 -168 -75 -168 -186zM479 255c0 45 -11 84 -31 115l-247 -264c28 -24 65 -38 109 -38c103 0 169 75 169 187z" />
    <glyph glyph-name="oslashacute" unicode="&#x1ff;" horiz-adv-x="621" 
d="M462 752l-118 -133h-82l103 133h97zM579 510l-70 -74c40 -47 62 -110 62 -181c0 -156 -105 -269 -261 -269c-66 0 -124 21 -168 57l-40 -43h-60l69 74c-39 47 -61 109 -61 181c0 155 106 268 260 268c67 0 124 -21 168 -56l40 43h61zM142 255c0 -45 11 -85 30 -115
l247 264c-28 24 -65 37 -109 37c-103 0 -168 -75 -168 -186zM479 255c0 45 -11 84 -31 115l-247 -264c28 -24 65 -38 109 -38c103 0 169 75 169 187z" />
    <glyph glyph-name="otilde" unicode="&#xf5;" horiz-adv-x="621" 
d="M131 630v70h360v-70h-360zM310 -14c-154 0 -260 113 -260 269c0 155 106 268 260 268c156 0 261 -113 261 -268c0 -156 -105 -269 -261 -269zM310 68c103 0 169 75 169 187c0 111 -66 186 -169 186s-168 -75 -168 -186c0 -112 65 -187 168 -187z" />
    <glyph glyph-name="oe" unicode="&#x153;" horiz-adv-x="1036" 
d="M989 264c0 -7 0 -18 -1 -27h-411c6 -108 66 -171 166 -171c71 0 121 31 145 74h95c-31 -90 -128 -154 -241 -154c-95 0 -172 45 -214 121c-43 -75 -121 -121 -218 -121c-154 0 -260 113 -260 269c0 155 106 268 260 268c97 0 175 -46 218 -120c42 74 119 120 213 120
c147 0 248 -101 248 -259zM741 443c-88 0 -145 -48 -161 -134h314c-13 87 -65 134 -153 134zM310 68c103 0 169 75 169 187c0 111 -66 186 -169 186s-168 -75 -168 -186c0 -112 65 -187 168 -187z" />
    <glyph glyph-name="p" unicode="p" horiz-adv-x="623" 
d="M334 523c137 0 239 -109 239 -268s-102 -269 -239 -269c-75 0 -133 31 -170 86v-272h-88v710h88v-73c38 55 95 86 170 86zM322 69c92 0 159 71 159 186c0 114 -67 185 -159 185c-78 0 -130 -43 -158 -107v-158c28 -62 81 -106 158 -106z" />
    <glyph glyph-name="thorn" unicode="&#xfe;" horiz-adv-x="623" 
d="M334 523c137 0 239 -109 239 -268s-102 -269 -239 -269c-75 0 -133 31 -170 86v-272h-88v950h88v-313c38 55 95 86 170 86zM322 69c92 0 159 71 159 186c0 114 -67 185 -159 185c-78 0 -130 -43 -158 -107v-158c28 -62 81 -106 158 -106z" />
    <glyph glyph-name="q" unicode="q" horiz-adv-x="623" 
d="M459 510h88v-710h-88v272c-37 -55 -95 -86 -170 -86c-137 0 -239 109 -239 269c0 159 102 268 239 268c75 0 132 -31 170 -86v73zM302 69c77 0 129 43 157 106v158c-28 64 -81 107 -157 107c-93 0 -160 -71 -160 -185c0 -116 67 -186 160 -186z" />
    <glyph glyph-name="r" unicode="r" horiz-adv-x="400" 
d="M319 510h49v-81h-55c-74 0 -124 -34 -150 -77v-352h-90v510h90v-81c34 49 87 81 156 81z" />
    <glyph glyph-name="racute" unicode="&#x155;" horiz-adv-x="400" 
d="M371 752l-118 -133h-82l103 133h97zM163 429c34 49 87 81 156 81h49v-81h-55c-74 0 -124 -34 -150 -77v-352h-90v510h90v-81z" />
    <glyph glyph-name="rcaron" unicode="&#x159;" horiz-adv-x="400" 
d="M256 619h-69l-116 133h81l67 -71l67 71h86zM163 429c34 49 87 81 156 81h49v-81h-55c-74 0 -124 -34 -150 -77v-352h-90v510h90v-81z" />
    <glyph glyph-name="uni0157" unicode="&#x157;" horiz-adv-x="400" 
d="M319 510h49v-81h-55c-74 0 -124 -34 -150 -77v-352h-90v510h90v-81c34 49 87 81 156 81zM37 -194l40 124h85l-63 -124h-62z" />
    <glyph glyph-name="s" unicode="s" horiz-adv-x="515" 
d="M269 -14c-138 0 -218 70 -227 174h92c11 -59 57 -96 134 -96c76 0 123 30 123 81c0 50 -27 74 -129 81c-153 9 -204 56 -204 144c0 95 76 153 202 153c128 0 198 -59 212 -153h-91c-11 45 -47 76 -122 76c-69 0 -112 -27 -112 -72c0 -46 23 -65 126 -71
c154 -10 208 -57 208 -154c0 -102 -80 -163 -212 -163z" />
    <glyph glyph-name="sacute" unicode="&#x15b;" horiz-adv-x="515" 
d="M210 619l103 133h97l-118 -133h-82zM269 -14c-138 0 -218 70 -227 174h92c11 -59 57 -96 134 -96c76 0 123 30 123 81c0 50 -27 74 -129 81c-153 9 -204 56 -204 144c0 95 76 153 202 153c128 0 198 -59 212 -153h-91c-11 45 -47 76 -122 76c-69 0 -112 -27 -112 -72
c0 -46 23 -65 126 -71c154 -10 208 -57 208 -154c0 -102 -80 -163 -212 -163z" />
    <glyph glyph-name="scaron" unicode="&#x161;" horiz-adv-x="515" 
d="M324 752h86l-116 -133h-69l-116 133h81l67 -71zM269 -14c-138 0 -218 70 -227 174h92c11 -59 57 -96 134 -96c76 0 123 30 123 81c0 50 -27 74 -129 81c-153 9 -204 56 -204 144c0 95 76 153 202 153c128 0 198 -59 212 -153h-91c-11 45 -47 76 -122 76
c-69 0 -112 -27 -112 -72c0 -46 23 -65 126 -71c154 -10 208 -57 208 -154c0 -102 -80 -163 -212 -163z" />
    <glyph glyph-name="scedilla" unicode="&#x15f;" horiz-adv-x="515" 
d="M481 149c0 -88 -59 -145 -159 -159v-81c0 -68 -36 -99 -99 -99h-44v66h27c29 0 43 13 43 42v69c-126 6 -198 74 -207 173h92c11 -59 57 -96 134 -96c76 0 123 30 123 81c0 50 -27 74 -129 81c-153 9 -204 56 -204 144c0 95 76 153 202 153c128 0 198 -59 212 -153h-91
c-11 45 -47 76 -122 76c-69 0 -112 -27 -112 -72c0 -46 23 -65 126 -71c154 -10 208 -57 208 -154z" />
    <glyph glyph-name="scircumflex" unicode="&#x15d;" horiz-adv-x="515" 
d="M410 619h-86l-67 71l-67 -71h-81l116 133h69zM269 -14c-138 0 -218 70 -227 174h92c11 -59 57 -96 134 -96c76 0 123 30 123 81c0 50 -27 74 -129 81c-153 9 -204 56 -204 144c0 95 76 153 202 153c128 0 198 -59 212 -153h-91c-11 45 -47 76 -122 76
c-69 0 -112 -27 -112 -72c0 -46 23 -65 126 -71c154 -10 208 -57 208 -154c0 -102 -80 -163 -212 -163z" />
    <glyph glyph-name="uni0219" unicode="&#x219;" horiz-adv-x="515" 
d="M269 -14c-138 0 -218 70 -227 174h92c11 -59 57 -96 134 -96c76 0 123 30 123 81c0 50 -27 74 -129 81c-153 9 -204 56 -204 144c0 95 76 153 202 153c128 0 198 -59 212 -153h-91c-11 45 -47 76 -122 76c-69 0 -112 -27 -112 -72c0 -46 23 -65 126 -71
c154 -10 208 -57 208 -154c0 -102 -80 -163 -212 -163zM210 -194l40 124h85l-63 -124h-62z" />
    <glyph glyph-name="germandbls" unicode="&#xdf;" horiz-adv-x="677" 
d="M494 422c107 -30 157 -113 157 -208c0 -142 -88 -228 -234 -228c-126 0 -203 72 -213 176h99c10 -59 52 -96 119 -96c81 0 130 55 130 147c0 83 -42 160 -174 160h-114v81h96c101 0 138 59 138 115c0 62 -46 113 -134 113h-53c-90 0 -149 -60 -149 -159v-584
c0 -87 -53 -139 -153 -139h-53v74h48c40 0 68 20 68 68v579c0 148 88 243 238 243h59c129 0 217 -81 217 -187c0 -66 -32 -125 -92 -155z" />
    <glyph glyph-name="t" unicode="t" horiz-adv-x="403" 
d="M378 0h-121c-97 0 -147 51 -147 135v294h-101v81h101v171h90v-171h175v-81h-175v-283c0 -46 26 -66 62 -66h116v-80z" />
    <glyph glyph-name="tbar" unicode="&#x167;" horiz-adv-x="403" 
d="M262 80h116v-80h-121c-97 0 -147 51 -147 135v102h-71v59h71v133h-101v81h101v171h90v-171h175v-81h-175v-133h99v-59h-99v-91c0 -46 26 -66 62 -66z" />
    <glyph glyph-name="tcaron" unicode="&#x165;" horiz-adv-x="428" 
d="M358 592h-68l37 158h96zM378 0h-121c-97 0 -147 51 -147 135v294h-101v81h101v171h90v-171h175v-81h-175v-283c0 -46 26 -66 62 -66h116v-80z" />
    <glyph glyph-name="u" unicode="u" horiz-adv-x="605" 
d="M438 510h91v-510h-91v75c-41 -56 -105 -89 -179 -89c-117 0 -190 80 -190 202v322h91v-302c0 -82 42 -139 124 -139c64 0 127 42 154 98v343z" />
    <glyph glyph-name="uacute" unicode="&#xfa;" horiz-adv-x="605" 
d="M445 752l-118 -133h-82l103 133h97zM438 510h91v-510h-91v75c-41 -56 -105 -89 -179 -89c-117 0 -190 80 -190 202v322h91v-302c0 -82 42 -139 124 -139c64 0 127 42 154 98v343z" />
    <glyph glyph-name="ubreve" unicode="&#x16d;" horiz-adv-x="605" 
d="M251 612c-73 0 -106 34 -106 91v29h74v-20c0 -28 14 -41 44 -41h69c29 0 45 13 45 41v20h73v-29c0 -57 -35 -91 -107 -91h-92zM438 510h91v-510h-91v75c-41 -56 -105 -89 -179 -89c-117 0 -190 80 -190 202v322h91v-302c0 -82 42 -139 124 -139c64 0 127 42 154 98v343z
    <glyph glyph-name="ucircumflex" unicode="&#xfb;" horiz-adv-x="605" 
d="M296 690l-67 -71h-81l116 133h69l116 -133h-86zM438 510h91v-510h-91v75c-41 -56 -105 -89 -179 -89c-117 0 -190 80 -190 202v322h91v-302c0 -82 42 -139 124 -139c64 0 127 42 154 98v343z" />
    <glyph glyph-name="udieresis" unicode="&#xfc;" horiz-adv-x="605" 
d="M231 750v-134h-80v134h80zM445 750v-134h-79v134h79zM438 510h91v-510h-91v75c-41 -56 -105 -89 -179 -89c-117 0 -190 80 -190 202v322h91v-302c0 -82 42 -139 124 -139c64 0 127 42 154 98v343z" />
    <glyph glyph-name="ugrave" unicode="&#xf9;" horiz-adv-x="605" 
d="M346 619h-83l-117 133h96zM438 510h91v-510h-91v75c-41 -56 -105 -89 -179 -89c-117 0 -190 80 -190 202v322h91v-302c0 -82 42 -139 124 -139c64 0 127 42 154 98v343z" />
    <glyph glyph-name="uhungarumlaut" unicode="&#x171;" horiz-adv-x="605" 
d="M358 752l-85 -133h-78l83 133h80zM406 619h-78l84 133h81zM438 510h91v-510h-91v75c-41 -56 -105 -89 -179 -89c-117 0 -190 80 -190 202v322h91v-302c0 -82 42 -139 124 -139c64 0 127 42 154 98v343z" />
    <glyph glyph-name="umacron" unicode="&#x16b;" horiz-adv-x="605" 
d="M478 700v-70h-360v70h360zM438 510h91v-510h-91v75c-41 -56 -105 -89 -179 -89c-117 0 -190 80 -190 202v322h91v-302c0 -82 42 -139 124 -139c64 0 127 42 154 98v343z" />
    <glyph glyph-name="uni0163" unicode="&#x163;" horiz-adv-x="403" 
d="M378 80v-80h-86v-91c0 -68 -36 -99 -99 -99h-44v66h27c29 0 43 12 43 42v85c-72 12 -109 60 -109 132v294h-101v81h101v171h90v-171h175v-81h-175v-283c0 -46 26 -66 62 -66h116z" />
    <glyph glyph-name="uni021B" unicode="&#x21b;" horiz-adv-x="403" 
d="M378 0h-121c-97 0 -147 51 -147 135v294h-101v81h101v171h90v-171h175v-81h-175v-283c0 -46 26 -66 62 -66h116v-80zM197 -194l40 124h85l-63 -124h-62z" />
    <glyph glyph-name="uogonek" unicode="&#x173;" horiz-adv-x="605" 
d="M529 0c-60 -31 -125 -82 -125 -117c0 -17 12 -26 38 -26c12 0 29 1 43 7v-62c-15 -8 -44 -14 -69 -14c-54 0 -86 25 -86 69c0 56 63 111 118 143h-10v75c-41 -56 -105 -89 -179 -89c-117 0 -190 80 -190 202v322h91v-302c0 -82 42 -139 124 -139c64 0 127 42 154 98v343
h91v-510z" />
    <glyph glyph-name="uring" unicode="&#x16f;" horiz-adv-x="605" 
d="M298 609c-47 0 -86 38 -86 86c0 47 39 85 86 85s86 -38 86 -85c0 -48 -39 -86 -86 -86zM298 734c-22 0 -41 -17 -41 -39c0 -23 19 -40 41 -40s41 17 41 40c0 22 -19 39 -41 39zM438 510h91v-510h-91v75c-41 -56 -105 -89 -179 -89c-117 0 -190 80 -190 202v322h91v-302
c0 -82 42 -139 124 -139c64 0 127 42 154 98v343z" />
    <glyph glyph-name="utilde" unicode="&#x169;" horiz-adv-x="605" 
d="M478 700v-70h-360v70h360zM438 510h91v-510h-91v75c-41 -56 -105 -89 -179 -89c-117 0 -190 80 -190 202v322h91v-302c0 -82 42 -139 124 -139c64 0 127 42 154 98v343z" />
    <glyph glyph-name="v" unicode="v" horiz-adv-x="502" 
d="M310 0h-118l-168 510h91l135 -427h3l134 427h92z" />
    <glyph glyph-name="w" unicode="w" horiz-adv-x="765" 
d="M652 510h89l-135 -510h-119l-104 364l-105 -364h-118l-136 510h89l108 -421h3l118 399h81l119 -399h3z" />
    <glyph glyph-name="wacute" unicode="&#x1e83;" horiz-adv-x="765" 
d="M532 752l-118 -133h-82l103 133h97zM652 510h89l-135 -510h-119l-104 364l-105 -364h-118l-136 510h89l108 -421h3l118 399h81l119 -399h3z" />
    <glyph glyph-name="wcircumflex" unicode="&#x175;" horiz-adv-x="765" 
d="M380 690l-67 -71h-81l116 133h69l116 -133h-86zM652 510h89l-135 -510h-119l-104 364l-105 -364h-118l-136 510h89l108 -421h3l118 399h81l119 -399h3z" />
    <glyph glyph-name="wdieresis" unicode="&#x1e85;" horiz-adv-x="765" 
d="M315 750v-134h-80v134h80zM529 750v-134h-79v134h79zM652 510h89l-135 -510h-119l-104 364l-105 -364h-118l-136 510h89l108 -421h3l118 399h81l119 -399h3z" />
    <glyph glyph-name="wgrave" unicode="&#x1e81;" horiz-adv-x="765" 
d="M426 619h-82l-118 133h96zM652 510h89l-135 -510h-119l-104 364l-105 -364h-118l-136 510h89l108 -421h3l118 399h81l119 -399h3z" />
    <glyph glyph-name="x" unicode="x" horiz-adv-x="512" 
d="M492 0h-100l-139 199l-133 -199h-99l182 260l-175 250h100l125 -187l126 187h100l-176 -249z" />
    <glyph glyph-name="y" unicode="y" horiz-adv-x="505" 
d="M391 510h91l-216 -600c-26 -72 -60 -110 -140 -110h-86v80h80c37 0 55 16 68 51l26 71l-190 508h91l139 -394h3z" />
    <glyph glyph-name="yacute" unicode="&#xfd;" horiz-adv-x="505" 
d="M402 752l-118 -133h-82l103 133h97zM391 510h91l-216 -600c-26 -72 -60 -110 -140 -110h-86v80h80c37 0 55 16 68 51l26 71l-190 508h91l139 -394h3z" />
    <glyph glyph-name="ycircumflex" unicode="&#x177;" horiz-adv-x="505" 
d="M250 690l-67 -71h-81l116 133h69l116 -133h-86zM391 510h91l-216 -600c-26 -72 -60 -110 -140 -110h-86v80h80c37 0 55 16 68 51l26 71l-190 508h91l139 -394h3z" />
    <glyph glyph-name="ydieresis" unicode="&#xff;" horiz-adv-x="505" 
d="M185 750v-134h-80v134h80zM399 750v-134h-79v134h79zM391 510h91l-216 -600c-26 -72 -60 -110 -140 -110h-86v80h80c37 0 55 16 68 51l26 71l-190 508h91l139 -394h3z" />
    <glyph glyph-name="ygrave" unicode="&#x1ef3;" horiz-adv-x="505" 
d="M296 619h-82l-118 133h96zM391 510h91l-216 -600c-26 -72 -60 -110 -140 -110h-86v80h80c37 0 55 16 68 51l26 71l-190 508h91l139 -394h3z" />
    <glyph glyph-name="z" unicode="z" horiz-adv-x="513" 
d="M477 0h-436v71l316 355v3h-304v81h413v-80l-305 -347v-3h316v-80z" />
    <glyph glyph-name="zacute" unicode="&#x17a;" horiz-adv-x="513" 
d="M206 619l103 133h97l-118 -133h-82zM477 0h-436v71l316 355v3h-304v81h413v-80l-305 -347v-3h316v-80z" />
    <glyph glyph-name="zcaron" unicode="&#x17e;" horiz-adv-x="513" 
d="M321 752h86l-116 -133h-69l-116 133h81l67 -71zM477 0h-436v71l316 355v3h-304v81h413v-80l-305 -347v-3h316v-80z" />
    <glyph glyph-name="zdotaccent" unicode="&#x17c;" horiz-adv-x="513" 
d="M216 616v134h80v-134h-80zM477 0h-436v71l316 355v3h-304v81h413v-80l-305 -347v-3h316v-80z" />
    <glyph glyph-name="iacute_j.loclNLD" horiz-adv-x="610" 
d="M85 619l104 133h96l-118 -133h-82zM393 619l104 133h96l-118 -133h-82zM137 0v429h-114v81h204v-510h-90zM250 -200v80h141c31 0 53 17 53 56v493h-115v81h205v-584c0 -78 -46 -126 -137 -126h-147z" />
    <glyph glyph-name="ordfeminine" unicode="&#xaa;" horiz-adv-x="322" 
d="M233 526c-21 -27 -51 -44 -87 -44c-70 0 -129 59 -129 141c0 80 59 141 129 141c36 0 66 -17 87 -44v37h57v-268h-57v37zM74 623c0 -51 36 -88 80 -88c37 0 66 23 79 52v72c-13 28 -42 51 -79 51c-44 0 -80 -36 -80 -87zM284 352h-236v53h236v-53z" />
    <glyph glyph-name="ordmasculine" unicode="&#xba;" horiz-adv-x="331" 
d="M164 482c-83 0 -144 61 -144 141c0 79 61 141 144 141c84 0 145 -62 145 -141c0 -80 -61 -141 -145 -141zM164 534c51 0 88 39 88 89c0 49 -37 87 -88 87s-88 -38 -88 -87c0 -50 37 -89 88 -89zM47 352v53h234v-53h-234z" />
    <glyph glyph-name="a.subs" horiz-adv-x="330" 
d="M196 234c64 0 98 -32 98 -88v-209h-69v39c-22 -30 -58 -47 -103 -47c-62 0 -103 35 -103 88c0 49 34 80 90 87l116 15v19c0 22 -12 35 -34 35h-144v61h149zM141 -20c39 0 73 22 84 54v39l-92 -14c-28 -5 -44 -17 -44 -40c0 -24 19 -39 52 -39z" />
    <glyph glyph-name="b.subs" horiz-adv-x="358" 
d="M198 241c80 0 134 -63 134 -155c0 -94 -55 -157 -135 -157c-40 0 -70 16 -90 44v-36h-69v434h69v-173c20 27 51 43 91 43zM182 -6c47 0 80 33 80 92c0 57 -32 91 -79 91c-38 0 -63 -20 -76 -50v-84c13 -29 38 -49 75 -49z" />
    <glyph glyph-name="c.subs" horiz-adv-x="343" 
d="M319 41c-14 -72 -68 -112 -141 -112c-92 0 -153 65 -153 156c0 92 61 156 153 156c73 0 126 -41 142 -114h-68c-13 33 -36 51 -74 51c-51 0 -84 -37 -84 -93c0 -55 33 -93 84 -93c37 0 59 17 73 49h68z" />
    <glyph glyph-name="d.subs" horiz-adv-x="358" 
d="M250 371h70v-434h-70v36c-20 -28 -50 -44 -90 -44c-80 0 -135 63 -135 157c0 92 55 155 135 155c39 0 70 -16 90 -42v172zM175 -6c36 0 61 19 75 47v88c-13 29 -39 48 -75 48c-47 0 -79 -34 -79 -91c0 -59 32 -92 79 -92z" />
    <glyph glyph-name="e.subs" horiz-adv-x="349" 
d="M324 89v-17h-230c4 -56 34 -86 85 -86c36 0 61 14 72 35h68c-16 -53 -71 -92 -141 -92c-92 0 -153 64 -153 158c0 90 62 154 152 154c92 0 147 -63 147 -152zM177 186c-44 0 -72 -23 -81 -67h158c-8 44 -33 67 -77 67z" />
    <glyph glyph-name="f.subs" horiz-adv-x="250" 
d="M71 -63v236h-53v61h53v50c0 55 33 87 97 87h88v-59h-80c-20 0 -34 -11 -34 -34v-44h85v-61h-85v-236h-71z" />
    <glyph glyph-name="g.subs" horiz-adv-x="356" 
d="M250 234h70v-315c0 -61 -36 -98 -106 -98h-124v57h119c24 0 41 14 41 44v57c-20 -27 -50 -42 -90 -42c-80 0 -135 62 -135 153c0 89 55 151 135 151c39 0 70 -16 90 -41v34zM175 -1c37 0 61 21 75 48v85c-14 27 -38 48 -75 48c-47 0 -79 -34 -79 -90c0 -58 32 -91 79 -91
    <glyph glyph-name="h.subs" horiz-adv-x="356" 
d="M214 241c66 0 108 -45 108 -114v-190h-72v170c0 42 -21 70 -64 70c-32 0 -64 -20 -77 -46v-194h-71v434h71v-178c24 30 62 48 105 48z" />
    <glyph glyph-name="i.subs" horiz-adv-x="185" 
d="M148 288h-72v83h72v-83zM76 -63v236h-70v61h142v-297h-72z" />
    <glyph glyph-name="j.subs" horiz-adv-x="187" 
d="M150 288h-72v83h72v-83zM-26 -179v61h77c16 0 27 8 27 28v263h-71v61h143v-332c0 -50 -30 -81 -90 -81h-86z" />
    <glyph glyph-name="k.subs" horiz-adv-x="322" 
d="M231 -63l-87 126h-35v-126h-71v434h71v-252h34l85 115h79l-104 -139l110 -158h-82z" />
    <glyph glyph-name="l.subs" horiz-adv-x="178" 
d="M164 -63h-43c-56 0 -85 30 -85 81v293h-44v60h116v-347c0 -19 10 -27 25 -27h31v-60z" />
    <glyph glyph-name="m.subs" horiz-adv-x="501" 
d="M379 241c54 0 87 -37 87 -96v-208h-66v182c0 35 -17 58 -52 58c-24 0 -49 -16 -62 -36v-204h-66v182c0 35 -17 58 -53 58c-26 0 -51 -17 -63 -40v-200h-66v297h66v-38c22 28 57 45 94 45c39 0 67 -19 80 -51c22 31 60 51 101 51z" />
    <glyph glyph-name="n.subs" horiz-adv-x="356" 
d="M214 241c66 0 108 -44 108 -113v-191h-72v171c0 41 -21 69 -64 69c-32 0 -63 -20 -77 -46v-194h-71v297h71v-41c24 30 63 48 105 48z" />
    <glyph glyph-name="o.subs" horiz-adv-x="356" 
d="M330 85c0 -91 -60 -156 -153 -156c-91 0 -152 65 -152 156c0 92 61 156 152 156c93 0 153 -64 153 -156zM94 85c0 -56 32 -93 83 -93c52 0 84 37 84 93s-32 93 -84 93c-51 0 -83 -37 -83 -93z" />
    <glyph glyph-name="p.subs" horiz-adv-x="358" 
d="M198 241c80 0 134 -63 134 -156s-55 -156 -135 -156c-40 0 -70 16 -90 45v-153h-69v413h69v-36c20 27 51 43 91 43zM182 -6c47 0 80 33 80 91s-32 92 -79 92c-38 0 -63 -20 -76 -50v-84c13 -29 38 -49 75 -49z" />
    <glyph glyph-name="q.subs" horiz-adv-x="358" 
d="M250 234h70v-413h-70v151c-20 -28 -50 -43 -90 -43c-80 0 -135 63 -135 156s55 156 135 156c39 0 70 -16 90 -41v34zM175 -6c36 0 61 19 75 47v87c-14 29 -39 49 -75 49c-47 0 -79 -34 -79 -92s32 -91 79 -91z" />
    <glyph glyph-name="r.subs" horiz-adv-x="239" 
d="M194 234h30v-61h-41c-36 0 -62 -17 -75 -40v-196h-71v297h71v-44c19 28 49 44 86 44z" />
    <glyph glyph-name="s.subs" horiz-adv-x="308" 
d="M160 -71c-85 0 -135 39 -139 101h70c5 -30 29 -47 69 -47c39 0 62 15 62 40c0 26 -14 37 -72 41c-88 6 -121 34 -121 85c0 59 47 92 126 92s123 -33 130 -89h-69c-5 22 -24 37 -61 37c-35 0 -57 -14 -57 -36c0 -23 13 -32 70 -36c89 -6 123 -34 123 -90
c0 -62 -49 -98 -131 -98z" />
    <glyph glyph-name="t.subs" horiz-adv-x="238" 
d="M225 -63h-70c-63 0 -95 32 -95 86v150h-54v61h54v98h72v-98h92v-61h-92v-142c0 -23 12 -34 31 -34h62v-60z" />
    <glyph glyph-name="u.subs" horiz-adv-x="352" 
d="M243 234h71v-297h-71v40c-24 -30 -62 -48 -103 -48c-65 0 -105 44 -105 113v192h71v-172c0 -41 21 -68 62 -68c31 0 60 20 75 44v196z" />
    <glyph glyph-name="v.subs" horiz-adv-x="300" 
d="M196 -63h-93l-92 297h72l66 -235h1l67 235h72z" />
    <glyph glyph-name="w.subs" horiz-adv-x="458" 
d="M378 234h69l-75 -297h-90l-53 199l-53 -199h-89l-76 297h69l55 -226h1l61 213h64l61 -213h2z" />
    <glyph glyph-name="x.subs" horiz-adv-x="308" 
d="M299 -63h-77l-69 103l-67 -103h-76l102 151l-98 146h76l63 -97l62 97h77l-99 -146z" />
    <glyph glyph-name="y.subs" horiz-adv-x="304" 
d="M222 234h71l-123 -342c-17 -47 -40 -71 -90 -71h-56v61h48c21 0 32 8 39 27l12 34l-112 291h72l70 -206h2z" />
    <glyph glyph-name="z.subs" horiz-adv-x="298" 
d="M279 -63h-258v47l168 187v2h-161v61h245v-55l-160 -180v-2h166v-60z" />
    <glyph glyph-name="a.sups" horiz-adv-x="330" 
d="M196 749c64 0 98 -32 98 -88v-209h-69v39c-22 -30 -58 -47 -103 -47c-62 0 -103 35 -103 88c0 49 34 80 90 87l116 15v20c0 21 -12 34 -34 34h-144v61h149zM141 495c39 0 73 22 84 54v39l-92 -14c-28 -5 -44 -17 -44 -40c0 -24 19 -39 52 -39z" />
    <glyph glyph-name="b.sups" horiz-adv-x="358" 
d="M198 756c80 0 134 -63 134 -155c0 -94 -55 -157 -135 -157c-40 0 -70 16 -90 44v-36h-69v435h69v-174c20 27 51 43 91 43zM182 509c47 0 80 33 80 92c0 57 -32 91 -79 91c-38 0 -63 -20 -76 -50v-84c13 -29 38 -49 75 -49z" />
    <glyph glyph-name="c.sups" horiz-adv-x="343" 
d="M319 556c-14 -72 -68 -112 -141 -112c-92 0 -153 65 -153 156c0 92 61 156 153 156c73 0 126 -41 142 -114h-68c-13 33 -36 51 -74 51c-51 0 -84 -37 -84 -93c0 -55 33 -93 84 -93c37 0 59 17 73 49h68z" />
    <glyph glyph-name="d.sups" horiz-adv-x="358" 
d="M250 887h70v-435h-70v36c-20 -28 -50 -44 -90 -44c-80 0 -135 63 -135 157c0 92 55 155 135 155c39 0 70 -16 90 -42v173zM175 509c36 0 61 19 75 47v88c-13 29 -39 48 -75 48c-47 0 -79 -34 -79 -91c0 -59 32 -92 79 -92z" />
    <glyph glyph-name="e.sups" horiz-adv-x="349" 
d="M324 604v-17h-230c4 -56 34 -86 85 -86c36 0 61 14 72 35h68c-16 -53 -71 -92 -141 -92c-92 0 -153 64 -153 158c0 90 62 154 152 154c92 0 147 -63 147 -152zM177 701c-44 0 -72 -23 -81 -67h158c-8 45 -33 67 -77 67z" />
    <glyph glyph-name="f.sups" horiz-adv-x="242" 
d="M71 452v236h-53v61h53v51c0 54 33 87 97 87h88v-60h-80c-20 0 -34 -11 -34 -34v-44h85v-61h-85v-236h-71z" />
    <glyph glyph-name="g.sups" horiz-adv-x="356" 
d="M250 749h70v-315c0 -61 -36 -98 -106 -98h-124v58h119c24 0 41 13 41 43v57c-20 -27 -50 -42 -90 -42c-80 0 -135 62 -135 153c0 89 55 151 135 151c39 0 70 -16 90 -41v34zM175 514c37 0 61 21 75 48v85c-14 27 -38 48 -75 48c-47 0 -79 -34 -79 -90
c0 -58 32 -91 79 -91z" />
    <glyph glyph-name="h.sups" horiz-adv-x="356" 
d="M214 756c66 0 108 -44 108 -114v-190h-72v170c0 42 -21 70 -64 70c-32 0 -64 -20 -77 -46v-194h-71v435h71v-179c24 30 62 48 105 48z" />
    <glyph glyph-name="i.sups" horiz-adv-x="185" 
d="M148 803h-72v84h72v-84zM76 452v236h-70v61h142v-297h-72z" />
    <glyph glyph-name="j.sups" horiz-adv-x="223" 
d="M185 803h-71v84h71v-84zM10 336v61h77c16 0 27 8 27 28v263h-71v61h142v-332c0 -50 -29 -81 -89 -81h-86z" />
    <glyph glyph-name="k.sups" horiz-adv-x="322" 
d="M231 452l-87 126h-35v-126h-71v435h71v-252h35l84 114h79l-104 -139l110 -158h-82z" />
    <glyph glyph-name="l.sups" horiz-adv-x="178" 
d="M164 452h-43c-56 0 -85 30 -85 81v293h-44v61h116v-348c0 -18 10 -27 25 -27h31v-60z" />
    <glyph glyph-name="m.sups" horiz-adv-x="501" 
d="M379 756c54 0 87 -37 87 -96v-208h-66v182c0 35 -17 58 -52 58c-24 0 -49 -16 -62 -36v-204h-66v182c0 35 -17 58 -53 58c-26 0 -51 -17 -63 -40v-200h-66v297h66v-38c22 28 57 45 94 45c39 0 67 -19 80 -51c22 31 60 51 101 51z" />
    <glyph glyph-name="n.sups" horiz-adv-x="356" 
d="M214 756c66 0 108 -44 108 -113v-191h-72v171c0 41 -21 69 -64 69c-32 0 -63 -20 -77 -46v-194h-71v297h71v-41c24 30 63 48 105 48z" />
    <glyph glyph-name="o.sups" horiz-adv-x="356" 
d="M330 600c0 -91 -60 -156 -153 -156c-91 0 -152 65 -152 156c0 92 61 156 152 156c93 0 153 -64 153 -156zM94 600c0 -56 32 -93 83 -93c52 0 84 37 84 93s-32 93 -84 93c-51 0 -83 -37 -83 -93z" />
    <glyph glyph-name="p.sups" horiz-adv-x="358" 
d="M198 756c80 0 134 -63 134 -156s-55 -156 -135 -156c-40 0 -70 16 -90 45v-153h-69v413h69v-36c20 27 51 43 91 43zM182 509c47 0 80 33 80 91s-32 92 -79 92c-38 0 -63 -20 -76 -50v-84c13 -29 38 -49 75 -49z" />
    <glyph glyph-name="q.sups" horiz-adv-x="358" 
d="M250 749h70v-413h-70v151c-20 -28 -50 -43 -90 -43c-80 0 -135 63 -135 156s55 156 135 156c39 0 70 -16 90 -41v34zM175 509c36 0 61 19 75 47v87c-14 29 -39 49 -75 49c-47 0 -79 -34 -79 -92s32 -91 79 -91z" />
    <glyph glyph-name="r.sups" horiz-adv-x="239" 
d="M194 749h30v-61h-41c-36 0 -62 -17 -75 -40v-196h-71v297h71v-44c19 28 49 44 86 44z" />
    <glyph glyph-name="s.sups" horiz-adv-x="308" 
d="M160 444c-85 0 -135 39 -139 101h70c5 -29 29 -47 69 -47c39 0 62 15 62 40c0 26 -14 37 -72 41c-88 6 -121 34 -121 85c0 59 47 92 126 92s123 -33 130 -89h-69c-5 22 -24 37 -61 37c-35 0 -57 -14 -57 -36c0 -23 13 -32 70 -36c89 -6 123 -34 123 -90
c0 -62 -49 -98 -131 -98z" />
    <glyph glyph-name="t.sups" horiz-adv-x="238" 
d="M225 452h-70c-63 0 -95 32 -95 86v150h-54v61h54v98h72v-98h92v-61h-92v-142c0 -23 12 -34 31 -34h62v-60z" />
    <glyph glyph-name="u.sups" horiz-adv-x="352" 
d="M243 749h71v-297h-71v40c-24 -30 -62 -48 -103 -48c-65 0 -105 44 -105 113v192h71v-172c0 -41 21 -68 62 -68c31 0 60 20 75 44v196z" />
    <glyph glyph-name="v.sups" horiz-adv-x="300" 
d="M196 452h-93l-92 297h72l66 -235h1l67 235h72z" />
    <glyph glyph-name="w.sups" horiz-adv-x="458" 
d="M378 749h69l-75 -297h-90l-53 199l-53 -199h-89l-76 297h69l55 -226h1l61 213h64l61 -213h2z" />
    <glyph glyph-name="x.sups" horiz-adv-x="308" 
d="M299 452h-77l-69 104l-67 -104h-76l102 151l-98 146h76l63 -97l62 97h77l-99 -146z" />
    <glyph glyph-name="y.sups" horiz-adv-x="304" 
d="M222 749h71l-123 -342c-17 -47 -40 -71 -90 -71h-56v61h48c21 0 32 8 39 27l12 34l-112 291h72l70 -206h2z" />
    <glyph glyph-name="z.sups" horiz-adv-x="298" 
d="M279 452h-258v47l168 187v2h-161v61h245v-55l-160 -180v-2h166v-60z" />
    <glyph glyph-name="pi" unicode="&#x3c0;" horiz-adv-x="636" 
d="M604 435h-101v-335c0 -28 13 -41 40 -41c12 0 24 2 32 7v-66c-14 -9 -35 -12 -54 -12c-65 0 -109 29 -109 102v345h-196v-435h-91v435h-93v75h572v-75z" />
    <glyph glyph-name="uni0621" unicode="&#x621;" horiz-adv-x="482" 
d="M249 90h176v-90h-395v90h75c-18 22 -33 54 -33 104c0 107 63 178 189 178c74 0 125 -21 125 -21l-17 -83s-57 14 -111 14c-73 0 -106 -43 -106 -95c0 -56 20 -97 97 -97z" />
    <glyph glyph-name="uni0621" horiz-adv-x="482" 
d="M249 90h176v-90h-395v90h75c-18 22 -33 54 -33 104c0 107 63 178 189 178c74 0 125 -21 125 -21l-17 -83s-57 14 -111 14c-73 0 -106 -43 -106 -95c0 -56 20 -97 97 -97z" />
    <glyph glyph-name="uni0627" unicode="&#x627;" horiz-adv-x="235" 
d="M78 0v705h79v-705h-79z" />
    <glyph glyph-name="uni0627" horiz-adv-x="235" 
d="M78 0v705h79v-705h-79z" />
    <glyph glyph-name="uni0627.short" horiz-adv-x="235" 
d="M78 0v613h79v-613h-79z" />
    <glyph glyph-name="uniFE8E.short" horiz-adv-x="277" 
d="M254 0c-129 0 -176 50 -176 188v425h79v-425c0 -85 23 -95 120 -95l17 -10v-73l-17 -10h-23z" />
    <glyph glyph-name="uni0623" unicode="&#x623;" horiz-adv-x="235" 
d="M127 747h77v-51h-177v48h31c-8 9 -16 23 -16 49c0 54 43 82 91 82c35 0 61 -13 61 -13l-11 -43s-24 6 -50 6c-27 0 -48 -12 -48 -38s9 -40 42 -40zM78 0v613h79v-613h-79z" />
    <glyph glyph-name="uni0623" horiz-adv-x="235" 
d="M127 747h77v-51h-177v48h31c-8 9 -16 23 -16 49c0 54 43 82 91 82c35 0 61 -13 61 -13l-11 -43s-24 6 -50 6c-27 0 -48 -12 -48 -38s9 -40 42 -40zM78 0v613h79v-613h-79z" />
    <glyph glyph-name="uni0625" unicode="&#x625;" horiz-adv-x="250" 
d="M157 713v-613h-79v613h79zM125 -89h77v-51h-177v48h31c-8 9 -16 23 -16 49c0 54 43 82 91 82c35 0 61 -13 61 -13l-11 -43s-24 6 -50 6c-27 0 -48 -12 -48 -38s9 -40 42 -40z" />
    <glyph glyph-name="uni0625" horiz-adv-x="250" 
d="M157 713v-613h-79v613h79zM125 -89h77v-51h-177v48h31c-8 9 -16 23 -16 49c0 54 43 82 91 82c35 0 61 -13 61 -13l-11 -43s-24 6 -50 6c-27 0 -48 -12 -48 -38s9 -40 42 -40z" />
    <glyph glyph-name="uni0622" unicode="&#x622;" horiz-adv-x="235" 
d="M228 756l15 -45c-11 -10 -40 -25 -69 -25c-41 0 -73 24 -103 24c-23 0 -45 -10 -61 -20l-18 45c15 12 46 26 76 26c40 0 57 -24 99 -24c23 0 40 6 61 19zM78 0v613h79v-613h-79z" />
    <glyph glyph-name="uni0622" horiz-adv-x="235" 
d="M228 756l15 -45c-11 -10 -40 -25 -69 -25c-41 0 -73 24 -103 24c-23 0 -45 -10 -61 -20l-18 45c15 12 46 26 76 26c40 0 57 -24 99 -24c23 0 40 6 61 19zM78 0v613h79v-613h-79z" />
    <glyph glyph-name="uni0671" unicode="&#x671;" horiz-adv-x="235" 
d="M78 0v613h79v-613h-79z" />
    <glyph glyph-name="uni0671" horiz-adv-x="235" 
d="M78 0v613h79v-613h-79z" />
    <glyph glyph-name="uni066E" unicode="&#x66e;" horiz-adv-x="880" 
d="M291 0c-211 0 -254 86 -254 221c0 53 15 113 30 150h76c-13 -35 -27 -101 -27 -140c0 -104 50 -138 177 -138h321c69 0 127 10 127 85v219h79v-211c0 -131 -74 -186 -215 -186h-314z" />
    <glyph glyph-name="uni066E" horiz-adv-x="880" 
d="M291 0c-211 0 -254 86 -254 221c0 53 15 113 30 150h76c-13 -35 -27 -101 -27 -140c0 -104 50 -138 177 -138h321c69 0 127 10 127 85v219h79v-211c0 -131 -74 -186 -215 -186h-314z" />
    <glyph glyph-name="uni0628" unicode="&#x628;" horiz-adv-x="880" 
d="M291 0c-211 0 -254 86 -254 221c0 53 15 113 30 150h76c-13 -35 -27 -101 -27 -140c0 -104 50 -138 177 -138h321c69 0 127 10 127 85v219h79v-211c0 -131 -74 -186 -215 -186h-314zM387 -199v106h79v-106h-79z" />
    <glyph glyph-name="uni0628" horiz-adv-x="880" 
d="M291 0c-211 0 -254 86 -254 221c0 53 15 113 30 150h76c-13 -35 -27 -101 -27 -140c0 -104 50 -138 177 -138h321c69 0 127 10 127 85v219h79v-211c0 -131 -74 -186 -215 -186h-314zM387 -199v106h79v-106h-79z" />
    <glyph glyph-name="uni062A" unicode="&#x62a;" horiz-adv-x="880" 
d="M330 418v106h77v-106h-77zM459 418v106h76v-106h-76zM291 0c-211 0 -254 86 -254 221c0 53 15 113 30 150h76c-13 -35 -27 -101 -27 -140c0 -104 50 -138 177 -138h321c69 0 127 10 127 85v219h79v-211c0 -131 -74 -186 -215 -186h-314z" />
    <glyph glyph-name="uni062A" horiz-adv-x="880" 
d="M330 418v106h77v-106h-77zM459 418v106h76v-106h-76zM291 0c-211 0 -254 86 -254 221c0 53 15 113 30 150h76c-13 -35 -27 -101 -27 -140c0 -104 50 -138 177 -138h321c69 0 127 10 127 85v219h79v-211c0 -131 -74 -186 -215 -186h-314z" />
    <glyph glyph-name="uni062B" unicode="&#x62b;" horiz-adv-x="880" 
d="M397 563v103h79v-103h-79zM332 421v106h76v-106h-76zM463 421v106h76v-106h-76zM291 0c-211 0 -254 86 -254 221c0 53 15 113 30 150h76c-13 -35 -27 -101 -27 -140c0 -104 50 -138 177 -138h321c69 0 127 10 127 85v219h79v-211c0 -131 -74 -186 -215 -186h-314z" />
    <glyph glyph-name="uni062B" horiz-adv-x="880" 
d="M397 563v103h79v-103h-79zM332 421v106h76v-106h-76zM463 421v106h76v-106h-76zM291 0c-211 0 -254 86 -254 221c0 53 15 113 30 150h76c-13 -35 -27 -101 -27 -140c0 -104 50 -138 177 -138h321c69 0 127 10 127 85v219h79v-211c0 -131 -74 -186 -215 -186h-314z" />
    <glyph glyph-name="uni062C" unicode="&#x62c;" horiz-adv-x="659" 
d="M294 -311c-188 0 -259 92 -259 209c0 91 45 195 204 195h241c25 0 37 11 37 32v86c0 94 -82 116 -161 116c-76 0 -138 -17 -185 -36l-22 80c40 19 108 49 215 49c88 0 235 -24 235 -198v-95c0 -84 -40 -127 -119 -127h-244c-95 0 -117 -46 -117 -96
c0 -62 31 -122 182 -122h194v-93h-201zM301 -166v95h71v-95h-71z" />
    <glyph glyph-name="uni062C" horiz-adv-x="659" 
d="M294 -311c-188 0 -259 92 -259 209c0 91 45 195 204 195h241c25 0 37 11 37 32v86c0 94 -82 116 -161 116c-76 0 -138 -17 -185 -36l-22 80c40 19 108 49 215 49c88 0 235 -24 235 -198v-95c0 -84 -40 -127 -119 -127h-244c-95 0 -117 -46 -117 -96
c0 -62 31 -122 182 -122h194v-93h-201zM301 -166v95h71v-95h-71z" />
    <glyph glyph-name="uni062D" unicode="&#x62d;" horiz-adv-x="659" 
d="M294 -311c-188 0 -259 92 -259 209c0 91 45 195 204 195h241c25 0 37 11 37 32v86c0 94 -82 116 -161 116c-76 0 -138 -17 -185 -36l-22 80c40 19 108 49 215 49c88 0 235 -24 235 -198v-95c0 -84 -40 -127 -119 -127h-244c-95 0 -117 -46 -117 -96
c0 -62 31 -122 182 -122h194v-93h-201z" />
    <glyph glyph-name="uni062D" horiz-adv-x="659" 
d="M294 -311c-188 0 -259 92 -259 209c0 91 45 195 204 195h241c25 0 37 11 37 32v86c0 94 -82 116 -161 116c-76 0 -138 -17 -185 -36l-22 80c40 19 108 49 215 49c88 0 235 -24 235 -198v-95c0 -84 -40 -127 -119 -127h-244c-95 0 -117 -46 -117 -96
c0 -62 31 -122 182 -122h194v-93h-201z" />
    <glyph glyph-name="uni062E" unicode="&#x62e;" horiz-adv-x="659" 
d="M317 514v106h79v-106h-79zM294 -311c-188 0 -259 92 -259 209c0 91 45 195 204 195h241c25 0 37 11 37 32v86c0 94 -82 116 -161 116c-76 0 -138 -17 -185 -36l-22 80c40 19 108 49 215 49c88 0 235 -24 235 -198v-95c0 -84 -40 -127 -119 -127h-244
c-95 0 -117 -46 -117 -96c0 -62 31 -122 182 -122h194v-93h-201z" />
    <glyph glyph-name="uni062E" horiz-adv-x="659" 
d="M317 514v106h79v-106h-79zM294 -311c-188 0 -259 92 -259 209c0 91 45 195 204 195h241c25 0 37 11 37 32v86c0 94 -82 116 -161 116c-76 0 -138 -17 -185 -36l-22 80c40 19 108 49 215 49c88 0 235 -24 235 -198v-95c0 -84 -40 -127 -119 -127h-244
c-95 0 -117 -46 -117 -96c0 -62 31 -122 182 -122h194v-93h-201z" />
    <glyph glyph-name="uni062F" unicode="&#x62f;" horiz-adv-x="542" 
d="M119 430c316 -40 372 -125 370 -243l-1 -72c-1 -77 -40 -115 -123 -115h-325v93h366v86c0 74 -30 126 -301 162z" />
    <glyph glyph-name="uni062F" horiz-adv-x="542" 
d="M119 430c316 -40 372 -125 370 -243l-1 -72c-1 -77 -40 -115 -123 -115h-325v93h366v86c0 74 -30 126 -301 162z" />
    <glyph glyph-name="uni0630" unicode="&#x630;" horiz-adv-x="542" 
d="M287 643v-106h-79v106h79zM119 430c316 -40 372 -125 370 -243l-1 -72c-1 -77 -40 -115 -123 -115h-325v93h366v86c0 74 -30 126 -301 162z" />
    <glyph glyph-name="uni0630" horiz-adv-x="542" 
d="M287 643v-106h-79v106h79zM119 430c316 -40 372 -125 370 -243l-1 -72c-1 -77 -40 -115 -123 -115h-325v93h366v86c0 74 -30 126 -301 162z" />
    <glyph glyph-name="uni0631" unicode="&#x631;" horiz-adv-x="310" 
d="M-6 -209v93h95c61 0 81 16 81 66v446h79v-444c0 -93 -34 -161 -158 -161h-97z" />
    <glyph glyph-name="uni0631" horiz-adv-x="310" 
d="M-6 -209v93h95c61 0 81 16 81 66v446h79v-444c0 -93 -34 -161 -158 -161h-97z" />
    <glyph glyph-name="uni0632" unicode="&#x632;" horiz-adv-x="310" 
d="M170 489v106h79v-106h-79zM-6 -209v93h95c61 0 81 16 81 66v446h79v-444c0 -93 -34 -161 -158 -161h-97z" />
    <glyph glyph-name="uni0632" horiz-adv-x="310" 
d="M170 489v106h79v-106h-79zM-6 -209v93h95c61 0 81 16 81 66v446h79v-444c0 -93 -34 -161 -158 -161h-97z" />
    <glyph glyph-name="uni0633" unicode="&#x633;" horiz-adv-x="1220" 
d="M1081 395h79v-244c0 -104 -68 -151 -175 -151c-73 0 -115 20 -134 53c-18 -30 -58 -53 -139 -53h-107c-16 -119 -96 -208 -287 -208c-219 0 -281 131 -281 276c0 76 19 159 36 197h80c-9 -26 -33 -105 -33 -190c0 -105 42 -190 204 -190c161 0 204 67 204 162v287h80
v-241h106c67 0 94 15 94 52v189h80v-211c14 -16 41 -30 99 -30c65 0 94 15 94 58v244z" />
    <glyph glyph-name="uni0633" horiz-adv-x="1220" 
d="M1081 395h79v-244c0 -104 -68 -151 -175 -151c-73 0 -115 20 -134 53c-18 -30 -58 -53 -139 -53h-107c-16 -119 -96 -208 -287 -208c-219 0 -281 131 -281 276c0 76 19 159 36 197h80c-9 -26 -33 -105 -33 -190c0 -105 42 -190 204 -190c161 0 204 67 204 162v287h80
v-241h106c67 0 94 15 94 52v189h80v-211c14 -16 41 -30 99 -30c65 0 94 15 94 58v244z" />
    <glyph glyph-name="uni0634" unicode="&#x634;" horiz-adv-x="1220" 
d="M892 690v-103h-79v103h79zM824 551v-106h-76v106h76zM879 445v106h76v-106h-76zM1081 395h79v-244c0 -104 -68 -151 -175 -151c-73 0 -115 20 -134 53c-18 -30 -58 -53 -139 -53h-107c-16 -119 -96 -208 -287 -208c-219 0 -281 131 -281 276c0 76 19 159 36 197h80
c-9 -26 -33 -105 -33 -190c0 -105 42 -190 204 -190c161 0 204 67 204 162v287h80v-241h106c67 0 94 15 94 52v189h80v-211c14 -16 41 -30 99 -30c65 0 94 15 94 58v244z" />
    <glyph glyph-name="uni0634" horiz-adv-x="1220" 
d="M892 690v-103h-79v103h79zM824 551v-106h-76v106h76zM879 445v106h76v-106h-76zM1081 395h79v-244c0 -104 -68 -151 -175 -151c-73 0 -115 20 -134 53c-18 -30 -58 -53 -139 -53h-107c-16 -119 -96 -208 -287 -208c-219 0 -281 131 -281 276c0 76 19 159 36 197h80
c-9 -26 -33 -105 -33 -190c0 -105 42 -190 204 -190c161 0 204 67 204 162v287h80v-241h106c67 0 94 15 94 52v189h80v-211c14 -16 41 -30 99 -30c65 0 94 15 94 58v244z" />
    <glyph glyph-name="uni0635" unicode="&#x635;" horiz-adv-x="1175" 
d="M925 420c111 0 190 -70 190 -211c0 -150 -85 -209 -236 -209h-274c-16 -119 -96 -208 -287 -208c-219 0 -281 131 -281 276c0 76 19 159 36 197h80c-9 -26 -33 -105 -33 -190c0 -105 42 -190 204 -190c161 0 204 67 204 162v339h80v-71c117 53 229 105 317 105zM879 93
c105 0 154 22 154 111c0 87 -52 123 -122 123s-171 -42 -303 -99v-135h271z" />
    <glyph glyph-name="uni0635" horiz-adv-x="1175" 
d="M925 420c111 0 190 -70 190 -211c0 -150 -85 -209 -236 -209h-274c-16 -119 -96 -208 -287 -208c-219 0 -281 131 -281 276c0 76 19 159 36 197h80c-9 -26 -33 -105 -33 -190c0 -105 42 -190 204 -190c161 0 204 67 204 162v339h80v-71c117 53 229 105 317 105zM879 93
c105 0 154 22 154 111c0 87 -52 123 -122 123s-171 -42 -303 -99v-135h271z" />
    <glyph glyph-name="uni0636" unicode="&#x636;" horiz-adv-x="1175" 
d="M711 595v-106h-79v106h79zM925 420c111 0 190 -70 190 -211c0 -150 -85 -209 -236 -209h-274c-16 -119 -96 -208 -287 -208c-219 0 -281 131 -281 276c0 76 19 159 36 197h80c-9 -26 -33 -105 -33 -190c0 -105 42 -190 204 -190c161 0 204 67 204 162v339h80v-71
c117 53 229 105 317 105zM879 93c105 0 154 22 154 111c0 87 -52 123 -122 123s-171 -42 -303 -99v-135h271z" />
    <glyph glyph-name="uni0636" horiz-adv-x="1175" 
d="M711 595v-106h-79v106h79zM925 420c111 0 190 -70 190 -211c0 -150 -85 -209 -236 -209h-274c-16 -119 -96 -208 -287 -208c-219 0 -281 131 -281 276c0 76 19 159 36 197h80c-9 -26 -33 -105 -33 -190c0 -105 42 -190 204 -190c161 0 204 67 204 162v339h80v-71
c117 53 229 105 317 105zM879 93c105 0 154 22 154 111c0 87 -52 123 -122 123s-171 -42 -303 -99v-135h271z" />
    <glyph glyph-name="uni0637" unicode="&#x637;" horiz-adv-x="754" 
d="M501 420c113 0 193 -71 193 -214c0 -148 -85 -206 -235 -206h-429v93h96v612h79v-384c110 50 211 99 296 99zM459 93c104 0 153 21 153 108c0 89 -51 126 -121 126c-69 0 -160 -40 -286 -94v-140h254z" />
    <glyph glyph-name="uni0637" horiz-adv-x="754" 
d="M501 420c113 0 193 -71 193 -214c0 -148 -85 -206 -235 -206h-429v93h96v612h79v-384c110 50 211 99 296 99zM459 93c104 0 153 21 153 108c0 89 -51 126 -121 126c-69 0 -160 -40 -286 -94v-140h254z" />
    <glyph glyph-name="uni0638" unicode="&#x638;" horiz-adv-x="754" 
d="M501 420c113 0 193 -71 193 -214c0 -148 -85 -206 -235 -206h-429v93h96v612h79v-384c110 50 211 99 296 99zM517 625v-106h-79v106h79zM459 93c104 0 153 21 153 108c0 89 -51 126 -121 126c-69 0 -160 -40 -286 -94v-140h254z" />
    <glyph glyph-name="uni0638" horiz-adv-x="754" 
d="M501 420c113 0 193 -71 193 -214c0 -148 -85 -206 -235 -206h-429v93h96v612h79v-384c110 50 211 99 296 99zM517 625v-106h-79v106h79zM459 93c104 0 153 21 153 108c0 89 -51 126 -121 126c-69 0 -160 -40 -286 -94v-140h254z" />
    <glyph glyph-name="uni0639" unicode="&#x639;" horiz-adv-x="548" 
d="M272 -222h238v-93h-246c-185 0 -239 87 -239 197c0 90 53 149 140 177c-71 35 -85 88 -85 159c0 142 98 205 218 205c68 0 131 -17 157 -29l-23 -87c-19 6 -68 22 -134 22c-94 0 -135 -45 -135 -111c0 -82 36 -125 157 -125h167v-93h-172c-184 0 -207 -58 -207 -112
c0 -55 27 -110 164 -110z" />
    <glyph glyph-name="uni0639" horiz-adv-x="548" 
d="M272 -222h238v-93h-246c-185 0 -239 87 -239 197c0 90 53 149 140 177c-71 35 -85 88 -85 159c0 142 98 205 218 205c68 0 131 -17 157 -29l-23 -87c-19 6 -68 22 -134 22c-94 0 -135 -45 -135 -111c0 -82 36 -125 157 -125h167v-93h-172c-184 0 -207 -58 -207 -112
c0 -55 27 -110 164 -110z" />
    <glyph glyph-name="uni063A" unicode="&#x63a;" horiz-adv-x="548" 
d="M338 622v-106h-79v106h79zM272 -222h238v-93h-246c-185 0 -239 87 -239 197c0 90 53 149 140 177c-71 35 -85 88 -85 159c0 142 98 205 218 205c68 0 131 -17 157 -29l-23 -87c-19 6 -68 22 -134 22c-94 0 -135 -45 -135 -111c0 -82 36 -125 157 -125h167v-93h-172
c-184 0 -207 -58 -207 -112c0 -55 27 -110 164 -110z" />
    <glyph glyph-name="uni063A" horiz-adv-x="548" 
d="M338 622v-106h-79v106h79zM272 -222h238v-93h-246c-185 0 -239 87 -239 197c0 90 53 149 140 177c-71 35 -85 88 -85 159c0 142 98 205 218 205c68 0 131 -17 157 -29l-23 -87c-19 6 -68 22 -134 22c-94 0 -135 -45 -135 -111c0 -82 36 -125 157 -125h167v-93h-172
c-184 0 -207 -58 -207 -112c0 -55 27 -110 164 -110z" />
    <glyph glyph-name="uni0641" unicode="&#x641;" horiz-adv-x="937" 
d="M743 765v-106h-79v106h79zM876 520l1 -341c0 -119 -49 -179 -185 -179h-403c-205 0 -252 96 -252 241c0 56 15 122 30 163h79c-13 -39 -27 -110 -27 -154c0 -119 49 -157 170 -157h404c75 0 104 17 104 80v55c-22 -31 -60 -56 -136 -56c-127 0 -180 88 -180 181
c0 126 89 214 225 214c98 0 170 -47 170 -47zM679 265c58 0 98 15 118 41v143s-39 24 -99 24c-92 0 -134 -46 -134 -109c0 -54 35 -99 115 -99z" />
    <glyph glyph-name="uni0641" horiz-adv-x="937" 
d="M743 765v-106h-79v106h79zM876 520l1 -341c0 -119 -49 -179 -185 -179h-403c-205 0 -252 96 -252 241c0 56 15 122 30 163h79c-13 -39 -27 -110 -27 -154c0 -119 49 -157 170 -157h404c75 0 104 17 104 80v55c-22 -31 -60 -56 -136 -56c-127 0 -180 88 -180 181
c0 126 89 214 225 214c98 0 170 -47 170 -47zM679 265c58 0 98 15 118 41v143s-39 24 -99 24c-92 0 -134 -46 -134 -109c0 -54 35 -99 115 -99z" />
    <glyph glyph-name="uni06A4" unicode="&#x6a4;" horiz-adv-x="937" 
d="M746 902v-103h-79v103h79zM678 763v-106h-76v106h76zM733 657v106h76v-106h-76zM876 520l1 -341c0 -119 -49 -179 -185 -179h-403c-205 0 -252 96 -252 241c0 56 15 122 30 163h79c-13 -39 -27 -110 -27 -154c0 -119 49 -157 170 -157h404c75 0 104 17 104 80v55
c-22 -31 -60 -56 -136 -56c-127 0 -180 88 -180 181c0 126 89 214 225 214c98 0 170 -47 170 -47zM679 265c58 0 98 15 118 41v143s-39 24 -99 24c-92 0 -134 -46 -134 -109c0 -54 35 -99 115 -99z" />
    <glyph glyph-name="uni06A4" horiz-adv-x="937" 
d="M746 902v-103h-79v103h79zM678 763v-106h-76v106h76zM733 657v106h76v-106h-76zM876 520l1 -341c0 -119 -49 -179 -185 -179h-403c-205 0 -252 96 -252 241c0 56 15 122 30 163h79c-13 -39 -27 -110 -27 -154c0 -119 49 -157 170 -157h404c75 0 104 17 104 80v55
c-22 -31 -60 -56 -136 -56c-127 0 -180 88 -180 181c0 126 89 214 225 214c98 0 170 -47 170 -47zM679 265c58 0 98 15 118 41v143s-39 24 -99 24c-92 0 -134 -46 -134 -109c0 -54 35 -99 115 -99z" />
    <glyph glyph-name="uni06A1" unicode="&#x6a1;" horiz-adv-x="937" 
d="M876 520l1 -341c0 -119 -49 -179 -185 -179h-403c-205 0 -252 96 -252 241c0 56 15 122 30 163h79c-13 -39 -27 -110 -27 -154c0 -119 49 -157 170 -157h404c75 0 104 17 104 80v55c-22 -31 -60 -56 -136 -56c-127 0 -180 88 -180 181c0 126 89 214 225 214
c98 0 170 -47 170 -47zM679 265c58 0 98 15 118 41v143s-39 24 -99 24c-92 0 -134 -46 -134 -109c0 -54 35 -99 115 -99z" />
    <glyph glyph-name="uni06A1" horiz-adv-x="937" 
d="M876 520l1 -341c0 -119 -49 -179 -185 -179h-403c-205 0 -252 96 -252 241c0 56 15 122 30 163h79c-13 -39 -27 -110 -27 -154c0 -119 49 -157 170 -157h404c75 0 104 17 104 80v55c-22 -31 -60 -56 -136 -56c-127 0 -180 88 -180 181c0 126 89 214 225 214
c98 0 170 -47 170 -47zM679 265c58 0 98 15 118 41v143s-39 24 -99 24c-92 0 -134 -46 -134 -109c0 -54 35 -99 115 -99z" />
    <glyph glyph-name="uni066F" unicode="&#x66f;" horiz-adv-x="783" 
d="M549 420c101 0 174 -43 174 -43v-393c0 -138 -66 -207 -248 -207h-147c-240 0 -291 86 -291 271c0 77 20 151 33 184h79c-14 -41 -29 -111 -29 -177c0 -124 32 -185 208 -185h150c119 0 166 24 166 116v76c-22 -35 -62 -62 -140 -62c-135 0 -188 94 -188 196
c0 133 91 224 233 224zM521 94c62 0 104 18 123 46v165s-40 21 -103 21c-96 0 -142 -50 -142 -121c0 -62 38 -111 122 -111z" />
    <glyph glyph-name="uni066F" horiz-adv-x="783" 
d="M549 420c101 0 174 -43 174 -43v-393c0 -138 -66 -207 -248 -207h-147c-240 0 -291 86 -291 271c0 77 20 151 33 184h79c-14 -41 -29 -111 -29 -177c0 -124 32 -185 208 -185h150c119 0 166 24 166 116v76c-22 -35 -62 -62 -140 -62c-135 0 -188 94 -188 196
c0 133 91 224 233 224zM521 94c62 0 104 18 123 46v165s-40 21 -103 21c-96 0 -142 -50 -142 -121c0 -62 38 -111 122 -111z" />
    <glyph glyph-name="uni0642" unicode="&#x642;" horiz-adv-x="783" 
d="M523 620v-106h-77v106h77zM651 620v-106h-76v106h76zM549 420c101 0 174 -43 174 -43v-393c0 -138 -66 -207 -248 -207h-147c-240 0 -291 86 -291 271c0 77 20 151 33 184h79c-14 -41 -29 -111 -29 -177c0 -124 32 -185 208 -185h150c119 0 166 24 166 116v76
c-22 -35 -62 -62 -140 -62c-135 0 -188 94 -188 196c0 133 91 224 233 224zM521 94c62 0 104 18 123 46v165s-40 21 -103 21c-96 0 -142 -50 -142 -121c0 -62 38 -111 122 -111z" />
    <glyph glyph-name="uni0642" horiz-adv-x="783" 
d="M523 620v-106h-77v106h77zM651 620v-106h-76v106h76zM549 420c101 0 174 -43 174 -43v-393c0 -138 -66 -207 -248 -207h-147c-240 0 -291 86 -291 271c0 77 20 151 33 184h79c-14 -41 -29 -111 -29 -177c0 -124 32 -185 208 -185h150c119 0 166 24 166 116v76
c-22 -35 -62 -62 -140 -62c-135 0 -188 94 -188 196c0 133 91 224 233 224zM521 94c62 0 104 18 123 46v165s-40 21 -103 21c-96 0 -142 -50 -142 -121c0 -62 38 -111 122 -111z" />
    <glyph glyph-name="uni0643" unicode="&#x643;" horiz-adv-x="858" 
d="M701 705h79v-519c0 -131 -74 -186 -215 -186h-274c-211 0 -254 86 -254 221c0 53 15 113 30 150h76c-13 -35 -27 -101 -27 -140c0 -104 50 -138 177 -138h281c69 0 127 10 127 85v527zM526 373c0 -56 -34 -90 -105 -90h-111v63h111c27 0 50 7 50 25c0 17 -16 49 -142 49
l-5 80l181 90l12 -57l-126 -61c75 -5 135 -31 135 -99z" />
    <glyph glyph-name="uni0643" horiz-adv-x="858" 
d="M701 705h79v-519c0 -131 -74 -186 -215 -186h-274c-211 0 -254 86 -254 221c0 53 15 113 30 150h76c-13 -35 -27 -101 -27 -140c0 -104 50 -138 177 -138h281c69 0 127 10 127 85v527zM526 373c0 -56 -34 -90 -105 -90h-111v63h111c27 0 50 7 50 25c0 17 -16 49 -142 49
l-5 80l181 90l12 -57l-126 -61c75 -5 135 -31 135 -99z" />
    <glyph glyph-name="uni06A9" unicode="&#x6a9;" horiz-adv-x="858" 
d="M701 705h79v-519c0 -131 -74 -186 -215 -186h-274c-211 0 -254 86 -254 221c0 53 15 113 30 150h76c-13 -35 -27 -101 -27 -140c0 -104 50 -138 177 -138h281c69 0 127 10 127 85v527zM526 373c0 -56 -34 -90 -105 -90h-111v63h111c27 0 50 7 50 25c0 17 -16 49 -142 49
l-5 80l181 90l12 -57l-126 -61c75 -5 135 -31 135 -99z" />
    <glyph glyph-name="uni06A9" horiz-adv-x="858" 
d="M701 705h79v-519c0 -131 -74 -186 -215 -186h-274c-211 0 -254 86 -254 221c0 53 15 113 30 150h76c-13 -35 -27 -101 -27 -140c0 -104 50 -138 177 -138h281c69 0 127 10 127 85v527zM526 373c0 -56 -34 -90 -105 -90h-111v63h111c27 0 50 7 50 25c0 17 -16 49 -142 49
l-5 80l181 90l12 -57l-126 -61c75 -5 135 -31 135 -99z" />
    <glyph glyph-name="uni0644" unicode="&#x644;" horiz-adv-x="652" 
d="M303 -148c-208 0 -266 131 -266 281c0 73 19 155 36 192h79c-8 -25 -32 -103 -32 -185c0 -108 37 -195 189 -195c148 0 186 72 186 174v586h79v-585c0 -147 -66 -268 -271 -268z" />
    <glyph glyph-name="uni0644" horiz-adv-x="652" 
d="M303 -148c-208 0 -266 131 -266 281c0 73 19 155 36 192h79c-8 -25 -32 -103 -32 -185c0 -108 37 -195 189 -195c148 0 186 72 186 174v586h79v-585c0 -147 -66 -268 -271 -268z" />
    <glyph glyph-name="uni0645" unicode="&#x645;" horiz-adv-x="703" 
d="M466 420c101 0 174 -47 174 -47v-220c0 -85 -46 -172 -203 -172c-96 0 -154 41 -183 99h-23c-93 -2 -118 -12 -118 -83v-296h-79v299c0 115 52 166 198 172v13c0 140 92 235 234 235zM560 148l1 155s-41 24 -103 24c-97 0 -143 -55 -143 -131c0 -68 40 -121 127 -121
c71 0 108 24 118 73z" />
    <glyph glyph-name="uni0645" horiz-adv-x="703" 
d="M466 420c101 0 174 -47 174 -47v-220c0 -85 -46 -172 -203 -172c-96 0 -154 41 -183 99h-23c-93 -2 -118 -12 -118 -83v-296h-79v299c0 115 52 166 198 172v13c0 140 92 235 234 235zM560 148l1 155s-41 24 -103 24c-97 0 -143 -55 -143 -131c0 -68 40 -121 127 -121
c71 0 108 24 118 73z" />
    <glyph glyph-name="uni0646" unicode="&#x646;" horiz-adv-x="668" 
d="M286 411v106h79v-106h-79zM318 -211c-219 0 -281 131 -281 276c0 76 19 159 36 197h80c-9 -26 -33 -105 -33 -190c0 -105 42 -190 204 -190c161 0 204 67 204 162v350h80v-349c0 -143 -74 -256 -290 -256z" />
    <glyph glyph-name="uni0646" horiz-adv-x="668" 
d="M286 411v106h79v-106h-79zM318 -211c-219 0 -281 131 -281 276c0 76 19 159 36 197h80c-9 -26 -33 -105 -33 -190c0 -105 42 -190 204 -190c161 0 204 67 204 162v350h80v-349c0 -143 -74 -256 -290 -256z" />
    <glyph glyph-name="uni06BA" unicode="&#x6ba;" horiz-adv-x="668" 
d="M318 -211c-219 0 -281 131 -281 276c0 76 19 159 36 197h80c-9 -26 -33 -105 -33 -190c0 -105 42 -190 204 -190c161 0 204 67 204 162v350h80v-349c0 -143 -74 -256 -290 -256z" />
    <glyph glyph-name="uni06BA" horiz-adv-x="668" 
d="M318 -211c-219 0 -281 131 -281 276c0 76 19 159 36 197h80c-9 -26 -33 -105 -33 -190c0 -105 42 -190 204 -190c161 0 204 67 204 162v350h80v-349c0 -143 -74 -256 -290 -256z" />
    <glyph glyph-name="uni0647" unicode="&#x647;" horiz-adv-x="504" 
d="M365 484h79c0 -131 -1 -266 -1 -298c0 -117 -62 -186 -201 -186c-150 0 -205 95 -205 198c0 135 93 227 241 227c34 0 64 -6 87 -13v72zM245 93c85 0 120 32 120 81v146c-10 4 -44 12 -96 12c-103 0 -149 -51 -149 -124c0 -64 28 -115 125 -115z" />
    <glyph glyph-name="uni0647" horiz-adv-x="504" 
d="M365 484h79c0 -131 -1 -266 -1 -298c0 -117 -62 -186 -201 -186c-150 0 -205 95 -205 198c0 135 93 227 241 227c34 0 64 -6 87 -13v72zM245 93c85 0 120 32 120 81v146c-10 4 -44 12 -96 12c-103 0 -149 -51 -149 -124c0 -64 28 -115 125 -115z" />
    <glyph glyph-name="uni0629" unicode="&#x629;" horiz-adv-x="504" 
d="M230 653v-106h-77v106h77zM358 653v-106h-76v106h76zM365 484h79c0 -131 -1 -266 -1 -298c0 -117 -62 -186 -201 -186c-150 0 -205 95 -205 198c0 135 93 227 241 227c34 0 64 -6 87 -13v72zM245 93c85 0 120 32 120 81v146c-10 4 -44 12 -96 12
c-103 0 -149 -51 -149 -124c0 -64 28 -115 125 -115z" />
    <glyph glyph-name="uni0629" horiz-adv-x="504" 
d="M230 653v-106h-77v106h77zM358 653v-106h-76v106h76zM365 484h79c0 -131 -1 -266 -1 -298c0 -117 -62 -186 -201 -186c-150 0 -205 95 -205 198c0 135 93 227 241 227c34 0 64 -6 87 -13v72zM245 93c85 0 120 32 120 81v146c-10 4 -44 12 -96 12
c-103 0 -149 -51 -149 -124c0 -64 28 -115 125 -115z" />
    <glyph glyph-name="uni0648" unicode="&#x648;" horiz-adv-x="502" 
d="M271 420c101 0 174 -43 174 -43v-409c0 -116 -49 -177 -183 -177h-190v94h192c74 0 102 19 102 88v89c-22 -35 -62 -62 -140 -62c-135 0 -188 93 -188 193c0 135 91 227 233 227zM243 94c62 0 104 18 123 46v165s-40 21 -103 21c-96 0 -142 -52 -142 -124
c0 -60 38 -108 122 -108z" />
    <glyph glyph-name="uni0648" horiz-adv-x="502" 
d="M271 420c101 0 174 -43 174 -43v-409c0 -116 -49 -177 -183 -177h-190v94h192c74 0 102 19 102 88v89c-22 -35 -62 -62 -140 -62c-135 0 -188 93 -188 193c0 135 91 227 233 227zM243 94c62 0 104 18 123 46v165s-40 21 -103 21c-96 0 -142 -52 -142 -124
c0 -60 38 -108 122 -108z" />
    <glyph glyph-name="uni0624" unicode="&#x624;" horiz-adv-x="502" 
d="M348 554v-51h-177v48h31c-8 9 -16 23 -16 49c0 54 43 82 91 82c35 0 61 -13 61 -13l-11 -43s-24 6 -50 6c-27 0 -48 -12 -48 -38s9 -40 42 -40h77zM271 420c101 0 174 -43 174 -43v-409c0 -116 -49 -177 -183 -177h-190v94h192c74 0 102 19 102 88v89
c-22 -35 -62 -62 -140 -62c-135 0 -188 93 -188 193c0 135 91 227 233 227zM243 94c62 0 104 18 123 46v165s-40 21 -103 21c-96 0 -142 -52 -142 -124c0 -60 38 -108 122 -108z" />
    <glyph glyph-name="uni0624" horiz-adv-x="502" 
d="M348 554v-51h-177v48h31c-8 9 -16 23 -16 49c0 54 43 82 91 82c35 0 61 -13 61 -13l-11 -43s-24 6 -50 6c-27 0 -48 -12 -48 -38s9 -40 42 -40h77zM271 420c101 0 174 -43 174 -43v-409c0 -116 -49 -177 -183 -177h-190v94h192c74 0 102 19 102 88v89
c-22 -35 -62 -62 -140 -62c-135 0 -188 93 -188 193c0 135 91 227 233 227zM243 94c62 0 104 18 123 46v165s-40 21 -103 21c-96 0 -142 -52 -142 -124c0 -60 38 -108 122 -108z" />
    <glyph glyph-name="uni0649" unicode="&#x649;" horiz-adv-x="821" 
d="M397 -213c-298 0 -360 120 -360 295c0 75 16 158 34 196h79c-8 -25 -30 -103 -30 -187c0 -159 65 -211 283 -211c233 0 275 48 275 106c0 51 -18 71 -67 79l-108 17c-131 21 -173 61 -173 191c0 127 83 203 220 203c64 0 134 -19 177 -46l-27 -80c-30 13 -79 33 -153 33
c-92 0 -134 -33 -134 -110c0 -69 27 -87 113 -100l96 -14c104 -15 139 -60 139 -166c0 -125 -82 -206 -364 -206z" />
    <glyph glyph-name="uni0649" horiz-adv-x="821" 
d="M397 -213c-298 0 -360 120 -360 295c0 75 16 158 34 196h79c-8 -25 -30 -103 -30 -187c0 -159 65 -211 283 -211c233 0 275 48 275 106c0 51 -18 71 -67 79l-108 17c-131 21 -173 61 -173 191c0 127 83 203 220 203c64 0 134 -19 177 -46l-27 -80c-30 13 -79 33 -153 33
c-92 0 -134 -33 -134 -110c0 -69 27 -87 113 -100l96 -14c104 -15 139 -60 139 -166c0 -125 -82 -206 -364 -206z" />
    <glyph glyph-name="uni064A" unicode="&#x64a;" horiz-adv-x="821" 
d="M397 -213c-298 0 -360 120 -360 295c0 75 16 158 34 196h79c-8 -25 -30 -103 -30 -187c0 -159 65 -211 283 -211c233 0 275 48 275 106c0 51 -18 71 -67 79l-108 17c-131 21 -173 61 -173 191c0 127 83 203 220 203c64 0 134 -19 177 -46l-27 -80c-30 13 -79 33 -153 33
c-92 0 -134 -33 -134 -110c0 -69 27 -87 113 -100l96 -14c104 -15 139 -60 139 -166c0 -125 -82 -206 -364 -206zM300 -404v106h76v-106h-76zM429 -404v106h76v-106h-76z" />
    <glyph glyph-name="uni064A" horiz-adv-x="821" 
d="M397 -213c-298 0 -360 120 -360 295c0 75 16 158 34 196h79c-8 -25 -30 -103 -30 -187c0 -159 65 -211 283 -211c233 0 275 48 275 106c0 51 -18 71 -67 79l-108 17c-131 21 -173 61 -173 191c0 127 83 203 220 203c64 0 134 -19 177 -46l-27 -80c-30 13 -79 33 -153 33
c-92 0 -134 -33 -134 -110c0 -69 27 -87 113 -100l96 -14c104 -15 139 -60 139 -166c0 -125 -82 -206 -364 -206zM300 -404v106h76v-106h-76zM429 -404v106h76v-106h-76z" />
    <glyph glyph-name="uni0626" unicode="&#x626;" horiz-adv-x="821" 
d="M196 411v-51h-177v48h31c-8 9 -16 23 -16 49c0 54 43 82 91 82c35 0 61 -13 61 -13l-11 -43s-24 6 -50 6c-27 0 -48 -12 -48 -38s9 -40 42 -40h77zM622 159c104 -15 139 -60 139 -166c0 -125 -82 -206 -364 -206c-298 0 -360 120 -360 295c0 75 16 158 34 196h79
c-8 -25 -30 -103 -30 -187c0 -159 65 -211 283 -211c233 0 275 48 275 106c0 51 -18 71 -67 79l-108 17c-131 21 -173 61 -173 191c0 127 83 203 220 203c64 0 134 -19 177 -46l-27 -80c-30 13 -79 33 -153 33c-92 0 -134 -33 -134 -110c0 -69 27 -87 113 -100z" />
    <glyph glyph-name="uni0626" horiz-adv-x="821" 
d="M196 411v-51h-177v48h31c-8 9 -16 23 -16 49c0 54 43 82 91 82c35 0 61 -13 61 -13l-11 -43s-24 6 -50 6c-27 0 -48 -12 -48 -38s9 -40 42 -40h77zM622 159c104 -15 139 -60 139 -166c0 -125 -82 -206 -364 -206c-298 0 -360 120 -360 295c0 75 16 158 34 196h79
c-8 -25 -30 -103 -30 -187c0 -159 65 -211 283 -211c233 0 275 48 275 106c0 51 -18 71 -67 79l-108 17c-131 21 -173 61 -173 191c0 127 83 203 220 203c64 0 134 -19 177 -46l-27 -80c-30 13 -79 33 -153 33c-92 0 -134 -33 -134 -110c0 -69 27 -87 113 -100z" />
    <glyph glyph-name="uni06CC" unicode="&#x6cc;" horiz-adv-x="821" 
d="M397 -213c-298 0 -360 120 -360 295c0 75 16 158 34 196h79c-8 -25 -30 -103 -30 -187c0 -159 65 -211 283 -211c233 0 275 48 275 106c0 51 -18 71 -67 79l-108 17c-131 21 -173 61 -173 191c0 127 83 203 220 203c64 0 134 -19 177 -46l-27 -80c-30 13 -79 33 -153 33
c-92 0 -134 -33 -134 -110c0 -69 27 -87 113 -100l96 -14c104 -15 139 -60 139 -166c0 -125 -82 -206 -364 -206zM300 -404v106h76v-106h-76zM429 -404v106h76v-106h-76z" />
    <glyph glyph-name="uni06CC" horiz-adv-x="821" 
d="M397 -213c-298 0 -360 120 -360 295c0 75 16 158 34 196h79c-8 -25 -30 -103 -30 -187c0 -159 65 -211 283 -211c233 0 275 48 275 106c0 51 -18 71 -67 79l-108 17c-131 21 -173 61 -173 191c0 127 83 203 220 203c64 0 134 -19 177 -46l-27 -80c-30 13 -79 33 -153 33
c-92 0 -134 -33 -134 -110c0 -69 27 -87 113 -100l96 -14c104 -15 139 -60 139 -166c0 -125 -82 -206 -364 -206zM300 -404v106h76v-106h-76zM429 -404v106h76v-106h-76z" />
    <glyph glyph-name="uni0640" unicode="&#x640;" horiz-adv-x="213" 
d="M0 93h213l17 -10v-73l-17 -10h-213l-17 10v73z" />
    <glyph glyph-name="uni0640" horiz-adv-x="213" 
d="M0 93h213l17 -10v-73l-17 -10h-213l-17 10v73z" />
    <glyph glyph-name="uniFED3FE8A" horiz-adv-x="902" 
d="M711 766v-106h-79v106h79zM842 171c0 -104 -39 -161 -147 -170v-20c0 -133 -88 -219 -318 -219c-269 0 -340 110 -340 292c0 76 15 161 31 199h79c-8 -26 -27 -104 -27 -189c0 -162 69 -209 262 -209c195 0 231 53 231 118v27h-172v93h224c69 0 97 16 97 73v65
c-22 -32 -60 -57 -137 -57c-126 0 -179 86 -179 179c0 126 88 214 225 214c98 0 170 -47 170 -47zM192 388v-51h-177v48h31c-8 9 -16 23 -16 49c0 54 43 82 91 82c35 0 61 -13 61 -13l-11 -43s-24 6 -50 6c-27 0 -48 -12 -48 -38s9 -40 42 -40h77zM643 267
c60 0 98 16 119 40v142s-40 24 -100 24c-92 0 -133 -46 -133 -109c0 -53 34 -97 114 -97z" />
    <glyph glyph-name="uni06A1.initFEF0" horiz-adv-x="902" 
d="M842 171c0 -104 -39 -161 -147 -170v-20c0 -133 -88 -219 -318 -219c-269 0 -340 110 -340 292c0 76 15 161 31 199h79c-8 -26 -27 -104 -27 -189c0 -162 69 -209 262 -209c195 0 231 53 231 118v27h-172v93h224c69 0 97 16 97 73v65c-22 -32 -60 -57 -137 -57
c-126 0 -179 86 -179 179c0 126 88 214 225 214c98 0 170 -47 170 -47zM643 267c60 0 98 16 119 40v142s-40 24 -100 24c-92 0 -133 -46 -133 -109c0 -53 34 -97 114 -97z" />
    <glyph glyph-name="uniFED7FE8A" horiz-adv-x="902" 
d="M645 760v-106h-77v106h77zM773 760v-106h-76v106h76zM842 171c0 -104 -39 -161 -147 -170v-20c0 -133 -88 -219 -318 -219c-269 0 -340 110 -340 292c0 76 15 161 31 199h79c-8 -26 -27 -104 -27 -189c0 -162 69 -209 262 -209c195 0 231 53 231 118v27h-172v93h224
c69 0 97 16 97 73v65c-22 -32 -60 -57 -137 -57c-126 0 -179 86 -179 179c0 126 88 214 225 214c98 0 170 -47 170 -47zM192 388v-51h-177v48h31c-8 9 -16 23 -16 49c0 54 43 82 91 82c35 0 61 -13 61 -13l-11 -43s-24 6 -50 6c-27 0 -48 -12 -48 -38s9 -40 42 -40h77z
M643 267c60 0 98 16 119 40v142s-40 24 -100 24c-92 0 -133 -46 -133 -109c0 -53 34 -97 114 -97z" />
    <glyph glyph-name="zero" unicode="0" horiz-adv-x="606" 
d="M559 246c0 -150 -103 -260 -257 -260c-152 0 -256 110 -256 260v258c0 147 104 260 256 260c155 0 257 -113 257 -260v-258zM136 244c0 -102 66 -173 166 -173c103 0 167 71 167 173v261c0 101 -64 173 -167 173c-100 0 -166 -73 -166 -173v-261z" />
    <glyph glyph-name="one" unicode="1" horiz-adv-x="356" 
d="M200 750h76v-750h-90v653l-167 -75v87z" />
    <glyph glyph-name="two" unicode="2" horiz-adv-x="523" 
d="M160 84h335v-84h-461v78l288 323c50 56 70 98 70 147c0 69 -42 131 -132 131c-89 0 -136 -65 -136 -134v-13h-90v13c0 118 85 219 229 219c145 0 222 -101 222 -215c0 -73 -30 -131 -99 -209z" />
    <glyph glyph-name="three" unicode="3" horiz-adv-x="564" 
d="M399 423c79 -37 130 -114 130 -202c0 -134 -107 -235 -251 -235c-143 0 -250 101 -250 234c0 9 1 17 2 25h90c-1 -8 -2 -14 -2 -20c0 -90 68 -157 160 -157c94 0 161 66 161 157c0 87 -68 154 -160 154h-44v77h44c69 0 120 48 120 114c0 67 -51 115 -121 115
c-69 0 -120 -49 -120 -115c0 -6 0 -9 1 -13h-85c-1 4 -2 10 -2 19c0 106 90 188 206 188c119 0 207 -82 207 -189c0 -63 -32 -119 -86 -152z" />
    <glyph glyph-name="four" unicode="4" horiz-adv-x="576" 
d="M568 296v-81h-106v-215h-89v215h-357v67l357 468h89v-454h106zM128 296h245v323z" />
    <glyph glyph-name="five" unicode="5" horiz-adv-x="570" 
d="M287 -14c-142 0 -249 100 -249 232c0 9 1 17 2 26h89c-2 -10 -2 -15 -2 -22c0 -89 68 -154 160 -154c97 0 164 70 164 169c0 91 -59 164 -161 164c-57 0 -110 -25 -143 -64h-92l71 413h375v-84h-309l-40 -244c29 32 88 61 149 61c147 0 239 -106 239 -249
c0 -145 -104 -248 -253 -248z" />
    <glyph glyph-name="six" unicode="6" horiz-adv-x="558" 
d="M286 456c146 0 247 -104 247 -232c0 -136 -106 -238 -252 -238c-143 0 -251 101 -251 236c0 47 15 89 38 127l245 401h109l-186 -300c16 4 33 6 50 6zM281 69c93 0 162 65 162 155c0 87 -68 155 -162 155c-90 0 -161 -68 -161 -155c0 -90 71 -155 161 -155z" />
    <glyph glyph-name="seven" unicode="7" horiz-adv-x="499" 
d="M19 750h466v-72l-289 -678h-100l291 666h-368v84z" />
    <glyph glyph-name="eight" unicode="8" horiz-adv-x="571" 
d="M406 423c79 -37 130 -115 130 -202c0 -132 -105 -235 -251 -235c-145 0 -250 103 -250 235c0 87 52 165 130 202c-53 33 -86 88 -86 152c0 106 89 189 206 189c120 0 207 -83 207 -189c0 -64 -33 -119 -86 -152zM285 685c-68 0 -121 -49 -121 -115s53 -115 121 -115
c70 0 121 49 121 115s-50 115 -121 115zM285 68c93 0 161 67 161 157c0 86 -68 155 -161 155c-92 0 -160 -70 -160 -155c0 -90 68 -157 160 -157z" />
    <glyph glyph-name="nine" unicode="9" horiz-adv-x="556" 
d="M280 764c143 0 251 -101 251 -236c0 -47 -15 -89 -38 -127l-245 -401h-107l186 301c-16 -5 -34 -7 -52 -7c-145 0 -247 104 -247 232c0 136 106 238 252 238zM280 371c91 0 161 68 161 155c0 90 -70 154 -161 154c-93 0 -162 -64 -162 -154c0 -87 68 -155 162 -155z" />
    <glyph glyph-name="uni24FF" unicode="&#x24ff;" horiz-adv-x="896" 
d="M448 -14c-213 0 -385 172 -385 388c0 214 172 390 385 390c214 0 385 -176 385 -390c0 -216 -171 -388 -385 -388zM448 218c66 0 108 47 108 110v92c0 63 -42 111 -108 111s-108 -48 -108 -111v-92c0 -63 42 -110 108 -110zM448 275c-28 0 -45 21 -45 51v97
c0 29 17 51 45 51s44 -22 44 -51v-97c0 -30 -16 -51 -44 -51z" />
    <glyph glyph-name="uni2776" unicode="&#x2776;" horiz-adv-x="896" 
d="M448 -14c-213 0 -385 172 -385 388c0 214 172 390 385 390c214 0 385 -176 385 -390c0 -216 -171 -388 -385 -388zM429 224h65v301h-56l-80 -43v-62l71 37v-233z" />
    <glyph glyph-name="uni2777" unicode="&#x2777;" horiz-adv-x="896" 
d="M448 -14c-213 0 -385 172 -385 388c0 214 172 390 385 390c214 0 385 -176 385 -390c0 -216 -171 -388 -385 -388zM348 224h204v57h-115l75 85c20 22 34 45 34 74c0 51 -35 91 -100 91c-64 0 -98 -41 -98 -94v-4h59v4c0 20 14 38 39 38s38 -16 38 -39
c0 -14 -6 -27 -18 -41l-118 -132v-39z" />
    <glyph glyph-name="uni2778" unicode="&#x2778;" horiz-adv-x="896" 
d="M448 -14c-213 0 -385 172 -385 389c0 213 172 389 385 389c214 0 385 -176 385 -389c0 -217 -171 -389 -385 -389zM448 218c66 0 110 42 110 95c0 31 -17 60 -45 76c20 14 30 35 30 58c0 48 -38 84 -95 84c-56 0 -93 -35 -93 -80v-12h58v6c0 21 15 34 36 34
s36 -13 36 -34c0 -20 -15 -34 -37 -34h-11v-50h11c26 0 45 -19 45 -44c0 -26 -20 -42 -44 -42s-45 16 -45 40v7h-62c-1 -4 -1 -8 -1 -12c0 -51 43 -92 107 -92z" />
    <glyph glyph-name="uni2779" unicode="&#x2779;" horiz-adv-x="896" 
d="M448 -14c-213 0 -385 172 -385 388c0 214 172 390 385 390c214 0 385 -176 385 -390c0 -216 -171 -388 -385 -388zM447 224h65v78h37v51h-37v172h-65l-137 -177v-46h137v-78zM369 353l78 99v-99h-78z" />
    <glyph glyph-name="uni277A" unicode="&#x277a;" horiz-adv-x="896" 
d="M448 -14c-213 0 -385 172 -385 388c0 214 172 390 385 390c214 0 385 -176 385 -390c0 -216 -171 -388 -385 -388zM450 218c65 0 109 42 109 104c0 54 -35 95 -91 95c-25 0 -45 -10 -58 -27l12 76h119v59h-170l-23 -173h63c9 12 22 20 40 20c32 0 45 -23 45 -49
c0 -27 -16 -48 -46 -48c-27 0 -45 18 -45 43v4h-62c0 -3 -1 -9 -1 -14c0 -49 43 -90 108 -90z" />
    <glyph glyph-name="uni277B" unicode="&#x277b;" horiz-adv-x="896" 
d="M448 -14c-213 0 -385 172 -385 388c0 214 172 390 385 390c214 0 385 -176 385 -390c0 -216 -171 -388 -385 -388zM445 218c65 0 112 43 112 102c0 49 -38 93 -96 96c-3 0 -7 0 -9 -1l69 110h-78l-93 -151c-11 -17 -16 -35 -16 -57c0 -57 48 -99 111 -99zM445 275
c-27 0 -48 18 -48 44s21 46 48 46c28 0 49 -20 49 -46s-21 -44 -49 -44z" />
    <glyph glyph-name="uni277C" unicode="&#x277c;" horiz-adv-x="896" 
d="M448 -14c-213 0 -385 172 -385 388c0 214 172 390 385 390c214 0 385 -176 385 -390c0 -216 -171 -388 -385 -388zM378 224h71l108 245v56h-205v-59h138z" />
    <glyph glyph-name="uni277D" unicode="&#x277d;" horiz-adv-x="896" 
d="M448 -14c-213 0 -385 172 -385 388c0 214 172 390 385 390c214 0 385 -176 385 -390c0 -216 -171 -388 -385 -388zM446 218c65 0 109 41 109 94c0 31 -17 59 -45 75c19 15 31 36 31 60c0 48 -39 84 -95 84s-94 -36 -94 -84c0 -24 12 -46 31 -60c-27 -16 -45 -44 -45 -75
c0 -53 44 -94 108 -94zM446 408c-22 0 -38 15 -38 37c0 20 16 36 38 36c23 0 39 -16 39 -36c0 -21 -15 -37 -39 -37zM446 273c-26 0 -48 18 -48 43c0 26 21 45 48 45c30 0 49 -19 49 -45c0 -25 -21 -43 -49 -43z" />
    <glyph glyph-name="uni277E" unicode="&#x277e;" horiz-adv-x="896" 
d="M448 -14c-213 0 -385 172 -385 388c0 214 172 390 385 390c214 0 385 -176 385 -390c0 -216 -171 -388 -385 -388zM381 224h77l93 151c11 17 16 35 16 54c0 59 -47 102 -111 102s-111 -44 -111 -103c0 -50 37 -94 95 -97c3 0 6 0 10 1zM456 382c-28 0 -49 21 -49 46
c0 27 21 46 49 46c27 0 48 -19 48 -46c0 -25 -21 -46 -48 -46z" />
    <glyph glyph-name="zero.subs" horiz-adv-x="270" 
d="M135 -84c-66 0 -108 47 -108 110v92c0 63 42 111 108 111c67 0 108 -48 108 -111v-92c0 -63 -41 -110 -108 -110zM135 -27c28 0 45 21 45 51v97c0 29 -17 51 -45 51s-45 -22 -45 -51v-97c0 -30 17 -51 45 -51z" />
    <glyph glyph-name="one.subs" horiz-adv-x="191" 
d="M99 223h56v-301h-64v233l-71 -37v62z" />
    <glyph glyph-name="two.subs" horiz-adv-x="255" 
d="M118 -21h115v-57h-204v38l119 133c12 13 18 27 18 41c0 22 -13 39 -38 39c-26 0 -40 -18 -40 -38v-4h-58v4c0 53 34 94 98 94s99 -41 99 -91c0 -29 -14 -52 -33 -74z" />
    <glyph glyph-name="three.subs" horiz-adv-x="260" 
d="M197 87c27 -17 43 -46 43 -76c0 -53 -44 -95 -109 -95c-64 0 -107 41 -107 92v12h63v-7c0 -24 20 -40 45 -40c24 0 44 16 44 42c0 25 -19 44 -45 44h-12v50h12c21 0 37 14 37 34c0 21 -16 34 -36 34c-21 0 -36 -13 -36 -34v-6h-58v12c0 45 37 80 93 80s94 -36 94 -84
c0 -22 -10 -43 -28 -58z" />
    <glyph glyph-name="four.subs" horiz-adv-x="283" 
d="M262 51v-51h-37v-78h-66v78h-136v46l136 177h66v-172h37zM82 51h77v99z" />
    <glyph glyph-name="five.subs" horiz-adv-x="262" 
d="M133 -84c-65 0 -108 41 -108 90c0 5 1 11 2 14h62v-4c0 -25 18 -43 44 -43c30 0 47 21 47 48c0 26 -14 49 -46 49c-17 0 -31 -8 -39 -20h-63l23 173h170v-59h-120l-12 -76c14 17 33 27 58 27c57 0 91 -41 91 -95c0 -62 -44 -104 -109 -104z" />
    <glyph glyph-name="six.subs" horiz-adv-x="263" 
d="M144 114c62 0 102 -45 102 -96c0 -59 -47 -102 -111 -102s-111 42 -111 99c0 22 5 40 16 57l93 151h78l-69 -109h2zM135 -27c28 0 49 18 49 44s-21 46 -49 46s-48 -20 -48 -46s20 -44 48 -44z" />
    <glyph glyph-name="seven.subs" horiz-adv-x="243" 
d="M21 223h204v-56l-108 -245h-71l112 242h-137v59z" />
    <glyph glyph-name="eight.subs" horiz-adv-x="261" 
d="M194 85c28 -16 45 -44 45 -75c0 -53 -44 -94 -109 -94c-64 0 -108 41 -108 94c0 31 17 59 45 75c-20 15 -31 36 -31 60c0 48 38 84 94 84s94 -36 94 -84c0 -23 -10 -45 -30 -60zM130 179c-22 0 -38 -16 -38 -36c0 -22 16 -37 38 -37c24 0 39 16 39 37c0 20 -16 36 -39 36
zM130 -29c28 0 49 18 49 43c0 26 -19 45 -49 45c-27 0 -48 -19 -48 -45c0 -25 22 -43 48 -43z" />
    <glyph glyph-name="nine.subs" horiz-adv-x="265" 
d="M132 229c64 0 111 -43 111 -102c0 -19 -5 -37 -16 -54l-93 -151h-78l68 106c-63 0 -103 46 -103 98c0 59 46 103 111 103zM131 80c28 0 49 21 49 46c0 27 -21 46 -49 46s-48 -19 -48 -46c0 -25 20 -46 48 -46z" />
    <glyph glyph-name="zero.dnom" horiz-adv-x="270" 
d="M135 -6c-66 0 -108 47 -108 110v92c0 63 42 111 108 111c67 0 108 -48 108 -111v-92c0 -63 -41 -110 -108 -110zM135 51c28 0 45 21 45 51v97c0 29 -17 51 -45 51s-45 -22 -45 -51v-97c0 -30 17 -51 45 -51z" />
    <glyph glyph-name="one.dnom" horiz-adv-x="191" 
d="M99 301h56v-301h-64v233l-71 -37v62z" />
    <glyph glyph-name="two.dnom" horiz-adv-x="255" 
d="M118 57h115v-57h-204v38l119 133c12 13 18 27 18 41c0 22 -13 39 -38 39c-26 0 -40 -18 -40 -38v-4h-58v4c0 53 34 94 98 94s99 -41 99 -91c0 -29 -14 -52 -33 -74z" />
    <glyph glyph-name="three.dnom" horiz-adv-x="260" 
d="M197 165c27 -17 43 -46 43 -76c0 -53 -44 -95 -109 -95c-64 0 -107 41 -107 92v12h63v-7c0 -24 20 -40 45 -40c24 0 44 16 44 42c0 25 -19 44 -45 44h-12v50h12c21 0 37 14 37 34c0 21 -16 34 -36 34c-21 0 -36 -13 -36 -34v-6h-58v12c0 45 37 80 93 80s94 -36 94 -84
c0 -22 -10 -43 -28 -58z" />
    <glyph glyph-name="four.dnom" horiz-adv-x="283" 
d="M262 129v-51h-37v-78h-66v78h-136v46l136 177h66v-172h37zM82 129h77v99z" />
    <glyph glyph-name="five.dnom" horiz-adv-x="262" 
d="M133 -6c-65 0 -108 41 -108 90c0 5 1 11 2 14h62v-4c0 -25 18 -43 44 -43c30 0 47 21 47 48c0 26 -14 49 -46 49c-17 0 -31 -8 -39 -20h-63l23 173h170v-59h-120l-12 -76c14 17 33 27 58 27c57 0 91 -41 91 -95c0 -62 -44 -104 -109 -104z" />
    <glyph glyph-name="six.dnom" horiz-adv-x="263" 
d="M144 192c62 0 102 -45 102 -96c0 -59 -47 -102 -111 -102s-111 42 -111 99c0 22 5 40 16 57l93 151h78l-69 -109h2zM135 51c28 0 49 18 49 44s-21 46 -49 46s-48 -20 -48 -46s20 -44 48 -44z" />
    <glyph glyph-name="seven.dnom" horiz-adv-x="243" 
d="M21 301h204v-56l-108 -245h-71l112 242h-137v59z" />
    <glyph glyph-name="eight.dnom" horiz-adv-x="261" 
d="M194 163c28 -16 45 -44 45 -75c0 -53 -44 -94 -109 -94c-64 0 -108 41 -108 94c0 31 17 59 45 75c-20 15 -31 36 -31 60c0 48 38 84 94 84s94 -36 94 -84c0 -23 -10 -45 -30 -60zM130 257c-22 0 -38 -16 -38 -36c0 -22 16 -37 38 -37c24 0 39 16 39 37
c0 20 -16 36 -39 36zM130 49c28 0 49 18 49 43c0 26 -19 45 -49 45c-27 0 -48 -19 -48 -45c0 -25 22 -43 48 -43z" />
    <glyph glyph-name="nine.dnom" horiz-adv-x="265" 
d="M132 307c64 0 111 -43 111 -102c0 -19 -5 -37 -16 -54l-93 -151h-78l68 106c-63 0 -103 46 -103 98c0 59 46 103 111 103zM131 158c28 0 49 21 49 46c0 27 -21 46 -49 46s-48 -19 -48 -46c0 -25 20 -46 48 -46z" />
    <glyph glyph-name="zero.numr" horiz-adv-x="270" 
d="M135 443c-66 0 -108 47 -108 110v92c0 63 42 111 108 111c67 0 108 -48 108 -111v-92c0 -63 -41 -110 -108 -110zM135 500c28 0 45 21 45 51v97c0 29 -17 51 -45 51s-45 -22 -45 -51v-97c0 -30 17 -51 45 -51z" />
    <glyph glyph-name="one.numr" horiz-adv-x="191" 
d="M99 750h56v-301h-64v233l-71 -37v62z" />
    <glyph glyph-name="two.numr" horiz-adv-x="255" 
d="M118 506h115v-57h-204v38l119 133c12 13 18 27 18 41c0 22 -13 39 -38 39c-26 0 -40 -18 -40 -38v-4h-58v4c0 53 34 94 98 94s99 -41 99 -91c0 -29 -14 -52 -33 -74z" />
    <glyph glyph-name="three.numr" horiz-adv-x="260" 
d="M197 614c27 -17 43 -46 43 -76c0 -53 -44 -95 -109 -95c-64 0 -107 41 -107 92v12h63v-7c0 -24 20 -40 45 -40c24 0 44 16 44 42c0 25 -19 44 -45 44h-12v50h12c21 0 37 14 37 34c0 21 -16 34 -36 34c-21 0 -36 -13 -36 -34v-6h-58v12c0 45 37 80 93 80s94 -36 94 -84
c0 -22 -10 -43 -28 -58z" />
    <glyph glyph-name="four.numr" horiz-adv-x="283" 
d="M262 578v-51h-37v-78h-66v78h-136v46l136 177h66v-172h37zM82 578h77v99z" />
    <glyph glyph-name="five.numr" horiz-adv-x="262" 
d="M133 443c-65 0 -108 41 -108 90c0 5 1 11 2 14h62v-4c0 -25 18 -43 44 -43c30 0 47 21 47 48c0 26 -14 49 -46 49c-17 0 -31 -8 -39 -20h-63l23 173h170v-59h-120l-12 -76c14 17 33 27 58 27c57 0 91 -41 91 -95c0 -62 -44 -104 -109 -104z" />
    <glyph glyph-name="six.numr" horiz-adv-x="263" 
d="M144 641c62 0 102 -45 102 -96c0 -59 -47 -102 -111 -102s-111 42 -111 99c0 22 5 40 16 57l93 151h78l-69 -109h2zM135 500c28 0 49 18 49 44s-21 46 -49 46s-48 -20 -48 -46s20 -44 48 -44z" />
    <glyph glyph-name="seven.numr" horiz-adv-x="243" 
d="M21 750h204v-56l-108 -245h-71l112 242h-137v59z" />
    <glyph glyph-name="eight.numr" horiz-adv-x="261" 
d="M194 612c28 -16 45 -44 45 -75c0 -53 -44 -94 -109 -94c-64 0 -108 41 -108 94c0 31 17 59 45 75c-20 15 -31 36 -31 60c0 48 38 84 94 84s94 -36 94 -84c0 -23 -10 -45 -30 -60zM130 706c-22 0 -38 -16 -38 -36c0 -22 16 -37 38 -37c24 0 39 16 39 37
c0 20 -16 36 -39 36zM130 498c28 0 49 18 49 43c0 26 -19 45 -49 45c-27 0 -48 -19 -48 -45c0 -25 22 -43 48 -43z" />
    <glyph glyph-name="nine.numr" horiz-adv-x="265" 
d="M132 756c64 0 111 -43 111 -102c0 -19 -5 -37 -16 -54l-93 -151h-78l68 106c-63 0 -103 46 -103 98c0 59 46 103 111 103zM131 607c28 0 49 21 49 46c0 27 -21 46 -49 46s-48 -19 -48 -46c0 -25 20 -46 48 -46z" />
    <glyph glyph-name="zero.sups" unicode="&#x2070;" horiz-adv-x="270" 
d="M135 443c-66 0 -108 47 -108 110v92c0 63 42 111 108 111c67 0 108 -48 108 -111v-92c0 -63 -41 -110 -108 -110zM135 500c28 0 45 21 45 51v97c0 29 -17 51 -45 51s-45 -22 -45 -51v-97c0 -30 17 -51 45 -51z" />
    <glyph glyph-name="one.sups" unicode="&#xb9;" horiz-adv-x="191" 
d="M99 750h56v-301h-64v233l-71 -37v62z" />
    <glyph glyph-name="two.sups" unicode="&#xb2;" horiz-adv-x="255" 
d="M118 506h115v-57h-204v38l119 133c12 13 18 27 18 41c0 22 -13 39 -38 39c-26 0 -40 -18 -40 -38v-4h-58v4c0 53 34 94 98 94s99 -41 99 -91c0 -29 -14 -52 -33 -74z" />
    <glyph glyph-name="three.sups" unicode="&#xb3;" horiz-adv-x="260" 
d="M197 614c27 -17 43 -46 43 -76c0 -53 -44 -95 -109 -95c-64 0 -107 41 -107 92v12h63v-7c0 -24 20 -40 45 -40c24 0 44 16 44 42c0 25 -19 44 -45 44h-12v50h12c21 0 37 14 37 34c0 21 -16 34 -36 34c-21 0 -36 -13 -36 -34v-6h-58v12c0 45 37 80 93 80s94 -36 94 -84
c0 -22 -10 -43 -28 -58z" />
    <glyph glyph-name="four.sups" unicode="&#x2074;" horiz-adv-x="283" 
d="M262 578v-51h-37v-78h-66v78h-136v46l136 177h66v-172h37zM82 578h77v99z" />
    <glyph glyph-name="five.sups" unicode="&#x2075;" horiz-adv-x="262" 
d="M133 443c-65 0 -108 41 -108 90c0 5 1 11 2 14h62v-4c0 -25 18 -43 44 -43c30 0 47 21 47 48c0 26 -14 49 -46 49c-17 0 -31 -8 -39 -20h-63l23 173h170v-59h-120l-12 -76c14 17 33 27 58 27c57 0 91 -41 91 -95c0 -62 -44 -104 -109 -104z" />
    <glyph glyph-name="six.sups" unicode="&#x2076;" horiz-adv-x="263" 
d="M144 641c62 0 102 -45 102 -96c0 -59 -47 -102 -111 -102s-111 42 -111 99c0 22 5 40 16 57l93 151h78l-69 -109h2zM135 500c28 0 49 18 49 44s-21 46 -49 46s-48 -20 -48 -46s20 -44 48 -44z" />
    <glyph glyph-name="seven.sups" unicode="&#x2077;" horiz-adv-x="243" 
d="M21 750h204v-56l-108 -245h-71l112 242h-137v59z" />
    <glyph glyph-name="eight.sups" unicode="&#x2078;" horiz-adv-x="261" 
d="M194 612c28 -16 45 -44 45 -75c0 -53 -44 -94 -109 -94c-64 0 -108 41 -108 94c0 31 17 59 45 75c-20 15 -31 36 -31 60c0 48 38 84 94 84s94 -36 94 -84c0 -23 -10 -45 -30 -60zM130 706c-22 0 -38 -16 -38 -36c0 -22 16 -37 38 -37c24 0 39 16 39 37
c0 20 -16 36 -39 36zM130 498c28 0 49 18 49 43c0 26 -19 45 -49 45c-27 0 -48 -19 -48 -45c0 -25 22 -43 48 -43z" />
    <glyph glyph-name="nine.sups" unicode="&#x2079;" horiz-adv-x="265" 
d="M132 756c64 0 111 -43 111 -102c0 -19 -5 -37 -16 -54l-93 -151h-78l68 106c-63 0 -103 46 -103 98c0 59 46 103 111 103zM131 607c28 0 49 21 49 46c0 27 -21 46 -49 46s-48 -19 -48 -46c0 -25 20 -46 48 -46z" />
    <glyph glyph-name="fraction" unicode="&#x2044;" horiz-adv-x="563" 
d="M12 0l477 750h62l-478 -750h-61z" />
    <glyph glyph-name="onehalf" unicode="&#xbd;" horiz-adv-x="567" 
d="M489 750h62l-478 -750h-61zM121 449v233l-71 -37v62l79 43h56v-301h-64zM506 142l-76 -85h115v-57h-204v38l119 133c12 13 18 27 18 41c0 22 -13 39 -38 39c-26 0 -40 -18 -40 -38v-4h-58v4c0 53 34 94 98 94s99 -41 99 -91c0 -29 -14 -52 -33 -74z" />
    <glyph glyph-name="uni2153" unicode="&#x2153;" horiz-adv-x="572" 
d="M489 750h62l-478 -750h-61zM121 449v233l-71 -37v62l79 43h56v-301h-64zM509 165c27 -17 43 -46 43 -76c0 -53 -44 -95 -109 -95c-64 0 -107 41 -107 92v12h63v-7c0 -24 20 -40 45 -40c24 0 44 16 44 42c0 25 -19 44 -45 44h-12v50h12c21 0 37 14 37 34
c0 21 -16 34 -36 34c-21 0 -36 -13 -36 -34v-6h-58v12c0 45 37 80 93 80s94 -36 94 -84c0 -22 -10 -43 -28 -58z" />
    <glyph glyph-name="uni2154" unicode="&#x2154;" horiz-adv-x="606" 
d="M233 506v-57h-204v38l119 133c12 13 18 27 18 41c0 22 -13 39 -38 39c-26 0 -40 -18 -40 -38v-4h-58v4c0 53 34 94 98 94s99 -41 99 -91c0 -29 -14 -52 -33 -74l-76 -85h115zM523 750h62l-478 -750h-61zM543 165c27 -17 43 -46 43 -76c0 -53 -44 -95 -109 -95
c-64 0 -107 41 -107 92v12h63v-7c0 -24 20 -40 45 -40c24 0 44 16 44 42c0 25 -19 44 -45 44h-12v50h12c21 0 37 14 37 34c0 21 -16 34 -36 34c-21 0 -36 -13 -36 -34v-6h-58v12c0 45 37 80 93 80s94 -36 94 -84c0 -22 -10 -43 -28 -58z" />
    <glyph glyph-name="onequarter" unicode="&#xbc;" horiz-adv-x="555" 
d="M489 750h62l-478 -750h-61zM121 449v233l-71 -37v62l79 43h56v-301h-64zM497 301v-172h37v-51h-37v-78h-66v78h-136v46l136 177h66zM354 129h77v99z" />
    <glyph glyph-name="threequarters" unicode="&#xbe;" horiz-adv-x="594" 
d="M240 538c0 -53 -44 -95 -109 -95c-64 0 -107 41 -107 92v12h63v-7c0 -24 20 -40 45 -40c24 0 44 16 44 42c0 25 -19 44 -45 44h-12v50h12c21 0 37 14 37 34c0 21 -16 34 -36 34c-21 0 -36 -13 -36 -34v-6h-58v12c0 45 37 80 93 80s94 -36 94 -84c0 -22 -10 -43 -28 -58
c27 -17 43 -46 43 -76zM528 750h62l-478 -750h-61zM536 301v-172h37v-51h-37v-78h-66v78h-136v46l136 177h66zM393 129h77v99z" />
    <glyph glyph-name="uni2155" unicode="&#x2155;" horiz-adv-x="574" 
d="M489 750h62l-478 -750h-61zM121 449v233l-71 -37v62l79 43h56v-301h-64zM463 193c57 0 91 -41 91 -95c0 -62 -44 -104 -109 -104s-108 41 -108 90c0 5 1 11 2 14h62v-4c0 -25 18 -43 44 -43c30 0 47 21 47 48c0 26 -14 49 -46 49c-17 0 -31 -8 -39 -20h-63l23 173h170
v-59h-120l-12 -76c14 17 33 27 58 27z" />
    <glyph glyph-name="uni2156" unicode="&#x2156;" horiz-adv-x="608" 
d="M233 506v-57h-204v38l119 133c12 13 18 27 18 41c0 22 -13 39 -38 39c-26 0 -40 -18 -40 -38v-4h-58v4c0 53 34 94 98 94s99 -41 99 -91c0 -29 -14 -52 -33 -74l-76 -85h115zM523 750h62l-478 -750h-61zM497 193c57 0 91 -41 91 -95c0 -62 -44 -104 -109 -104
s-108 41 -108 90c0 5 1 11 2 14h62v-4c0 -25 18 -43 44 -43c30 0 47 21 47 48c0 26 -14 49 -46 49c-17 0 -31 -8 -39 -20h-63l23 173h170v-59h-120l-12 -76c14 17 33 27 58 27z" />
    <glyph glyph-name="uni2157" unicode="&#x2157;" horiz-adv-x="613" 
d="M240 538c0 -53 -44 -95 -109 -95c-64 0 -107 41 -107 92v12h63v-7c0 -24 20 -40 45 -40c24 0 44 16 44 42c0 25 -19 44 -45 44h-12v50h12c21 0 37 14 37 34c0 21 -16 34 -36 34c-21 0 -36 -13 -36 -34v-6h-58v12c0 45 37 80 93 80s94 -36 94 -84c0 -22 -10 -43 -28 -58
c27 -17 43 -46 43 -76zM528 750h62l-478 -750h-61zM502 193c57 0 91 -41 91 -95c0 -62 -44 -104 -109 -104s-108 41 -108 90c0 5 1 11 2 14h62v-4c0 -25 18 -43 44 -43c30 0 47 21 47 48c0 26 -14 49 -46 49c-17 0 -31 -8 -39 -20h-63l23 173h170v-59h-120l-12 -76
c14 17 33 27 58 27z" />
    <glyph glyph-name="uni2158" unicode="&#x2158;" horiz-adv-x="636" 
d="M159 449v78h-136v46l136 177h66v-172h37v-51h-37v-78h-66zM551 750h62l-478 -750h-61zM82 578h77v99zM525 193c57 0 91 -41 91 -95c0 -62 -44 -104 -109 -104s-108 41 -108 90c0 5 1 11 2 14h62v-4c0 -25 18 -43 44 -43c30 0 47 21 47 48c0 26 -14 49 -46 49
c-17 0 -31 -8 -39 -20h-63l23 173h170v-59h-120l-12 -76c14 17 33 27 58 27z" />
    <glyph glyph-name="uni2159" unicode="&#x2159;" horiz-adv-x="563" 
d="M489 750h62l-478 -750h-61zM121 449v233l-71 -37v62l79 43h56v-301h-64zM444 192c62 0 102 -45 102 -96c0 -59 -47 -102 -111 -102s-111 42 -111 99c0 22 5 40 16 57l93 151h78l-69 -109h2zM435 51c28 0 49 18 49 44s-21 46 -49 46s-48 -20 -48 -46s20 -44 48 -44z" />
    <glyph glyph-name="uni2150" unicode="&#x2150;" horiz-adv-x="555" 
d="M489 750h62l-478 -750h-61zM121 449v233l-71 -37v62l79 43h56v-301h-64zM333 242v59h204v-56l-108 -245h-71l112 242h-137z" />
    <glyph glyph-name="oneeighth" unicode="&#x215b;" horiz-adv-x="573" 
d="M489 750h62l-478 -750h-61zM121 449v233l-71 -37v62l79 43h56v-301h-64zM506 163c28 -16 45 -44 45 -75c0 -53 -44 -94 -109 -94c-64 0 -108 41 -108 94c0 31 17 59 45 75c-20 15 -31 36 -31 60c0 48 38 84 94 84s94 -36 94 -84c0 -23 -10 -45 -30 -60zM442 257
c-22 0 -38 -16 -38 -36c0 -22 16 -37 38 -37c24 0 39 16 39 37c0 20 -16 36 -39 36zM442 49c28 0 49 18 49 43c0 26 -19 45 -49 45c-27 0 -48 -19 -48 -45c0 -25 22 -43 48 -43z" />
    <glyph glyph-name="uni2151" unicode="&#x2151;" horiz-adv-x="577" 
d="M489 750h62l-478 -750h-61zM121 449v233l-71 -37v62l79 43h56v-301h-64zM444 307c64 0 111 -43 111 -102c0 -19 -5 -37 -16 -54l-93 -151h-78l68 106c-63 0 -103 46 -103 98c0 59 46 103 111 103zM443 158c28 0 49 21 49 46c0 27 -21 46 -49 46s-48 -19 -48 -46
c0 -25 20 -46 48 -46z" />
    <glyph glyph-name="uni066B" unicode="&#x66b;" horiz-adv-x="242" 
d="M87 -145h-68l78 281h95z" />
    <glyph glyph-name="uni066B" horiz-adv-x="242" 
d="M87 -145h-68l78 281h95z" />
    <glyph glyph-name="uni066C" unicode="&#x66c;" horiz-adv-x="242" 
d="M87 -145h-68l78 281h95z" />
    <glyph glyph-name="uni066C" horiz-adv-x="242" 
d="M87 -145h-68l78 281h95z" />
    <glyph glyph-name="uni0660" unicode="&#x660;" horiz-adv-x="258" 
d="M78 206v141h102v-141h-102z" />
    <glyph glyph-name="uni0660" horiz-adv-x="258" 
d="M78 206v141h102v-141h-102z" />
    <glyph glyph-name="uni0661" unicode="&#x661;" horiz-adv-x="242" 
d="M82 0v651h79v-651h-79z" />
    <glyph glyph-name="uni0661" horiz-adv-x="242" 
d="M82 0v651h79v-651h-79z" />
    <glyph glyph-name="uni0662" unicode="&#x662;" horiz-adv-x="504" 
d="M244 651h210v-93h-211c-68 0 -89 -22 -89 -58c0 -21 6 -47 14 -76l104 -414l-82 -15l-107 421c-9 37 -15 69 -15 97c0 92 53 138 176 138z" />
    <glyph glyph-name="uni0662" horiz-adv-x="504" 
d="M244 651h210v-93h-211c-68 0 -89 -22 -89 -58c0 -21 6 -47 14 -76l104 -414l-82 -15l-107 421c-9 37 -15 69 -15 97c0 92 53 138 176 138z" />
    <glyph glyph-name="uni0663" unicode="&#x663;" horiz-adv-x="656" 
d="M533 651h79v-151c0 -101 -56 -152 -146 -152c-59 0 -96 15 -117 48c-20 -37 -57 -47 -114 -47h-59l37 -349h-81l-70 651h82l22 -209h69c55 0 74 20 74 62v147h79v-150c0 -42 26 -61 75 -61c46 0 70 18 70 62v149z" />
    <glyph glyph-name="uni0663" horiz-adv-x="656" 
d="M533 651h79v-151c0 -101 -56 -152 -146 -152c-59 0 -96 15 -117 48c-20 -37 -57 -47 -114 -47h-59l37 -349h-81l-70 651h82l22 -209h69c55 0 74 20 74 62v147h79v-150c0 -42 26 -61 75 -61c46 0 70 18 70 62v149z" />
    <glyph glyph-name="uni0664" unicode="&#x664;" horiz-adv-x="528" 
d="M479 93l1 -93h-220c-140 0 -198 59 -198 178c0 87 44 125 83 146c-47 26 -69 56 -69 141c0 124 69 186 209 186h164v-92h-167c-85 0 -126 -32 -126 -94c0 -56 28 -86 84 -86h209l1 -93h-202c-72 0 -107 -32 -107 -97c0 -64 38 -96 122 -96h216z" />
    <glyph glyph-name="uni0664" horiz-adv-x="528" 
d="M479 93l1 -93h-220c-140 0 -198 59 -198 178c0 87 44 125 83 146c-47 26 -69 56 -69 141c0 124 69 186 209 186h164v-92h-167c-85 0 -126 -32 -126 -94c0 -56 28 -86 84 -86h209l1 -93h-202c-72 0 -107 -32 -107 -97c0 -64 38 -96 122 -96h216z" />
    <glyph glyph-name="uni0665" unicode="&#x665;" horiz-adv-x="597" 
d="M298 -10c-192 0 -246 110 -246 277c0 243 100 342 247 342c146 0 246 -96 246 -332c0 -173 -54 -287 -247 -287zM298 83c132 0 168 68 168 193c0 181 -72 241 -167 241c-96 0 -168 -62 -168 -245c0 -122 36 -189 167 -189z" />
    <glyph glyph-name="uni0665" horiz-adv-x="597" 
d="M298 -10c-192 0 -246 110 -246 277c0 243 100 342 247 342c146 0 246 -96 246 -332c0 -173 -54 -287 -247 -287zM298 83c132 0 168 68 168 193c0 181 -72 241 -167 241c-96 0 -168 -62 -168 -245c0 -122 36 -189 167 -189z" />
    <glyph glyph-name="uni0666" unicode="&#x666;" horiz-adv-x="474" 
d="M396 515v-515h-79v500c0 40 -21 59 -76 59h-213v92h222c103 0 146 -41 146 -136z" />
    <glyph glyph-name="uni0666" horiz-adv-x="474" 
d="M396 515v-515h-79v500c0 40 -21 59 -76 59h-213v92h222c103 0 146 -41 146 -136z" />
    <glyph glyph-name="uni0667" unicode="&#x667;" horiz-adv-x="585" 
d="M468 651h82l-193 -651h-114l-208 651h82l183 -565z" />
    <glyph glyph-name="uni0667" horiz-adv-x="585" 
d="M468 651h82l-193 -651h-114l-208 651h82l183 -565z" />
    <glyph glyph-name="uni0668" unicode="&#x668;" horiz-adv-x="585" 
d="M550 0h-82l-168 565l-183 -565h-82l208 651h114z" />
    <glyph glyph-name="uni0668" horiz-adv-x="585" 
d="M550 0h-82l-168 565l-183 -565h-82l208 651h114z" />
    <glyph glyph-name="uni0669" unicode="&#x669;" horiz-adv-x="502" 
d="M266 651c99 0 171 -29 171 -29v-622h-79v276c-28 -20 -71 -29 -125 -29c-140 0 -195 89 -195 185c0 130 90 219 228 219zM240 339c55 0 94 7 118 17v191s-40 12 -100 12c-94 0 -138 -49 -138 -118c0 -56 38 -102 120 -102z" />
    <glyph glyph-name="uni0669" horiz-adv-x="502" 
d="M266 651c99 0 171 -29 171 -29v-622h-79v276c-28 -20 -71 -29 -125 -29c-140 0 -195 89 -195 185c0 130 90 219 228 219zM240 339c55 0 94 7 118 17v191s-40 12 -100 12c-94 0 -138 -49 -138 -118c0 -56 38 -102 120 -102z" />
    <glyph glyph-name="period" unicode="." horiz-adv-x="216" 
d="M151 0h-86v136h86v-136z" />
    <glyph glyph-name="comma" unicode="," horiz-adv-x="242" 
d="M87 -145h-68l78 281h95z" />
    <glyph glyph-name="colon" unicode=":" horiz-adv-x="244" 
d="M165 374h-86v136h86v-136zM165 0h-86v136h86v-136z" />
    <glyph glyph-name="semicolon" unicode=";" horiz-adv-x="260" 
d="M185 374h-86v136h86v-136zM89 -145h-67l79 281h93z" />
    <glyph glyph-name="ellipsis" unicode="&#x2026;" horiz-adv-x="560" 
d="M151 0h-86v136h86v-136zM323 0h-86v136h86v-136zM496 0h-87v136h87v-136z" />
    <glyph glyph-name="exclam" unicode="!" horiz-adv-x="242" 
d="M152 230h-62l-21 520h104zM167 0h-91v128h91v-128z" />
    <glyph glyph-name="exclamdown" unicode="&#xa1;" horiz-adv-x="242" 
d="M167 381h-91v129h91v-129zM173 -200h-104l21 479h62z" />
    <glyph glyph-name="question" unicode="?" horiz-adv-x="549" 
d="M281 764c145 0 222 -105 222 -203c0 -90 -52 -141 -116 -194l-86 -71v-66h-90v100l129 104c39 32 69 69 69 122c0 57 -42 123 -130 123c-89 0 -137 -65 -137 -134v-13h-90v13c0 118 86 219 229 219zM211 0v128h90v-128h-90z" />
    <glyph glyph-name="questiondown" unicode="&#xbf;" horiz-adv-x="549" 
d="M339 510v-114h-91v114h91zM408 17h89v-13c0 -117 -85 -218 -228 -218c-145 0 -223 105 -223 203c0 91 50 141 116 192l86 65v48h91v-82l-129 -97c-41 -31 -69 -67 -69 -120c0 -58 42 -124 130 -124s137 65 137 133v13z" />
    <glyph glyph-name="periodcentered" unicode="&#xb7;" horiz-adv-x="216" 
d="M151 222h-86v136h86v-136z" />
    <glyph glyph-name="bullet" unicode="&#x2022;" horiz-adv-x="347" 
d="M174 200c-51 0 -91 39 -91 90c0 50 40 90 91 90c50 0 90 -40 90 -90c0 -51 -40 -90 -90 -90z" />
    <glyph glyph-name="asterisk" unicode="*" horiz-adv-x="323" 
d="M302 670l-106 -57l105 -57l-20 -34l-102 61l3 -117h-42l5 117l-102 -61l-22 36l111 55l-107 58l19 34l101 -63l-3 115h42l-4 -116l103 62z" />
    <glyph glyph-name="numbersign" unicode="#" horiz-adv-x="902" 
d="M863 505h-180l-77 -226h203v-58h-223l-75 -221h-64l75 221h-255l-75 -221h-64l75 221h-164v58h184l77 226h-205v58h224l64 187h65l-64 -187h254l64 187h65l-64 -187h160v-58zM542 279l77 226h-255l-77 -226h255z" />
    <glyph glyph-name="slash" unicode="/" horiz-adv-x="402" 
d="M103 0h-54l263 750h55z" />
    <glyph glyph-name="backslash" unicode="\" horiz-adv-x="402" 
d="M353 0h-54l-263 750h54z" />
    <glyph glyph-name="colon.case" horiz-adv-x="244" 
d="M165 459h-86v136h86v-136zM165 86h-86v135h86v-135z" />
    <glyph glyph-name="exclamdown.case" horiz-adv-x="242" 
d="M167 622h-91v128h91v-128zM173 0h-104l21 520h62z" />
    <glyph glyph-name="questiondown.case" horiz-adv-x="549" 
d="M339 750v-113h-91v113h91zM408 217h89v-13c0 -117 -85 -218 -228 -218c-145 0 -223 105 -223 204c0 90 50 140 116 191l86 65v89h91v-123l-129 -97c-41 -31 -69 -67 -69 -120c0 -58 42 -124 130 -124s137 65 137 133v13z" />
    <glyph glyph-name="periodcentered.case" horiz-adv-x="216" 
d="M151 319h-86v136h86v-136z" />
    <glyph glyph-name="parenleft" unicode="(" horiz-adv-x="280" 
d="M207 -156c-70 81 -160 248 -160 463c0 217 89 382 160 464h79c-75 -87 -162 -259 -162 -464c0 -204 88 -378 162 -463h-79z" />
    <glyph glyph-name="parenright" unicode=")" horiz-adv-x="280" 
d="M72 -156h-79c75 85 163 259 163 463c0 205 -87 377 -163 464h79c71 -82 161 -247 161 -464c0 -215 -91 -382 -161 -463z" />
    <glyph glyph-name="braceleft" unicode="{" horiz-adv-x="301" 
d="M231 -200c-76 0 -145 30 -145 135c0 78 22 157 22 231c0 45 -22 77 -61 77h-15v66h15c39 0 61 31 61 75c0 73 -22 152 -22 229c0 106 69 137 145 137h42l1 -64c-50 0 -102 -17 -102 -90c0 -76 18 -146 18 -213c0 -76 -33 -103 -70 -106v-2c37 -3 70 -30 70 -108
c0 -67 -18 -139 -18 -216c0 -70 52 -86 102 -86l-1 -65h-42z" />
    <glyph glyph-name="braceright" unicode="}" horiz-adv-x="301" 
d="M70 -200h-42l-1 65c50 0 102 16 102 86c0 77 -19 149 -19 216c0 78 34 105 71 108v2c-37 3 -71 30 -71 106c0 67 19 137 19 213c0 73 -52 90 -102 90l1 64h42c76 0 145 -31 145 -137c0 -77 -22 -156 -22 -229c0 -44 21 -75 61 -75h15v-66h-15c-40 0 -61 -32 -61 -77
c0 -74 22 -153 22 -231c0 -105 -69 -135 -145 -135z" />
    <glyph glyph-name="bracketleft" unicode="[" horiz-adv-x="265" 
d="M234 673h-82v-796h82v-77h-173v950h173v-77z" />
    <glyph glyph-name="bracketright" unicode="]" horiz-adv-x="265" 
d="M31 750h173v-950h-173v77h82v796h-82v77z" />
    <glyph glyph-name="braceleft.case" horiz-adv-x="306" 
d="M231 0c-76 0 -145 24 -145 106c0 61 22 125 22 183c0 36 -22 60 -61 60h-15v54h15c39 0 61 23 61 57c0 58 -22 121 -22 182c0 83 69 108 145 108h42l1 -63c-50 0 -102 -12 -102 -68c0 -58 18 -113 18 -163c0 -57 -33 -78 -70 -80v-1c37 -2 70 -23 70 -82
c0 -51 -18 -106 -18 -164c0 -54 52 -65 102 -65l-1 -64h-42z" />
    <glyph glyph-name="braceright.case" horiz-adv-x="306" 
d="M75 0h-42l-1 63c50 0 102 12 102 66c0 58 -19 113 -19 164c0 59 34 80 71 82v1c-37 2 -71 23 -71 80c0 50 19 105 19 163c0 56 -52 68 -102 68l1 63h42c76 0 145 -25 145 -108c0 -61 -22 -124 -22 -182c0 -34 21 -57 61 -57h15v-54h-15c-40 0 -61 -24 -61 -60
c0 -58 22 -122 22 -183c0 -82 -69 -106 -145 -106z" />
    <glyph glyph-name="bracketleft.case" horiz-adv-x="276" 
d="M238 673h-82v-596h82v-77h-172v750h172v-77z" />
    <glyph glyph-name="bracketright.case" horiz-adv-x="276" 
d="M38 750h173v-750h-173v77h82v596h-82v77z" />
    <glyph glyph-name="hyphen" unicode="-" horiz-adv-x="452" 
d="M384 243h-316v65h316v-65z" />
    <glyph glyph-name="endash" unicode="&#x2013;" horiz-adv-x="723" 
d="M105 243v65h513v-65h-513z" />
    <glyph glyph-name="emdash" unicode="&#x2014;" horiz-adv-x="1298" 
d="M253 243v65h792v-65h-792z" />
    <glyph glyph-name="underscore" unicode="_" horiz-adv-x="526" 
d="M72 -65v65h382v-65h-382z" />
    <glyph glyph-name="hyphen.case" horiz-adv-x="452" 
d="M384 362h-316v65h316v-65z" />
    <glyph glyph-name="endash.case" horiz-adv-x="723" 
d="M105 362v65h513v-65h-513z" />
    <glyph glyph-name="emdash.case" horiz-adv-x="1259" 
d="M253 362v65h792v-65h-792z" />
    <glyph glyph-name="quotesinglbase" unicode="&#x201a;" horiz-adv-x="242" 
d="M87 -145h-68l78 281h95z" />
    <glyph glyph-name="quotedblbase" unicode="&#x201e;" horiz-adv-x="407" 
d="M87 -145h-68l78 281h95zM253 -145h-69l78 281h96z" />
    <glyph glyph-name="quotedblleft" unicode="&#x201c;" horiz-adv-x="407" 
d="M19 469l104 281h69l-77 -281h-96zM184 469l105 281h69l-79 -281h-95z" />
    <glyph glyph-name="quotedblright" unicode="&#x201d;" horiz-adv-x="407" 
d="M87 469h-68l78 281h95zM253 469h-69l78 281h96z" />
    <glyph glyph-name="quoteleft" unicode="&#x2018;" horiz-adv-x="242" 
d="M19 469l104 281h69l-77 -281h-96z" />
    <glyph glyph-name="quoteright" unicode="&#x2019;" horiz-adv-x="242" 
d="M87 469h-68l78 281h95z" />
    <glyph glyph-name="guillemotleft" unicode="&#xab;" horiz-adv-x="495" 
d="M194 42l-168 200v7l168 200h96l-170 -203l170 -204h-96zM369 42l-168 200v7l168 200h97l-170 -203l170 -204h-97z" />
    <glyph glyph-name="guillemotright" unicode="&#xbb;" horiz-adv-x="495" 
d="M126 42h-97l171 204l-171 203h97l168 -200v-7zM302 42h-97l171 204l-171 203h97l168 -200v-7z" />
    <glyph glyph-name="guilsinglleft" unicode="&#x2039;" horiz-adv-x="319" 
d="M194 42l-168 200v7l168 200h96l-170 -203l170 -204h-96z" />
    <glyph glyph-name="guilsinglright" unicode="&#x203a;" horiz-adv-x="319" 
d="M126 42h-97l171 204l-171 203h97l168 -200v-7z" />
    <glyph glyph-name="quotedbl" unicode="&#x22;" horiz-adv-x="379" 
d="M139 469h-59l-13 281h86zM299 469h-60l-13 281h86z" />
    <glyph glyph-name="quotesingle" unicode="'" horiz-adv-x="220" 
d="M140 469h-60l-13 281h87z" />
    <glyph glyph-name="guillemotleft.case" horiz-adv-x="517" 
d="M194 154l-168 200v7l168 200h96l-170 -203l170 -204h-96zM391 154l-168 200v7l168 200h97l-170 -203l170 -204h-97z" />
    <glyph glyph-name="guillemotright.case" horiz-adv-x="514" 
d="M126 154h-97l171 204l-171 203h97l168 -200v-7zM321 154h-97l171 204l-171 203h97l168 -200v-7z" />
    <glyph glyph-name="guilsinglleft.case" horiz-adv-x="319" 
d="M194 154l-168 200v7l168 200h96l-170 -203l170 -204h-96z" />
    <glyph glyph-name="guilsinglright.case" horiz-adv-x="319" 
d="M126 154h-97l171 204l-171 203h97l168 -200v-7z" />
    <glyph glyph-name="hyphen.subs" horiz-adv-x="286" 
d="M237 63h-187v44h187v-44z" />
    <glyph glyph-name="parenleft.subs" horiz-adv-x="196" 
d="M138 -174c-42 47 -96 146 -96 276s54 228 96 277h52c-44 -52 -95 -155 -95 -277s51 -225 95 -276h-52z" />
    <glyph glyph-name="parenright.subs" horiz-adv-x="196" 
d="M59 -174h-53c43 51 96 154 96 276s-52 225 -96 277h53c43 -49 96 -147 96 -277s-54 -229 -96 -276z" />
    <glyph glyph-name="period.subs" horiz-adv-x="155" 
d="M108 -75h-61v84h61v-84z" />
    <glyph glyph-name="comma.subs" horiz-adv-x="172" 
d="M70 -158h-49l45 167h68z" />
    <glyph glyph-name="hyphen.sups" horiz-adv-x="286" 
d="M237 587h-187v45h187v-45z" />
    <glyph glyph-name="parenleft.sups" horiz-adv-x="196" 
d="M138 350c-42 48 -96 147 -96 276c0 131 54 229 96 277h52c-44 -52 -95 -154 -95 -277c0 -122 51 -224 95 -276h-52z" />
    <glyph glyph-name="parenright.sups" horiz-adv-x="196" 
d="M59 350h-53c43 52 96 154 96 276c0 123 -52 225 -96 277h53c43 -48 96 -146 96 -277c0 -129 -54 -228 -96 -276z" />
    <glyph glyph-name="period.sups" horiz-adv-x="155" 
d="M108 450h-61v84h61v-84z" />
    <glyph glyph-name="comma.sups" horiz-adv-x="172" 
d="M70 367h-49l45 167h68z" />
    <glyph glyph-name="uni060C" unicode="&#x60c;" horiz-adv-x="265" 
d="M139 267h68l-78 -281h-95z" />
    <glyph glyph-name="uni060C" horiz-adv-x="265" 
d="M139 267h68l-78 -281h-95z" />
    <glyph glyph-name="uni061B" unicode="&#x61b;" horiz-adv-x="265" 
d="M146 546h67l-78 -281h-93zM51 123h85v-136h-85v136z" />
    <glyph glyph-name="uni061B" horiz-adv-x="265" 
d="M146 546h67l-78 -281h-93zM51 123h85v-136h-85v136z" />
    <glyph glyph-name="uni061F" unicode="&#x61f;" horiz-adv-x="537" 
d="M261 764c142 0 228 -101 228 -219v-13h-88v13c0 69 -48 133 -138 133c-89 0 -131 -65 -131 -122c0 -53 30 -90 70 -122l128 -104v-100h-88v65l-87 72c-65 53 -117 104 -117 194c0 98 78 203 223 203zM242 0v128h88v-128h-88z" />
    <glyph glyph-name="uni061F" horiz-adv-x="537" 
d="M261 764c142 0 228 -101 228 -219v-13h-88v13c0 69 -48 133 -138 133c-89 0 -131 -65 -131 -122c0 -53 30 -90 70 -122l128 -104v-100h-88v65l-87 72c-65 53 -117 104 -117 194c0 98 78 203 223 203zM242 0v128h88v-128h-88z" />
    <glyph glyph-name="uni066D" unicode="&#x66d;" horiz-adv-x="600" 
d="M302 670l-106 -57l105 -57l-20 -34l-102 61l3 -117h-42l5 117l-102 -61l-22 36l111 55l-107 58l19 34l101 -63l-3 115h42l-4 -116l103 62z" />
    <glyph glyph-name="uni066D" horiz-adv-x="600" 
d="M302 670l-106 -57l105 -57l-20 -34l-102 61l3 -117h-42l5 117l-102 -61l-22 36l111 55l-107 58l19 34l101 -63l-3 115h42l-4 -116l103 62z" />
    <glyph glyph-name="uniFD3E" unicode="&#xfd3e;" horiz-adv-x="280" 
d="M207 -156c-70 81 -160 248 -160 463c0 217 89 382 160 464h79c-75 -87 -162 -259 -162 -464c0 -204 88 -378 162 -463h-79z" />
    <glyph glyph-name="uniFD3F" unicode="&#xfd3f;" horiz-adv-x="280" 
d="M72 -156h-79c75 85 163 259 163 463c0 205 -87 377 -163 464h79c71 -82 161 -247 161 -464c0 -215 -91 -382 -161 -463z" />
    <glyph glyph-name="Euro" unicode="&#x20ac;" horiz-adv-x="561" 
d="M413 764c46 0 84 -8 119 -25v-93c-33 20 -72 28 -117 28c-126 0 -219 -78 -236 -216h272v-50h-451v50h82c18 187 153 306 331 306zM179 293c16 -139 110 -218 236 -218c45 0 84 9 117 29v-94c-35 -17 -73 -24 -119 -24c-179 0 -314 119 -331 307h-82v49h451v-49h-272z
    <glyph glyph-name="cent" unicode="&#xa2;" horiz-adv-x="594" 
d="M312 68c72 0 119 34 146 97h92c-28 -105 -106 -168 -210 -178v-101h-54v101c-142 12 -236 121 -236 268c0 146 94 255 236 267v101h54v-101c104 -10 181 -73 210 -181h-91c-28 64 -75 100 -147 100c-104 0 -170 -75 -170 -186c0 -112 66 -187 170 -187z" />
    <glyph glyph-name="currency" unicode="&#xa4;" horiz-adv-x="598" 
d="M525 114l-44 -44l-68 68c-34 -26 -75 -39 -115 -39s-80 13 -114 38l-67 -66l-44 43l68 67c-25 34 -38 74 -38 113c0 41 13 80 40 115l-68 68l44 43l67 -67c35 25 76 38 115 38s78 -12 112 -37l67 67l44 -44l-67 -66c25 -34 38 -74 38 -114s-12 -81 -37 -115zM297 161
c34 0 68 13 96 41c27 27 41 61 41 96s-13 68 -39 93c-27 26 -59 38 -91 38c-36 0 -70 -13 -98 -40s-41 -63 -41 -97c0 -33 13 -66 39 -92s59 -39 93 -39z" />
    <glyph glyph-name="dollar" unicode="$" horiz-adv-x="655" 
d="M617 211c0 -129 -96 -216 -248 -224v-97h-54v97c-169 10 -270 110 -274 272h98c3 -118 80 -189 208 -189c105 0 175 54 175 135c0 89 -56 128 -200 138c-175 13 -256 79 -256 208c0 124 95 207 240 213v96h53v-97c147 -13 235 -99 243 -240h-98c-8 102 -72 158 -181 158
c-98 0 -162 -49 -162 -124c0 -87 53 -123 196 -133c178 -12 260 -79 260 -213z" />
    <glyph glyph-name="florin" unicode="&#x192;" horiz-adv-x="332" 
d="M51 -200h-54v74h49c39 0 67 20 67 68v493h-101v75h101v101c0 87 53 139 153 139h54v-74h-49c-39 0 -67 -20 -67 -68v-98h116v-75h-116v-496c0 -87 -53 -139 -153 -139z" />
    <glyph glyph-name="sterling" unicode="&#xa3;" horiz-adv-x="456" 
d="M169 81h251v-81h-398v81h52v269h-50v77h50v114c0 138 75 209 208 209h94v-82h-79c-86 0 -128 -46 -128 -137v-104h138v-77h-138v-269z" />
    <glyph glyph-name="yen" unicode="&#xa5;" horiz-adv-x="636" 
d="M610 750l-220 -449h136v-49h-160v-70h160v-49h-160v-133h-95v133h-160v49h160v70h-160v49h137l-220 449h99l190 -400h3l191 400h99z" />
    <glyph glyph-name="plus" unicode="+" horiz-adv-x="610" 
d="M496 399v-65h-158v-159h-65v159h-159v65h159v159h65v-159h158z" />
    <glyph glyph-name="minus" unicode="&#x2212;" horiz-adv-x="610" 
d="M114 334v65h382v-65h-382z" />
    <glyph glyph-name="multiply" unicode="&#xd7;" horiz-adv-x="609" 
d="M463 479l-112 -112l112 -112l-46 -46l-112 112l-113 -113l-45 47l112 112l-112 112l45 47l113 -113l112 112z" />
    <glyph glyph-name="divide" unicode="&#xf7;" horiz-adv-x="610" 
d="M348 476h-85v136h85v-136zM114 335v62h382v-62h-382zM348 121h-85v136h85v-136z" />
    <glyph glyph-name="equal" unicode="=" horiz-adv-x="610" 
d="M114 417v64h382v-64h-382zM114 245v63h382v-63h-382z" />
    <glyph glyph-name="notequal" unicode="&#x2260;" horiz-adv-x="610" 
d="M496 417h-147l-23 -109h170v-60h-182l-26 -124h-64l26 124h-136v60h148l23 109h-171v61h183l26 123h64l-26 -123h135v-61z" />
    <glyph glyph-name="greater" unicode="&#x3e;" horiz-adv-x="609" 
d="M86 563l437 -168v-63l-437 -169v70l347 132l-347 131v67z" />
    <glyph glyph-name="less" unicode="&#x3c;" horiz-adv-x="609" 
d="M523 563v-67l-347 -131l347 -132v-70l-437 169v63z" />
    <glyph glyph-name="greaterequal" unicode="&#x2265;" horiz-adv-x="609" 
d="M86 620l437 -164v-65l-437 -164v70l352 128l-352 128v67zM86 97v68l437 162v-66z" />
    <glyph glyph-name="lessequal" unicode="&#x2264;" horiz-adv-x="609" 
d="M523 620v-67l-352 -128l352 -128v-70l-437 164v65zM86 261v66l437 -162v-68z" />
    <glyph glyph-name="plusminus" unicode="&#xb1;" horiz-adv-x="610" 
d="M337 489h150v-60h-150v-151h-63v151h-152v60h152v154h63v-154zM122 164v61h365v-61h-365z" />
    <glyph glyph-name="approxequal" unicode="&#x2248;" horiz-adv-x="479" 
d="M429 518c0 -93 -40 -136 -108 -136c-72 0 -108 80 -156 80c-35 0 -47 -30 -47 -66h-68c0 85 34 136 108 136c71 0 105 -80 156 -80c35 0 47 30 47 66h68zM429 346c0 -94 -40 -137 -108 -137c-72 0 -108 81 -156 81c-35 0 -47 -30 -47 -67h-68c0 86 34 137 108 137
c71 0 105 -80 156 -80c35 0 47 30 47 66h68z" />
    <glyph glyph-name="asciitilde" unicode="~" horiz-adv-x="479" 
d="M429 423c0 -94 -40 -137 -108 -137c-72 0 -108 80 -156 80c-35 0 -47 -30 -47 -66h-68c0 86 34 136 108 136c71 0 105 -80 156 -80c35 0 47 30 47 67h68z" />
    <glyph glyph-name="asciicircum" unicode="^" horiz-adv-x="479" 
d="M429 245h-82l-108 275l-109 -275h-80l152 372h75z" />
    <glyph glyph-name="infinity" unicode="&#x221e;" horiz-adv-x="808" 
d="M615 520c102 0 172 -71 172 -160c0 -92 -69 -160 -170 -160c-63 0 -119 37 -154 71l-49 50l-50 -50c-35 -34 -91 -71 -153 -71c-102 0 -170 68 -170 160c0 90 71 160 172 160c69 0 119 -35 151 -69l50 -52l49 52c33 34 83 69 152 69zM326 319l40 41l-40 43
c-21 23 -61 56 -109 56c-64 0 -106 -45 -106 -99c0 -55 42 -97 104 -97c46 0 87 31 111 56zM612 263c63 0 105 42 105 97c0 54 -42 99 -106 99c-48 0 -89 -33 -110 -56l-40 -43l40 -41c26 -26 65 -56 111 -56z" />
    <glyph glyph-name="percent" unicode="%" horiz-adv-x="697" 
d="M168 482c-83 0 -144 60 -144 141c0 79 61 141 144 141c84 0 145 -62 145 -141c0 -81 -61 -141 -145 -141zM63 0l497 750h76l-497 -750h-76zM168 537c49 0 85 37 85 86c0 48 -36 84 -85 84s-85 -36 -85 -84c0 -49 36 -86 85 -86zM529 -14c-83 0 -144 60 -144 141
c0 79 61 141 144 141c84 0 144 -62 144 -141c0 -81 -60 -141 -144 -141zM529 41c49 0 85 37 85 86c0 48 -36 85 -85 85s-85 -37 -85 -85c0 -49 36 -86 85 -86z" />
    <glyph glyph-name="perthousand" unicode="&#x2030;" horiz-adv-x="824" 
d="M247 554c0 -63 -47 -110 -112 -110c-63 0 -111 47 -111 110v92c0 62 48 110 111 110c66 0 112 -48 112 -110v-92zM176 0h-55l263 750h55zM83 552c0 -32 23 -54 52 -54c31 0 53 22 53 54v95c0 32 -22 55 -53 55c-29 0 -52 -23 -52 -55v-95zM536 103
c0 -63 -46 -109 -112 -109c-64 0 -111 46 -111 109v93c0 62 47 110 111 110c66 0 112 -48 112 -110v-93zM801 103c0 -63 -47 -109 -112 -109c-64 0 -112 46 -112 109v93c0 62 48 110 112 110c66 0 112 -48 112 -110v-93zM373 102c0 -32 22 -54 51 -54c31 0 53 22 53 54v95
c0 31 -22 55 -53 55c-29 0 -51 -24 -51 -55v-95zM636 102c0 -32 23 -54 53 -54c31 0 52 22 52 54v95c0 31 -21 55 -52 55c-30 0 -53 -24 -53 -55v-95z" />
    <glyph glyph-name="uni22A0" unicode="&#x22a0;" horiz-adv-x="863" 
d="M803 0h-743v750h743v-750zM133 681v-612h598v612h-598zM580 260l-43 -43l-109 109l-110 -110l-42 44l109 109l-109 109l42 43l110 -109l109 108l43 -42l-109 -109z" />
    <glyph glyph-name="arrowup" unicode="&#x2191;" horiz-adv-x="524" 
d="M489 339v-95l-192 156v-400h-70v400l-191 -156v95l224 184h3z" />
    <glyph glyph-name="uni2197" unicode="&#x2197;" horiz-adv-x="601" 
d="M568 510l3 -4v-301h-74v182l-388 -387h-99l440 440h-187v70h305z" />
    <glyph glyph-name="arrowright" unicode="&#x2192;" horiz-adv-x="670" 
d="M426 483l183 -224v-4l-183 -226h-96l157 193h-426v69h426l-157 192h96z" />
    <glyph glyph-name="uni2198" unicode="&#x2198;" horiz-adv-x="601" 
d="M497 304h74v-301l-3 -3h-305v69h188l-441 441h99l388 -388v182z" />
    <glyph glyph-name="arrowdown" unicode="&#x2193;" horiz-adv-x="524" 
d="M297 109l192 156v-95l-226 -184h-3l-224 184v95l191 -156v401h70v-401z" />
    <glyph glyph-name="uni2199" unicode="&#x2199;" horiz-adv-x="601" 
d="M591 510l-440 -441h187v-69h-305l-3 3v301h74v-182l387 388h100z" />
    <glyph glyph-name="arrowleft" unicode="&#x2190;" horiz-adv-x="670" 
d="M609 291v-69h-426l157 -193h-95l-184 226v4l184 224h95l-157 -192h426z" />
    <glyph glyph-name="uni2196" unicode="&#x2196;" horiz-adv-x="601" 
d="M591 0h-100l-387 387v-182h-74v301l3 4h305v-70h-186z" />
    <glyph glyph-name="arrowboth" unicode="&#x2194;" horiz-adv-x="901" 
d="M656 483l184 -224v-4l-184 -226h-95l157 193h-535l157 -193h-95l-184 226v4l184 224h95l-157 -192h535l-157 192h95z" />
    <glyph glyph-name="arrowupdn" unicode="&#x2195;" horiz-adv-x="529" 
d="M488 315l-185 102v-326l185 103v-85l-223 -123h-3l-221 124v84l185 -103v326l-185 -102v85l221 123h3l223 -123v-85z" />
    <glyph glyph-name="arrowup.case" horiz-adv-x="524" 
d="M489 580v-95l-192 156v-641h-70v640l-191 -155v95l224 184h3z" />
    <glyph glyph-name="uni2197.case" horiz-adv-x="841" 
d="M808 750l3 -3v-301h-74v182l-628 -628h-99l680 681h-187v69h305z" />
    <glyph glyph-name="arrowright.case" horiz-adv-x="670" 
d="M426 611l183 -224v-3l-183 -227h-96l157 193h-426v69h426l-157 192h96z" />
    <glyph glyph-name="uni2198.case" horiz-adv-x="841" 
d="M737 304h74v-301l-3 -3h-305v69h187l-680 681h99l628 -628v182z" />
    <glyph glyph-name="arrowdown.case" horiz-adv-x="524" 
d="M297 109l192 156v-95l-226 -184h-3l-224 184v95l191 -156v641h70v-641z" />
    <glyph glyph-name="uni2199.case" horiz-adv-x="841" 
d="M831 750l-680 -681h187v-69h-305l-3 3v301h74v-182l628 628h99z" />
    <glyph glyph-name="arrowleft.case" horiz-adv-x="670" 
d="M609 419v-69h-426l157 -193h-95l-184 227v3l184 224h95l-157 -192h426z" />
    <glyph glyph-name="uni2196.case" horiz-adv-x="841" 
d="M831 0h-99l-628 628v-182h-74v301l3 3h305v-69h-187z" />
    </font>
</svg>
